<?xml version="1.0" encoding="UTF-8" standalone="no"?>
<!-- Created with Inkscape (http://www.inkscape.org/) -->

<svg
   xmlns:dc="http://purl.org/dc/elements/1.1/"
   xmlns:cc="http://creativecommons.org/ns#"
   xmlns:rdf="http://www.w3.org/1999/02/22-rdf-syntax-ns#"
   xmlns:svg="http://www.w3.org/2000/svg"
   xmlns="http://www.w3.org/2000/svg"
   xmlns:xlink="http://www.w3.org/1999/xlink"
   xmlns:sodipodi="http://sodipodi.sourceforge.net/DTD/sodipodi-0.dtd"
   xmlns:inkscape="http://www.inkscape.org/namespaces/inkscape"
   width="150"
   height="200"
   viewBox="0 0 39.687498 52.916667"
   version="1.1"
   id="svg8"
   sodipodi:docname="back_wiz_hat.svg"
   inkscape:version="0.92.2 5c3e80d, 2017-08-06">
  <defs
     id="defs2">
    <linearGradient
       id="linearGradient956"
       inkscape:collect="always">
      <stop
         id="stop952"
         offset="0"
         style="stop-color:#e6e6e6;stop-opacity:1" />
      <stop
         id="stop954"
         offset="1"
         style="stop-color:#4a8b2b;stop-opacity:1" />
    </linearGradient>
    <linearGradient
       inkscape:collect="always"
       id="linearGradient856">
      <stop
         style="stop-color:#e6e6e6;stop-opacity:1"
         offset="0"
         id="stop852" />
      <stop
         style="stop-color:#808080;stop-opacity:1"
         offset="1"
         id="stop854" />
    </linearGradient>
    <radialGradient
       inkscape:collect="always"
       xlink:href="#linearGradient856"
       id="radialGradient860"
       cx="-68.657082"
       cy="-54.407608"
       fx="-68.657082"
       fy="-54.407608"
       r="36.687176"
       gradientTransform="matrix(-0.62209462,0.97387414,-0.94563201,-0.60404541,-162.81786,-22.165811)"
       gradientUnits="userSpaceOnUse" />
    <radialGradient
       inkscape:collect="always"
       xlink:href="#linearGradient956"
       id="radialGradient882"
       gradientUnits="userSpaceOnUse"
       gradientTransform="matrix(0.62978007,0.91495593,0.9573145,-0.56750139,182.00732,164.09944)"
       cx="-94.38401"
       cy="-55.93211"
       fx="-94.38401"
       fy="-55.93211"
       r="36.687176" />
  </defs>
  <sodipodi:namedview
     id="base"
     pagecolor="#ffffff"
     bordercolor="#666666"
     borderopacity="1.0"
     inkscape:pageopacity="0.0"
     inkscape:pageshadow="2"
     inkscape:zoom="2.1695175"
     inkscape:cx="113.47272"
     inkscape:cy="112.56282"
     inkscape:document-units="mm"
     inkscape:current-layer="g4578"
     showgrid="false"
     units="px"
     inkscape:window-width="1680"
     inkscape:window-height="925"
     inkscape:window-x="48"
     inkscape:window-y="11"
     inkscape:window-maximized="0"
     fit-margin-top="0"
     fit-margin-left="0"
     fit-margin-right="0"
     fit-margin-bottom="0"
     inkscape:snap-global="false" />
  <metadata
     id="metadata5">
    <rdf:RDF>
      <cc:Work
         rdf:about="">
        <dc:format>image/svg+xml</dc:format>
        <dc:type
           rdf:resource="http://purl.org/dc/dcmitype/StillImage" />
        <dc:title></dc:title>
      </cc:Work>
    </rdf:RDF>
  </metadata>
  <g
     inkscape:label="Layer 1"
     inkscape:groupmode="layer"
     id="layer1"
     transform="translate(-54.198774,-186.91266)">
    <g
       id="g4578"
       transform="matrix(0.25548634,0,0,0.25548634,51.782645,166.50629)">
      <path
         style="fill:url(#radialGradient882);fill-opacity:1;stroke:#000000;stroke-width:1.99723506;stroke-linecap:butt;stroke-linejoin:miter;stroke-miterlimit:4;stroke-dasharray:none;stroke-opacity:1"
         d="m 129.63468,168.5976 c 5.7297,24.39909 -126.0354315,-1.4669 -83.150911,-22.56368 29.32525,-8.27347 35.911096,-28.98733 53.850041,-43.26742 2.60422,-3.300534 9.87433,-4.005954 9.60397,1.37764 -1.65657,38.54394 6.08389,41.54578 19.6969,64.45346 z"
         id="path848"
         inkscape:connector-curvature="0"
         sodipodi:nodetypes="ccccc" />
      <path
         style="opacity:0.2;fill:#000000;stroke:#000000;stroke-width:1.00997293px;stroke-linecap:butt;stroke-linejoin:miter;stroke-opacity:1"
         d="m 106.44085,106.50616 c 3.15384,5.01677 0.18871,28.92952 4.41657,32.99162 3.71341,11.15916 15.76167,19.98361 16.79101,31.30284 0.33083,3.81687 0.0193,3.41907 -2.92618,2.76562 1.89459,4.36044 -4.771,1.98714 -6.76058,1.56251 -8.61539,-3.53825 -64.533121,-4.44731 -70.078191,-15.50683 21.61133,-13.25743 48.294405,-31.93077 58.557371,-53.11576 z"
         id="path862"
         inkscape:connector-curvature="0"
         sodipodi:nodetypes="ccccccc" />
      <path
         style="fill:#a86531;fill-opacity:1;stroke:#000000;stroke-width:1.03560662px;stroke-linecap:butt;stroke-linejoin:miter;stroke-opacity:1"
         d="m 119.12989,149.60544 2.70027,3.20657 1.43452,2.19397 -5.82246,2.5315 -8.94463,-0.0844 -18.72317,-2.42664 -12.741883,-3.45972 -12.242618,-6.37921 -6.83505,-3.12218 -0.33753,-1.60329 2.78465,-2.61588 2.10958,-1.35013 5.40054,3.45971 15.786711,6.63236 11.813671,3.20657 17.119879,-0.0205 5.90684,0.16877 z"
         id="path970"
         inkscape:connector-curvature="0"
         sodipodi:nodetypes="cccccccccccccccccc" />
      <path
         style="opacity:0.2;fill:#000000;stroke:#000000;stroke-width:1.03560662px;stroke-linecap:butt;stroke-linejoin:miter;stroke-opacity:1"
         d="m 120.06067,152.24897 c 0.60821,2.21174 -6.94361,3.9374 -8.83566,4.10621 -5.27411,0.75083 -10.46594,-0.88458 -15.646969,-1.62003 -8.636952,-1.49666 -17.354097,-3.14828 -25.428522,-6.68118 -2.12752,-0.64967 -4.30992,-1.50896 -6.02708,-2.94096 1.28295,-0.31427 2.95388,0.69167 4.38292,0.88356 9.460348,2.48636 18.948386,5.13286 28.727945,5.99399 5.808476,0.79736 16.991486,1.34424 22.827366,0.25841 z"
         id="path976"
         inkscape:connector-curvature="0"
         sodipodi:nodetypes="cccccccc" />
      <path
         style="fill:#f9f9f9;stroke:#000000;stroke-width:0.63516462px;stroke-linecap:butt;stroke-linejoin:miter;stroke-opacity:1"
         d="m 64.697629,139.08406 c 2.02813,-1.53392 4.51261,-2.72869 5.67423,-5.12797 1.2117,-1.99309 2.73849,-3.82728 3.723453,-5.93739 -0.0707,-2.54506 -0.1414,-5.09012 -0.212093,-7.63518 -2.02724,1.63486 -4.88806,2.29799 -6.31867,4.61311 -1.26589,2.45444 -2.43575,4.9574 -3.67204,7.42696 0.26416,2.06957 -0.52766,4.20451 0.17083,6.22843 0.0914,0.26795 0.3655,0.4197 0.63429,0.43204 z"
         id="path972"
         inkscape:connector-curvature="0" />
      <path
         style="fill:none;stroke:#000000;stroke-width:0.63516462px;stroke-linecap:butt;stroke-linejoin:miter;stroke-opacity:1"
         d="m 72.199799,123.93333 -7.86813,14.67498"
         id="path974"
         inkscape:connector-curvature="0" />
    </g>
  </g>
</svg>
