<?xml version="1.0" encoding="UTF-8" standalone="no"?>
<!-- Created with Inkscape (http://www.inkscape.org/) -->

<svg
   xmlns:dc="http://purl.org/dc/elements/1.1/"
   xmlns:cc="http://creativecommons.org/ns#"
   xmlns:rdf="http://www.w3.org/1999/02/22-rdf-syntax-ns#"
   xmlns:svg="http://www.w3.org/2000/svg"
   xmlns="http://www.w3.org/2000/svg"
   xmlns:xlink="http://www.w3.org/1999/xlink"
   xmlns:sodipodi="http://sodipodi.sourceforge.net/DTD/sodipodi-0.dtd"
   xmlns:inkscape="http://www.inkscape.org/namespaces/inkscape"
   width="150"
   height="150"
   viewBox="0 0 39.687498 39.6875"
   version="1.1"
   id="svg8"
   sodipodi:docname="back_iron_helm.svg"
   inkscape:version="0.92.2 5c3e80d, 2017-08-06">
  <defs
     id="defs2">
    <linearGradient
       inkscape:collect="always"
       id="linearGradient832">
      <stop
         style="stop-color:#cccccc;stop-opacity:1;"
         offset="0"
         id="stop828" />
      <stop
         style="stop-color:#999999;stop-opacity:1"
         offset="1"
         id="stop830" />
    </linearGradient>
    <linearGradient
       inkscape:collect="always"
       id="linearGradient824">
      <stop
         style="stop-color:#cccccc;stop-opacity:1;"
         offset="0"
         id="stop820" />
      <stop
         style="stop-color:#999999;stop-opacity:1"
         offset="1"
         id="stop822" />
    </linearGradient>
    <radialGradient
       inkscape:collect="always"
       xlink:href="#linearGradient824"
       id="radialGradient826"
       cx="70.679459"
       cy="164.33609"
       fx="70.679459"
       fy="164.33609"
       r="41.226751"
       gradientTransform="matrix(0.3056687,1.6369781,-1.5846101,0.29585157,309.4836,5.6257098)"
       gradientUnits="userSpaceOnUse" />
    <linearGradient
       inkscape:collect="always"
       xlink:href="#linearGradient832"
       id="linearGradient834"
       x1="86.124641"
       y1="232.09843"
       x2="84.44986"
       y2="245.1245"
       gradientUnits="userSpaceOnUse" />
  </defs>
  <sodipodi:namedview
     id="base"
     pagecolor="#ffffff"
     bordercolor="#666666"
     borderopacity="1.0"
     inkscape:pageopacity="0.0"
     inkscape:pageshadow="2"
     inkscape:zoom="3.9351818"
     inkscape:cx="72.722647"
     inkscape:cy="95.490395"
     inkscape:document-units="mm"
     inkscape:current-layer="g4578"
     showgrid="false"
     units="px"
     inkscape:window-width="1680"
     inkscape:window-height="925"
     inkscape:window-x="11"
     inkscape:window-y="22"
     inkscape:window-maximized="0"
     fit-margin-top="0"
     fit-margin-left="0"
     fit-margin-right="0"
     fit-margin-bottom="0"
     inkscape:snap-global="false" />
  <metadata
     id="metadata5">
    <rdf:RDF>
      <cc:Work
         rdf:about="">
        <dc:format>image/svg+xml</dc:format>
        <dc:type
           rdf:resource="http://purl.org/dc/dcmitype/StillImage" />
        <dc:title />
      </cc:Work>
    </rdf:RDF>
  </metadata>
  <g
     inkscape:label="Layer 1"
     inkscape:groupmode="layer"
     id="layer1"
     transform="translate(-54.198774,-200.14183)">
    <g
       id="g4578"
       transform="matrix(0.25548634,0,0,0.25548634,51.782645,166.50629)">
      <path
         style="fill:url(#radialGradient826);fill-opacity:1;stroke:#000000;stroke-width:0.98765641px;stroke-linecap:butt;stroke-linejoin:miter;stroke-opacity:1"
         d="m 52.970099,166.25018 -4.137935,12.41378 -4.89028,16.17555 1.316619,11.28526 2.821317,9.78055 3.385581,8.46395 67.523469,1.12852 c 20.63108,-58.397 -29.162753,-76.76985 -66.018771,-59.24761 z"
         id="path860"
         inkscape:connector-curvature="0"
         sodipodi:nodetypes="cccccccc" />
      <path
         style="opacity:0.6;fill:#ffffff;stroke:none;stroke-width:0.98765641px;stroke-linecap:butt;stroke-linejoin:miter;stroke-opacity:1"
         d="m 110.58762,173.08248 -2.00104,1.8697 -16.004474,-6.70317 -5.422386,0.3461 5.696338,-2.49375 18.062392,6.38915 z"
         id="path1644"
         inkscape:connector-curvature="0" />
      <path
         style="fill:url(#linearGradient834);fill-opacity:1;stroke:#000000;stroke-width:0.98765641px;stroke-linecap:butt;stroke-linejoin:miter;stroke-opacity:1"
         d="m 119.01889,220.3714 c 4.3868,2.2957 6.09506,5.93066 7.55353,9.69053 -33.259151,17.22888 -64.306772,10.11915 -84.203267,-0.76835 6.168723,-3.57844 8.482933,-3.59052 8.309873,-9.12027 24.60243,5.2857 43.778677,6.33839 68.339864,0.19809 z"
         id="path858"
         inkscape:connector-curvature="0"
         sodipodi:nodetypes="ccccc" />
      <path
         style="fill:#cccccc;stroke:#000000;stroke-width:0.98765641px;stroke-linecap:butt;stroke-linejoin:miter;stroke-opacity:1"
         d="m 43.18954,194.46333 c -5.759284,-12.7903 -3.055844,-14.95542 4.896275,-31.05848 5.217731,-2.55046 9.193191,-1.10352 10.15074,1.15254 -4.94691,7.48123 -13.260268,11.91662 -8.463949,28.21315 z"
         id="path866"
         inkscape:connector-curvature="0"
         sodipodi:nodetypes="ccccc" />
      <path
         style="fill:#999999;stroke:#000000;stroke-width:0.98765641px;stroke-linecap:butt;stroke-linejoin:miter;stroke-opacity:1"
         d="m 43.18954,194.65142 c 5.192994,-9.90964 11.857004,-1.80605 12.978052,9.40438 v 6.77116 c -7.810922,10.26571 -12.056829,0.31706 -14.482759,-7.14733 l 0.940452,-6.95925 z"
         id="path862"
         inkscape:connector-curvature="0"
         sodipodi:nodetypes="cccccc" />
      <path
         style="fill:none;stroke:#000000;stroke-width:0.98765641px;stroke-linecap:butt;stroke-linejoin:miter;stroke-opacity:1"
         d="m 50.901127,202.5511 v 5.07836 c -7.058193,3.87669 -6.616791,-4.8678 -6.583066,-9.0282 3.526192,-7.91657 5.365682,-1.055 6.583066,3.94984 z"
         id="path864"
         inkscape:connector-curvature="0"
         sodipodi:nodetypes="cccc" />
      <path
         style="opacity:0.2;fill:#000000;stroke:#000000;stroke-width:1.03560662px;stroke-linecap:butt;stroke-linejoin:miter;stroke-opacity:1"
         d="m 52.616226,217.78129 c 2.919358,2.83586 -2.986805,8.35592 1.600248,9.83588 7.510598,1.71718 14.99248,3.79381 22.751077,4.10869 13.169083,0.87468 26.412719,-0.88272 39.137929,-4.25813 6.28505,-4.26322 4.89383,-12.68218 6.79019,-19.10806 2.78274,-9.82235 -0.21648,-20.24671 -4.99815,-28.93291 -4.85036,-0.92922 -4.70866,7.01529 -7.78963,9.55549 -6.04058,8.15355 -15.480273,12.55683 -23.51248,18.39882 -7.009166,4.54923 -14.271057,8.74981 -21.836293,12.3041 -4.135455,0.95939 -8.291059,-0.5133 -12.142891,-1.90388 z"
         id="path827"
         inkscape:connector-curvature="0" />
    </g>
  </g>
</svg>
