<?xml version="1.0" encoding="UTF-8" standalone="no"?>
<!-- Created with Inkscape (http://www.inkscape.org/) -->

<svg
   xmlns:dc="http://purl.org/dc/elements/1.1/"
   xmlns:cc="http://creativecommons.org/ns#"
   xmlns:rdf="http://www.w3.org/1999/02/22-rdf-syntax-ns#"
   xmlns:svg="http://www.w3.org/2000/svg"
   xmlns="http://www.w3.org/2000/svg"
   xmlns:xlink="http://www.w3.org/1999/xlink"
   xmlns:sodipodi="http://sodipodi.sourceforge.net/DTD/sodipodi-0.dtd"
   xmlns:inkscape="http://www.inkscape.org/namespaces/inkscape"
   width="150"
   height="150"
   viewBox="0 0 39.687498 39.6875"
   version="1.1"
   id="svg8"
   sodipodi:docname="wiz_hat.svg"
   inkscape:version="0.92.2 5c3e80d, 2017-08-06">
  <defs
     id="defs2">
    <linearGradient
       inkscape:collect="always"
       id="linearGradient964">
      <stop
         style="stop-color:#527d3e;stop-opacity:1"
         offset="0"
         id="stop960" />
      <stop
         style="stop-color:#4d4d4d;stop-opacity:1"
         offset="1"
         id="stop962" />
    </linearGradient>
    <linearGradient
       id="linearGradient956"
       inkscape:collect="always">
      <stop
         id="stop952"
         offset="0"
         style="stop-color:#e6e6e6;stop-opacity:1" />
      <stop
         id="stop954"
         offset="1"
         style="stop-color:#4a8b2b;stop-opacity:1" />
    </linearGradient>
    <linearGradient
       inkscape:collect="always"
       id="linearGradient856">
      <stop
         style="stop-color:#e6e6e6;stop-opacity:1"
         offset="0"
         id="stop852" />
      <stop
         style="stop-color:#808080;stop-opacity:1"
         offset="1"
         id="stop854" />
    </linearGradient>
    <radialGradient
       inkscape:collect="always"
       xlink:href="#linearGradient856"
       id="radialGradient860"
       cx="-68.657082"
       cy="-54.407608"
       fx="-68.657082"
       fy="-54.407608"
       r="36.687176"
       gradientTransform="matrix(-0.62209462,0.97387414,-0.94563201,-0.60404541,-162.81786,-22.165811)"
       gradientUnits="userSpaceOnUse" />
    <radialGradient
       inkscape:collect="always"
       xlink:href="#linearGradient956"
       id="radialGradient882"
       gradientUnits="userSpaceOnUse"
       gradientTransform="matrix(-0.62978007,0.91495593,-0.9573145,-0.56750139,-8.0966584,205.52365)"
       cx="-94.38401"
       cy="-55.93211"
       fx="-94.38401"
       fy="-55.93211"
       r="36.687176" />
    <linearGradient
       inkscape:collect="always"
       xlink:href="#linearGradient964"
       id="linearGradient968"
       x1="98.720345"
       y1="201.07201"
       x2="103.4938"
       y2="213.12495"
       gradientUnits="userSpaceOnUse" />
  </defs>
  <sodipodi:namedview
     id="base"
     pagecolor="#ffffff"
     bordercolor="#666666"
     borderopacity="1.0"
     inkscape:pageopacity="0.0"
     inkscape:pageshadow="2"
     inkscape:zoom="8.6780698"
     inkscape:cx="70.553151"
     inkscape:cy="92.135637"
     inkscape:document-units="mm"
     inkscape:current-layer="g4578"
     showgrid="false"
     units="px"
     inkscape:window-width="1680"
     inkscape:window-height="925"
     inkscape:window-x="48"
     inkscape:window-y="11"
     inkscape:window-maximized="0"
     fit-margin-top="0"
     fit-margin-left="0"
     fit-margin-right="0"
     fit-margin-bottom="0"
     inkscape:snap-global="false" />
  <metadata
     id="metadata5">
    <rdf:RDF>
      <cc:Work
         rdf:about="">
        <dc:format>image/svg+xml</dc:format>
        <dc:type
           rdf:resource="http://purl.org/dc/dcmitype/StillImage" />
        <dc:title />
      </cc:Work>
    </rdf:RDF>
  </metadata>
  <g
     inkscape:label="Layer 1"
     inkscape:groupmode="layer"
     id="layer1"
     transform="translate(-54.198774,-200.14183)">
    <g
       id="g4578"
       transform="matrix(0.25548634,0,0,0.25548634,51.782645,166.50629)">
      <path
         style="fill:url(#radialGradient882);fill-opacity:1;stroke:#000000;stroke-width:1.99723506;stroke-linecap:butt;stroke-linejoin:miter;stroke-miterlimit:4;stroke-dasharray:none;stroke-opacity:1"
         d="m 44.275973,210.02181 c -0.120876,5.1361 0.448566,13.846 8.000428,16.85857 7.596801,-1.87419 18.998772,-6.75254 26.581953,-8.8141 44.333196,-30.86794 35.684586,-11.02059 50.591136,-15.62245 1.89526,0.047 2.97579,-13.28138 -2.02261,-14.9857 -29.32525,-8.27347 -35.911096,-28.98733 -53.850034,-43.26743 -2.604216,-3.30053 -9.874326,-4.00595 -9.603969,1.37764 1.656567,38.54395 -6.083888,41.54579 -19.696904,64.45347 z"
         id="path848"
         inkscape:connector-curvature="0"
         sodipodi:nodetypes="cccccccc" />
      <path
         style="opacity:0.2;fill:#000000;stroke:#000000;stroke-width:1.00997293px;stroke-linecap:butt;stroke-linejoin:miter;stroke-opacity:1"
         d="m 67.469806,147.93037 c -3.15384,5.01677 -0.188711,28.92952 -4.416567,32.99162 -3.713407,11.15916 -15.761669,19.98361 -16.791014,31.30284 -0.330825,3.81687 -0.01932,3.41907 2.926182,2.76562 -1.894594,4.36044 4.770997,1.98714 6.760582,1.56251 8.615391,-3.53825 20.14748,-0.56568 25.692546,-11.6252 -1.437136,-2.10872 -4.630837,-3.31809 -6.765364,-5.05137 -3.06256,-1.92931 -4.540309,-4.3082 -4.949915,-7.71312 -1.479211,-4.72673 3.198837,-11.70836 1.704279,-16.43148 0.507413,-5.49908 -1.3556,-22.5065 -4.160729,-27.80142 z"
         id="path862"
         inkscape:connector-curvature="0"
         sodipodi:nodetypes="cccccccccc" />
      <path
         style="fill:url(#linearGradient968);fill-opacity:1;stroke:none;stroke-width:1.03560662px;stroke-linecap:butt;stroke-linejoin:miter;stroke-opacity:1"
         d="m 47.076792,221.23981 c 0.218365,1.77365 1.525161,5.13295 6.057182,4.53477 10.786284,-5.01883 19.891847,-4.19777 25.694393,-8.91943 29.670453,-24.14352 36.397453,-17.9153 48.532623,-14.47042 0.76613,-1.47182 3.45482,-3.65965 2.98342,-5.13146 -28.03661,-4.20957 -30.14592,2.47427 -54.775257,16.58771 z"
         id="path958"
         inkscape:connector-curvature="0"
         sodipodi:nodetypes="ccscccc" />
      <path
         style="fill:#a86531;fill-opacity:1;stroke:#000000;stroke-width:1.03560662px;stroke-linecap:butt;stroke-linejoin:miter;stroke-opacity:1"
         d="m 54.780766,191.02965 -2.700267,3.20657 -1.434517,2.19397 5.822451,2.5315 8.944632,-0.0844 18.723164,-2.42664 12.741883,-3.45972 12.242618,-6.37921 6.83505,-3.12218 0.33753,-1.60329 -2.78465,-2.61588 -2.10958,-1.35013 -5.40054,3.45971 -15.786711,6.63236 -11.813667,3.20657 -17.119879,-0.0205 -5.906834,0.16877 z"
         id="path970"
         inkscape:connector-curvature="0"
         sodipodi:nodetypes="cccccccccccccccccc" />
      <path
         style="opacity:0.2;fill:#000000;stroke:#000000;stroke-width:1.03560662px;stroke-linecap:butt;stroke-linejoin:miter;stroke-opacity:1"
         d="m 53.849991,193.67318 c -0.608216,2.21174 6.943606,3.9374 8.835655,4.10621 5.274114,0.75083 10.465941,-0.88458 15.646962,-1.62003 8.636952,-1.49666 17.354097,-3.14828 25.428522,-6.68118 2.12752,-0.64967 4.30992,-1.50896 6.02708,-2.94096 -1.28295,-0.31427 -2.95388,0.69167 -4.38292,0.88356 -9.460348,2.48636 -18.948386,5.13286 -28.72794,5.99399 -5.808475,0.79736 -16.991478,1.34424 -22.827359,0.25841 z"
         id="path976"
         inkscape:connector-curvature="0"
         sodipodi:nodetypes="cccccccc" />
      <path
         style="fill:#f9f9f9;stroke:#000000;stroke-width:1.03560662px;stroke-linecap:butt;stroke-linejoin:miter;stroke-opacity:1"
         d="m 58.802438,196.00024 c -3.306786,-2.50098 -7.357611,-4.44899 -9.25158,-8.36091 -1.975625,-3.24965 -4.464979,-6.2402 -6.070895,-9.68064 0.115267,-4.1496 0.230533,-8.29921 0.3458,-12.44881 3.305305,2.66556 7.969742,3.74677 10.302287,7.52146 2.063974,4.00186 3.971375,8.08281 5.987084,12.10932 -0.430698,3.37433 0.860346,6.85526 -0.278526,10.15517 -0.148988,0.43687 -0.595935,0.6843 -1.03417,0.70441 z"
         id="path972"
         inkscape:connector-curvature="0" />
      <path
         style="fill:none;stroke:#000000;stroke-width:1.03560662px;stroke-linecap:butt;stroke-linejoin:miter;stroke-opacity:1"
         d="m 46.570492,171.29768 12.828626,23.92688"
         id="path974"
         inkscape:connector-curvature="0" />
      <path
         style="fill:#1a1a1a;stroke:#000000;stroke-width:1.03560662px;stroke-linecap:butt;stroke-linejoin:miter;stroke-opacity:1"
         d="m 96.094954,207.6355 c 6.828936,-2.01718 16.564736,-5.46865 26.492606,-4.41543 l -6.92149,-2.50606 -7.39884,0.83536 z"
         id="path844"
         inkscape:connector-curvature="0"
         sodipodi:nodetypes="ccccc" />
    </g>
  </g>
</svg>
