<?xml version="1.0" encoding="UTF-8" standalone="no"?>
<!-- Created with Inkscape (http://www.inkscape.org/) -->

<svg
   xmlns:dc="http://purl.org/dc/elements/1.1/"
   xmlns:cc="http://creativecommons.org/ns#"
   xmlns:rdf="http://www.w3.org/1999/02/22-rdf-syntax-ns#"
   xmlns:svg="http://www.w3.org/2000/svg"
   xmlns="http://www.w3.org/2000/svg"
   xmlns:xlink="http://www.w3.org/1999/xlink"
   xmlns:sodipodi="http://sodipodi.sourceforge.net/DTD/sodipodi-0.dtd"
   xmlns:inkscape="http://www.inkscape.org/namespaces/inkscape"
   width="163.64471"
   height="163.64471"
   viewBox="0 0 43.297663 43.297663"
   version="1.1"
   id="svg834"
   inkscape:version="0.92.2 5c3e80d, 2017-08-06"
   sodipodi:docname="mountain2.svg">
  <defs
     id="defs828">
    <linearGradient
       inkscape:collect="always"
       id="linearGradient927">
      <stop
         style="stop-color:#aa9182;stop-opacity:1;"
         offset="0"
         id="stop923" />
      <stop
         style="stop-color:#aa9182;stop-opacity:0;"
         offset="1"
         id="stop925" />
    </linearGradient>
    <filter
       inkscape:collect="always"
       style="color-interpolation-filters:sRGB"
       id="filter1618"
       x="-0.061666667"
       width="1.1233333"
       y="-0.19018213"
       height="1.3803643">
      <feGaussianBlur
         inkscape:collect="always"
         stdDeviation="0.89106586"
         id="feGaussianBlur1620" />
    </filter>
    <filter
       inkscape:collect="always"
       style="color-interpolation-filters:sRGB"
       id="filter1622"
       x="-0.061891824"
       width="1.1237836"
       y="-0.1487525"
       height="1.297505">
      <feGaussianBlur
         inkscape:collect="always"
         stdDeviation="0.89106586"
         id="feGaussianBlur1624" />
    </filter>
    <filter
       inkscape:collect="always"
       style="color-interpolation-filters:sRGB"
       id="filter1656"
       x="-0.24138542"
       width="1.4827708"
       y="-0.36439165"
       height="1.7287832">
      <feGaussianBlur
         inkscape:collect="always"
         stdDeviation="1.4224088"
         id="feGaussianBlur1658" />
    </filter>
    <filter
       inkscape:collect="always"
       style="color-interpolation-filters:sRGB"
       id="filter1780"
       x="-0.35465354"
       width="1.7093071"
       y="-0.35096574"
       height="1.7019315">
      <feGaussianBlur
         inkscape:collect="always"
         stdDeviation="0.16582122"
         id="feGaussianBlur1782" />
    </filter>
    <filter
       inkscape:collect="always"
       style="color-interpolation-filters:sRGB"
       id="filter1798"
       x="-0.090189442"
       width="1.1803789"
       y="-0.46734631"
       height="1.9346926">
      <feGaussianBlur
         inkscape:collect="always"
         stdDeviation="0.10120345"
         id="feGaussianBlur1800" />
    </filter>
    <filter
       inkscape:collect="always"
       style="color-interpolation-filters:sRGB"
       id="filter1834"
       x="-0.54197383"
       width="2.0839477"
       y="-0.28692731"
       height="1.5738546">
      <feGaussianBlur
         inkscape:collect="always"
         stdDeviation="0.19204987"
         id="feGaussianBlur1836" />
    </filter>
    <filter
       inkscape:collect="always"
       style="color-interpolation-filters:sRGB"
       id="filter1838"
       x="-0.13738522"
       width="1.2747704"
       y="-0.54170793"
       height="2.0834157">
      <feGaussianBlur
         inkscape:collect="always"
         stdDeviation="0.19208146"
         id="feGaussianBlur1840" />
    </filter>
    <filter
       inkscape:collect="always"
       style="color-interpolation-filters:sRGB"
       id="filter1866"
       x="-0.072442144"
       width="1.1448843"
       y="-0.14766659"
       height="1.2953331">
      <feGaussianBlur
         inkscape:collect="always"
         stdDeviation="0.66959132"
         id="feGaussianBlur1868" />
    </filter>
    <filter
       inkscape:collect="always"
       style="color-interpolation-filters:sRGB"
       id="filter1908"
       x="-0.034542687"
       width="1.0690854"
       y="-0.17323409"
       height="1.3464682">
      <feGaussianBlur
         inkscape:collect="always"
         stdDeviation="0.3462372"
         id="feGaussianBlur1910" />
    </filter>
    <linearGradient
       inkscape:collect="always"
       xlink:href="#linearGradient927"
       id="linearGradient929"
       x1="-157.00706"
       y1="137.1266"
       x2="-156.761"
       y2="142.95824"
       gradientUnits="userSpaceOnUse"
       gradientTransform="translate(-1.1453666,-3.97198)" />
    <linearGradient
       inkscape:collect="always"
       xlink:href="#linearGradient927"
       id="linearGradient946"
       gradientUnits="userSpaceOnUse"
       gradientTransform="matrix(-1,0,0,1,-332.40605,2.7325734)"
       x1="-157.00706"
       y1="137.1266"
       x2="-156.761"
       y2="142.95824" />
    <linearGradient
       inkscape:collect="always"
       xlink:href="#linearGradient927"
       id="linearGradient950"
       gradientUnits="userSpaceOnUse"
       gradientTransform="translate(-7.9131846,9.7806465)"
       x1="-157.00706"
       y1="137.1266"
       x2="-156.761"
       y2="142.95824" />
    <linearGradient
       inkscape:collect="always"
       xlink:href="#linearGradient927"
       id="linearGradient954"
       gradientUnits="userSpaceOnUse"
       gradientTransform="matrix(-1,0,0,1,-333.44131,15.917347)"
       x1="-157.00706"
       y1="137.1266"
       x2="-156.761"
       y2="142.95824" />
    <linearGradient
       inkscape:collect="always"
       xlink:href="#linearGradient927"
       id="linearGradient958"
       gradientUnits="userSpaceOnUse"
       gradientTransform="translate(-0.4034813,17.930157)"
       x1="-157.00706"
       y1="137.1266"
       x2="-156.761"
       y2="142.95824" />
  </defs>
  <sodipodi:namedview
     id="base"
     pagecolor="#ffffff"
     bordercolor="#666666"
     borderopacity="1.0"
     inkscape:pageopacity="0.0"
     inkscape:pageshadow="2"
     inkscape:zoom="2.574226"
     inkscape:cx="101.34028"
     inkscape:cy="93.386054"
     inkscape:document-units="mm"
     inkscape:current-layer="layer1"
     showgrid="false"
     units="px"
     inkscape:window-width="1449"
     inkscape:window-height="789"
     inkscape:window-x="153"
     inkscape:window-y="82"
     inkscape:window-maximized="0"
     fit-margin-top="0"
     fit-margin-left="0"
     fit-margin-right="0"
     fit-margin-bottom="0" />
  <metadata
     id="metadata831">
    <rdf:RDF>
      <cc:Work
         rdf:about="">
        <dc:format>image/svg+xml</dc:format>
        <dc:type
           rdf:resource="http://purl.org/dc/dcmitype/StillImage" />
        <dc:title></dc:title>
      </cc:Work>
    </rdf:RDF>
  </metadata>
  <g
     inkscape:label="Layer 1"
     inkscape:groupmode="layer"
     id="layer1"
     transform="translate(188.10942,-117.95572)">
    <rect
       style="opacity:1;fill:#9da233;fill-opacity:1;stroke:none;stroke-width:0.52916664;stroke-linecap:square;stroke-linejoin:miter;stroke-miterlimit:4;stroke-dasharray:none;paint-order:stroke fill markers"
       id="rect1379"
       width="43.297665"
       height="43.297665"
       x="-188.10942"
       y="117.95572" />
    <path
       style="opacity:0.52300002;fill:#8d8d36;fill-opacity:1;stroke:none;stroke-width:0.26458332px;stroke-linecap:butt;stroke-linejoin:miter;stroke-opacity:1;filter:url(#filter1622)"
       d="m -183.48053,124.60529 0.91328,5.2107 10.67783,1.03944 1.6064,3.1183 6.99256,0.56696 5.00818,3.30729 c 0,0 5.29167,0.47248 5.66964,0.56697 0.37798,0.0945 3.68527,0.56696 3.68527,0.56696 l -3.1183,-3.1183 -6.4256,-2.36235 -4.34672,-2.92932 -6.52009,-0.85044 c 0,0 -2.26786,-3.30729 -2.64584,-3.30729 -0.37797,0 -6.04761,-0.85045 -6.42559,-0.75596 -0.37798,0.0945 -4.25223,-1.03943 -4.25223,-1.03943 z"
       id="path1450"
       inkscape:connector-curvature="0" />
    <path
       style="opacity:0.54199997;fill:#8d8d36;fill-opacity:1;stroke:none;stroke-width:0.26458332px;stroke-linecap:butt;stroke-linejoin:miter;stroke-opacity:1;filter:url(#filter1618)"
       d="m -185.23415,145.33266 1.13393,4.63021 7.74851,-0.47247 0.94494,1.79538 8.50447,1.32292 0.47247,1.70089 c 0,0 10.58333,0.56697 10.96131,0.85045 0.37797,0.28348 4.91369,0.66146 4.91369,0.66146 l -1.03944,-2.92932 -7.9375,-1.6064 -5.29166,-1.32291 c 0,0 0.85044,-1.98438 -0.18899,-1.98438 -1.03944,0 -8.032,-0.85044 -8.032,-0.85044 l -5.29166,-2.55134 -3.2128,1.13392 z"
       id="path1452"
       inkscape:connector-curvature="0" />
    <ellipse
       style="opacity:0.73200001;fill:#80801e;fill-opacity:1;stroke:none;stroke-width:0.71416491;stroke-linecap:square;stroke-linejoin:miter;stroke-miterlimit:4;stroke-dasharray:none;paint-order:stroke fill markers;filter:url(#filter1834)"
       id="path1454"
       cx="-183.64919"
       cy="136.59636"
       rx="0.42522317"
       ry="0.80319941" />
    <ellipse
       ry="1.6771851"
       rx="0.42540479"
       cy="177.46138"
       cx="138.52415"
       id="ellipse1456"
       style="opacity:0.73200001;fill:#80801e;fill-opacity:1;stroke:none;stroke-width:1.03221464;stroke-linecap:square;stroke-linejoin:miter;stroke-miterlimit:4;stroke-dasharray:none;paint-order:stroke fill markers;filter:url(#filter1838)"
       transform="matrix(-0.03328086,0.99944604,-0.99997085,-0.00763523,0,0)"
       inkscape:transform-center-x="-3.3546961"
       inkscape:transform-center-y="-0.42522755" />
    <path
       inkscape:connector-curvature="0"
       id="path1626"
       d="m -184.75006,137.23964 0.91328,5.2107 10.67783,1.03944 1.6064,3.1183 0.94494,-4.25223 -2.64584,-3.30729 -6.42559,-0.75596 -4.25223,-1.03943 z"
       style="opacity:0.83225804;fill:#8d8d36;fill-opacity:1;stroke:none;stroke-width:0.26458332px;stroke-linecap:butt;stroke-linejoin:miter;stroke-opacity:1;filter:url(#filter1656)"
       sodipodi:nodetypes="ccccccccc"
       transform="rotate(-180,-167.85668,142.55863)" />
    <path
       style="fill:#7d7f1f;fill-opacity:1;stroke:none;stroke-width:0.26458332px;stroke-linecap:butt;stroke-linejoin:miter;stroke-opacity:1;filter:url(#filter1780)"
       d="m -167.15,124.37715 0.36617,-0.64965 0.67327,0.0472 0.0827,0.35436 -0.10631,0.36616 -0.41341,0.36616 -0.25986,-0.0827 -0.14174,-0.18898 -0.15355,-0.15356 -0.0118,-0.0473 z"
       id="path1662"
       inkscape:connector-curvature="0" />
    <path
       style="opacity:0.619;fill:#7e8020;fill-opacity:1;stroke:none;stroke-width:0.26458332px;stroke-linecap:butt;stroke-linejoin:miter;stroke-opacity:1;filter:url(#filter1798)"
       d="m -166.35859,124.69608 c 0.0472,0 2.56315,0.10631 2.56315,0.10631 l -1.54734,-0.38979 c 0,0 -0.38979,-0.12993 -0.4961,-0.12993 -0.1063,0 -0.55515,0.0118 -0.55515,0.0118 l -0.0945,0.22443 z"
       id="path1784"
       inkscape:connector-curvature="0" />
    <path
       inkscape:connector-curvature="0"
       id="path1802"
       d="m -155.9997,129.66882 0.36617,-0.64965 0.67327,0.0472 0.0827,0.35436 -0.10631,0.36616 -0.41341,0.36616 -0.25986,-0.0827 -0.14174,-0.18898 -0.15355,-0.15356 -0.0118,-0.0473 z"
       style="fill:#7d7f1f;fill-opacity:1;stroke:none;stroke-width:0.26458332px;stroke-linecap:butt;stroke-linejoin:miter;stroke-opacity:1;filter:url(#filter1780)" />
    <path
       inkscape:connector-curvature="0"
       id="path1804"
       d="m -155.20829,129.98775 c 0.0472,0 2.56315,0.10631 2.56315,0.10631 l -1.54734,-0.38979 c 0,0 -0.38979,-0.12993 -0.4961,-0.12993 -0.1063,0 -0.55515,0.0118 -0.55515,0.0118 l -0.0945,0.22443 z"
       style="opacity:0.619;fill:#7e8020;fill-opacity:1;stroke:none;stroke-width:0.26458332px;stroke-linecap:butt;stroke-linejoin:miter;stroke-opacity:1;filter:url(#filter1798)" />
    <path
       style="fill:#7d7f1f;fill-opacity:1;stroke:none;stroke-width:0.26458332px;stroke-linecap:butt;stroke-linejoin:miter;stroke-opacity:1;filter:url(#filter1780)"
       d="m -174.42604,139.68519 0.36617,-0.64965 0.67327,0.0472 0.0827,0.35436 -0.10631,0.36616 -0.41341,0.36616 -0.25986,-0.0827 -0.14174,-0.18898 -0.15355,-0.15356 -0.0118,-0.0473 z"
       id="path1806"
       inkscape:connector-curvature="0" />
    <path
       style="opacity:0.619;fill:#7e8020;fill-opacity:1;stroke:none;stroke-width:0.26458332px;stroke-linecap:butt;stroke-linejoin:miter;stroke-opacity:1;filter:url(#filter1798)"
       d="m -173.63463,140.00412 c 0.0472,0 2.56315,0.10631 2.56315,0.10631 l -1.54734,-0.38979 c 0,0 -0.38979,-0.12993 -0.4961,-0.12993 -0.1063,0 -0.55515,0.0118 -0.55515,0.0118 l -0.0945,0.22443 z"
       id="path1808"
       inkscape:connector-curvature="0" />
    <path
       inkscape:connector-curvature="0"
       id="path1810"
       d="m -152.14826,148.51374 0.36617,-0.64965 0.67327,0.0472 0.0827,0.35436 -0.10631,0.36616 -0.41341,0.36616 -0.25986,-0.0827 -0.14174,-0.18898 -0.15355,-0.15356 -0.0118,-0.0473 z"
       style="fill:#7d7f1f;fill-opacity:1;stroke:none;stroke-width:0.26458332px;stroke-linecap:butt;stroke-linejoin:miter;stroke-opacity:1;filter:url(#filter1780)" />
    <path
       inkscape:connector-curvature="0"
       id="path1812"
       d="m -151.35685,148.83267 c 0.0472,0 2.56315,0.10631 2.56315,0.10631 l -1.54734,-0.38979 c 0,0 -0.38979,-0.12993 -0.4961,-0.12993 -0.1063,0 -0.55515,0.0118 -0.55515,0.0118 l -0.0945,0.22443 z"
       style="opacity:0.619;fill:#7e8020;fill-opacity:1;stroke:none;stroke-width:0.26458332px;stroke-linecap:butt;stroke-linejoin:miter;stroke-opacity:1;filter:url(#filter1798)" />
    <path
       style="fill:#7d7f1f;fill-opacity:1;stroke:none;stroke-width:0.26458332px;stroke-linecap:butt;stroke-linejoin:miter;stroke-opacity:1;filter:url(#filter1780)"
       d="m -170.25686,152.18346 0.36617,-0.64965 0.67327,0.0472 0.0827,0.35436 -0.10631,0.36616 -0.41341,0.36616 -0.25986,-0.0827 -0.14174,-0.18898 -0.15355,-0.15356 -0.0118,-0.0473 z"
       id="path1814"
       inkscape:connector-curvature="0" />
    <path
       style="opacity:0.619;fill:#7e8020;fill-opacity:1;stroke:none;stroke-width:0.26458332px;stroke-linecap:butt;stroke-linejoin:miter;stroke-opacity:1;filter:url(#filter1798)"
       d="m -169.46545,152.50239 c 0.0472,0 2.56315,0.10631 2.56315,0.10631 l -1.54734,-0.38979 c 0,0 -0.38979,-0.12993 -0.4961,-0.12993 -0.1063,0 -0.55515,0.0118 -0.55515,0.0118 l -0.0945,0.22443 z"
       id="path1816"
       inkscape:connector-curvature="0" />
    <ellipse
       ry="0.80319941"
       rx="0.42522317"
       cy="136.59636"
       cx="-183.64919"
       id="ellipse1842"
       style="opacity:0.73200001;fill:#80801e;fill-opacity:1;stroke:none;stroke-width:0.71416491;stroke-linecap:square;stroke-linejoin:miter;stroke-miterlimit:4;stroke-dasharray:none;paint-order:stroke fill markers;filter:url(#filter1834)" />
    <ellipse
       ry="0.80319941"
       rx="0.42522317"
       cy="123.29635"
       cx="-151.96173"
       id="ellipse1844"
       style="opacity:0.73200001;fill:#80801e;fill-opacity:1;stroke:none;stroke-width:0.71416491;stroke-linecap:square;stroke-linejoin:miter;stroke-miterlimit:4;stroke-dasharray:none;paint-order:stroke fill markers;filter:url(#filter1834)" />
    <ellipse
       inkscape:transform-center-y="-0.42522755"
       inkscape:transform-center-x="-3.3546961"
       transform="matrix(-0.03328086,0.99944604,-0.99997085,-0.00763523,31.68745,-13.300008)"
       style="opacity:0.73200001;fill:#80801e;fill-opacity:1;stroke:none;stroke-width:1.03221464;stroke-linecap:square;stroke-linejoin:miter;stroke-miterlimit:4;stroke-dasharray:none;paint-order:stroke fill markers;filter:url(#filter1838)"
       id="ellipse1846"
       cx="138.52415"
       cy="177.46138"
       rx="0.42540479"
       ry="1.6771851" />
    <ellipse
       style="opacity:0.73200001;fill:#80801e;fill-opacity:1;stroke:none;stroke-width:0.71416491;stroke-linecap:square;stroke-linejoin:miter;stroke-miterlimit:4;stroke-dasharray:none;paint-order:stroke fill markers;filter:url(#filter1834)"
       id="ellipse1848"
       cx="-151.96173"
       cy="123.29635"
       rx="0.42522317"
       ry="0.80319941" />
    <ellipse
       style="opacity:0.73200001;fill:#80801e;fill-opacity:1;stroke:none;stroke-width:0.71416491;stroke-linecap:square;stroke-linejoin:miter;stroke-miterlimit:4;stroke-dasharray:none;paint-order:stroke fill markers;filter:url(#filter1834)"
       id="ellipse1850"
       cx="-161.70053"
       cy="146.11713"
       rx="0.42522317"
       ry="0.80319941" />
    <ellipse
       ry="1.6771851"
       rx="0.42540479"
       cy="177.46138"
       cx="138.52415"
       id="ellipse1852"
       style="opacity:0.73200001;fill:#80801e;fill-opacity:1;stroke:none;stroke-width:1.03221464;stroke-linecap:square;stroke-linejoin:miter;stroke-miterlimit:4;stroke-dasharray:none;paint-order:stroke fill markers;filter:url(#filter1838)"
       transform="matrix(-0.03328086,0.99944604,-0.99997085,-0.00763523,21.948647,9.5207702)"
       inkscape:transform-center-x="-3.3546961"
       inkscape:transform-center-y="-0.42522755" />
    <ellipse
       ry="0.80319941"
       rx="0.42522317"
       cy="146.11713"
       cx="-161.70053"
       id="ellipse1854"
       style="opacity:0.73200001;fill:#80801e;fill-opacity:1;stroke:none;stroke-width:0.71416491;stroke-linecap:square;stroke-linejoin:miter;stroke-miterlimit:4;stroke-dasharray:none;paint-order:stroke fill markers;filter:url(#filter1834)" />
    <path
       style="opacity:0.75199998;fill:#a7a93b;fill-opacity:1;stroke:none;stroke-width:0.26458332px;stroke-linecap:butt;stroke-linejoin:miter;stroke-opacity:1;filter:url(#filter1866)"
       d="m -182.56725,129.81599 6.70776,-0.50433 4.67657,2.31259 5.08769,2.2612 c 0,0 0.10278,0.5139 0.46252,0.66808 0.35974,0.15417 3.90571,0.15417 3.90571,0.15417 l 1.23338,3.44319 c 0,0 -0.25696,1.79868 -0.25696,2.00424 0,0.20556 -2.87788,-0.46252 -2.87788,-0.46252 l -3.85432,-4.41961 c 0,0 -3.80292,-0.46252 -4.11127,-0.51391 -0.30834,-0.0514 -2.56954,-1.43894 -2.87788,-1.59312 -0.30835,-0.15417 -2.56955,-0.87364 -2.77511,-0.77086 -0.20557,0.10278 -3.44319,-0.41113 -3.44319,-0.41113 0,0 -1.6959,-0.77086 -1.90146,-0.82225 -0.20556,-0.0514 0.0245,-1.34574 0.0245,-1.34574 z"
       id="path1856"
       inkscape:connector-curvature="0" />
    <path
       style="fill:#a5a93b;fill-opacity:1;stroke:none;stroke-width:0.26458332px;stroke-linecap:butt;stroke-linejoin:miter;stroke-opacity:1;filter:url(#filter1908)"
       d="m -179.58644,150.99063 4.17967,0.29515 1.63454,1.1584 2.07131,0.76312 c 0,0 2.18033,1.01748 2.39837,1.05382 0.21803,0.0363 2.87272,0.0485 2.87272,0.0485 l 3.12318,0.31492 3.12514,0.54509 c 0,0 3.05246,-0.0363 3.27049,-0.0363 0.21804,0 1.38088,0.54508 1.38088,0.54508 l -3.30683,0.10902 -3.59755,-0.14536 -3.59754,-0.14536 c 0,0 -2.36202,-0.4724 -2.6164,-0.4724 -0.25437,0 -1.34453,-0.18169 -1.52623,-0.18169 -0.18169,0 -2.28934,-1.09017 -2.28934,-1.09017 l -2.68907,-0.83579 -1.41722,-0.61776 -1.99863,-0.29071 -1.01749,-0.25437 0.14536,-0.72678 z"
       id="path1870"
       inkscape:connector-curvature="0" />
    <path
       style="fill:url(#linearGradient929);fill-opacity:1;stroke:#000000;stroke-width:1;stroke-linecap:butt;stroke-linejoin:miter;stroke-miterlimit:4;stroke-dasharray:none;stroke-opacity:1"
       d="m -147.31985,137.6501 -1.95285,-6.78359 -0.61669,-4.93353 -4.63389,-4.86323 -3.8456,-1.56062 -1.94858,2.10249 -2.41964,3.19077 -3.59736,1.6445 -5.09392,3.55486 v 0 l -3.77685,5.06181 -0.36617,0.64965"
       id="path919"
       inkscape:connector-curvature="0"
       sodipodi:nodetypes="cccccccccccc" />
    <path
       inkscape:connector-curvature="0"
       id="path944"
       d="m -186.23157,144.35467 1.95285,-6.78359 3.01505,-3.77069 1.09533,-4.05622 1.25404,-4.90253 3.03874,-3.34834 1.57743,1.48674 5.15363,2.38017 3.37176,4.20781 2.48228,4.97267 3.05704,1.80224 1.88723,5.4252 0.36617,0.64965"
       style="fill:url(#linearGradient946);fill-opacity:1;stroke:#000000;stroke-width:1;stroke-linecap:butt;stroke-linejoin:miter;stroke-miterlimit:4;stroke-dasharray:none;stroke-opacity:1"
       sodipodi:nodetypes="ccccccccccccc" />
    <path
       sodipodi:nodetypes="cccccccccccc"
       style="fill:url(#linearGradient950);fill-opacity:1;stroke:#000000;stroke-width:1;stroke-linecap:butt;stroke-linejoin:miter;stroke-miterlimit:4;stroke-dasharray:none;stroke-opacity:1"
       d="m -146.07068,150.58049 -1.6445,-4.00849 -0.65107,-3.154 -4.11709,-6.73478 -11.97399,-2.83121 -3.03879,-3.34834 -2.7869,3.47006 -2.20783,3.74726 -4.53791,3.86777 -3.05704,1.80224 -1.88723,5.4252 -0.36617,0.64965"
       id="path948"
       inkscape:connector-curvature="0" />
    <path
       inkscape:connector-curvature="0"
       id="path952"
       d="m -187.26685,157.53944 1.95285,-6.78359 3.01505,-3.77069 1.09533,-4.05622 4.3065,-2.94023 3.03874,-3.34834 4.90358,2.94089 3.84905,3.18015 5.57673,2.63837 -1.73968,4.12792 1.88723,5.4252 0.36617,0.64965"
       style="fill:url(#linearGradient954);fill-opacity:1;stroke:#000000;stroke-width:1;stroke-linecap:butt;stroke-linejoin:miter;stroke-miterlimit:4;stroke-dasharray:none;stroke-opacity:1"
       sodipodi:nodetypes="cccccccccccc" />
    <path
       sodipodi:nodetypes="cccccccccccc"
       style="fill:url(#linearGradient958);fill-opacity:1;stroke:#000000;stroke-width:1;stroke-linecap:butt;stroke-linejoin:miter;stroke-miterlimit:4;stroke-dasharray:none;stroke-opacity:1"
       d="m -146.57794,159.55225 -1.95285,-6.78359 -3.01505,-3.77069 -1.09533,-4.05622 -4.3065,-2.94023 -3.03874,-3.34834 -2.7869,3.47006 -6.35046,3.16584 -4.24719,3.35903 -6.21548,3.10571 -2.58071,4.8485 -4.21808,3.04801"
       id="path956"
       inkscape:connector-curvature="0" />
    <path
       sodipodi:nodetypes="cccccccccccc"
       inkscape:connector-curvature="0"
       id="path960"
       d="m -160.90221,140.96423 1.37319,4.43555 3.4328,2.85822 1.83199,4.7464 -2.39119,5.12252 6.8184,-1.46957 -1.96868,-7.74208 -0.83547,-3.97352 -4.3065,-2.94023 -3.12357,-2.44374 -1.37756,0.32617 z"
       style="opacity:0.3;fill:#000000;stroke:none;stroke-width:0.26458332px;stroke-linecap:butt;stroke-linejoin:miter;stroke-opacity:1" />
    <path
       style="opacity:0.3;fill:#000000;stroke:none;stroke-width:0.26458332px;stroke-linecap:butt;stroke-linejoin:miter;stroke-opacity:1"
       d="m -156.57891,122.04618 3.75714,3.10272 2.53346,4.99094 0.56129,1.49114 -0.0927,0.51498 1.11229,0.21088 -0.5653,-1.49033 -0.61669,-4.93353 -1.48163,-1.86975 -3.15226,-2.99348 -3.91269,-0.87472 z"
       id="path962"
       inkscape:connector-curvature="0"
       sodipodi:nodetypes="cccccccccccc" />
    <path
       style="opacity:0.3;fill:#000000;stroke:#000000;stroke-width:0.26458332px;stroke-linecap:butt;stroke-linejoin:miter;stroke-opacity:1"
       d="m -175.87556,121.4933 -1.39039,2.0392 0.97643,1.74729 1.79868,1.1306 1.13059,2.46676 1.47083,1.97828 2.64044,1.41351 1.42061,-1.59602 3.25067,1.84667 -4.5668,-7.15938 -5.55191,-2.13606 z"
       id="path964"
       inkscape:connector-curvature="0"
       sodipodi:nodetypes="cccccccccccc" />
    <path
       style="opacity:0.3;fill:#000000;stroke:#000000;stroke-width:0.26458332px;stroke-linecap:butt;stroke-linejoin:miter;stroke-opacity:1"
       d="m -167.49612,130.50367 0.50275,3.72138 0.44814,1.28371 -1.76215,2.84167 1.05705,0.75675 3.13484,1.1306 1.33616,2.05564 0.97643,1.38755 0.46252,-2.46676 0.20556,-2.05564 1.01519,-1.28746 -4.3377,-4.0191 v 0 z"
       id="path966"
       inkscape:connector-curvature="0"
       sodipodi:nodetypes="cccccccccccccc" />
    <path
       style="fill:#000000;stroke:#000000;stroke-width:0.26458332px;stroke-linecap:butt;stroke-linejoin:miter;stroke-opacity:1;opacity:0.3"
       d="m -173.85838,136.64037 -0.20149,2.39517 c 0,0 -0.2768,2.38097 -0.48237,2.48376 -0.20556,0.10278 -1.59311,1.1306 -1.79867,1.28477 -0.20557,0.15417 -1.99517,1.77264 -1.99517,1.77264 l -0.83133,1.3622 1.28477,1.28477 3.6174,0.23467 1.22082,-0.3303 3.92065,-1.83897 3.42076,-1.20024 0.59726,-1.32743 -1.83064,-1.19072 -4.21405,-3.13484 z"
       id="path968"
       inkscape:connector-curvature="0" />
    <path
       style="fill:none;stroke:#000000;stroke-width:0.26458332px;stroke-linecap:butt;stroke-linejoin:miter;stroke-opacity:1"
       d="m -162.05426,147.48063 -4.72796,1.95286 -3.10847,2.10032 c 0,0 -1.81023,1.67349 -1.81023,1.67349 l -1.04264,1.98196"
       id="path970"
       inkscape:connector-curvature="0" />
    <path
       style="fill:none;stroke:#000000;stroke-width:0.26458332px;stroke-linecap:butt;stroke-linejoin:miter;stroke-opacity:1"
       d="m -166.03206,155.49671 3.05277,-3.18533 2.15841,-1.18199 2.36398,-0.41113 1.79868,1.07921 0.87365,0.92503"
       id="path972"
       inkscape:connector-curvature="0" />
    <path
       style="fill:none;stroke:#000000;stroke-width:0.26458332px;stroke-linecap:butt;stroke-linejoin:miter;stroke-opacity:1"
       d="m -179.16741,145.93891 -1.49034,2.00424 c 0,0 -0.87364,2.2612 -0.92503,2.51815 -0.0514,0.25696 -1.18199,1.28478 -1.18199,1.28478"
       id="path974"
       inkscape:connector-curvature="0" />
    <path
       style="fill:none;stroke:#000000;stroke-width:0.26458332px;stroke-linecap:butt;stroke-linejoin:miter;stroke-opacity:1"
       d="m -176.28952,125.27979 1.79868,1.1306 1.13059,2.46676 1.47083,1.97828 0.32785,2.18438 1.27855,0.93392 2.80024,1.29927"
       id="path976"
       inkscape:connector-curvature="0" />
    <path
       style="fill:none;stroke:#000000;stroke-width:0.26458332px;stroke-linecap:butt;stroke-linejoin:miter;stroke-opacity:1"
       d="m -178.13959,131.70364 c 0,0 0,2.8265 0,3.03206 0,0.20557 -1.1306,2.20981 -1.1306,2.20981 0,0 -2.36398,1.33616 -2.62094,1.64451 -0.25695,0.30834 -1.23338,1.74729 -1.38755,1.95285"
       id="path978"
       inkscape:connector-curvature="0" />
    <path
       style="fill:none;stroke:#000000;stroke-width:0.26458332px;stroke-linecap:butt;stroke-linejoin:miter;stroke-opacity:1"
       d="m -166.54523,135.50876 -1.76215,2.84167 c 0,0 -0.2602,1.80796 -0.2602,1.80796 l -3.66719,0.35829 -0.61716,0.8517"
       id="path980"
       inkscape:connector-curvature="0" />
    <path
       style="fill:none;stroke:#000000;stroke-width:0.26458332px;stroke-linecap:butt;stroke-linejoin:miter;stroke-opacity:1"
       d="m -163.13906,141.52255 c 0,0 1.33616,2.15842 1.33616,2.15842 0,0 1.13518,0.034 1.85236,0.99345 0.71718,0.9594 2.05334,1.78166 2.05334,1.78166"
       id="path982"
       inkscape:connector-curvature="0" />
    <path
       style="fill:none;stroke:#000000;stroke-width:0.26458332px;stroke-linecap:butt;stroke-linejoin:miter;stroke-opacity:1"
       d="m -154.75676,124.92005 c 0,0 -3.08345,0.66808 -3.28901,0.77086 -0.20556,0.10279 -2.20981,0.77087 -2.20981,0.77087 0,0 -3.08345,1.49033 -3.18623,1.69589"
       id="path984"
       inkscape:connector-curvature="0" />
    <path
       style="fill:none;stroke:#000000;stroke-width:0.26458332px;stroke-linecap:butt;stroke-linejoin:miter;stroke-opacity:1"
       d="m -153.36921,129.03132 c 0,0 0.82226,1.95285 0.92504,2.2612 0.10278,0.30834 1.1306,1.79868 1.33616,2.05563"
       id="path986"
       inkscape:connector-curvature="0" />
  </g>
</svg>
