<?xml version="1.0" encoding="UTF-8" standalone="no"?>
<!-- Created with Inkscape (http://www.inkscape.org/) -->

<svg
   xmlns:dc="http://purl.org/dc/elements/1.1/"
   xmlns:cc="http://creativecommons.org/ns#"
   xmlns:rdf="http://www.w3.org/1999/02/22-rdf-syntax-ns#"
   xmlns:svg="http://www.w3.org/2000/svg"
   xmlns="http://www.w3.org/2000/svg"
   xmlns:sodipodi="http://sodipodi.sourceforge.net/DTD/sodipodi-0.dtd"
   xmlns:inkscape="http://www.inkscape.org/namespaces/inkscape"
   width="163.64471"
   height="163.64471"
   viewBox="0 0 43.297663 43.297663"
   version="1.1"
   id="svg834"
   inkscape:version="0.92.2 5c3e80d, 2017-08-06"
   sodipodi:docname="mountain1.svg">
  <defs
     id="defs828">
    <filter
       inkscape:collect="always"
       style="color-interpolation-filters:sRGB"
       id="filter1618"
       x="-0.061666667"
       width="1.1233333"
       y="-0.19018213"
       height="1.3803643">
      <feGaussianBlur
         inkscape:collect="always"
         stdDeviation="0.89106586"
         id="feGaussianBlur1620" />
    </filter>
    <filter
       inkscape:collect="always"
       style="color-interpolation-filters:sRGB"
       id="filter1622"
       x="-0.061891824"
       width="1.1237836"
       y="-0.1487525"
       height="1.297505">
      <feGaussianBlur
         inkscape:collect="always"
         stdDeviation="0.89106586"
         id="feGaussianBlur1624" />
    </filter>
    <filter
       inkscape:collect="always"
       style="color-interpolation-filters:sRGB"
       id="filter1656"
       x="-0.24138542"
       width="1.4827708"
       y="-0.36439165"
       height="1.7287832">
      <feGaussianBlur
         inkscape:collect="always"
         stdDeviation="1.4224088"
         id="feGaussianBlur1658" />
    </filter>
    <filter
       inkscape:collect="always"
       style="color-interpolation-filters:sRGB"
       id="filter1780"
       x="-0.35465354"
       width="1.7093071"
       y="-0.35096574"
       height="1.7019315">
      <feGaussianBlur
         inkscape:collect="always"
         stdDeviation="0.16582122"
         id="feGaussianBlur1782" />
    </filter>
    <filter
       inkscape:collect="always"
       style="color-interpolation-filters:sRGB"
       id="filter1798"
       x="-0.090189442"
       width="1.1803789"
       y="-0.46734631"
       height="1.9346926">
      <feGaussianBlur
         inkscape:collect="always"
         stdDeviation="0.10120345"
         id="feGaussianBlur1800" />
    </filter>
    <filter
       inkscape:collect="always"
       style="color-interpolation-filters:sRGB"
       id="filter1834"
       x="-0.54197383"
       width="2.0839477"
       y="-0.28692731"
       height="1.5738546">
      <feGaussianBlur
         inkscape:collect="always"
         stdDeviation="0.19204987"
         id="feGaussianBlur1836" />
    </filter>
    <filter
       inkscape:collect="always"
       style="color-interpolation-filters:sRGB"
       id="filter1838"
       x="-0.13738522"
       width="1.2747704"
       y="-0.54170793"
       height="2.0834157">
      <feGaussianBlur
         inkscape:collect="always"
         stdDeviation="0.19208146"
         id="feGaussianBlur1840" />
    </filter>
    <filter
       inkscape:collect="always"
       style="color-interpolation-filters:sRGB"
       id="filter1866"
       x="-0.072442144"
       width="1.1448843"
       y="-0.14766659"
       height="1.2953331">
      <feGaussianBlur
         inkscape:collect="always"
         stdDeviation="0.66959132"
         id="feGaussianBlur1868" />
    </filter>
    <filter
       inkscape:collect="always"
       style="color-interpolation-filters:sRGB"
       id="filter1908"
       x="-0.034542687"
       width="1.0690854"
       y="-0.17323409"
       height="1.3464682">
      <feGaussianBlur
         inkscape:collect="always"
         stdDeviation="0.3462372"
         id="feGaussianBlur1910" />
    </filter>
  </defs>
  <sodipodi:namedview
     id="base"
     pagecolor="#ffffff"
     bordercolor="#666666"
     borderopacity="1.0"
     inkscape:pageopacity="0.0"
     inkscape:pageshadow="2"
     inkscape:zoom="1.8202526"
     inkscape:cx="21.937695"
     inkscape:cy="69.681212"
     inkscape:document-units="mm"
     inkscape:current-layer="layer1"
     showgrid="false"
     units="px"
     inkscape:window-width="1449"
     inkscape:window-height="789"
     inkscape:window-x="153"
     inkscape:window-y="82"
     inkscape:window-maximized="0"
     fit-margin-top="0"
     fit-margin-left="0"
     fit-margin-right="0"
     fit-margin-bottom="0" />
  <metadata
     id="metadata831">
    <rdf:RDF>
      <cc:Work
         rdf:about="">
        <dc:format>image/svg+xml</dc:format>
        <dc:type
           rdf:resource="http://purl.org/dc/dcmitype/StillImage" />
        <dc:title></dc:title>
      </cc:Work>
    </rdf:RDF>
  </metadata>
  <g
     inkscape:label="Layer 1"
     inkscape:groupmode="layer"
     id="layer1"
     transform="translate(188.10942,-117.95572)">
    <rect
       style="opacity:1;fill:#9da233;fill-opacity:1;stroke:none;stroke-width:0.52916664;stroke-linecap:square;stroke-linejoin:miter;stroke-miterlimit:4;stroke-dasharray:none;paint-order:stroke fill markers"
       id="rect1379"
       width="43.297665"
       height="43.297665"
       x="-188.10942"
       y="117.95572" />
    <path
       style="opacity:0.52300002;fill:#8d8d36;fill-opacity:1;stroke:none;stroke-width:0.26458332px;stroke-linecap:butt;stroke-linejoin:miter;stroke-opacity:1;filter:url(#filter1622)"
       d="m -183.48053,124.60529 0.91328,5.2107 10.67783,1.03944 1.6064,3.1183 6.99256,0.56696 5.00818,3.30729 c 0,0 5.29167,0.47248 5.66964,0.56697 0.37798,0.0945 3.68527,0.56696 3.68527,0.56696 l -3.1183,-3.1183 -6.4256,-2.36235 -4.34672,-2.92932 -6.52009,-0.85044 c 0,0 -2.26786,-3.30729 -2.64584,-3.30729 -0.37797,0 -6.04761,-0.85045 -6.42559,-0.75596 -0.37798,0.0945 -4.25223,-1.03943 -4.25223,-1.03943 z"
       id="path1450"
       inkscape:connector-curvature="0" />
    <path
       style="opacity:0.54199997;fill:#8d8d36;fill-opacity:1;stroke:none;stroke-width:0.26458332px;stroke-linecap:butt;stroke-linejoin:miter;stroke-opacity:1;filter:url(#filter1618)"
       d="m -185.23415,145.33266 1.13393,4.63021 7.74851,-0.47247 0.94494,1.79538 8.50447,1.32292 0.47247,1.70089 c 0,0 10.58333,0.56697 10.96131,0.85045 0.37797,0.28348 4.91369,0.66146 4.91369,0.66146 l -1.03944,-2.92932 -7.9375,-1.6064 -5.29166,-1.32291 c 0,0 0.85044,-1.98438 -0.18899,-1.98438 -1.03944,0 -8.032,-0.85044 -8.032,-0.85044 l -5.29166,-2.55134 -3.2128,1.13392 z"
       id="path1452"
       inkscape:connector-curvature="0" />
    <ellipse
       style="opacity:0.73200001;fill:#80801e;fill-opacity:1;stroke:none;stroke-width:0.71416491;stroke-linecap:square;stroke-linejoin:miter;stroke-miterlimit:4;stroke-dasharray:none;paint-order:stroke fill markers;filter:url(#filter1834)"
       id="path1454"
       cx="-183.64919"
       cy="136.59636"
       rx="0.42522317"
       ry="0.80319941" />
    <ellipse
       ry="1.6771851"
       rx="0.42540479"
       cy="177.46138"
       cx="138.52415"
       id="ellipse1456"
       style="opacity:0.73200001;fill:#80801e;fill-opacity:1;stroke:none;stroke-width:1.03221464;stroke-linecap:square;stroke-linejoin:miter;stroke-miterlimit:4;stroke-dasharray:none;paint-order:stroke fill markers;filter:url(#filter1838)"
       transform="matrix(-0.03328086,0.99944604,-0.99997085,-0.00763523,0,0)"
       inkscape:transform-center-x="-3.3546961"
       inkscape:transform-center-y="-0.42522755" />
    <path
       inkscape:connector-curvature="0"
       id="path1626"
       d="m -184.75006,137.23964 0.91328,5.2107 10.67783,1.03944 1.6064,3.1183 0.94494,-4.25223 -2.64584,-3.30729 -6.42559,-0.75596 -4.25223,-1.03943 z"
       style="opacity:0.83225804;fill:#8d8d36;fill-opacity:1;stroke:none;stroke-width:0.26458332px;stroke-linecap:butt;stroke-linejoin:miter;stroke-opacity:1;filter:url(#filter1656)"
       sodipodi:nodetypes="ccccccccc"
       transform="rotate(-180,-167.85668,142.55863)" />
    <path
       style="fill:#7d7f1f;fill-opacity:1;stroke:none;stroke-width:0.26458332px;stroke-linecap:butt;stroke-linejoin:miter;stroke-opacity:1;filter:url(#filter1780)"
       d="m -167.15,124.37715 0.36617,-0.64965 0.67327,0.0472 0.0827,0.35436 -0.10631,0.36616 -0.41341,0.36616 -0.25986,-0.0827 -0.14174,-0.18898 -0.15355,-0.15356 -0.0118,-0.0473 z"
       id="path1662"
       inkscape:connector-curvature="0" />
    <path
       style="opacity:0.619;fill:#7e8020;fill-opacity:1;stroke:none;stroke-width:0.26458332px;stroke-linecap:butt;stroke-linejoin:miter;stroke-opacity:1;filter:url(#filter1798)"
       d="m -166.35859,124.69608 c 0.0472,0 2.56315,0.10631 2.56315,0.10631 l -1.54734,-0.38979 c 0,0 -0.38979,-0.12993 -0.4961,-0.12993 -0.1063,0 -0.55515,0.0118 -0.55515,0.0118 l -0.0945,0.22443 z"
       id="path1784"
       inkscape:connector-curvature="0" />
    <path
       inkscape:connector-curvature="0"
       id="path1802"
       d="m -155.9997,129.66882 0.36617,-0.64965 0.67327,0.0472 0.0827,0.35436 -0.10631,0.36616 -0.41341,0.36616 -0.25986,-0.0827 -0.14174,-0.18898 -0.15355,-0.15356 -0.0118,-0.0473 z"
       style="fill:#7d7f1f;fill-opacity:1;stroke:none;stroke-width:0.26458332px;stroke-linecap:butt;stroke-linejoin:miter;stroke-opacity:1;filter:url(#filter1780)" />
    <path
       inkscape:connector-curvature="0"
       id="path1804"
       d="m -155.20829,129.98775 c 0.0472,0 2.56315,0.10631 2.56315,0.10631 l -1.54734,-0.38979 c 0,0 -0.38979,-0.12993 -0.4961,-0.12993 -0.1063,0 -0.55515,0.0118 -0.55515,0.0118 l -0.0945,0.22443 z"
       style="opacity:0.619;fill:#7e8020;fill-opacity:1;stroke:none;stroke-width:0.26458332px;stroke-linecap:butt;stroke-linejoin:miter;stroke-opacity:1;filter:url(#filter1798)" />
    <path
       style="fill:#7d7f1f;fill-opacity:1;stroke:none;stroke-width:0.26458332px;stroke-linecap:butt;stroke-linejoin:miter;stroke-opacity:1;filter:url(#filter1780)"
       d="m -174.42604,139.68519 0.36617,-0.64965 0.67327,0.0472 0.0827,0.35436 -0.10631,0.36616 -0.41341,0.36616 -0.25986,-0.0827 -0.14174,-0.18898 -0.15355,-0.15356 -0.0118,-0.0473 z"
       id="path1806"
       inkscape:connector-curvature="0" />
    <path
       style="opacity:0.619;fill:#7e8020;fill-opacity:1;stroke:none;stroke-width:0.26458332px;stroke-linecap:butt;stroke-linejoin:miter;stroke-opacity:1;filter:url(#filter1798)"
       d="m -173.63463,140.00412 c 0.0472,0 2.56315,0.10631 2.56315,0.10631 l -1.54734,-0.38979 c 0,0 -0.38979,-0.12993 -0.4961,-0.12993 -0.1063,0 -0.55515,0.0118 -0.55515,0.0118 l -0.0945,0.22443 z"
       id="path1808"
       inkscape:connector-curvature="0" />
    <path
       inkscape:connector-curvature="0"
       id="path1810"
       d="m -152.14826,148.51374 0.36617,-0.64965 0.67327,0.0472 0.0827,0.35436 -0.10631,0.36616 -0.41341,0.36616 -0.25986,-0.0827 -0.14174,-0.18898 -0.15355,-0.15356 -0.0118,-0.0473 z"
       style="fill:#7d7f1f;fill-opacity:1;stroke:none;stroke-width:0.26458332px;stroke-linecap:butt;stroke-linejoin:miter;stroke-opacity:1;filter:url(#filter1780)" />
    <path
       inkscape:connector-curvature="0"
       id="path1812"
       d="m -151.35685,148.83267 c 0.0472,0 2.56315,0.10631 2.56315,0.10631 l -1.54734,-0.38979 c 0,0 -0.38979,-0.12993 -0.4961,-0.12993 -0.1063,0 -0.55515,0.0118 -0.55515,0.0118 l -0.0945,0.22443 z"
       style="opacity:0.619;fill:#7e8020;fill-opacity:1;stroke:none;stroke-width:0.26458332px;stroke-linecap:butt;stroke-linejoin:miter;stroke-opacity:1;filter:url(#filter1798)" />
    <path
       style="fill:#7d7f1f;fill-opacity:1;stroke:none;stroke-width:0.26458332px;stroke-linecap:butt;stroke-linejoin:miter;stroke-opacity:1;filter:url(#filter1780)"
       d="m -170.25686,152.18346 0.36617,-0.64965 0.67327,0.0472 0.0827,0.35436 -0.10631,0.36616 -0.41341,0.36616 -0.25986,-0.0827 -0.14174,-0.18898 -0.15355,-0.15356 -0.0118,-0.0473 z"
       id="path1814"
       inkscape:connector-curvature="0" />
    <path
       style="opacity:0.619;fill:#7e8020;fill-opacity:1;stroke:none;stroke-width:0.26458332px;stroke-linecap:butt;stroke-linejoin:miter;stroke-opacity:1;filter:url(#filter1798)"
       d="m -169.46545,152.50239 c 0.0472,0 2.56315,0.10631 2.56315,0.10631 l -1.54734,-0.38979 c 0,0 -0.38979,-0.12993 -0.4961,-0.12993 -0.1063,0 -0.55515,0.0118 -0.55515,0.0118 l -0.0945,0.22443 z"
       id="path1816"
       inkscape:connector-curvature="0" />
    <ellipse
       ry="0.80319941"
       rx="0.42522317"
       cy="136.59636"
       cx="-183.64919"
       id="ellipse1842"
       style="opacity:0.73200001;fill:#80801e;fill-opacity:1;stroke:none;stroke-width:0.71416491;stroke-linecap:square;stroke-linejoin:miter;stroke-miterlimit:4;stroke-dasharray:none;paint-order:stroke fill markers;filter:url(#filter1834)" />
    <ellipse
       ry="0.80319941"
       rx="0.42522317"
       cy="123.29635"
       cx="-151.96173"
       id="ellipse1844"
       style="opacity:0.73200001;fill:#80801e;fill-opacity:1;stroke:none;stroke-width:0.71416491;stroke-linecap:square;stroke-linejoin:miter;stroke-miterlimit:4;stroke-dasharray:none;paint-order:stroke fill markers;filter:url(#filter1834)" />
    <ellipse
       inkscape:transform-center-y="-0.42522755"
       inkscape:transform-center-x="-3.3546961"
       transform="matrix(-0.03328086,0.99944604,-0.99997085,-0.00763523,31.68745,-13.300008)"
       style="opacity:0.73200001;fill:#80801e;fill-opacity:1;stroke:none;stroke-width:1.03221464;stroke-linecap:square;stroke-linejoin:miter;stroke-miterlimit:4;stroke-dasharray:none;paint-order:stroke fill markers;filter:url(#filter1838)"
       id="ellipse1846"
       cx="138.52415"
       cy="177.46138"
       rx="0.42540479"
       ry="1.6771851" />
    <ellipse
       style="opacity:0.73200001;fill:#80801e;fill-opacity:1;stroke:none;stroke-width:0.71416491;stroke-linecap:square;stroke-linejoin:miter;stroke-miterlimit:4;stroke-dasharray:none;paint-order:stroke fill markers;filter:url(#filter1834)"
       id="ellipse1848"
       cx="-151.96173"
       cy="123.29635"
       rx="0.42522317"
       ry="0.80319941" />
    <ellipse
       style="opacity:0.73200001;fill:#80801e;fill-opacity:1;stroke:none;stroke-width:0.71416491;stroke-linecap:square;stroke-linejoin:miter;stroke-miterlimit:4;stroke-dasharray:none;paint-order:stroke fill markers;filter:url(#filter1834)"
       id="ellipse1850"
       cx="-161.70053"
       cy="146.11713"
       rx="0.42522317"
       ry="0.80319941" />
    <ellipse
       ry="1.6771851"
       rx="0.42540479"
       cy="177.46138"
       cx="138.52415"
       id="ellipse1852"
       style="opacity:0.73200001;fill:#80801e;fill-opacity:1;stroke:none;stroke-width:1.03221464;stroke-linecap:square;stroke-linejoin:miter;stroke-miterlimit:4;stroke-dasharray:none;paint-order:stroke fill markers;filter:url(#filter1838)"
       transform="matrix(-0.03328086,0.99944604,-0.99997085,-0.00763523,21.948647,9.5207702)"
       inkscape:transform-center-x="-3.3546961"
       inkscape:transform-center-y="-0.42522755" />
    <ellipse
       ry="0.80319941"
       rx="0.42522317"
       cy="146.11713"
       cx="-161.70053"
       id="ellipse1854"
       style="opacity:0.73200001;fill:#80801e;fill-opacity:1;stroke:none;stroke-width:0.71416491;stroke-linecap:square;stroke-linejoin:miter;stroke-miterlimit:4;stroke-dasharray:none;paint-order:stroke fill markers;filter:url(#filter1834)" />
    <path
       style="opacity:0.75199998;fill:#a7a93b;fill-opacity:1;stroke:none;stroke-width:0.26458332px;stroke-linecap:butt;stroke-linejoin:miter;stroke-opacity:1;filter:url(#filter1866)"
       d="m -182.56725,129.81599 6.70776,-0.50433 4.67657,2.31259 5.08769,2.2612 c 0,0 0.10278,0.5139 0.46252,0.66808 0.35974,0.15417 3.90571,0.15417 3.90571,0.15417 l 1.23338,3.44319 c 0,0 -0.25696,1.79868 -0.25696,2.00424 0,0.20556 -2.87788,-0.46252 -2.87788,-0.46252 l -3.85432,-4.41961 c 0,0 -3.80292,-0.46252 -4.11127,-0.51391 -0.30834,-0.0514 -2.56954,-1.43894 -2.87788,-1.59312 -0.30835,-0.15417 -2.56955,-0.87364 -2.77511,-0.77086 -0.20557,0.10278 -3.44319,-0.41113 -3.44319,-0.41113 0,0 -1.6959,-0.77086 -1.90146,-0.82225 -0.20556,-0.0514 0.0245,-1.34574 0.0245,-1.34574 z"
       id="path1856"
       inkscape:connector-curvature="0" />
    <path
       style="fill:#a5a93b;fill-opacity:1;stroke:none;stroke-width:0.26458332px;stroke-linecap:butt;stroke-linejoin:miter;stroke-opacity:1;filter:url(#filter1908)"
       d="m -179.58644,150.99063 4.17967,0.29515 1.63454,1.1584 2.07131,0.76312 c 0,0 2.18033,1.01748 2.39837,1.05382 0.21803,0.0363 2.87272,0.0485 2.87272,0.0485 l 3.12318,0.31492 3.12514,0.54509 c 0,0 3.05246,-0.0363 3.27049,-0.0363 0.21804,0 1.38088,0.54508 1.38088,0.54508 l -3.30683,0.10902 -3.59755,-0.14536 -3.59754,-0.14536 c 0,0 -2.36202,-0.4724 -2.6164,-0.4724 -0.25437,0 -1.34453,-0.18169 -1.52623,-0.18169 -0.18169,0 -2.28934,-1.09017 -2.28934,-1.09017 l -2.68907,-0.83579 -1.41722,-0.61776 -1.99863,-0.29071 -1.01749,-0.25437 0.14536,-0.72678 z"
       id="path1870"
       inkscape:connector-curvature="0" />
    <path
       style="fill:#aa9182;fill-opacity:1;stroke:#000000;stroke-width:1;stroke-linecap:butt;stroke-linejoin:miter;stroke-miterlimit:4;stroke-dasharray:none;stroke-opacity:1"
       d="m -185.6417,139.52365 2.90711,-2.54371 1.23552,0.87213 9.0847,-8.93935 5.88689,-9.15739 3.19782,6.10493 2.47104,1.09016 0.87213,1.67159 1.96229,-0.43607 4.65137,8.1399 1.67159,-0.36339 4.79672,5.5235 -0.21803,2.6164 -1.59891,0.79945 1.09017,2.54372 -0.0727,1.67158 -5.5235,1.16285 c 0,0 -1.3082,0.9448 -1.01749,1.09016 0.29071,0.14535 2.10765,1.9623 2.10765,1.9623 l -4.50601,3.63388 -3.85192,0.14535 -2.54371,0.29071 -2.03498,0.43607 -3.48853,-1.74426 -5.74153,1.74426 -6.54098,-3.19782 -5.24834,-0.86582 3.10114,-4.51535 c 0,0 -3.0856,-1.23249 -2.79488,-1.45053 0.29071,-0.21803 1.01748,-2.76175 1.38087,-2.9071 0.36339,-0.14536 1.01749,-1.67159 1.01749,-1.67159 l -1.3082,-2.10765 z"
       id="path2544"
       inkscape:connector-curvature="0"
       sodipodi:nodetypes="ccccccccccccccccccccccccccccccccc" />
    <path
       style="fill:#666666;fill-opacity:1;stroke:none;stroke-width:0.26458332px;stroke-linecap:butt;stroke-linejoin:miter;stroke-opacity:1;opacity:0.8"
       d="m -166.45482,119.75534 0.0727,3.48852 -0.0593,4.03147 0.17548,2.28463 0.10902,1.32325 -0.77024,1.4817 -0.35005,1.05802 -1.65419,0.74066 -0.90286,1.39913 0.0363,1.05383 0.98115,1.19918 0.32705,1.45355 0.9448,-0.58142 -0.43606,-2.18033 1.1265,-1.74426 c 0,0 0.98115,-0.29071 1.1265,-0.29071 0.14536,0 0.79946,-0.72678 0.79946,-0.72678 l 0.25437,-1.48989 -0.36339,-0.90847 c 0,0 0.94481,-0.76312 1.09017,-0.79945 0.14535,-0.0363 0.6541,-0.47241 0.6541,-0.47241 l 0.39063,-0.43607 0.49058,-0.25437 c 0,0 1.34314,0.46308 1.52483,0.53576 0.18169,0.0727 0.98115,0.29071 0.98115,0.29071 l 1.53672,-1.37151 -1.82908,0.44359 -0.58803,-1.42014 -0.50817,-0.76771 -0.94481,-0.58142 -1.09016,-0.6541 z"
       id="path2546"
       inkscape:connector-curvature="0"
       sodipodi:nodetypes="cccccccccccccccscccccccccccccccc" />
    <path
       style="fill:none;stroke:#000000;stroke-width:1;stroke-linecap:butt;stroke-linejoin:miter;stroke-miterlimit:4;stroke-dasharray:none;stroke-opacity:1"
       d="m -148.72146,144.9018 -2.36398,-2.41537 -4.21405,-6.47525 -3.85431,3.34041 -2.67232,-2.15842 -2.20981,-0.51391 -1.74509,2.42358 c -0.98537,0.68652 -1.24863,1.73409 -1.87295,2.60114"
       id="path2548"
       inkscape:connector-curvature="0"
       sodipodi:nodetypes="cccccccc" />
    <path
       style="fill:none;stroke:#000000;stroke-width:1;stroke-linecap:butt;stroke-linejoin:miter;stroke-miterlimit:4;stroke-dasharray:none;stroke-opacity:1"
       d="m -186.09333,153.77478 5.96261,-8.38732 7.38931,-4.2649 1.16284,-1.41721 1.09017,-1.12651 1.99863,0.69044 0.8358,2.4347 0.58142,2.28935 0.29071,0.72677 2.07131,0.87214 c 0,0 1.16284,1.96229 1.27186,2.10765 0.10902,0.14535 0.6541,1.7806 0.72678,1.92595 0.0727,0.14536 2.253,3.23416 2.253,3.23416 l 1.70792,1.96229 2.03498,2.10766"
       id="path2550"
       inkscape:connector-curvature="0"
       sodipodi:nodetypes="ccccccccccccccc" />
    <path
       style="fill:none;stroke:#000000;stroke-width:0.26458332px;stroke-linecap:butt;stroke-linejoin:miter;stroke-opacity:1"
       d="m -176.55813,148.46073 2.04792,-0.73872 1.23914,-1.91477"
       id="path2552"
       inkscape:connector-curvature="0"
       sodipodi:nodetypes="ccc" />
    <path
       style="fill:none;stroke:#000000;stroke-width:0.26458332px;stroke-linecap:butt;stroke-linejoin:miter;stroke-opacity:1"
       d="m -173.6708,154.67392 0.73591,-1.78586 1.77147,-0.75786"
       id="path2554"
       inkscape:connector-curvature="0"
       sodipodi:nodetypes="ccc" />
    <path
       style="fill:none;stroke:#000000;stroke-width:0.26458332px;stroke-linecap:butt;stroke-linejoin:miter;stroke-opacity:1"
       d="m -177.93952,138.36616 3.16148,-4.57869"
       id="path2556"
       inkscape:connector-curvature="0" />
    <path
       style="fill:none;stroke:#000000;stroke-width:0.26458332px;stroke-linecap:butt;stroke-linejoin:miter;stroke-opacity:1"
       d="m -172.3837,133.3223 0.72678,3.63388 -1.59891,1.09016 -0.50874,1.7806 0.39972,1.38088"
       id="path2558"
       inkscape:connector-curvature="0" />
    <path
       style="fill:none;stroke:#000000;stroke-width:0.26458332px;stroke-linecap:butt;stroke-linejoin:miter;stroke-opacity:1"
       d="m -155.41656,138.13968 c 0,0 -0.76311,2.03498 -0.76311,2.18033 0,0.14536 0.21803,2.07132 0.32705,2.25301 0.10901,0.18169 -0.1817,1.74426 -0.1817,1.74426 l -0.54508,0.47241 0.54508,2.03497 0.0363,1.63525 c 0,0 -1.05383,1.41721 -1.09016,1.52623 -0.0363,0.10901 -0.1817,1.63524 -0.1817,1.63524 l -0.0727,2.03498"
       id="path2560"
       inkscape:connector-curvature="0" />
    <path
       style="opacity:0.3;fill:#000000;fill-opacity:1;stroke:none;stroke-width:1;stroke-linecap:butt;stroke-linejoin:miter;stroke-miterlimit:4;stroke-dasharray:none;stroke-opacity:1"
       d="m -154.39914,151.87576 2.8533,-2.87779 2.75214,-0.059 1.77702,-6.57701 -11.35272,-13.52189 -1.53672,1.37151 -2.50598,-0.82647 -2.62548,1.9623 0.10902,2.39836 -1.92596,1.01749 -1.29661,1.72524 4.1152,0.19075 4.85741,2.10276 3.97464,-3.5474 1.83105,1.09122 -2.61993,6.87771 -0.24167,7.05599 0.60911,0.96121"
       id="path2562"
       inkscape:connector-curvature="0"
       sodipodi:nodetypes="cccccccccccccccccc" />
    <path
       style="fill:#dff1ff;fill-opacity:1;stroke:none;stroke-width:0.26458332px;stroke-linecap:butt;stroke-linejoin:miter;stroke-opacity:1"
       d="m -166.52748,119.75533 -2.90137,4.88207 -1.15629,1.7216 c 0,0 1.19567,3.20832 1.24706,3.3625 0.0514,0.15417 -3.17421,2.54744 -3.17421,2.54744 0,0 4.41961,-0.5653 4.49669,-0.46251 0.0771,0.10278 1.08843,0.55848 1.08843,0.55848 l 0.77025,-1.4817 -0.2845,-3.60788 -0.10616,-2.41395 0.16546,-1.61752 z"
       id="path6253"
       inkscape:connector-curvature="0"
       sodipodi:nodetypes="cccccccccccc" />
    <path
       style="opacity:0.3;fill:#000000;stroke:none;stroke-width:0.26458332px;stroke-linecap:butt;stroke-linejoin:miter;stroke-opacity:1"
       d="m -170.19438,140.21321 0.39973,5.48716 2.76175,2.83443 1.7806,5.41448 0.17835,3.88914 6.8184,-1.46957 -4.34402,-5.254 -1.85328,-4.57869 -2.32899,-1.81606 -1.70793,-5.45082 -1.37756,0.32617 z"
       id="path877"
       inkscape:connector-curvature="0"
       sodipodi:nodetypes="cccccccccccc" />
    <path
       style="fill:#000000;stroke:#000000;stroke-width:0.26458332px;stroke-linecap:butt;stroke-linejoin:miter;stroke-opacity:1;opacity:0.3"
       d="m -163.83509,137.41512 -0.32572,1.09406 0.53235,1.18343 2.33709,0.48426 0.90847,0.61776 -0.10902,-1.56257 -1.3342,-2.03889 -1.31853,-0.25046 z"
       id="path879"
       inkscape:connector-curvature="0" />
  </g>
</svg>
