<?xml version="1.0" encoding="UTF-8" standalone="no"?>
<!-- Created with Inkscape (http://www.inkscape.org/) -->

<svg
   xmlns:dc="http://purl.org/dc/elements/1.1/"
   xmlns:cc="http://creativecommons.org/ns#"
   xmlns:rdf="http://www.w3.org/1999/02/22-rdf-syntax-ns#"
   xmlns:svg="http://www.w3.org/2000/svg"
   xmlns="http://www.w3.org/2000/svg"
   xmlns:xlink="http://www.w3.org/1999/xlink"
   xmlns:sodipodi="http://sodipodi.sourceforge.net/DTD/sodipodi-0.dtd"
   xmlns:inkscape="http://www.inkscape.org/namespaces/inkscape"
   width="153.96806"
   height="96.813484"
   viewBox="0 0 40.737384 25.615233"
   version="1.1"
   id="svg8"
   inkscape:version="0.92.2 5c3e80d, 2017-08-06"
   sodipodi:docname="bush.svg">
  <defs
     id="defs2">
    <linearGradient
       id="linearGradient1102"
       inkscape:collect="always">
      <stop
         id="stop1098"
         offset="0"
         style="stop-color:#79f215;stop-opacity:1" />
      <stop
         id="stop1100"
         offset="1"
         style="stop-color:#63a708;stop-opacity:1" />
    </linearGradient>
    <linearGradient
       inkscape:collect="always"
       id="linearGradient1001">
      <stop
         style="stop-color:#005522;stop-opacity:1;"
         offset="0"
         id="stop997" />
      <stop
         style="stop-color:#9bcb21;stop-opacity:1"
         offset="1"
         id="stop999" />
    </linearGradient>
    <linearGradient
       inkscape:collect="always"
       xlink:href="#linearGradient1001"
       id="linearGradient1003"
       x1="126.44718"
       y1="-96.634651"
       x2="125.54949"
       y2="-103.15474"
       gradientUnits="userSpaceOnUse" />
    <radialGradient
       inkscape:collect="always"
       xlink:href="#linearGradient1102"
       id="radialGradient1058"
       gradientUnits="userSpaceOnUse"
       gradientTransform="matrix(-0.25701372,0.96142572,-1.102064,-0.29460994,-200.76417,-131.96897)"
       cx="83.768974"
       cy="-425.74872"
       fx="83.768974"
       fy="-425.74872"
       r="7.7429543" />
  </defs>
  <sodipodi:namedview
     id="base"
     pagecolor="#ffffff"
     bordercolor="#666666"
     borderopacity="1.0"
     inkscape:pageopacity="0.0"
     inkscape:pageshadow="2"
     inkscape:zoom="1.8101934"
     inkscape:cx="7.3218796"
     inkscape:cy="14.878191"
     inkscape:document-units="mm"
     inkscape:current-layer="layer1"
     showgrid="false"
     inkscape:window-width="1635"
     inkscape:window-height="932"
     inkscape:window-x="1680"
     inkscape:window-y="-22"
     inkscape:window-maximized="0"
     units="px"
     showguides="true"
     inkscape:guide-bbox="true"
     inkscape:snap-global="false"
     fit-margin-top="0"
     fit-margin-left="0"
     fit-margin-right="0"
     fit-margin-bottom="0" />
  <metadata
     id="metadata5">
    <rdf:RDF>
      <cc:Work
         rdf:about="">
        <dc:format>image/svg+xml</dc:format>
        <dc:type
           rdf:resource="http://purl.org/dc/dcmitype/StillImage" />
        <dc:title />
      </cc:Work>
    </rdf:RDF>
  </metadata>
  <g
     inkscape:label="Layer 1"
     inkscape:groupmode="layer"
     id="layer1"
     transform="translate(-231.94098,-188.87545)">
    <path
       style="fill:#729424;fill-opacity:1;stroke:#000000;stroke-width:0.40000001;stroke-linecap:butt;stroke-linejoin:miter;stroke-miterlimit:4;stroke-dasharray:none;stroke-opacity:1"
       d="m 233.61537,206.55658 c -0.97753,-0.80722 0.54161,-1.20643 1.11996,-0.64015 -0.12891,-0.6393 -1.27121,-2.32953 0.17752,-1.3736 1.66337,1.25466 -0.24303,-2.74534 1.21492,-0.86152 0.71953,0.48691 -0.2574,-2.97783 1.1154,-1.44544 1.26798,0.2328 -0.55682,-3.49577 1.28899,-2.21007 1.47577,1.56097 0.88172,-1.03588 0.63166,-1.85431 0.6925,-0.67688 1.93461,1.88168 1.58406,-0.0929 -9.1e-4,-1.01256 1.00633,-3.09684 1.32364,-1.17928 1.05737,1.0082 1.21762,-2.64385 2.45611,-1.13436 0.4422,2.42674 1.6477,-2.94345 2.26379,-0.45264 0.65152,1.54801 1.4721,-1.50894 2.53946,-1.46877 0.73726,-0.26323 0.20722,2.09965 0.9898,0.77084 0.47075,-0.57026 1.00888,-2.03026 1.11429,-0.42607 0.69751,0.58057 1.63931,-2.21311 2.35155,-1.08201 0.25816,1.71188 1.99401,-1.47894 3.0946,-0.38462 0.0758,0.74485 -0.0475,1.34765 0.85568,0.67694 0.78836,-0.76985 1.96492,-0.63309 1.47457,0.68993 0.40639,1.30069 2.08471,-2.42464 1.81116,-0.074 0.58237,1.23439 3.2471,-2.32453 2.75733,0.18877 -0.84863,2.06154 2.6955,-0.19905 1.87887,1.56792 -1.03743,1.7088 3.05194,-0.6196 1.89336,1.18039 -0.33659,0.55434 -0.38004,2.14657 0.42984,0.99335 1.26768,-1.4619 -0.087,2.41481 1.38797,1.15314 1.01871,-0.43946 1.87914,0.5007 0.78882,1.16293 -1.15338,1.50476 2.40889,0.22753 1.08503,1.54122 -0.91785,0.45875 -0.86899,1.29392 0.23401,1.21148 1.2847,0.71755 -1.7789,0.5641 -0.4879,1.70915 0.76644,0.72951 0.22473,1.34948 -0.62595,1.076 0.26576,0.83109 0.94346,3.09255 -0.66479,1.82965 -1.16778,0.0752 1.6545,1.94783 -0.10159,1.37863 0.85817,1.61408 -1.41846,-0.77452 -1.08121,0.70352 0.22929,0.9474 -1.89534,-1.23116 -1.17436,0.41637 -0.20777,0.7869 -1.99282,-1.60438 -1.38709,0.18479 -0.50026,-0.28672 -1.70286,-1.10509 -1.51578,0.13405 -0.38833,-0.64171 -1.63528,-1.2474 -1.66729,-0.0553 -0.39838,-0.90196 -1.11563,-0.68783 -1.51625,-0.0247 -0.40307,-1.14137 -0.65769,-0.5886 -1.24585,-0.10213 -0.368,-0.58332 -0.78967,-1.73286 -0.92327,-0.27359 -0.23305,1.24255 -1.24974,-1.51417 -1.06408,0.19184 -0.91625,-0.46067 -1.96358,-1.23519 -1.77004,0.29567 -0.58601,-0.82234 -1.29051,-0.65119 -1.53567,0.25347 -0.52101,-0.63994 -1.10687,-1.21193 -1.69823,-0.25676 -0.52815,-0.54655 -1.21516,-1.88692 -1.61168,-0.30546 -0.41393,-0.39982 -1.04737,-1.49096 -1.1401,-0.13176 -0.44857,0.72482 -1.30959,-1.83144 -1.40476,-0.0694 -0.64148,-0.12213 -1.50408,-1.29167 -1.34778,0.21446 -0.44981,-0.49632 -1.14854,-1.50315 -1.38921,-0.1275 -0.59632,0.68327 -0.73975,-1.93972 -1.29564,-0.35131 -0.52301,1.1613 -0.88767,-1.65791 -1.36008,0.0116 -0.37635,0.73386 -0.60062,-1.73196 -1.03325,-0.4023 -0.39707,1.51138 -1.06003,-0.83665 -1.74377,0.30644 -0.62703,-0.89156 -0.94423,-0.57006 -1.28301,0.21841 -0.39056,-1.40054 -1.84087,-1.53028 -2.65147,-0.34321 -0.24075,-1.09461 -1.62941,-1.37044 -2.30959,-0.50273 -0.15722,-0.42157 -0.85652,-1.69009 -1.1089,-0.63356 -0.65791,-0.1134 -0.89228,-1.15202 -0.0798,-1.19138 -1.10802,0.14658 -0.0625,-0.78113 0.356,-0.61011 z"
       id="path7383"
       inkscape:connector-curvature="0" />
    <path
       style="fill:#5a700c;fill-opacity:1;stroke:none;stroke-width:0.27129439px;stroke-linecap:butt;stroke-linejoin:miter;stroke-opacity:1"
       d="m 238.95156,205.50255 c 0.19197,-0.1987 0.76721,-0.88459 0.95198,-0.30029 0.24964,0.48486 0.99019,-0.12931 1.49241,0.0545 0.29036,0.44467 0.16985,0.89914 0.79755,0.73666 0.80227,-0.20084 1.00252,0.88704 1.56964,0.92754 0.57931,-0.16266 0.96623,0.011 1.31228,0.49109 0.35149,0.0938 0.49596,-0.74404 1.0805,-0.51853 0.49257,0.13832 0.76463,0.61546 1.338,0.4913 0.50321,-0.0293 1.05914,-0.79232 1.23488,-0.0816 0.25084,0.13798 0.97633,0.0571 1.08069,-0.38203 0.27384,-0.23464 0.66433,0.41072 1.18369,-0.0818 0.52881,-0.30422 1.02317,0.55956 1.3636,0.0272 0.7329,-0.0728 0.95917,-0.80142 1.38935,-1.33673 0.41367,-0.55711 0.83632,0.25763 1.06695,0.30532 0.006,0.24525 0.68908,-0.0287 0.80033,0.57883 0.22485,0.56348 1.59088,-0.13808 1.52838,-0.23158 0.58984,-0.42341 0.96862,-0.48261 1.45568,-0.34733 0.0118,0.47284 0.64639,-0.003 0.68696,0.63641 0.25166,0.25268 0.83498,-0.4335 1.27793,-0.28935 0.1539,0.50189 1.01488,-0.45962 1.34648,-0.34698 0.183,0.47961 1.14822,-0.12779 1.60116,0.1539 0.25282,0.17679 1.29833,-0.57189 1.5651,-0.46281 0.16621,-0.0323 0.50606,-0.67278 0.72807,-0.27022 0.25582,-0.079 1.00027,-0.59208 1.05504,-0.926 -0.36424,-0.45076 0.406,-0.44353 0.69136,-0.0385 0.30002,0.2184 0.45677,0.64291 0.54547,1.25505 0.11943,0.541 -0.25217,0.68758 0.0728,1.21367 0.28786,-0.32386 0.67731,1.07102 0.29142,1.46599 0.0101,0.86467 -0.9124,0.70014 -1.45521,0.50158 -0.54071,0.57789 -1.47598,1.08323 -1.74661,0.0771 -0.26066,-0.32697 -0.93203,-0.0744 -1.36923,-0.1542 -0.51496,-0.0615 -0.95495,-0.0303 -1.14092,0.0771 -0.45186,-0.77288 -1.41612,0.0338 -2.07393,0.0385 -0.6036,-0.59255 -1.78207,-1.24078 -2.47437,-0.42438 -0.82563,-0.23245 -1.62685,-0.19775 -2.43792,0.27008 -0.71926,-0.15095 -1.37622,0.31713 -2.00128,0.42446 -0.53241,-0.4739 -1.10658,-0.75473 -1.91461,-0.54016 -0.74126,-0.21061 -1.20278,0.78888 -1.83327,0.4629 -0.38116,-0.23593 -1.0648,-0.0842 -1.60112,-0.1542 -0.79282,-0.21588 -0.87212,0.45147 -1.71043,4.2e-4 -0.64027,-0.12817 -0.92546,0.32426 -1.45542,0.077 -0.73593,-0.17152 -0.63015,0.39409 -1.20094,-0.34689 -0.54939,-0.0625 -0.88407,-0.23154 -1.34512,-0.1144 -0.69827,0.0949 -1.69006,-0.64145 -1.92012,-0.0452 0.15011,-0.0302 -0.58529,-0.15667 -1.01514,0.083 -0.25988,-0.54109 -0.67326,-0.72511 -1.31641,-0.57889 -0.48935,0.0564 -0.85804,-0.35642 -1.09832,-0.0768 -0.26911,-0.13724 -0.49738,-0.71236 -0.18176,-1.00289 0.39001,0.1164 0.67576,-0.25452 0.76383,-0.61725 0.23942,-0.0204 0.70307,-0.19645 0.76363,-0.38598 0.0341,-0.0105 -0.0143,-0.16107 0.25697,-0.29457 z"
       id="path7930"
       inkscape:connector-curvature="0" />
    <path
       style="fill:#628c20;fill-opacity:1;stroke:none;stroke-width:0.27129439px;stroke-linecap:butt;stroke-linejoin:miter;stroke-opacity:1"
       d="m 239.91909,201.30988 c 0.19197,-0.19854 0.76732,-0.88489 0.95211,-0.30038 0.24973,0.48475 0.99022,-0.12944 1.49241,0.0544 0.29016,0.44465 0.16975,0.89924 0.79735,0.73665 0.80226,-0.20071 1.00248,0.88708 1.56965,0.92763 0.57928,-0.16263 0.96619,0.011 1.31228,0.491 0.35146,0.0938 0.49624,-0.74421 1.08068,-0.51862 0.49246,0.1384 0.76463,0.6152 1.3379,0.4911 0.50334,-0.0292 1.05906,-0.79244 1.2349,-0.0818 0.25082,0.13798 0.97633,0.0571 1.08068,-0.38203 0.27369,-0.23485 0.66429,0.4107 1.18359,-0.0819 0.52877,-0.30403 1.02315,0.55966 1.36362,0.0273 0.73282,-0.0728 0.95919,-0.8015 1.38935,-1.33684 0.41361,-0.55726 0.8363,0.25771 1.06698,0.30544 0.007,0.24531 0.68926,-0.0285 0.8004,0.57893 0.2248,0.56369 1.59087,-0.13803 1.52838,-0.23148 0.58977,-0.42333 0.96855,-0.48278 1.45548,-0.34743 0.0119,0.47262 0.64649,-0.003 0.68707,0.6364 0.25167,0.25266 0.83499,-0.4335 1.27793,-0.28936 0.15396,0.50192 1.0149,-0.45982 1.34657,-0.34707 0.18308,0.47943 1.14823,-0.12788 1.60116,0.1538 0.25281,0.17708 1.29833,-0.57198 1.56521,-0.4628 0.16625,-0.0323 0.506,-0.6727 0.72799,-0.27032 0.25579,-0.0789 1.00013,-0.59203 1.05504,-0.92581 -0.36422,-0.45048 0.40583,-0.44372 0.69137,-0.0385 0.30007,0.2185 0.45672,0.64273 0.54548,1.25505 0.11939,0.54094 -0.25216,0.68752 0.0728,1.21376 0.28773,-0.3238 0.67728,1.07108 0.29134,1.46588 0.0101,0.86472 -0.91237,0.69985 -1.45531,0.50159 -0.54071,0.57791 -1.47596,1.08321 -1.74661,0.0771 -0.26066,-0.32696 -0.93203,-0.0744 -1.36923,-0.1542 -0.51494,-0.0614 -0.95483,-0.0304 -1.14091,0.0771 -0.45189,-0.77292 -1.41616,0.0339 -2.07401,0.0385 -0.6036,-0.59254 -1.78206,-1.24077 -2.47435,-0.42437 -0.8257,-0.23242 -1.62682,-0.19771 -2.43803,0.26997 -0.71925,-0.15102 -1.37633,0.31732 -2.00126,0.42435 -0.5324,-0.47396 -1.10653,-0.75483 -1.91458,-0.54015 -0.74127,-0.21069 -1.20279,0.78876 -1.83326,0.46277 -0.38111,-0.23572 -1.06474,-0.0842 -1.6011,-0.1542 -0.79283,-0.21608 -0.87202,0.45136 -1.71033,3.1e-4 -0.64028,-0.12817 -0.92546,0.32428 -1.45543,0.077 -0.73608,-0.17151 -0.63001,0.3941 -1.20094,-0.34708 -0.54956,-0.0625 -0.88398,-0.23167 -1.34511,-0.1145 -0.69829,0.0947 -1.69001,-0.64115 -1.92003,-0.045 0.15021,-0.0302 -0.58555,-0.15674 -1.01526,0.0831 -0.25962,-0.54122 -0.67311,-0.72524 -1.3162,-0.57907 -0.48943,0.0563 -0.85812,-0.35611 -1.09841,-0.0768 -0.26907,-0.13693 -0.49745,-0.71243 -0.18166,-1.00289 0.39004,0.1164 0.67579,-0.25455 0.76383,-0.61735 0.2393,-0.0202 0.70317,-0.19671 0.7636,-0.38579 0.0339,-0.0101 -0.0139,-0.16263 0.25687,-0.29349 z"
       id="path8118"
       inkscape:connector-curvature="0" />
    <path
       style="fill:#89ae22;fill-opacity:1;stroke:none;stroke-width:0.27521089px;stroke-linecap:butt;stroke-linejoin:miter;stroke-opacity:1"
       d="m 240.58676,200.40851 c -0.10397,-0.69754 0.60044,-1.28744 0.34219,-1.86207 -0.0892,-0.29551 0.2398,0.0689 0.38,0.30402 -0.0244,0.15195 0.26344,0.58478 0.3038,0.68371 0.22191,-0.46418 -0.0711,-1.53911 0.41783,-1.36838 0.18233,0.34593 0.24026,0.8273 0.5696,0.98755 0.0572,0.25676 0.20898,-0.66044 0.64595,-0.68369 0.53556,-0.61203 0.3799,-0.15733 0.53187,0.22807 0.25265,0.51077 0.24398,-0.071 0.56962,-0.34208 0.44089,-0.59179 0.68769,0.0485 0.75513,0.51329 0.14236,0.2399 0.46001,-0.0596 0.61221,-0.47496 0.3546,-0.0399 0.15937,-1.33115 0.53182,-0.72175 -0.0265,0.32478 0.47496,0.68789 0.3795,0.87342 -0.0474,-0.32256 0.20058,-1.27136 0.30362,-1.44415 0.10948,-0.32105 0.30356,0.81013 0.49333,0.87418 0.43449,-0.18441 0.95958,-0.89187 1.48201,-0.9878 0.10307,0.0711 0.2008,0.8238 0.3415,0.87436 0.1164,-0.0838 0.2034,-0.87212 0.4555,-1.13996 0.0161,-0.62836 0.25488,-0.0205 0.45567,0.30386 0.28529,0.19881 0.46004,0.97208 0.60763,0.5317 0.13956,-0.41297 0.36977,-0.87402 0.57,-1.17788 -0.0615,0.17861 0.25888,0.95645 0.37116,1.21949 0.35299,-0.58723 0.7885,-1.18835 1.07231,-1.48566 0.22741,-0.19698 0.0653,0.29936 0.1141,0.72243 0.0654,0.48453 0.32376,0.54786 0.38144,0.41732 0.45873,-0.20366 0.37343,-0.57272 0.4938,-0.79812 0.20203,-0.43277 0.11026,0.0611 0.1899,0.26615 0.0707,0.0598 0.22601,0.62834 0.34183,0.3041 0.46572,-0.45089 0.8468,-0.98187 1.17824,-1.36799 0.31999,-0.32138 -0.15927,0.53603 -0.0381,0.73331 0.0275,0.25877 0.0394,0.33486 0.1898,0.44461 0.44056,-0.39866 1.11196,-0.67811 1.71007,-0.87401 0.4576,-0.33308 -0.11873,0.63031 0.19435,0.73294 -0.12143,0.43761 0.6149,-0.0982 0.98393,-0.39085 0.4985,-0.17326 0.61731,-0.901 0.68399,-0.26581 0.25187,0.48501 0.40631,0.7126 0.60802,0.95003 0.0426,0.26918 0.61982,-0.44653 0.94981,-0.57021 0.54657,-0.25142 0.50766,-0.15695 0.49402,0.49445 0.0964,0.35375 -0.0848,0.50077 0.45606,0.37985 0.46909,-0.22096 1.09861,-0.4427 1.55513,-0.45855 0.57206,-0.21887 -0.20325,0.59238 -0.11119,0.72433 -0.30801,0.54727 0.64257,-0.14692 1.01092,1.3e-4 0.60287,-0.0728 0.0457,0.24936 -0.0225,0.53143 -0.22014,0.61169 0.85181,-0.1011 0.94976,3.5e-4 0.17244,-0.13307 0.59157,-0.22105 0.34192,-0.0378 -0.16339,0.14588 -0.15534,0.33119 -0.22791,0.53203 0.35091,-0.0522 0.96246,-0.079 1.1401,-0.228 0.18513,0.23512 -0.20989,0.72415 -0.1518,0.91187 -0.3787,0.25779 -0.13788,0.11256 0.494,-0.1517 0.38103,-0.1142 0.6475,-0.17566 0.53207,0.5321 -0.0577,0.24183 -0.24116,0.48745 -0.0369,0.45037 0.2168,-0.30238 1.27268,-0.19988 1.10086,-0.0319 -0.1856,0.14411 -0.73174,0.32386 -0.94992,0.49373 -0.18179,0.24329 0.53366,0.0979 0.79778,0.3801 0.33868,-0.002 0.47307,0.14847 0.57002,0.30363 0.0739,0.21292 0.18926,0.36079 0.26592,0.45583 -0.17082,-0.0502 -0.41764,-0.25549 -0.5697,-0.342 -0.11438,-0.11446 -0.39208,0.008 -0.18995,0.18994 0.11403,0.0592 0.0838,0.59955 0.0378,0.3424 -0.27453,-0.26526 -0.55276,-0.31397 -0.79743,-0.49382 -0.3985,-0.11001 -0.40581,-0.10322 -0.30395,0.19033 0.0414,0.1909 0.40948,0.9947 -0.0897,0.45308 -0.0707,-0.34579 -0.67663,-0.49552 -1.12612,-0.64321 -0.33886,-0.17958 -0.15307,0.0241 -0.0381,0.2664 0.0429,0.29578 0.39565,1.19833 -0.0761,0.60796 -0.2157,-0.28552 -0.77139,-0.39253 -0.83616,-0.60787 -0.29748,-0.0892 -0.25865,0.73812 -0.19003,1.10209 -0.14352,0.0152 -0.15167,-0.19721 -0.3039,-0.37943 -0.17161,-0.12651 -0.26814,-0.33593 -0.41772,-0.34164 -0.19997,0.0622 -0.1633,0.74494 -0.34139,0.77834 0.022,-0.14577 -0.19108,-0.65492 -0.26656,-0.85416 -0.36768,-0.0998 -0.36093,-0.73773 -0.64602,-0.45575 -0.10663,0.10332 -0.14495,1.0745 -0.3041,0.53179 -0.0457,-0.20022 -0.27568,-0.46387 -0.45599,-0.6074 -0.20892,-0.0674 -1.00926,-0.61903 -0.54,0.14402 0.0624,0.24497 -0.10596,1.01306 -0.14383,0.76875 0.007,-0.13485 -0.17616,-0.46179 -0.3039,-0.60779 -0.25989,-0.22792 -0.40113,-0.55534 -0.49373,-0.26613 -0.0412,0.49765 -0.14184,0.76285 -0.15231,1.25765 -0.0809,0.13661 -0.22738,-0.48728 -0.34139,-0.76407 -0.14896,-0.29709 -0.26085,-0.47154 -0.3039,-0.3415 0.0124,0.20757 -0.56138,1.04229 -0.5318,0.87421 0.004,-0.37077 -0.013,-0.38617 -0.152,-0.79831 -0.21956,-0.37264 -0.22539,-0.47944 -0.3418,-0.038 -0.12027,0.21022 -0.28099,0.55968 -0.45667,0.51272 0.0412,-0.11862 -0.0736,-0.59624 8.5e-4,-0.70312 -0.11126,-0.11091 -0.28612,-0.79092 -0.38546,-0.46422 -0.12818,0.0457 -0.41358,0.704 -0.41224,0.49054 -0.006,-0.25149 0.007,-0.61468 -0.16274,-0.97692 -0.14835,-0.61857 -0.2075,-0.10798 -0.36906,0.22789 -0.31079,0.68045 -0.2686,0.19406 -0.3799,-0.22796 0.0395,-0.45917 -0.10834,-0.98656 -0.3421,-0.60822 -0.37605,0.32229 -0.43579,0.35548 -0.37996,-0.11449 -0.0232,-0.35086 -0.0659,-0.39973 -0.114,-0.72187 -0.0558,-0.0712 -0.26019,0.29613 -0.41802,0.45573 -0.12152,0.3344 -0.39652,0.83521 -0.3799,0.33031 0.0699,-0.21103 -0.14359,-0.43528 -0.3417,-0.59685 -0.2482,-0.13225 -0.36868,-0.34644 -0.3037,-4.2e-4 -0.12853,0.37232 -0.3006,0.65181 -0.30413,1.25406 -0.10291,-0.002 -0.32331,-0.55371 -0.60783,-0.76001 -0.15923,-0.20786 -0.30796,0.60223 -0.266,1.02242 0.03,0.6356 -0.0347,0.6625 -0.19,0.42202 -0.0581,-0.0904 -0.35197,-0.22105 -0.46921,-0.3821 -0.15295,-0.0154 -0.24823,0.30048 -0.21448,0.5716 -0.21859,0.31396 0.0701,1.04084 -0.152,1.10224 -0.0519,-0.13665 -0.2907,-0.3698 -0.24849,-0.77639 -0.14349,0.0139 -0.16682,0.34274 -0.18743,0.53786 -0.15961,0.28631 -0.27894,0.34323 -0.46552,0.60996 -0.34774,0.37636 -0.61176,0.72381 -0.73207,0.23741 -0.0777,-0.22793 -0.14626,-0.73173 -0.2656,-0.45584 -0.1548,0.11248 -0.61226,0.70147 -0.7975,0.64577 -0.11614,-0.35275 -0.24919,-0.78026 -0.53153,-0.98725 -0.26059,0.0639 -0.22498,0.64481 -0.3795,1.02594 -0.065,0.11718 -0.22029,-0.60933 -0.3414,-0.87377 -0.26872,-0.55402 -0.54746,-0.29026 -0.6461,0.15159 -0.0963,0.30216 -0.33467,0.1486 -0.4153,-0.0522 -0.2113,-0.11561 0.008,-0.67521 -0.23003,-0.67006 -0.28648,0.0743 -0.38786,0.35824 -0.5316,0.60779 -0.25664,0.32629 -0.23631,0.7547 -0.4174,0.53179 -0.0498,0.0563 -0.30011,-0.82612 -0.60732,-0.8738 -0.0239,0.006 -0.30874,0.50467 -0.5322,0.91219 -0.103,0.003 -0.0645,-0.16445 -0.3039,-0.49428 -0.22387,-0.31446 -0.33789,-0.61449 -0.49404,-0.41798 -0.17249,0.11238 -0.72523,0.65217 -0.83597,0.91166 -0.20884,-0.099 -0.1028,-0.12398 -0.2659,-0.3039 -0.13476,-0.33666 -0.19972,-0.86803 -0.49402,-0.37985 -0.20261,0.13972 -0.58455,0.40228 -0.72272,0.56969 -0.005,-0.39398 -0.24334,-0.49896 -0.1896,-1.0602 0.0166,-0.17032 -0.78601,0.34253 -0.92533,0.56898 -0.19795,0.0597 -0.0564,-0.61603 -0.10073,-0.72545 -0.16887,-0.0457 -1.27954,0.1112 -1.10198,0.0379 0.015,-0.23958 0.0601,-0.46206 0.30393,-0.53196 0.0712,-0.0748 0.7829,0.1962 0.60821,-0.22772 -0.19609,-0.14987 -0.0684,-0.25095 -0.2275,-0.49392 -0.23611,-0.19114 0.46175,0.009 0.56474,-0.11471 z"
       id="path8088"
       inkscape:connector-curvature="0" />
    <path
       style="fill:#5a700c;fill-opacity:1;stroke:none;stroke-width:0.27521089px;stroke-linecap:butt;stroke-linejoin:miter;stroke-opacity:1"
       d="m 244.48669,206.11772 c -0.11064,-0.22521 -0.36888,-0.75892 -0.255,-0.95422 0.13489,-0.0458 0.57389,0.30701 0.4026,-0.0404 -0.10149,-0.17348 -0.12405,-0.80407 0.054,-0.45717 0.22018,0.0786 0.53497,0.51876 0.4436,0.0331 0.0299,-0.20863 -0.0691,-0.94854 0.094,-0.86679 0.18519,0.0991 0.44823,0.35174 0.5642,0.3494 -0.0829,-0.29041 0.14759,-0.89385 0.2417,-0.83358 0.1028,0.25257 0.37242,0.6713 0.4838,0.5908 0.15754,-0.17313 0.36163,-0.37717 0.497,-0.5778 0.0894,0.28822 0.0918,0.83568 0.4833,0.5242 0.18833,-0.0546 0.39918,-0.15147 0.2018,0.0941 -0.0384,0.25342 -0.58072,0.59145 -0.10075,0.51051 0.29741,0.067 0.9834,-0.22282 0.57094,0.1212 -0.0864,0.23444 -0.73647,0.47583 -0.25524,0.49735 0.46167,-0.10438 0.2071,0.17626 0.0403,0.3896 -0.19589,0.29219 -0.64526,0.36937 -0.8738,0.4699 0.16476,0.0566 0.45814,0.17527 0.1074,0.3492 -0.20859,0.13194 -0.74167,0.15519 -0.77938,0.2146 0.19101,0.001 0.69543,0.27382 0.2554,0.2414 -0.40368,0.0332 -0.9461,-0.0639 -1.27665,0.0402 0.0867,0.54608 -0.35997,0.0726 -0.5645,-0.1345 -0.13609,-0.31487 -0.18059,0.0194 -0.2685,0.0808 -0.15663,0.1572 -0.18306,-0.19294 -0.26898,-0.19818 -0.051,-0.14326 0.3526,-0.28396 0.25618,-0.35232 -0.016,-0.0608 0.006,0.0498 -0.0534,-0.0914 z"
       id="path8124"
       inkscape:connector-curvature="0" />
    <path
       style="fill:#5a700c;fill-opacity:1;stroke:none;stroke-width:0.27521089px;stroke-linecap:butt;stroke-linejoin:miter;stroke-opacity:1"
       d="m 252.64186,205.29688 c -0.11063,-0.22517 -0.36882,-0.75884 -0.2549,-0.95411 0.13495,-0.0458 0.57404,0.30706 0.4027,-0.0405 -0.10129,-0.17346 -0.12397,-0.80392 0.054,-0.45708 0.22017,0.0786 0.53499,0.51859 0.4436,0.0329 0.0299,-0.20863 -0.0691,-0.94854 0.094,-0.86679 0.1852,0.0991 0.44828,0.35183 0.5642,0.3494 -0.0829,-0.29037 0.14759,-0.89381 0.2416,-0.8336 0.10278,0.25257 0.37216,0.67145 0.4837,0.5909 0.15756,-0.17311 0.36155,-0.37714 0.4968,-0.5778 0.0896,0.28812 0.0917,0.83573 0.4833,0.5242 0.18831,-0.0546 0.39919,-0.15148 0.2018,0.0941 -0.0383,0.25345 -0.58088,0.59137 -0.10085,0.51041 0.29741,0.067 0.98342,-0.22282 0.57095,0.1212 -0.0865,0.23441 -0.73654,0.47574 -0.25534,0.49725 0.46168,-0.10438 0.20711,0.17625 0.0403,0.3896 -0.19575,0.29219 -0.64505,0.36937 -0.8735,0.4699 0.16479,0.0566 0.45795,0.1753 0.1073,0.3492 -0.20861,0.13193 -0.74165,0.1552 -0.77939,0.2146 0.19101,0.001 0.69543,0.27382 0.2554,0.2414 -0.40369,0.0332 -0.94611,-0.0639 -1.27666,0.0402 0.0867,0.54592 -0.36007,0.0726 -0.5645,-0.1345 -0.13595,-0.31483 -0.18061,0.0194 -0.2685,0.0807 -0.15662,0.15723 -0.18309,-0.19302 -0.26897,-0.19814 -0.051,-0.14321 0.3524,-0.28382 0.25617,-0.35216 -0.0159,-0.0607 0.006,0.0496 -0.0532,-0.0913 z"
       id="path8126"
       inkscape:connector-curvature="0" />
    <path
       style="fill:#5a700c;fill-opacity:1;stroke:none;stroke-width:0.27521089px;stroke-linecap:butt;stroke-linejoin:miter;stroke-opacity:1"
       d="m 261.83991,205.29688 c -0.11063,-0.22517 -0.36882,-0.75884 -0.2549,-0.95411 0.13493,-0.0459 0.57426,0.30708 0.4027,-0.0405 -0.10149,-0.17337 -0.12403,-0.80395 0.0539,-0.45708 0.22017,0.0786 0.53508,0.5186 0.4437,0.0329 0.0299,-0.20863 -0.0691,-0.94854 0.094,-0.86679 0.18534,0.099 0.44834,0.35183 0.5643,0.3494 -0.0829,-0.29039 0.14759,-0.89383 0.2417,-0.8336 0.10278,0.25257 0.37216,0.67145 0.4837,0.5909 0.15764,-0.17298 0.36162,-0.37722 0.497,-0.5778 0.0894,0.28828 0.092,0.83567 0.4835,0.5242 0.18835,-0.0546 0.39929,-0.15148 0.2018,0.0941 -0.0384,0.2534 -0.58072,0.59141 -0.10075,0.51041 0.29741,0.067 0.9834,-0.22282 0.57094,0.1212 -0.0866,0.23452 -0.73673,0.47582 -0.25524,0.49725 0.46174,-0.10437 0.20702,0.17628 0.0402,0.3896 -0.19578,0.29219 -0.64515,0.36935 -0.8736,0.4699 0.16483,0.0566 0.45831,0.17528 0.1074,0.3492 -0.20868,0.13193 -0.74163,0.15523 -0.77947,0.2146 0.1911,0.001 0.69546,0.27386 0.2553,0.2414 -0.40372,0.0332 -0.94613,-0.0639 -1.27674,0.0402 0.0865,0.54583 -0.36017,0.0728 -0.5647,-0.1345 -0.13602,-0.3149 -0.18051,0.0196 -0.2686,0.0807 -0.15684,0.15725 -0.18326,-0.19295 -0.26918,-0.19814 -0.051,-0.14325 0.35254,-0.28379 0.25618,-0.35216 -0.0157,-0.0605 0.005,0.049 -0.0531,-0.0913 z"
       id="path8128"
       inkscape:connector-curvature="0" />
    <path
       style="fill:#5a700c;fill-opacity:1;stroke:none;stroke-width:0.27521089px;stroke-linecap:butt;stroke-linejoin:miter;stroke-opacity:1"
       d="m 238.57979,207.50138 c 0.11071,-0.22513 0.36881,-0.75905 0.2549,-0.95422 -0.13497,-0.0459 -0.57403,0.30708 -0.4027,-0.0405 0.1014,-0.1734 0.12408,-0.80392 -0.0539,-0.45707 -0.22014,0.0786 -0.53509,0.51875 -0.4437,0.0331 -0.0299,-0.20863 0.0691,-0.94854 -0.094,-0.86679 -0.18519,0.0991 -0.44824,0.3518 -0.5641,0.3494 0.0829,-0.29043 -0.14769,-0.89383 -0.2418,-0.8336 -0.10278,0.25259 -0.37225,0.67143 -0.4837,0.5909 -0.15754,-0.17316 -0.36166,-0.37713 -0.4968,-0.5779 -0.0895,0.28823 -0.0916,0.83589 -0.4833,0.5243 -0.18824,-0.0546 -0.39919,-0.15165 -0.2018,0.0939 0.0384,0.25339 0.58072,0.59165 0.10075,0.51061 -0.29741,0.067 -0.98342,-0.22282 -0.57095,0.1212 0.0865,0.23449 0.73665,0.47575 0.25533,0.49724 -0.46167,-0.10439 -0.20713,0.17638 -0.0403,0.3897 0.19564,0.29241 0.64516,0.36927 0.8736,0.4699 -0.16485,0.0566 -0.45808,0.17529 -0.1074,0.3492 0.20863,0.13193 0.74163,0.15521 0.77938,0.2146 -0.19101,0.001 -0.69557,0.27379 -0.2555,0.2414 0.40368,0.0332 0.9461,-0.0639 1.27665,0.0402 -0.0867,0.546 0.36002,0.0728 0.5645,-0.1344 0.13596,-0.31484 0.18049,0.0194 0.2684,0.0807 0.15662,0.15723 0.18308,-0.19302 0.26898,-0.19814 0.051,-0.14324 -0.35252,-0.2838 -0.25618,-0.35216 0.0162,-0.0611 -0.007,0.0507 0.0536,-0.0915 z"
       id="path8130"
       inkscape:connector-curvature="0" />
    <path
       style="fill:#628c20;fill-opacity:1;stroke:none;stroke-width:0.27521089px;stroke-linecap:butt;stroke-linejoin:miter;stroke-opacity:1"
       d="m 250.72776,202.71744 c 0.11066,-0.22512 0.36867,-0.75888 0.2548,-0.95411 -0.13493,-0.0458 -0.57403,0.30701 -0.4026,-0.0404 0.10132,-0.17346 0.12393,-0.80405 -0.054,-0.45699 -0.22016,0.0786 -0.53497,0.51875 -0.4436,0.0331 -0.0298,-0.2087 0.069,-0.94854 -0.094,-0.86689 -0.18525,0.099 -0.44832,0.35179 -0.5642,0.3494 0.0829,-0.29036 -0.14759,-0.89381 -0.2416,-0.8336 -0.10282,0.25253 -0.37223,0.67131 -0.4836,0.5908 -0.15756,-0.17311 -0.36155,-0.37714 -0.4968,-0.5778 -0.0894,0.28826 -0.0917,0.83572 -0.4833,0.5242 -0.18832,-0.0546 -0.39919,-0.15145 -0.2018,0.0941 0.0383,0.25344 0.58089,0.59146 0.10085,0.5105 -0.29743,0.067 -0.98348,-0.2228 -0.57084,0.1212 0.0863,0.23447 0.73647,0.47572 0.25524,0.49725 -0.46169,-0.10441 -0.20714,0.17638 -0.0403,0.3897 0.19573,0.29224 0.64508,0.36922 0.8735,0.4698 -0.16479,0.0566 -0.45795,0.1753 -0.1073,0.3492 0.20854,0.13213 0.74164,0.15526 0.77937,0.2147 -0.19101,0.001 -0.69543,0.27382 -0.2554,0.2414 0.40368,0.0332 0.9461,-0.0639 1.27665,0.0402 -0.0865,0.54596 0.35997,0.0728 0.5646,-0.1345 0.13599,-0.31483 0.18049,0.0194 0.2684,0.0807 0.15662,0.1572 0.18306,-0.19294 0.26897,-0.19818 0.051,-0.14314 -0.35245,-0.28376 -0.25607,-0.35212 0.0159,-0.0611 -0.006,0.0508 0.053,-0.0916 z"
       id="path8132"
       inkscape:connector-curvature="0" />
    <path
       style="fill:#628c20;fill-opacity:1;stroke:none;stroke-width:0.27521089px;stroke-linecap:butt;stroke-linejoin:miter;stroke-opacity:1"
       d="m 261.85445,202.01866 c 0.11062,-0.22517 0.36896,-0.75894 0.255,-0.95412 -0.13484,-0.0457 -0.57416,0.30715 -0.4027,-0.0403 0.10151,-0.17346 0.12403,-0.80396 -0.054,-0.45708 -0.2202,0.0785 -0.53511,0.51861 -0.4437,0.0329 -0.0299,-0.20863 0.0691,-0.94853 -0.094,-0.86678 -0.1854,0.099 -0.44844,0.35182 -0.5644,0.3494 0.0829,-0.29044 -0.14767,-0.89385 -0.2419,-0.83359 -0.1027,0.25262 -0.37221,0.67151 -0.4836,0.591 -0.15761,-0.17302 -0.36173,-0.3772 -0.4971,-0.5778 -0.0895,0.28819 -0.0917,0.83587 -0.4834,0.5243 -0.18838,-0.0545 -0.39943,-0.15151 -0.2019,0.0941 0.0383,0.25346 0.58089,0.59159 0.10085,0.51062 -0.29745,0.0671 -0.98346,-0.22297 -0.57084,0.1211 0.0866,0.23442 0.73661,0.4758 0.25524,0.49725 -0.46175,-0.10437 -0.20704,0.17628 -0.0402,0.3896 0.19574,0.29228 0.64515,0.36921 0.8736,0.4698 -0.16479,0.0567 -0.45828,0.17521 -0.1075,0.3492 0.20865,0.13194 0.74168,0.15521 0.77947,0.2146 -0.19105,0.001 -0.69548,0.27385 -0.2553,0.2414 0.40372,0.0332 0.94614,-0.0639 1.27675,0.0402 -0.0865,0.54582 0.36006,0.0728 0.5646,-0.1345 0.13594,-0.31491 0.18065,0.0196 0.2687,0.0807 0.15684,0.15725 0.18321,-0.19296 0.26927,-0.19817 0.051,-0.14319 -0.35293,-0.28393 -0.25627,-0.35223 0.016,-0.0611 -0.006,0.0507 0.0533,-0.0916 z"
       id="path8134"
       inkscape:connector-curvature="0" />
    <path
       style="fill:#628c20;fill-opacity:1;stroke:none;stroke-width:0.27521089px;stroke-linecap:butt;stroke-linejoin:miter;stroke-opacity:1"
       d="m 268.68098,202.60994 c 0.11057,-0.22523 0.36906,-0.7588 0.2551,-0.95412 -0.13494,-0.0457 -0.57429,0.30705 -0.4026,-0.0405 0.10149,-0.17337 0.12403,-0.80395 -0.0539,-0.45708 -0.22019,0.0786 -0.53505,0.51878 -0.4437,0.0331 -0.0299,-0.20863 0.0691,-0.94854 -0.094,-0.86679 -0.18539,0.099 -0.44843,0.35181 -0.5643,0.3494 0.0829,-0.29039 -0.14759,-0.89383 -0.2417,-0.8336 -0.10285,0.25261 -0.37216,0.67156 -0.4837,0.591 -0.15769,-0.17298 -0.36157,-0.37732 -0.497,-0.5779 -0.0894,0.28823 -0.0919,0.8358 -0.4834,0.5243 -0.18837,-0.0546 -0.39928,-0.1515 -0.2018,0.0941 0.0383,0.25345 0.58088,0.59137 0.10085,0.51041 -0.29743,0.067 -0.98348,-0.2228 -0.57084,0.1212 0.0866,0.23452 0.73673,0.47583 0.25524,0.49726 -0.46167,-0.10438 -0.2071,0.17626 -0.0403,0.3896 0.19576,0.29224 0.64517,0.36921 0.8736,0.4698 -0.16475,0.0567 -0.45862,0.17519 -0.1076,0.3492 0.20866,0.13192 0.74158,0.15522 0.77937,0.2146 -0.1911,0.001 -0.69546,0.27386 -0.2553,0.2414 0.40372,0.0332 0.94613,-0.0639 1.27674,0.0402 -0.0865,0.54582 0.36006,0.0727 0.5646,-0.1345 0.13596,-0.3149 0.18064,0.0196 0.2687,0.0807 0.15684,0.15725 0.18326,-0.19295 0.26918,-0.19814 0.0511,-0.14323 -0.35276,-0.28388 -0.25608,-0.35216 0.0155,-0.0606 -0.004,0.0492 0.0528,-0.0914 z"
       id="path8136"
       inkscape:connector-curvature="0" />
    <path
       style="fill:#628c20;fill-opacity:1;stroke:none;stroke-width:0.27521089px;stroke-linecap:butt;stroke-linejoin:miter;stroke-opacity:1"
       d="m 243.97545,202.76197 c 0.11071,-0.22516 0.36866,-0.75896 0.2548,-0.95421 -0.13495,-0.0458 -0.57404,0.30707 -0.4027,-0.0405 0.10146,-0.17338 0.12406,-0.80407 -0.0539,-0.45718 -0.22019,0.0785 -0.5352,0.51862 -0.4438,0.0329 -0.0299,-0.20863 0.0691,-0.94854 -0.094,-0.86679 -0.18526,0.099 -0.44837,0.35182 -0.5643,0.3494 0.0829,-0.29036 -0.14759,-0.89381 -0.2416,-0.8336 -0.1028,0.25257 -0.3722,0.67151 -0.4836,0.591 -0.15756,-0.17311 -0.36155,-0.37714 -0.4968,-0.5778 -0.0894,0.28823 -0.0917,0.83573 -0.4833,0.5242 -0.18836,-0.0545 -0.39931,-0.15155 -0.2019,0.0941 0.0384,0.2534 0.58072,0.59141 0.10075,0.51041 -0.29741,0.067 -0.9834,-0.22282 -0.57094,0.1212 0.0863,0.23447 0.73647,0.47572 0.25524,0.49725 -0.46167,-0.10441 -0.20716,0.17633 -0.0402,0.3896 0.19575,0.29219 0.64505,0.36937 0.8735,0.4699 -0.16475,0.0567 -0.45812,0.17525 -0.1074,0.3492 0.2086,0.13194 0.74167,0.15518 0.77937,0.2146 -0.19101,0.001 -0.69543,0.27382 -0.2554,0.2414 0.40368,0.0332 0.94609,-0.0639 1.27664,0.0402 -0.0867,0.54592 0.36007,0.0726 0.5645,-0.1345 0.13595,-0.31483 0.18063,0.0194 0.2685,0.0807 0.15662,0.15723 0.18309,-0.19302 0.26897,-0.19814 0.0511,-0.14319 -0.35267,-0.28387 -0.25597,-0.35216 0.016,-0.0606 -0.006,0.0492 0.0536,-0.0912 z"
       id="path8138"
       inkscape:connector-curvature="0" />
    <path
       style="fill:#5a700c;fill-opacity:1;stroke:none;stroke-width:0.27521089px;stroke-linecap:butt;stroke-linejoin:miter;stroke-opacity:1"
       d="m 244.48669,206.11772 c -0.11064,-0.22521 -0.36888,-0.75892 -0.255,-0.95422 0.13489,-0.0458 0.57389,0.30701 0.4026,-0.0404 -0.10149,-0.17348 -0.12405,-0.80407 0.054,-0.45717 0.22018,0.0786 0.53497,0.51876 0.4436,0.0331 0.0299,-0.20863 -0.0691,-0.94854 0.094,-0.86679 0.18519,0.0991 0.44823,0.35174 0.5642,0.3494 -0.0829,-0.29041 0.14759,-0.89385 0.2417,-0.83358 0.1028,0.25257 0.37242,0.6713 0.4838,0.5908 0.15754,-0.17313 0.36163,-0.37717 0.497,-0.5778 0.0894,0.28822 0.0918,0.83568 0.4833,0.5242 0.18833,-0.0546 0.39918,-0.15147 0.2018,0.0941 -0.0384,0.25342 -0.58072,0.59145 -0.10075,0.51051 0.29741,0.067 0.9834,-0.22282 0.57094,0.1212 -0.0864,0.23444 -0.73647,0.47583 -0.25524,0.49735 0.46167,-0.10438 0.2071,0.17626 0.0403,0.3896 -0.19589,0.29219 -0.64526,0.36937 -0.8738,0.4699 0.16476,0.0566 0.45814,0.17527 0.1074,0.3492 -0.20859,0.13194 -0.74167,0.15519 -0.77938,0.2146 0.19101,0.001 0.69543,0.27382 0.2554,0.2414 -0.40368,0.0332 -0.9461,-0.0639 -1.27665,0.0402 0.0867,0.54608 -0.35997,0.0726 -0.5645,-0.1345 -0.13609,-0.31487 -0.18059,0.0194 -0.2685,0.0808 -0.15663,0.1572 -0.18306,-0.19294 -0.26898,-0.19818 -0.051,-0.14326 0.3526,-0.28396 0.25618,-0.35232 -0.016,-0.0608 0.006,0.0498 -0.0534,-0.0914 z"
       id="path8140"
       inkscape:connector-curvature="0" />
    <path
       style="fill:#89ae22;fill-opacity:1;stroke:none;stroke-width:0.27521089px;stroke-linecap:butt;stroke-linejoin:miter;stroke-opacity:1"
       d="m 253.68509,196.45423 c -0.11064,-0.22521 -0.36888,-0.75892 -0.255,-0.95422 0.13489,-0.0458 0.57389,0.30701 0.4026,-0.0404 -0.10149,-0.17348 -0.12405,-0.80407 0.054,-0.45717 0.22018,0.0786 0.53497,0.51876 0.4436,0.0331 0.0299,-0.20863 -0.0691,-0.94854 0.094,-0.86679 0.18519,0.0991 0.44823,0.35174 0.5642,0.3494 -0.0829,-0.29041 0.14759,-0.89385 0.2417,-0.83358 0.1028,0.25257 0.37242,0.6713 0.4838,0.5908 0.15754,-0.17313 0.36163,-0.37717 0.497,-0.5778 0.0894,0.28822 0.0918,0.83568 0.4833,0.5242 0.18833,-0.0546 0.39918,-0.15147 0.2018,0.0941 -0.0384,0.25342 -0.58072,0.59145 -0.10075,0.51051 0.29741,0.067 0.9834,-0.22282 0.57094,0.1212 -0.0864,0.23444 -0.73647,0.47583 -0.25524,0.49735 0.46167,-0.10438 0.2071,0.17626 0.0403,0.3896 -0.19589,0.29219 -0.64526,0.36937 -0.8738,0.4699 0.16476,0.0566 0.45814,0.17527 0.1074,0.3492 -0.20859,0.13194 -0.74167,0.15519 -0.77938,0.2146 0.19101,0.001 0.69543,0.27382 0.2554,0.2414 -0.40368,0.0332 -0.9461,-0.0639 -1.27665,0.0402 0.0867,0.54608 -0.35997,0.0726 -0.5645,-0.1345 -0.13609,-0.31487 -0.18059,0.0194 -0.2685,0.0808 -0.15663,0.1572 -0.18306,-0.19294 -0.26898,-0.19818 -0.051,-0.14326 0.3526,-0.28396 0.25618,-0.35232 -0.016,-0.0608 0.006,0.0498 -0.0534,-0.0914 z"
       id="path8142"
       inkscape:connector-curvature="0" />
  </g>
</svg>
