<?xml version="1.0" encoding="UTF-8" standalone="no"?>
<svg
   xmlns:dc="http://purl.org/dc/elements/1.1/"
   xmlns:cc="http://creativecommons.org/ns#"
   xmlns:rdf="http://www.w3.org/1999/02/22-rdf-syntax-ns#"
   xmlns:svg="http://www.w3.org/2000/svg"
   xmlns="http://www.w3.org/2000/svg"
   xmlns:sodipodi="http://sodipodi.sourceforge.net/DTD/sodipodi-0.dtd"
   xmlns:inkscape="http://www.inkscape.org/namespaces/inkscape"
   inkscape:version="1.0alpha2 (863a58d, 2019-08-17)"
   sodipodi:docname="2.svg"
   id="svg8"
   version="1.1"
   viewBox="0 0 29.104165 39.687501"
   height="150"
   width="110">
  <defs
     id="defs2" />
  <sodipodi:namedview
     inkscape:snap-global="false"
     inkscape:document-rotation="0"
     fit-margin-bottom="0"
     fit-margin-right="0"
     fit-margin-left="0"
     fit-margin-top="0"
     inkscape:window-maximized="0"
     inkscape:window-y="23"
     inkscape:window-x="0"
     inkscape:window-height="907"
     inkscape:window-width="1680"
     units="px"
     showgrid="false"
     inkscape:current-layer="g4578"
     inkscape:document-units="mm"
     inkscape:cy="79.480282"
     inkscape:cx="47.917353"
     inkscape:zoom="9.4800424"
     inkscape:pageshadow="2"
     inkscape:pageopacity="0.0"
     borderopacity="1.0"
     bordercolor="#666666"
     pagecolor="#ffffff"
     id="base" />
  <metadata
     id="metadata5">
    <rdf:RDF>
      <cc:Work
         rdf:about="">
        <dc:format>image/svg+xml</dc:format>
        <dc:type
           rdf:resource="http://purl.org/dc/dcmitype/StillImage" />
        <dc:title></dc:title>
      </cc:Work>
    </rdf:RDF>
  </metadata>
  <g
     transform="translate(-54.198774,-200.14182)"
     id="layer1"
     inkscape:groupmode="layer"
     inkscape:label="Layer 1">
    <g
       style="fill:#ff2a2a;opacity:1"
       transform="matrix(0.25548634,0,0,0.25548634,51.782645,166.50629)"
       id="g4578">
      <path
         inkscape:connector-curvature="0"
         id="path926"
         d="m 52.096136,242.88553 26.263249,11.12326 9.114892,-5.25265 10.350809,-12.20468 4.171224,-8.34245 -1.5449,-9.26938 1.69939,-15.13999 0.46347,-13.13162 -13.904075,-16.83938 -18.229785,-4.17122 -13.749583,8.34244 -17.302846,13.4406 -1.081428,22.40101 6.025098,10.04183 5.407139,12.82264 z"
         style="fill:none;stroke:#000000;stroke-width:1.03560999999999992px;stroke-linecap:butt;stroke-linejoin:miter;stroke-opacity:1;opacity:0" />
      <path
         style="fill:#ff2a2a;stroke:#000000;stroke-width:0.95566399999999996px;stroke-linecap:butt;stroke-linejoin:miter;stroke-opacity:1;opacity:0"
         d="m 100.06579,232.55369 -11.537912,14.24682 -9.130003,8.32736 -3.31088,0.40132 -19.463961,-8.82901 -12.741872,-26.48705 2.106923,-20.26659 21.269897,-11.63825 15.350443,1.10363 12.139894,5.7188 3.912856,4.81582 2.608575,4.51483 -0.30099,4.7155 -2.207258,9.73198 0.100337,7.4244 z"
         id="path869"
         inkscape:connector-curvature="0" />
      <path
         sodipodi:nodetypes="ccccccccc"
         inkscape:connector-curvature="0"
         d="m 30.37342,203.72741 c 0.930466,3.07965 -0.202001,-3.96626 -0.835654,0.18995 -1.584509,8.61634 0.612777,38.11559 6.899946,40.76677 1.073561,-4.56302 3.867025,-5.12405 7.163017,-8.60307 1.377581,2.59537 2.091082,4.68115 1.937971,8.99012 16.991502,-12.49013 11.880219,-13.02939 11.843402,-23.65804 1.980715,-7.88702 3.961426,-15.77405 5.942141,-23.66107 l -32.950824,5.97534 z"
         style="fill:#ffffff;stroke:#000000;stroke-width:1.03561px;stroke-linecap:butt;stroke-linejoin:miter;stroke-opacity:1"
         id="path867" />
      <path
         sodipodi:nodetypes="ccccccccccccc"
         inkscape:connector-curvature="0"
         id="path870"
         d="m 75.650816,206.4781 3.646907,0.97251 3.07961,-0.0811 2.998568,-0.32417 2.998567,-1.70189 2.917526,-1.21564 -0.405212,-6.40234 -4.133161,-2.59336 v 0 l -11.751144,4.53837 -1.458762,2.99857 -1.458763,2.26919 z"
         style="opacity:0.3;fill:#000000;stroke:none;stroke-width:1.03561px;stroke-linecap:butt;stroke-linejoin:miter;stroke-opacity:1" />
      <path
         sodipodi:nodetypes="cccccccccccccccccccccc"
         inkscape:connector-curvature="0"
         d="m 84.745341,166.58221 c 4.239649,-0.36507 7.90334,1.23626 11.237599,3.70992 3.63088,2.35509 6.25093,6.03013 8.75172,9.50692 1.96343,3.74879 4.76535,7.17476 5.24824,11.52712 3.17661,17.60231 4.93176,32.63571 -10.417468,41.45322 2.964818,-11.06594 4.351468,-30.23222 -5.055467,-33.91157 11.882295,7.52778 -15.34157,30.9099 -15.34157,30.9099 0,0 10.669485,-17.39663 10.30976,-26.88281 1.187216,-6.26335 -4.649769,-4.01246 -5.402387,-0.36974 -7.386094,-10.73434 -23.505508,28.54875 -40.79389,25.18128 9.466495,-5.2166 10.835259,-7.97347 10.957515,-18.51798 -2.464249,1.90111 -5.028808,4.63888 -8.403717,5.64596 -4.046153,2.45449 -9.236626,-6.59625 -13.649032,-7.78935 1.986992,0.32483 7.727946,1.31435 2.917527,0.4356 -2.940615,-0.52221 -6.598196,-0.34328 -5.481498,-4.38458 -0.726422,-5.28494 1.115615,-10.39295 2.494978,-15.41432 1.908892,-4.16969 2.745466,-9.15571 6.634523,-12.03786 3.113145,-3.02727 6.300033,-5.98093 9.608923,-8.79382 4.226269,-1.73769 8.548553,-3.28625 13.128865,-3.70724 5.208853,-1.27718 10.888862,-1.52813 15.874061,0.72083 2.473698,0.86974 4.924033,1.80407 7.381318,2.71846 z"
         style="fill:#ffffff;stroke:#000000;stroke-width:1.03561px;stroke-linecap:butt;stroke-linejoin:miter;stroke-opacity:1"
         id="path865" />
      <path
         sodipodi:nodetypes="cccccccc"
         inkscape:connector-curvature="0"
         id="path904"
         d="m 30.128877,211.31984 0.184211,-7.82918 15.448971,-7.57 10.814278,0.46347 2.008366,7.10653 -9.578361,4.78918 -14.058563,1.23592 z"
         style="fill:#ffffff;stroke:none;stroke-width:1.03561px;stroke-linecap:butt;stroke-linejoin:miter;stroke-opacity:1" />
      <path
         sodipodi:nodetypes="ccccccccsccssccccc"
         inkscape:connector-curvature="0"
         d="m 49.805296,167.13256 c -4.682406,3.38955 -7.472084,11.95189 -1.722402,15.63735 5.878987,4.03636 14.07496,0.59802 19.688952,5.21555 -6.079455,2.68858 -5.285227,19.29552 -11.584156,21.83516 -4.469965,3.64304 -2.13732,11.93798 -8.721545,14.86009 -1.761671,1.08742 -9.477837,5.45809 -3.068678,3.6663 5.632616,0.80707 12.470312,-4.25728 14.466119,-6.45458 -1.821176,5.20267 -3.314294,2.85426 -1.172043,8.17865 -1.7739,5.81229 -8.283733,12.11437 -11.87425,15.01406 -0.881848,0.71217 0.06047,-3.90481 0.07134,-3.93462 -1.851825,-5.23804 -6.951322,-8.69384 -9.92241,-13.37121 -0.09967,-0.0994 -0.19802,-0.19945 -0.295042,-0.30019 -1.606651,-1.66825 -2.849928,-3.52161 -3.726236,-5.495 -1.885522,-4.24607 -2.072103,-9.04788 -0.523924,-13.7573 -4.612845,-7.56468 -0.29803,-15.77173 2.026149,-23.24359 1.138467,-7.92303 9.256333,-11.28619 14.497696,-16.37976 l 0.928418,-0.7377 z"
         style="opacity:0.3;fill:#000000;stroke:#000000;stroke-width:1.03561px;stroke-linecap:butt;stroke-linejoin:miter;stroke-opacity:1"
         id="path922" />
      <path
         sodipodi:nodetypes="cccccccccc"
         inkscape:connector-curvature="0"
         d="m 78.513874,179.69925 3.707754,5.87061 c -0.05576,3.20023 -0.277861,6.39622 -0.617959,9.57836 l -4.943671,-9.42387 c -3.106971,-2.23609 -5.915391,-4.86085 -8.49415,-7.67915 -1.666705,-1.36186 -3.713287,-2.18886 -5.307533,-3.64445 -0.869931,-0.35727 -16.597148,-13.44987 -7.430215,-7.38505 4.148236,0.63802 7.529461,-1.84518 11.265201,0.29543 1.362082,0.8518 11.021769,10.99181 11.820571,12.38812 z"
         style="opacity:0.3;fill:#000000;stroke:#000000;stroke-width:1.03561px;stroke-linecap:butt;stroke-linejoin:miter;stroke-opacity:1"
         id="path924" />
    </g>
  </g>
</svg>
