<?xml version="1.0" encoding="UTF-8" standalone="no"?>
<!-- Created with Inkscape (http://www.inkscape.org/) -->

<svg
   xmlns:dc="http://purl.org/dc/elements/1.1/"
   xmlns:cc="http://creativecommons.org/ns#"
   xmlns:rdf="http://www.w3.org/1999/02/22-rdf-syntax-ns#"
   xmlns:svg="http://www.w3.org/2000/svg"
   xmlns="http://www.w3.org/2000/svg"
   xmlns:sodipodi="http://sodipodi.sourceforge.net/DTD/sodipodi-0.dtd"
   xmlns:inkscape="http://www.inkscape.org/namespaces/inkscape"
   width="163.64471"
   height="163.64471"
   viewBox="0 0 43.297663 43.297663"
   version="1.1"
   id="svg834"
   inkscape:version="0.92.2 5c3e80d, 2017-08-06"
   sodipodi:docname="beach-t.svg">
  <defs
     id="defs828" />
  <sodipodi:namedview
     id="base"
     pagecolor="#ffffff"
     bordercolor="#666666"
     borderopacity="1.0"
     inkscape:pageopacity="0.0"
     inkscape:pageshadow="2"
     inkscape:zoom="2.6481725"
     inkscape:cx="106.76851"
     inkscape:cy="108.20883"
     inkscape:document-units="mm"
     inkscape:current-layer="g905"
     showgrid="false"
     units="px"
     inkscape:window-width="1680"
     inkscape:window-height="921"
     inkscape:window-x="128"
     inkscape:window-y="24"
     inkscape:window-maximized="0"
     fit-margin-top="0"
     fit-margin-left="0"
     fit-margin-right="0"
     fit-margin-bottom="0"
     showguides="true" />
  <metadata
     id="metadata831">
    <rdf:RDF>
      <cc:Work
         rdf:about="">
        <dc:format>image/svg+xml</dc:format>
        <dc:type
           rdf:resource="http://purl.org/dc/dcmitype/StillImage" />
        <dc:title />
      </cc:Work>
    </rdf:RDF>
  </metadata>
  <g
     inkscape:label="Layer 1"
     inkscape:groupmode="layer"
     id="layer1"
     transform="translate(188.10942,-117.95572)">
    <g
       id="g7055"
       transform="matrix(2.6251759,0,0,2.6251759,283.4532,-214.09548)">
      <g
         transform="matrix(0.26458333,0,0,0.26458333,-188.10942,117.95572)"
         id="use7053">
        <g
           id="g905"
           transform="matrix(0,-1,-1,0,127.61797,127.61797)">
          <rect
             style="opacity:1;fill:#00aad4;fill-opacity:1;stroke:none;stroke-width:0.47044119;stroke-linecap:round;stroke-linejoin:round;stroke-miterlimit:4;stroke-dasharray:none;paint-order:stroke fill markers"
             id="rect968"
             width="63.130795"
             height="62.644577"
             x="-95.573044"
             y="-95.68084"
             transform="matrix(0,-1,-1,0,0,0)" />
          <path
             d="m 35.35358,92 v 4 h 0.37262 v -4 h -0.37262 m 2.608337,-56 h -0.37262 v 4 h 0.37262 v -4 m -3.726196,44 h 0.37262 v -4 h -0.37262 v 4 m 1.117859,-8 v -4 h -0.37262 v 4 h 0.37262 M 34.98096,52 v 4 h 0.37262 v -4 h -0.37262 m -1.863097,-4 v -4 h -0.37262 v 4 h 0.37262 m 4.098814,40 v -8 h -0.745239 v 8 z"
             id="path13243"
             inkscape:connector-curvature="0"
             style="fill:#24a159;stroke:none;stroke-width:0.30521286" />
          <path
             d="m 37.589297,36 h 0.37262 v -4 h -5.961913 v 64 h 3.353576 v -4 h 0.37262 v 4 h 2.235717 V 40 h -0.37262 v -4 m -0.37262,12 v -4 h 0.37262 v 4 h -0.37262 m 0,32 v 8 h -0.745239 v -8 h 0.745239 M 33.490482,48 h 0.745239 v 8 h -0.745239 v -8 m -0.372619,-4 v 4 h -0.37262 v -4 h 0.37262 m 1.863097,0 h -0.372619 v -4 h 0.372619 v 4 m -2.608336,40 v -4 h 0.372619 v 4 H 32.372624 M 34.98096,56 v -4 h 0.37262 v 4 h -0.37262 m 0.37262,12 v 4 h -0.37262 v -4 h 0.37262 m -2.235717,-4 v -4 h 0.372619 v 4 h -0.372619 m 1.490478,16 h -0.37262 v -4 h 0.37262 v 4 m 1.117859,0 v -4 h 0.372619 v 4 z"
             id="path13245"
             inkscape:connector-curvature="0"
             style="fill:#27ae60;stroke:none;stroke-width:0.30521286" />
          <path
             d="m 35.7262,76 v 4 h 0.372619 V 76 H 35.7262 M 33.117863,60 v 4 h 0.372619 v -4 h -0.372619 m -0.745239,20 v 4 h 0.372619 v -4 h -0.372619 m 2.235717,-36 h 0.372619 v -4 h -0.372619 v 4 m -0.37262,4 h -0.745239 v 8 h 0.745239 v -8 m 2.980956,-4 v 4 h 0.37262 v -4 z"
             id="path13247"
             inkscape:connector-curvature="0"
             style="fill:#29b865;stroke:none;stroke-width:0.30521286" />
          <path
             sodipodi:nodetypes="ccccccccccccccccccccccccccsccccccccccccccccc"
             inkscape:connector-curvature="0"
             id="path858"
             d="m 36.636658,32.003947 -0.151397,1.327449 0.605847,1.023573 -0.175577,1.461566 0.619508,1.42399 -0.665897,2.14567 0.147977,2.66359 -0.887864,3.18151 1.460042,2.768704 -1.01611,1.522636 -0.739886,2.589602 0.739886,3.625442 0.443932,5.549147 -0.295955,1.701738 -0.591909,2.811567 0.221966,5.031227 -0.07399,2.589602 -1.10983,4.66128 2.421894,1.917761 -2.05195,4.371273 v 5.40117 2.959546 l 0.887863,2.737577 -0.08284,0.525173 3.634294,0.06674 -1.10983,-3.699432 c 0,0 4.183482,-6.084069 4.257471,-6.380022 C 43.198293,85.686068 41.53385,80.8965 41.53385,80.8965 l 0.95036,-4.391133 0.728396,-5.012277 -0.312957,-4.022536 0.900095,-4.812686 -2.981319,-0.973343 1.745889,-4.199005 -1.107141,-4.321917 1.857916,-3.001615 -0.273576,-3.459118 2.784215,-3.656816 -3.282486,-2.972962 0.91371,-3.608541 -1.495431,-1.861206 -1.173671,-1.047333 -1.318077,-1.569064 z"
             style="fill:#ffeeaa;stroke:none;stroke-width:0.38092685px;stroke-linecap:butt;stroke-linejoin:miter;stroke-opacity:1" />
          <circle
             style="opacity:0.2;fill:#ffffff;fill-opacity:1;stroke:none;stroke-width:0.38092685;stroke-linecap:round;stroke-linejoin:round;stroke-miterlimit:4;stroke-dasharray:none;paint-order:stroke fill markers"
             id="path970"
             cx="-81.404289"
             cy="-83.454002"
             r="4.9626589"
             transform="matrix(0,-1,-1,0,0,0)" />
          <circle
             transform="matrix(0,-1,-1,0,0,0)"
             r="7.623795"
             cy="-82.231316"
             cx="-71.69474"
             id="circle972"
             style="opacity:0.2;fill:#ffffff;fill-opacity:1;stroke:none;stroke-width:0.58519197;stroke-linecap:round;stroke-linejoin:round;stroke-miterlimit:4;stroke-dasharray:none;paint-order:stroke fill markers" />
          <circle
             style="opacity:0.2;fill:#ffffff;fill-opacity:1;stroke:none;stroke-width:0.27603394;stroke-linecap:round;stroke-linejoin:round;stroke-miterlimit:4;stroke-dasharray:none;paint-order:stroke fill markers"
             id="circle974"
             cx="-47.960285"
             cy="-68.42218"
             r="3.5961299"
             transform="matrix(0,-1,-1,0,0,0)" />
          <circle
             transform="matrix(0,-1,-1,0,0,0)"
             r="7.7676401"
             cy="-85.108223"
             cx="-42.206478"
             id="circle976"
             style="opacity:0.2;fill:#ffffff;fill-opacity:1;stroke:none;stroke-width:0.59623331;stroke-linecap:round;stroke-linejoin:round;stroke-miterlimit:4;stroke-dasharray:none;paint-order:stroke fill markers" />
          <circle
             style="opacity:0.1;fill:#ffffff;fill-opacity:1;stroke:none;stroke-width:1.23111141;stroke-linecap:round;stroke-linejoin:round;stroke-miterlimit:4;stroke-dasharray:none;paint-order:stroke fill markers"
             id="circle978"
             cx="-74.64357"
             cy="-60.870316"
             r="16.038738"
             transform="matrix(0,-1,-1,0,0,0)" />
          <circle
             transform="matrix(0,-1,-1,0,0,0)"
             r="3.6680522"
             cy="-62.02108"
             cx="-39.545349"
             id="circle980"
             style="opacity:0.1;fill:#ffffff;fill-opacity:1;stroke:none;stroke-width:0.28155464;stroke-linecap:round;stroke-linejoin:round;stroke-miterlimit:4;stroke-dasharray:none;paint-order:stroke fill markers" />
          <circle
             style="opacity:0.1;fill:#ffffff;fill-opacity:1;stroke:none;stroke-width:0.22634785;stroke-linecap:round;stroke-linejoin:round;stroke-miterlimit:4;stroke-dasharray:none;paint-order:stroke fill markers"
             id="circle982"
             cx="-91.761147"
             cy="-90.070892"
             r="2.9488263"
             transform="matrix(0,-1,-1,0,0,0)" />
          <path
             sodipodi:type="star"
             style="opacity:0.1;fill:#ffffff;fill-opacity:1;stroke:none;stroke-width:1;stroke-linecap:round;stroke-linejoin:round;stroke-miterlimit:4;stroke-dasharray:none;paint-order:stroke fill markers"
             id="path984"
             sodipodi:sides="5"
             sodipodi:cx="101.57949"
             sodipodi:cy="39.785709"
             sodipodi:r1="11.106105"
             sodipodi:r2="5.5530529"
             sodipodi:arg1="0.61629694"
             sodipodi:arg2="1.2446155"
             inkscape:flatsided="false"
             inkscape:rounded="0"
             inkscape:randomized="0"
             d="m 110.64234,46.205231 -7.2835,-1.159264 -5.084101,5.342769 -1.1482,-7.285254 -6.652351,-3.184263 6.573876,-3.343271 0.972724,-7.310752 5.211082,5.218999 7.25352,-1.33403 -3.35325,6.56879 z"
             transform="matrix(0,-0.38092686,-0.38092686,0,95.372933,95.573041)"
             inkscape:transform-center-x="0.27019923"
             inkscape:transform-center-y="0.010915539" />
          <path
             sodipodi:type="star"
             style="opacity:0.1;fill:#ffffff;fill-opacity:1;stroke:none;stroke-width:1;stroke-linecap:round;stroke-linejoin:round;stroke-miterlimit:4;stroke-dasharray:none;paint-order:stroke fill markers"
             id="path986"
             sodipodi:sides="4"
             sodipodi:cx="11.706186"
             sodipodi:cy="58.666656"
             sodipodi:r1="8.8156023"
             sodipodi:r2="4.4078012"
             sodipodi:arg1="-0.81569192"
             sodipodi:arg2="-0.03029376"
             inkscape:flatsided="false"
             inkscape:rounded="0"
             inkscape:randomized="0"
             d="m 17.748089,52.247135 -1.636124,6.286013 2.013743,6.175411 -6.286013,-1.636124 -6.1754113,2.013743 1.6361238,-6.286013 -2.0137427,-6.175411 6.2860132,1.636124 z"
             transform="matrix(0,-0.38092686,-0.38092686,0,95.372933,95.573041)" />
          <path
             sodipodi:type="star"
             style="opacity:0.1;fill:#ffffff;fill-opacity:1;stroke:none;stroke-width:1;stroke-linecap:round;stroke-linejoin:round;stroke-miterlimit:4;stroke-dasharray:none;paint-order:stroke fill markers"
             id="path988"
             sodipodi:sides="4"
             sodipodi:cx="99.691391"
             sodipodi:cy="123.61711"
             sodipodi:r1="7.7480922"
             sodipodi:r2="3.8740461"
             sodipodi:arg1="-0.81986726"
             sodipodi:arg2="-0.034469101"
             inkscape:flatsided="false"
             inkscape:rounded="0"
             inkscape:randomized="0"
             d="m 104.97806,117.95283 -1.41492,5.53077 1.79253,5.42018 -5.530771,-1.41492 -5.420173,1.79253 1.41492,-5.53077 -1.792539,-5.42017 5.530776,1.41492 z"
             transform="matrix(0,-0.38092686,-0.38092686,0,95.372933,95.573041)" />
          <path
             sodipodi:type="star"
             style="opacity:0.1;fill:#ffffff;fill-opacity:1;stroke:none;stroke-width:1;stroke-linecap:round;stroke-linejoin:round;stroke-miterlimit:4;stroke-dasharray:none;paint-order:stroke fill markers"
             id="path990"
             sodipodi:sides="3"
             sodipodi:cx="37.006653"
             sodipodi:cy="51.491898"
             sodipodi:r1="30.514786"
             sodipodi:r2="15.257393"
             sodipodi:arg1="0.71533758"
             sodipodi:arg2="1.7625351"
             inkscape:flatsided="false"
             inkscape:rounded="0"
             inkscape:randomized="0"
             d="M 60.041406,71.5057 34.099111,66.469689 8.1568149,61.433678 25.489276,41.484997 42.821737,21.536315 51.431572,46.521007 Z"
             transform="matrix(0,-0.38092686,-0.38092686,0,95.372933,95.573041)" />
          <path
             sodipodi:type="star"
             style="opacity:0.1;fill:#ffffff;fill-opacity:1;stroke:none;stroke-width:1;stroke-linecap:round;stroke-linejoin:round;stroke-miterlimit:4;stroke-dasharray:none;paint-order:stroke fill markers"
             id="path992"
             sodipodi:sides="7"
             sodipodi:cx="129.52328"
             sodipodi:cy="42.429043"
             sodipodi:r1="21.126419"
             sodipodi:r2="10.56321"
             sodipodi:arg1="-1.1471274"
             sodipodi:arg2="-0.69832845"
             inkscape:flatsided="false"
             inkscape:rounded="0"
             inkscape:randomized="0"
             d="m 138.20852,23.170479 -0.59468,12.467072 12.38155,1.574364 -10.11793,7.30815 6.48889,10.661889 -12.02217,-3.353957 -4.29004,11.720794 -4.87347,-11.490466 -11.83849,3.953702 5.94505,-10.97442 -10.4723,-6.790608 12.28682,-2.194412 -1.22026,-12.421452 9.37637,8.238034 z"
             transform="matrix(0,-0.38092686,-0.38092686,0,95.372933,95.573041)"
             inkscape:transform-center-x="1.1489844"
             inkscape:transform-center-y="-0.2788246" />
          <path
             sodipodi:type="star"
             style="opacity:0.1;fill:#ffffff;fill-opacity:1;stroke:none;stroke-width:1;stroke-linecap:round;stroke-linejoin:round;stroke-miterlimit:4;stroke-dasharray:none;paint-order:stroke fill markers"
             id="path994"
             sodipodi:sides="6"
             sodipodi:cx="32.852844"
             sodipodi:cy="122.48425"
             sodipodi:r1="17.059851"
             sodipodi:r2="8.5299253"
             sodipodi:arg1="-1.0873493"
             sodipodi:arg2="-0.56375052"
             inkscape:flatsided="false"
             inkscape:rounded="0"
             inkscape:randomized="0"
             d="m 40.782842,107.3795 -0.720019,10.5467 9.836122,3.87325 -9.493723,4.6498 1.563726,10.45496 -8.773704,-5.89691 -8.272397,6.58171 0.720019,-10.54671 -9.836123,-3.87325 9.493723,-4.6498 -1.563725,-10.45495 8.773704,5.8969 z"
             transform="matrix(0,-0.38092686,-0.38092686,0,95.372933,95.573041)"
             inkscape:transform-center-x="-0.034793435"
             inkscape:transform-center-y="0.18944518" />
        </g>
      </g>
    </g>
  </g>
</svg>
