<?xml version="1.0" encoding="UTF-8" standalone="no"?>
<!-- Created with Inkscape (http://www.inkscape.org/) -->

<svg
   xmlns:dc="http://purl.org/dc/elements/1.1/"
   xmlns:cc="http://creativecommons.org/ns#"
   xmlns:rdf="http://www.w3.org/1999/02/22-rdf-syntax-ns#"
   xmlns:svg="http://www.w3.org/2000/svg"
   xmlns="http://www.w3.org/2000/svg"
   xmlns:sodipodi="http://sodipodi.sourceforge.net/DTD/sodipodi-0.dtd"
   xmlns:inkscape="http://www.inkscape.org/namespaces/inkscape"
   width="163.64471"
   height="163.64471"
   viewBox="0 0 43.297663 43.297663"
   version="1.1"
   id="svg834"
   inkscape:version="0.92.2 5c3e80d, 2017-08-06"
   sodipodi:docname="beach-b-and-l.svg">
  <defs
     id="defs828" />
  <sodipodi:namedview
     id="base"
     pagecolor="#ffffff"
     bordercolor="#666666"
     borderopacity="1.0"
     inkscape:pageopacity="0.0"
     inkscape:pageshadow="2"
     inkscape:zoom="2"
     inkscape:cx="95.139416"
     inkscape:cy="25.884876"
     inkscape:document-units="mm"
     inkscape:current-layer="g905"
     showgrid="false"
     units="px"
     inkscape:window-width="1680"
     inkscape:window-height="921"
     inkscape:window-x="0"
     inkscape:window-y="16"
     inkscape:window-maximized="0"
     fit-margin-top="0"
     fit-margin-left="0"
     fit-margin-right="0"
     fit-margin-bottom="0"
     inkscape:snap-global="false" />
  <metadata
     id="metadata831">
    <rdf:RDF>
      <cc:Work
         rdf:about="">
        <dc:format>image/svg+xml</dc:format>
        <dc:type
           rdf:resource="http://purl.org/dc/dcmitype/StillImage" />
        <dc:title />
      </cc:Work>
    </rdf:RDF>
  </metadata>
  <g
     inkscape:label="Layer 1"
     inkscape:groupmode="layer"
     id="layer1"
     transform="translate(188.10942,-117.95572)">
    <g
       id="g7055"
       transform="matrix(2.6251759,0,0,2.6251759,283.4532,-214.09548)">
      <g
         transform="matrix(0.26458333,0,0,0.26458333,-188.10942,117.95572)"
         id="use7053">
        <g
           id="g905"
           transform="matrix(0,-1,-1,0,127.61797,127.61797)">
          <rect
             style="opacity:1;fill:#37abc8;fill-opacity:1;stroke:none;stroke-width:0.38486534;stroke-linecap:round;stroke-linejoin:bevel;stroke-miterlimit:4;stroke-dasharray:none;stroke-opacity:1;paint-order:stroke fill markers"
             id="rect1098"
             width="59.990696"
             height="57.963932"
             x="-95.567757"
             y="-90.937149"
             transform="matrix(0,-1,-1,0,0,0)" />
          <rect
             style="opacity:1;fill:#8da916;fill-opacity:1;stroke:none;stroke-width:0.26917312;stroke-linecap:round;stroke-linejoin:bevel;stroke-miterlimit:4;stroke-dasharray:none;stroke-opacity:1;paint-order:stroke fill markers"
             id="rect1092"
             width="61.550381"
             height="5.5656896"
             x="-95.573044"
             y="-95.69873"
             transform="matrix(0,-1,-1,0,0,0)" />
          <path
             style="fill:#ffeeaa;stroke:none;stroke-width:0.38092685px;stroke-linecap:butt;stroke-linejoin:miter;stroke-opacity:1"
             d="m 90.21117,35.816533 -0.619508,1.42399 0.665897,2.14567 -0.147977,2.66359 0.887864,3.18151 -0.584635,2.836043 0.140703,1.455297 0.739886,2.589602 -0.739886,3.625442 -0.443932,5.549147 0.295955,1.701738 0.591909,2.811567 -0.221966,5.031227 0.07399,2.589602 1.10983,4.66128 -1.612424,1.965377 1.24248,4.323657 v 5.40117 2.959546 l -0.887863,2.737577 0.08284,0.525173 -3.634294,0.06674 1.10983,-3.699432 c 0,0 -0.739886,-4.513306 -0.813875,-4.809259 -0.07399,-0.295958 -0.221966,-5.327182 -0.221966,-5.327182 l 1.405784,-3.847407 1.627749,-2.293649 -1.257806,-4.143364 -0.295955,-3.181509 0.443932,-3.329487 -0.295954,-5.105215 -0.221966,-2.811568 0.739884,-3.84741 -0.813875,-4.365328 -1.213452,-1.300671 2.195035,-3.999999 -0.61164,-2.098192 -0.739886,-4.217351 z"
             id="path849"
             inkscape:connector-curvature="0"
             sodipodi:nodetypes="cccccccccccccccccccccccsccccccccccccccc" />
          <rect
             transform="scale(-1,1)"
             y="33.150642"
             x="-95.722542"
             height="4.5556049"
             width="62.805313"
             id="rect1094"
             style="opacity:1;fill:#8da916;fill-opacity:1;stroke:none;stroke-width:0.24599603;stroke-linecap:round;stroke-linejoin:bevel;stroke-miterlimit:4;stroke-dasharray:none;stroke-opacity:1;paint-order:stroke fill markers" />
          <g
             id="g875"
             transform="rotate(90,34.061012,5.1505168)">
            <path
               sodipodi:nodetypes="ccccccccccccccccccccccccccsccccccccccccccccc"
               inkscape:connector-curvature="0"
               id="path857"
               d="m 65.685658,7.4646769 -0.1514,-1.327449 0.60585,-1.023573 -0.17558,-1.461566 0.61951,-1.42399 -0.66589,-2.14566996 0.14797,-2.66359004 -0.88786,-3.18151 1.46004,-2.768704 -1.01611,-1.5226359 -0.73989,-2.589602 0.73989,-3.625442 0.44393,-5.549147 -0.29595,-1.701738 -0.59191,-2.811567 0.22196,-5.031227 -0.074,-2.589602 -1.10983,-4.66128 2.4219,-1.917761 -2.05195,-4.371273 v -5.40117 l -0.471373,-1.545427 1.022538,-0.953094 1.388499,0.742338 2.384486,1.734128 0.82349,0.025 c 0,0 -1.07827,1.920755 -1.00428,2.216708 0.074,0.295958 0.22197,5.327182 0.22197,5.327182 l -1.40579,3.847407 0.800659,2.62696 -1.170599,3.810053 0.29595,3.181509 -0.44393,3.329487 0.29596,5.105215 0.22196,2.811568 -0.73988,3.84741 0.81387,4.3653279 1.21346,1.300671 -2.19504,3.999999 0.61164,2.098192 0.73989,4.217351 0.51792,3.403477 0.011,2.294032 z"
               style="fill:#ffeeaa;stroke:none;stroke-width:0.38092685px;stroke-linecap:butt;stroke-linejoin:miter;stroke-opacity:1" />
          </g>
        </g>
      </g>
    </g>
  </g>
</svg>
