<?xml version="1.0" encoding="UTF-8" standalone="no"?>
<!-- Created with Inkscape (http://www.inkscape.org/) -->

<svg
   xmlns:dc="http://purl.org/dc/elements/1.1/"
   xmlns:cc="http://creativecommons.org/ns#"
   xmlns:rdf="http://www.w3.org/1999/02/22-rdf-syntax-ns#"
   xmlns:svg="http://www.w3.org/2000/svg"
   xmlns="http://www.w3.org/2000/svg"
   xmlns:sodipodi="http://sodipodi.sourceforge.net/DTD/sodipodi-0.dtd"
   xmlns:inkscape="http://www.inkscape.org/namespaces/inkscape"
   width="49.371521mm"
   height="49.371521mm"
   viewBox="0 0 49.371521 49.371521"
   version="1.1"
   id="svg8"
   sodipodi:docname="castle.svg"
   inkscape:version="0.92.2 5c3e80d, 2017-08-06">
  <defs
     id="defs2" />
  <sodipodi:namedview
     id="base"
     pagecolor="#ffffff"
     bordercolor="#666666"
     borderopacity="1.0"
     inkscape:pageopacity="0.0"
     inkscape:pageshadow="2"
     inkscape:zoom="0.79576171"
     inkscape:cx="258.44472"
     inkscape:cy="-37.209998"
     inkscape:document-units="mm"
     inkscape:current-layer="layer1"
     showgrid="false"
     inkscape:snap-global="false"
     inkscape:window-width="1680"
     inkscape:window-height="939"
     inkscape:window-x="0"
     inkscape:window-y="1"
     inkscape:window-maximized="1"
     fit-margin-top="0"
     fit-margin-left="0"
     fit-margin-right="0"
     fit-margin-bottom="0" />
  <metadata
     id="metadata5">
    <rdf:RDF>
      <cc:Work
         rdf:about="">
        <dc:format>image/svg+xml</dc:format>
        <dc:type
           rdf:resource="http://purl.org/dc/dcmitype/StillImage" />
        <dc:title />
      </cc:Work>
    </rdf:RDF>
  </metadata>
  <g
     inkscape:label="Layer 1"
     inkscape:groupmode="layer"
     id="layer1"
     transform="translate(-83.177954,-151.9832)">
    <path
       style="opacity:0.5;fill:#1a1a1a;stroke:none;stroke-width:0.26924425px;stroke-linecap:butt;stroke-linejoin:miter;stroke-opacity:1"
       d="m 108.19991,200.88451 c 7.24726,-0.39981 14.79478,-0.41104 21.52016,-3.40208 5.62545,-4.12442 1.36123,-12.88263 -5.48057,-12.1108 -6.89963,-1.81279 -14.06531,-1.08826 -20.91538,0.50239 -5.254875,-0.77876 -6.275411,3.91383 -3.12853,7.18374 2.01414,2.98109 6.39643,4.17584 8.00432,7.82675 z"
       id="path1041"
       inkscape:connector-curvature="0" />
    <path
       inkscape:connector-curvature="0"
       id="path1251"
       d="m 93.764042,163.87121 11.928098,-7.27323 3.61584,1.78712 -15.959553,8.52009 z"
       style="fill:#d0ccbb;fill-opacity:1;stroke:#000000;stroke-width:0.26458332px;stroke-linecap:butt;stroke-linejoin:miter;stroke-opacity:1" />
    <path
       style="fill:#d0ccbb;fill-opacity:1;stroke:#000000;stroke-width:0.26458332px;stroke-linecap:butt;stroke-linejoin:miter;stroke-opacity:1"
       d="m 121.44237,163.16466 -11.9281,-7.27323 -3.61583,1.78712 15.95955,8.52009 z"
       id="path1249"
       inkscape:connector-curvature="0" />
    <path
       style="fill:#aaa384;fill-opacity:1;stroke:#000000;stroke-width:0.26458332px;stroke-linecap:butt;stroke-linejoin:miter;stroke-opacity:1"
       d="m 108.18432,159.13322 0.0416,2.82617 -12.177484,7.02386 -0.2078,-3.57427 z"
       id="path1239"
       inkscape:connector-curvature="0" />
    <path
       style="fill:#d0ccbb;fill-opacity:1;stroke:#000000;stroke-width:0.26458332px;stroke-linecap:butt;stroke-linejoin:miter;stroke-opacity:1"
       d="m 108.26743,159.00853 12.8009,7.10699 -1.82872,2.16119 -11.13842,-6.35888 z"
       id="path1241"
       inkscape:connector-curvature="0" />
    <path
       style="fill:#aaa384;fill-opacity:1;stroke:#000000;stroke-width:0.26458332px;stroke-linecap:butt;stroke-linejoin:miter;stroke-opacity:1"
       d="m 108.22589,162.00095 -12.135914,6.9823 12.551524,7.31479 10.05783,-5.65233 0.58185,-2.41056 z"
       id="path1243"
       inkscape:connector-curvature="0" />
    <path
       style="fill:#d0ccbb;stroke:#000000;stroke-width:0.26458332px;stroke-linecap:butt;stroke-linejoin:miter;stroke-opacity:1;fill-opacity:1"
       d="m 92.391005,166.0324 -0.08312,26.26675 16.292045,8.97726 -0.24937,-26.68238 z"
       id="path1006"
       inkscape:connector-curvature="0" />
    <path
       style="fill:#d0ccbb;fill-opacity:1;stroke:#000000;stroke-width:0.26458332px;stroke-linecap:butt;stroke-linejoin:miter;stroke-opacity:1"
       d="m 107.93494,171.35225 -11.928099,-7.27323 -3.615836,1.78712 15.959555,8.52009 z"
       id="path1245"
       inkscape:connector-curvature="0" />
    <path
       style="fill:#aaa384;stroke:#000000;stroke-width:0.26458332px;stroke-linecap:butt;stroke-linejoin:miter;stroke-opacity:1;fill-opacity:1"
       d="m 108.309,174.55247 16.04267,-8.97726 0.16624,26.59925 -15.87642,8.89413 z"
       id="path1008"
       inkscape:connector-curvature="0" />
    <g
       id="g1019"
       transform="translate(39.44187,-142.56321)">
      <path
         sodipodi:nodetypes="ccccc"
         inkscape:connector-curvature="0"
         id="path1010"
         d="m 66.595515,296.04918 2.099633,1.2153 2.248207,-1.1902 -1.983711,-1.26371 z"
         style="fill:#fbf6d9;fill-opacity:1;stroke:#000000;stroke-width:0.26499999;stroke-linecap:butt;stroke-linejoin:bevel;stroke-miterlimit:4;stroke-dasharray:none;stroke-opacity:1" />
      <path
         sodipodi:nodetypes="ccccc"
         inkscape:connector-curvature="0"
         id="path1012"
         d="m 66.652663,296.2653 -0.05878,3.747 2.160039,1.17553 -0.05878,-3.83517 z"
         style="fill:#d0ccbb;fill-opacity:1;stroke:#000000;stroke-width:0.26458332px;stroke-linecap:butt;stroke-linejoin:bevel;stroke-opacity:1" />
      <path
         sodipodi:nodetypes="ccccccc"
         inkscape:connector-curvature="0"
         id="path1014"
         d="m 68.695148,297.29387 2.292289,-1.11676 0.01469,3.3209 -2.33637,1.70451 0.05876,-2.498 -0.04408,-0.74937 z"
         style="fill:#aaa384;fill-opacity:1;stroke:#000000;stroke-width:0.26458332px;stroke-linecap:butt;stroke-linejoin:bevel;stroke-opacity:1" />
    </g>
    <path
       inkscape:connector-curvature="0"
       id="path1247"
       d="m 108.97549,171.10288 11.9281,-7.27323 3.61584,1.78712 -15.95955,8.52009 z"
       style="fill:#d0ccbb;fill-opacity:1;stroke:#000000;stroke-width:0.26458332px;stroke-linecap:butt;stroke-linejoin:miter;stroke-opacity:1" />
    <path
       style="fill:none;stroke:#000000;stroke-width:0.26458332px;stroke-linecap:butt;stroke-linejoin:miter;stroke-opacity:1"
       d="m 96.547138,194.33566 -0.04156,-2.32744 -0.08312,-2.78461 v -1.57932 l 0.29093,-1.49622 0.748104,-1.37152 0.91435,-0.62341 h 1.413084 l 1.454644,0.78965 1.20528,1.66245 0.70654,1.49622 c 0,0 0.49874,0.99748 0.5403,1.20529 0.0416,0.2078 0.41562,1.57932 0.41562,1.57932 0,0 0.16624,2.1612 0.2078,2.369 0.0416,0.2078 -0.49873,2.90928 -0.49873,2.90928 l -0.16625,1.16372 -0.16624,0.91434 z"
       id="path1133"
       inkscape:connector-curvature="0" />
    <path
       style="fill:#808080;stroke:#000000;stroke-width:0.26458332px;stroke-linecap:butt;stroke-linejoin:miter;stroke-opacity:1"
       d="m 96.60948,194.31489 7.14855,-3.92756 -0.27015,-1.24685 -1.22606,-2.86771 -1.05981,-1.47542 -1.0806,-0.51954 -0.893566,-0.14547 -0.93513,0.18704 -0.872787,0.56107 -0.519517,1.14295 -0.374052,1.14292 -0.124685,1.16372 0.124685,2.14042 -0.02077,3.28335 z"
       id="path1135"
       inkscape:connector-curvature="0" />
    <path
       style="fill:none;stroke:#000000;stroke-width:0.26458332px;stroke-linecap:butt;stroke-linejoin:miter;stroke-opacity:1"
       d="m 98.355057,194.48112 0.290928,-10.32798"
       id="path1137"
       inkscape:connector-curvature="0" />
    <path
       style="fill:none;stroke:#000000;stroke-width:0.26458332px;stroke-linecap:butt;stroke-linejoin:miter;stroke-opacity:1"
       d="m 99.913607,195.18767 0.207803,-10.88906"
       id="path1139"
       inkscape:connector-curvature="0" />
    <path
       style="fill:none;stroke:#000000;stroke-width:0.26458332px;stroke-linecap:butt;stroke-linejoin:miter;stroke-opacity:1"
       d="m 101.36825,195.89421 0.20781,-10.55658"
       id="path1141"
       inkscape:connector-curvature="0" />
    <path
       style="fill:none;stroke:#000000;stroke-width:0.26458332px;stroke-linecap:butt;stroke-linejoin:miter;stroke-opacity:1"
       d="m 102.90602,196.91246 0.29093,-8.68632"
       id="path1143"
       inkscape:connector-curvature="0" />
    <path
       style="fill:none;stroke:#000000;stroke-width:0.26458332px;stroke-linecap:butt;stroke-linejoin:miter;stroke-opacity:1"
       d="m 103.571,195.54094 -6.358881,-3.69895"
       id="path1145"
       inkscape:connector-curvature="0"
       sodipodi:nodetypes="cc" />
    <path
       style="fill:none;stroke:#000000;stroke-width:0.26458332px;stroke-linecap:butt;stroke-linejoin:miter;stroke-opacity:1"
       d="m 103.75803,192.694 -6.442006,-2.76385"
       id="path1147"
       inkscape:connector-curvature="0"
       sodipodi:nodetypes="cc" />
    <path
       style="fill:none;stroke:#000000;stroke-width:0.26458332px;stroke-linecap:butt;stroke-linejoin:miter;stroke-opacity:1"
       d="m 103.59178,189.70158 -6.213415,-2.14043"
       id="path1149"
       inkscape:connector-curvature="0"
       sodipodi:nodetypes="cc" />
    <path
       style="fill:#666666;stroke:#000000;stroke-width:0.26458332px;stroke-linecap:butt;stroke-linejoin:miter;stroke-opacity:1"
       d="m 96.422454,180.89056 1.329962,0.66498 0.166246,-2.51444 -0.187026,-0.89358 c 0,0 -0.228587,-0.3117 -0.290928,-0.3325 -0.06234,-0.0209 -0.353272,-0.2078 -0.457176,-0.24934 -0.103902,-0.0416 -0.457174,-0.0209 -0.457174,-0.0209 l -0.06234,0.14547 -0.103905,1.18449 0.02077,1.35075 z"
       id="path1151"
       inkscape:connector-curvature="0" />
    <path
       style="fill:#666666;stroke:#000000;stroke-width:0.26458332px;stroke-linecap:butt;stroke-linejoin:miter;stroke-opacity:1"
       d="m 102.94758,184.50641 1.41309,0.74811 0.0831,-2.72227 -0.16625,-0.85201 c 0,0 -0.35327,-0.43641 -0.45717,-0.45718 -0.10391,-0.0209 -0.4364,-0.0416 -0.4364,-0.0416 l -0.3117,0.2078 -0.12469,0.97668 v 0.83125 0.87278 z"
       id="path1153"
       inkscape:connector-curvature="0" />
    <path
       inkscape:connector-curvature="0"
       id="path1155"
       d="m 102.9268,177.44098 1.41309,0.74811 0.0831,-2.72227 -0.16625,-0.85201 c 0,0 -0.35327,-0.43641 -0.45717,-0.45718 -0.10391,-0.0209 -0.4364,-0.0416 -0.4364,-0.0416 l -0.31171,0.2078 -0.12468,0.97668 v 0.83125 0.87278 z"
       style="fill:#666666;stroke:#000000;stroke-width:0.26458332px;stroke-linecap:butt;stroke-linejoin:miter;stroke-opacity:1" />
    <path
       style="fill:#666666;stroke:#000000;stroke-width:0.26458332px;stroke-linecap:butt;stroke-linejoin:miter;stroke-opacity:1"
       d="m 96.464016,173.86671 1.413084,0.74811 0.08312,-2.72227 -0.166246,-0.85201 c 0,0 -0.353271,-0.43641 -0.457173,-0.45718 -0.103905,-0.0209 -0.436396,-0.0416 -0.436396,-0.0416 l -0.311708,0.2078 -0.124685,0.97668 v 0.83125 0.87278 z"
       id="path1157"
       inkscape:connector-curvature="0" />
    <path
       style="fill:#916f6f;stroke:#000000;stroke-width:0.26458332px;stroke-linecap:butt;stroke-linejoin:miter;stroke-opacity:1"
       d="m 92.503977,167.45621 2.351064,1.30778 0.02939,1.21963 -2.395146,-1.21963 z"
       id="path1159"
       inkscape:connector-curvature="0" />
    <path
       style="fill:#916f6f;stroke:#000000;stroke-width:0.26458332px;stroke-linecap:butt;stroke-linejoin:miter;stroke-opacity:1"
       d="m 92.489282,169.36645 1.704523,0.76412 v 1.29307 l -1.719218,-0.69062 z"
       id="path1161"
       inkscape:connector-curvature="0" />
    <path
       inkscape:connector-curvature="0"
       id="path1163"
       d="m 92.4452,171.15914 2.351064,1.30778 0.02939,1.21963 -2.395146,-1.21963 z"
       style="fill:#916f6f;stroke:#000000;stroke-width:0.26458332px;stroke-linecap:butt;stroke-linejoin:miter;stroke-opacity:1" />
    <path
       inkscape:connector-curvature="0"
       id="path1165"
       d="m 92.430505,173.06938 1.704523,0.76412 v 1.29307 l -1.719218,-0.69062 z"
       style="fill:#916f6f;stroke:#000000;stroke-width:0.26458332px;stroke-linecap:butt;stroke-linejoin:miter;stroke-opacity:1" />
    <path
       style="fill:#916f6f;stroke:#000000;stroke-width:0.26458332px;stroke-linecap:butt;stroke-linejoin:miter;stroke-opacity:1"
       d="m 92.489282,175.05309 2.351064,1.30778 0.02939,1.21963 -2.395146,-1.21963 z"
       id="path1167"
       inkscape:connector-curvature="0" />
    <path
       style="fill:#916f6f;stroke:#000000;stroke-width:0.26458332px;stroke-linecap:butt;stroke-linejoin:miter;stroke-opacity:1"
       d="m 92.474587,176.96333 1.704523,0.76412 v 1.29307 l -1.719218,-0.69062 z"
       id="path1169"
       inkscape:connector-curvature="0" />
    <path
       inkscape:connector-curvature="0"
       id="path1171"
       d="m 92.447721,178.87673 2.351064,1.30778 0.02939,1.21963 -2.395146,-1.21963 z"
       style="fill:#916f6f;stroke:#000000;stroke-width:0.26458332px;stroke-linecap:butt;stroke-linejoin:miter;stroke-opacity:1" />
    <path
       inkscape:connector-curvature="0"
       id="path1173"
       d="m 92.433026,180.78697 1.704523,0.76412 v 1.29307 l -1.719218,-0.69062 z"
       style="fill:#916f6f;stroke:#000000;stroke-width:0.26458332px;stroke-linecap:butt;stroke-linejoin:miter;stroke-opacity:1" />
    <path
       style="fill:#916f6f;stroke:#000000;stroke-width:0.26458332px;stroke-linecap:butt;stroke-linejoin:miter;stroke-opacity:1"
       d="m 92.489282,182.80428 2.351064,1.30778 0.02939,1.21963 -2.395146,-1.21963 z"
       id="path1175"
       inkscape:connector-curvature="0" />
    <path
       style="fill:#916f6f;stroke:#000000;stroke-width:0.26458332px;stroke-linecap:butt;stroke-linejoin:miter;stroke-opacity:1"
       d="m 92.474587,184.71452 1.704523,0.76412 v 1.29307 l -1.719218,-0.69062 z"
       id="path1177"
       inkscape:connector-curvature="0" />
    <path
       inkscape:connector-curvature="0"
       id="path1179"
       d="m 92.42694,186.69026 2.351064,1.30778 0.02939,1.21963 -2.395146,-1.21963 z"
       style="fill:#916f6f;stroke:#000000;stroke-width:0.26458332px;stroke-linecap:butt;stroke-linejoin:miter;stroke-opacity:1" />
    <path
       inkscape:connector-curvature="0"
       id="path1181"
       d="m 92.412245,188.6005 1.704523,0.76412 v 1.29307 l -1.719218,-0.69062 z"
       style="fill:#916f6f;stroke:#000000;stroke-width:0.26458332px;stroke-linecap:butt;stroke-linejoin:miter;stroke-opacity:1" />
    <path
       style="fill:#916f6f;stroke:#000000;stroke-width:0.26458332px;stroke-linecap:butt;stroke-linejoin:miter;stroke-opacity:1"
       d="m 92.447721,190.55546 2.351064,1.30778 0.02939,1.21963 -2.395146,-1.21963 z"
       id="path1183"
       inkscape:connector-curvature="0" />
    <path
       inkscape:connector-curvature="0"
       id="path1185"
       d="m 108.28978,200.9329 -2.35107,-1.30778 -0.0294,-1.21963 2.39515,1.21963 z"
       style="fill:#916f6f;stroke:#000000;stroke-width:0.26458332px;stroke-linecap:butt;stroke-linejoin:miter;stroke-opacity:1" />
    <path
       inkscape:connector-curvature="0"
       id="path1187"
       d="m 108.30447,199.02266 -1.70452,-0.76412 v -1.29307 l 1.71922,0.69062 z"
       style="fill:#916f6f;stroke:#000000;stroke-width:0.26458332px;stroke-linecap:butt;stroke-linejoin:miter;stroke-opacity:1" />
    <path
       style="fill:#916f6f;stroke:#000000;stroke-width:0.26458332px;stroke-linecap:butt;stroke-linejoin:miter;stroke-opacity:1"
       d="m 108.34855,197.22997 -2.35106,-1.30778 -0.0294,-1.21963 2.39515,1.21963 z"
       id="path1189"
       inkscape:connector-curvature="0" />
    <path
       style="fill:#916f6f;stroke:#000000;stroke-width:0.26458332px;stroke-linecap:butt;stroke-linejoin:miter;stroke-opacity:1"
       d="m 108.36325,195.31973 -1.70452,-0.76412 v -1.29307 l 1.71921,0.69062 z"
       id="path1191"
       inkscape:connector-curvature="0" />
    <path
       inkscape:connector-curvature="0"
       id="path1193"
       d="m 108.30447,193.33602 -2.35106,-1.30778 -0.0294,-1.21963 2.39514,1.21963 z"
       style="fill:#916f6f;stroke:#000000;stroke-width:0.26458332px;stroke-linecap:butt;stroke-linejoin:miter;stroke-opacity:1" />
    <path
       inkscape:connector-curvature="0"
       id="path1195"
       d="m 108.31917,191.42578 -1.70453,-0.76412 v -1.29307 l 1.71922,0.69062 z"
       style="fill:#916f6f;stroke:#000000;stroke-width:0.26458332px;stroke-linecap:butt;stroke-linejoin:miter;stroke-opacity:1" />
    <path
       style="fill:#916f6f;stroke:#000000;stroke-width:0.26458332px;stroke-linecap:butt;stroke-linejoin:miter;stroke-opacity:1"
       d="m 108.34603,189.51238 -2.35106,-1.30778 -0.0294,-1.21963 2.39514,1.21963 z"
       id="path1197"
       inkscape:connector-curvature="0" />
    <path
       style="fill:#916f6f;stroke:#000000;stroke-width:0.26458332px;stroke-linecap:butt;stroke-linejoin:miter;stroke-opacity:1"
       d="m 108.36073,187.60214 -1.70453,-0.76412 v -1.29307 l 1.71922,0.69062 z"
       id="path1199"
       inkscape:connector-curvature="0" />
    <path
       inkscape:connector-curvature="0"
       id="path1201"
       d="m 108.30447,185.58483 -2.35106,-1.30778 -0.0294,-1.21963 2.39514,1.21963 z"
       style="fill:#916f6f;stroke:#000000;stroke-width:0.26458332px;stroke-linecap:butt;stroke-linejoin:miter;stroke-opacity:1" />
    <path
       inkscape:connector-curvature="0"
       id="path1203"
       d="m 108.31917,183.67459 -1.70453,-0.76412 v -1.29307 l 1.71922,0.69062 z"
       style="fill:#916f6f;stroke:#000000;stroke-width:0.26458332px;stroke-linecap:butt;stroke-linejoin:miter;stroke-opacity:1" />
    <path
       style="fill:#916f6f;stroke:#000000;stroke-width:0.26458332px;stroke-linecap:butt;stroke-linejoin:miter;stroke-opacity:1"
       d="m 108.36681,181.69885 -2.35106,-1.30778 -0.0294,-1.21963 2.39515,1.21963 z"
       id="path1205"
       inkscape:connector-curvature="0" />
    <path
       style="fill:#916f6f;stroke:#000000;stroke-width:0.26458332px;stroke-linecap:butt;stroke-linejoin:miter;stroke-opacity:1"
       d="m 108.38151,179.78861 -1.70452,-0.76412 v -1.29307 l 1.71921,0.69062 z"
       id="path1207"
       inkscape:connector-curvature="0" />
    <path
       inkscape:connector-curvature="0"
       id="path1209"
       d="m 108.34603,177.83365 -2.35106,-1.30778 -0.0294,-1.21963 2.39514,1.21963 z"
       style="fill:#916f6f;stroke:#000000;stroke-width:0.26458332px;stroke-linecap:butt;stroke-linejoin:miter;stroke-opacity:1" />
    <path
       style="fill:#916f6f;stroke:#000000;stroke-width:0.26458332px;stroke-linecap:butt;stroke-linejoin:miter;stroke-opacity:1"
       d="m 108.61508,200.8098 1.70452,-0.76412 v -1.29307 l -1.71922,0.69062 z"
       id="path1213"
       inkscape:connector-curvature="0" />
    <path
       inkscape:connector-curvature="0"
       id="path1215"
       d="m 108.571,199.01711 2.35106,-1.30778 0.0294,-1.21963 -2.39514,1.21963 z"
       style="fill:#916f6f;stroke:#000000;stroke-width:0.26458332px;stroke-linecap:butt;stroke-linejoin:miter;stroke-opacity:1" />
    <path
       inkscape:connector-curvature="0"
       id="path1217"
       d="m 108.5563,197.10687 1.70452,-0.76412 v -1.29307 l -1.71921,0.69062 z"
       style="fill:#916f6f;stroke:#000000;stroke-width:0.26458332px;stroke-linecap:butt;stroke-linejoin:miter;stroke-opacity:1" />
    <path
       style="fill:#916f6f;stroke:#000000;stroke-width:0.26458332px;stroke-linecap:butt;stroke-linejoin:miter;stroke-opacity:1"
       d="m 108.61508,195.12316 2.35106,-1.30778 0.0294,-1.21963 -2.39514,1.21963 z"
       id="path1219"
       inkscape:connector-curvature="0" />
    <path
       style="fill:#916f6f;stroke:#000000;stroke-width:0.26458332px;stroke-linecap:butt;stroke-linejoin:miter;stroke-opacity:1"
       d="m 108.60038,193.21292 1.70452,-0.76412 v -1.29307 l -1.71921,0.69062 z"
       id="path1221"
       inkscape:connector-curvature="0" />
    <path
       inkscape:connector-curvature="0"
       id="path1223"
       d="m 108.57352,191.29952 2.35106,-1.30778 0.0294,-1.21963 -2.39514,1.21963 z"
       style="fill:#916f6f;stroke:#000000;stroke-width:0.26458332px;stroke-linecap:butt;stroke-linejoin:miter;stroke-opacity:1" />
    <path
       inkscape:connector-curvature="0"
       id="path1225"
       d="m 108.55882,189.38928 1.70452,-0.76412 v -1.29307 l -1.71921,0.69062 z"
       style="fill:#916f6f;stroke:#000000;stroke-width:0.26458332px;stroke-linecap:butt;stroke-linejoin:miter;stroke-opacity:1" />
    <path
       style="fill:#916f6f;stroke:#000000;stroke-width:0.26458332px;stroke-linecap:butt;stroke-linejoin:miter;stroke-opacity:1"
       d="m 108.61508,187.37197 2.35106,-1.30778 0.0294,-1.21963 -2.39514,1.21963 z"
       id="path1227"
       inkscape:connector-curvature="0" />
    <path
       style="fill:#916f6f;stroke:#000000;stroke-width:0.26458332px;stroke-linecap:butt;stroke-linejoin:miter;stroke-opacity:1"
       d="m 108.60038,185.46173 1.70452,-0.76412 v -1.29307 l -1.71921,0.69062 z"
       id="path1229"
       inkscape:connector-curvature="0" />
    <path
       inkscape:connector-curvature="0"
       id="path1231"
       d="m 108.55274,183.48599 2.35106,-1.30778 0.0294,-1.21963 -2.39514,1.21963 z"
       style="fill:#916f6f;stroke:#000000;stroke-width:0.26458332px;stroke-linecap:butt;stroke-linejoin:miter;stroke-opacity:1" />
    <path
       inkscape:connector-curvature="0"
       id="path1233"
       d="m 108.53804,181.57575 1.70452,-0.76412 v -1.29307 l -1.71921,0.69062 z"
       style="fill:#916f6f;stroke:#000000;stroke-width:0.26458332px;stroke-linecap:butt;stroke-linejoin:miter;stroke-opacity:1" />
    <path
       style="fill:#916f6f;stroke:#000000;stroke-width:0.26458332px;stroke-linecap:butt;stroke-linejoin:miter;stroke-opacity:1"
       d="m 108.57352,179.62079 2.35106,-1.30778 0.0294,-1.21963 -2.39514,1.21963 z"
       id="path1235"
       inkscape:connector-curvature="0" />
    <path
       inkscape:connector-curvature="0"
       id="path1237"
       d="m 108.53196,177.66014 1.70452,-0.76412 v -1.29307 l -1.71922,0.69062 z"
       style="fill:#916f6f;stroke:#000000;stroke-width:0.26458332px;stroke-linecap:butt;stroke-linejoin:miter;stroke-opacity:1" />
    <path
       inkscape:connector-curvature="0"
       id="path1253"
       d="m 124.30312,167.14672 -1.70453,0.76412 v 1.29307 l 1.71922,-0.69062 z"
       style="fill:#6c5353;stroke:#000000;stroke-width:0.26458332px;stroke-linecap:butt;stroke-linejoin:miter;stroke-opacity:1" />
    <path
       style="fill:#6c5353;stroke:#000000;stroke-width:0.26458332px;stroke-linecap:butt;stroke-linejoin:miter;stroke-opacity:1"
       d="m 124.3472,168.93941 -2.35107,1.30778 -0.0294,1.21963 2.39515,-1.21963 z"
       id="path1255"
       inkscape:connector-curvature="0" />
    <path
       style="fill:#6c5353;stroke:#000000;stroke-width:0.26458332px;stroke-linecap:butt;stroke-linejoin:miter;stroke-opacity:1"
       d="m 124.36189,170.84965 -1.70452,0.76412 v 1.29307 l 1.71922,-0.69062 z"
       id="path1257"
       inkscape:connector-curvature="0" />
    <path
       inkscape:connector-curvature="0"
       id="path1259"
       d="m 124.30312,172.83336 -2.35107,1.30778 -0.0294,1.21963 2.39515,-1.21963 z"
       style="fill:#6c5353;stroke:#000000;stroke-width:0.26458332px;stroke-linecap:butt;stroke-linejoin:miter;stroke-opacity:1" />
    <path
       inkscape:connector-curvature="0"
       id="path1261"
       d="m 124.31781,174.7436 -1.70452,0.76412 v 1.29307 l 1.71922,-0.69062 z"
       style="fill:#6c5353;stroke:#000000;stroke-width:0.26458332px;stroke-linecap:butt;stroke-linejoin:miter;stroke-opacity:1" />
    <path
       style="fill:#6c5353;stroke:#000000;stroke-width:0.26458332px;stroke-linecap:butt;stroke-linejoin:miter;stroke-opacity:1"
       d="m 124.34468,176.657 -2.35107,1.30778 -0.0294,1.21963 2.39515,-1.21963 z"
       id="path1263"
       inkscape:connector-curvature="0" />
    <path
       style="fill:#6c5353;stroke:#000000;stroke-width:0.26458332px;stroke-linecap:butt;stroke-linejoin:miter;stroke-opacity:1"
       d="m 124.35937,178.56724 -1.70452,0.76412 v 1.29307 l 1.71922,-0.69062 z"
       id="path1265"
       inkscape:connector-curvature="0" />
    <path
       inkscape:connector-curvature="0"
       id="path1267"
       d="m 124.30312,180.58455 -2.35107,1.30778 -0.0294,1.21963 2.39515,-1.21963 z"
       style="fill:#6c5353;stroke:#000000;stroke-width:0.26458332px;stroke-linecap:butt;stroke-linejoin:miter;stroke-opacity:1" />
    <path
       inkscape:connector-curvature="0"
       id="path1269"
       d="m 124.31781,182.49479 -1.70452,0.76412 v 1.29307 l 1.71922,-0.69062 z"
       style="fill:#6c5353;stroke:#000000;stroke-width:0.26458332px;stroke-linecap:butt;stroke-linejoin:miter;stroke-opacity:1" />
    <path
       style="fill:#6c5353;stroke:#000000;stroke-width:0.26458332px;stroke-linecap:butt;stroke-linejoin:miter;stroke-opacity:1"
       d="m 124.36546,184.47053 -2.35107,1.30778 -0.0294,1.21963 2.39515,-1.21963 z"
       id="path1271"
       inkscape:connector-curvature="0" />
    <path
       style="fill:#6c5353;stroke:#000000;stroke-width:0.26458332px;stroke-linecap:butt;stroke-linejoin:miter;stroke-opacity:1"
       d="m 124.38015,186.38077 -1.70452,0.76412 v 1.29307 l 1.71922,-0.69062 z"
       id="path1273"
       inkscape:connector-curvature="0" />
    <path
       inkscape:connector-curvature="0"
       id="path1275"
       d="m 124.34468,188.33573 -2.35107,1.30778 -0.0294,1.21963 2.39515,-1.21963 z"
       style="fill:#6c5353;stroke:#000000;stroke-width:0.26458332px;stroke-linecap:butt;stroke-linejoin:miter;stroke-opacity:1" />
    <path
       style="fill:#6c5353;stroke:#000000;stroke-width:0.26458332px;stroke-linecap:butt;stroke-linejoin:miter;stroke-opacity:1"
       d="m 124.38624,190.29638 -1.70452,0.76412 v 1.29307 l 1.71921,-0.69062 z"
       id="path1277"
       inkscape:connector-curvature="0" />
    <g
       transform="translate(35.202614,-140.06953)"
       id="g959">
      <path
         style="fill:#fbf6d9;fill-opacity:1;stroke:#000000;stroke-width:0.26499999;stroke-linecap:butt;stroke-linejoin:bevel;stroke-miterlimit:4;stroke-dasharray:none;stroke-opacity:1"
         d="m 66.595515,296.04918 2.099633,1.2153 2.248207,-1.1902 -1.983711,-1.26371 z"
         id="path953"
         inkscape:connector-curvature="0"
         sodipodi:nodetypes="ccccc" />
      <path
         style="fill:#d0ccbb;fill-opacity:1;stroke:#000000;stroke-width:0.26458332px;stroke-linecap:butt;stroke-linejoin:bevel;stroke-opacity:1"
         d="m 66.652663,296.2653 -0.05878,3.747 2.160039,1.17553 -0.05878,-3.83517 z"
         id="path955"
         inkscape:connector-curvature="0"
         sodipodi:nodetypes="ccccc" />
      <path
         style="fill:#aaa384;fill-opacity:1;stroke:#000000;stroke-width:0.26458332px;stroke-linecap:butt;stroke-linejoin:bevel;stroke-opacity:1"
         d="m 68.695148,297.29387 2.292289,-1.11676 0.01469,3.3209 -2.33637,1.70451 0.05876,-2.498 -0.04408,-0.74937 z"
         id="path957"
         inkscape:connector-curvature="0"
         sodipodi:nodetypes="ccccccc" />
    </g>
    <g
       id="g967"
       transform="translate(43.764248,-140.15265)">
      <path
         sodipodi:nodetypes="ccccc"
         inkscape:connector-curvature="0"
         id="path961"
         d="m 66.595515,296.04918 2.099633,1.2153 2.248207,-1.1902 -1.983711,-1.26371 z"
         style="fill:#fbf6d9;fill-opacity:1;stroke:#000000;stroke-width:0.26499999;stroke-linecap:butt;stroke-linejoin:bevel;stroke-miterlimit:4;stroke-dasharray:none;stroke-opacity:1" />
      <path
         sodipodi:nodetypes="ccccc"
         inkscape:connector-curvature="0"
         id="path963"
         d="m 66.652663,296.2653 -0.05878,3.747 2.160039,1.17553 -0.05878,-3.83517 z"
         style="fill:#d0ccbb;fill-opacity:1;stroke:#000000;stroke-width:0.26458332px;stroke-linecap:butt;stroke-linejoin:bevel;stroke-opacity:1" />
      <path
         sodipodi:nodetypes="ccccccc"
         inkscape:connector-curvature="0"
         id="path965"
         d="m 68.695148,297.29387 2.292289,-1.11676 0.01469,3.3209 -2.33637,1.70451 0.05876,-2.498 -0.04408,-0.74937 z"
         style="fill:#aaa384;fill-opacity:1;stroke:#000000;stroke-width:0.26458332px;stroke-linecap:butt;stroke-linejoin:bevel;stroke-opacity:1" />
    </g>
    <g
       transform="translate(48.086627,-137.57585)"
       id="g975">
      <path
         style="fill:#fbf6d9;fill-opacity:1;stroke:#000000;stroke-width:0.26499999;stroke-linecap:butt;stroke-linejoin:bevel;stroke-miterlimit:4;stroke-dasharray:none;stroke-opacity:1"
         d="m 66.595515,296.04918 2.099633,1.2153 2.248207,-1.1902 -1.983711,-1.26371 z"
         id="path969"
         inkscape:connector-curvature="0"
         sodipodi:nodetypes="ccccc" />
      <path
         style="fill:#d0ccbb;fill-opacity:1;stroke:#000000;stroke-width:0.26458332px;stroke-linecap:butt;stroke-linejoin:bevel;stroke-opacity:1"
         d="m 66.652663,296.2653 -0.05878,3.747 2.160039,1.17553 -0.05878,-3.83517 z"
         id="path971"
         inkscape:connector-curvature="0"
         sodipodi:nodetypes="ccccc" />
      <path
         style="fill:#aaa384;fill-opacity:1;stroke:#000000;stroke-width:0.26458332px;stroke-linecap:butt;stroke-linejoin:bevel;stroke-opacity:1"
         d="m 68.695148,297.29387 2.292289,-1.11676 0.01469,3.3209 -2.33637,1.70451 0.05876,-2.498 -0.04408,-0.74937 z"
         id="path973"
         inkscape:connector-curvature="0"
         sodipodi:nodetypes="ccccccc" />
    </g>
    <g
       id="g983"
       transform="translate(52.741496,-134.50031)">
      <path
         sodipodi:nodetypes="ccccc"
         inkscape:connector-curvature="0"
         id="path977"
         d="m 66.595515,296.04918 2.099633,1.2153 2.248207,-1.1902 -1.983711,-1.26371 z"
         style="fill:#fbf6d9;fill-opacity:1;stroke:#000000;stroke-width:0.26499999;stroke-linecap:butt;stroke-linejoin:bevel;stroke-miterlimit:4;stroke-dasharray:none;stroke-opacity:1" />
      <path
         sodipodi:nodetypes="ccccc"
         inkscape:connector-curvature="0"
         id="path979"
         d="m 66.652663,296.2653 -0.05878,3.747 2.160039,1.17553 -0.05878,-3.83517 z"
         style="fill:#d0ccbb;fill-opacity:1;stroke:#000000;stroke-width:0.26458332px;stroke-linecap:butt;stroke-linejoin:bevel;stroke-opacity:1" />
      <path
         sodipodi:nodetypes="ccccccc"
         inkscape:connector-curvature="0"
         id="path981"
         d="m 68.695148,297.29387 2.292289,-1.11676 0.01469,3.3209 -2.33637,1.70451 0.05876,-2.498 -0.04408,-0.74937 z"
         style="fill:#aaa384;fill-opacity:1;stroke:#000000;stroke-width:0.26458332px;stroke-linecap:butt;stroke-linejoin:bevel;stroke-opacity:1" />
    </g>
    <g
       transform="translate(30.630867,-137.32648)"
       id="g991">
      <path
         style="fill:#fbf6d9;fill-opacity:1;stroke:#000000;stroke-width:0.26499999;stroke-linecap:butt;stroke-linejoin:bevel;stroke-miterlimit:4;stroke-dasharray:none;stroke-opacity:1"
         d="m 66.595515,296.04918 2.099633,1.2153 2.248207,-1.1902 -1.983711,-1.26371 z"
         id="path985"
         inkscape:connector-curvature="0"
         sodipodi:nodetypes="ccccc" />
      <path
         style="fill:#d0ccbb;fill-opacity:1;stroke:#000000;stroke-width:0.26458332px;stroke-linecap:butt;stroke-linejoin:bevel;stroke-opacity:1"
         d="m 66.652663,296.2653 -0.05878,3.747 2.160039,1.17553 -0.05878,-3.83517 z"
         id="path987"
         inkscape:connector-curvature="0"
         sodipodi:nodetypes="ccccc" />
      <path
         style="fill:#aaa384;fill-opacity:1;stroke:#000000;stroke-width:0.26458332px;stroke-linecap:butt;stroke-linejoin:bevel;stroke-opacity:1"
         d="m 68.695148,297.29387 2.292289,-1.11676 0.01469,3.3209 -2.33637,1.70451 0.05876,-2.498 -0.04408,-0.74937 z"
         id="path989"
         inkscape:connector-curvature="0"
         sodipodi:nodetypes="ccccccc" />
    </g>
    <g
       id="g999"
       transform="translate(26.142243,-134.24503)">
      <path
         sodipodi:nodetypes="ccccc"
         inkscape:connector-curvature="0"
         id="path993"
         d="m 66.595515,296.04918 2.099633,1.2153 2.248207,-1.1902 -1.983711,-1.26371 z"
         style="fill:#fbf6d9;fill-opacity:1;stroke:#000000;stroke-width:0.26499999;stroke-linecap:butt;stroke-linejoin:bevel;stroke-miterlimit:4;stroke-dasharray:none;stroke-opacity:1" />
      <path
         sodipodi:nodetypes="ccccc"
         inkscape:connector-curvature="0"
         id="path995"
         d="m 66.652663,296.2653 -0.05878,3.747 2.160039,1.17553 -0.05878,-3.83517 z"
         style="fill:#d0ccbb;fill-opacity:1;stroke:#000000;stroke-width:0.26458332px;stroke-linecap:butt;stroke-linejoin:bevel;stroke-opacity:1" />
      <path
         sodipodi:nodetypes="ccccccc"
         inkscape:connector-curvature="0"
         id="path997"
         d="m 68.695148,297.29387 2.292289,-1.11676 0.01469,3.3209 -2.33637,1.70451 0.05876,-2.498 -0.04408,-0.74937 z"
         style="fill:#aaa384;fill-opacity:1;stroke:#000000;stroke-width:0.26458332px;stroke-linecap:butt;stroke-linejoin:bevel;stroke-opacity:1" />
    </g>
    <g
       transform="translate(30.797112,-131.75726)"
       id="g1007">
      <path
         style="fill:#fbf6d9;fill-opacity:1;stroke:#000000;stroke-width:0.26499999;stroke-linecap:butt;stroke-linejoin:bevel;stroke-miterlimit:4;stroke-dasharray:none;stroke-opacity:1"
         d="m 66.595515,296.04918 2.099633,1.2153 2.248207,-1.1902 -1.983711,-1.26371 z"
         id="path1001"
         inkscape:connector-curvature="0"
         sodipodi:nodetypes="ccccc" />
      <path
         style="fill:#d0ccbb;fill-opacity:1;stroke:#000000;stroke-width:0.26458332px;stroke-linecap:butt;stroke-linejoin:bevel;stroke-opacity:1"
         d="m 66.652663,296.2653 -0.05878,3.747 2.160039,1.17553 -0.05878,-3.83517 z"
         id="path1003"
         inkscape:connector-curvature="0"
         sodipodi:nodetypes="ccccc" />
      <path
         style="fill:#aaa384;fill-opacity:1;stroke:#000000;stroke-width:0.26458332px;stroke-linecap:butt;stroke-linejoin:bevel;stroke-opacity:1"
         d="m 68.695148,297.29387 2.292289,-1.11676 0.01469,3.3209 -2.33637,1.70451 0.05876,-2.498 -0.04408,-0.74937 z"
         id="path1005"
         inkscape:connector-curvature="0"
         sodipodi:nodetypes="ccccccc" />
    </g>
    <g
       id="g1015"
       transform="translate(35.285736,-129.3467)">
      <path
         sodipodi:nodetypes="ccccc"
         inkscape:connector-curvature="0"
         id="path1009"
         d="m 66.595515,296.04918 2.099633,1.2153 2.248207,-1.1902 -1.983711,-1.26371 z"
         style="fill:#fbf6d9;fill-opacity:1;stroke:#000000;stroke-width:0.26499999;stroke-linecap:butt;stroke-linejoin:bevel;stroke-miterlimit:4;stroke-dasharray:none;stroke-opacity:1" />
      <path
         sodipodi:nodetypes="ccccc"
         inkscape:connector-curvature="0"
         id="path1011"
         d="m 66.652663,296.2653 -0.05878,3.747 2.160039,1.17553 -0.05878,-3.83517 z"
         style="fill:#d0ccbb;fill-opacity:1;stroke:#000000;stroke-width:0.26458332px;stroke-linecap:butt;stroke-linejoin:bevel;stroke-opacity:1" />
      <path
         sodipodi:nodetypes="ccccccc"
         inkscape:connector-curvature="0"
         id="path1013"
         d="m 68.695148,297.29387 2.292289,-1.11676 0.01469,3.3209 -2.33637,1.70451 0.05876,-2.498 -0.04408,-0.74937 z"
         style="fill:#aaa384;fill-opacity:1;stroke:#000000;stroke-width:0.26458332px;stroke-linecap:butt;stroke-linejoin:bevel;stroke-opacity:1" />
    </g>
    <g
       transform="translate(39.691237,-127.01927)"
       id="g1023">
      <path
         style="fill:#fbf6d9;fill-opacity:1;stroke:#000000;stroke-width:0.26499999;stroke-linecap:butt;stroke-linejoin:bevel;stroke-miterlimit:4;stroke-dasharray:none;stroke-opacity:1"
         d="m 66.595515,296.04918 2.099633,1.2153 2.248207,-1.1902 -1.983711,-1.26371 z"
         id="path1017"
         inkscape:connector-curvature="0"
         sodipodi:nodetypes="ccccc" />
      <path
         style="fill:#d0ccbb;fill-opacity:1;stroke:#000000;stroke-width:0.26458332px;stroke-linecap:butt;stroke-linejoin:bevel;stroke-opacity:1"
         d="m 66.652663,296.2653 -0.05878,3.747 2.160039,1.17553 -0.05878,-3.83517 z"
         id="path1019"
         inkscape:connector-curvature="0"
         sodipodi:nodetypes="ccccc" />
      <path
         style="fill:#aaa384;fill-opacity:1;stroke:#000000;stroke-width:0.26458332px;stroke-linecap:butt;stroke-linejoin:bevel;stroke-opacity:1"
         d="m 68.695148,297.29387 2.292289,-1.11676 0.01469,3.3209 -2.33637,1.70451 0.05876,-2.498 -0.04408,-0.74937 z"
         id="path1021"
         inkscape:connector-curvature="0"
         sodipodi:nodetypes="ccccccc" />
    </g>
    <g
       id="g1031"
       transform="translate(48.668485,-131.67414)">
      <path
         sodipodi:nodetypes="ccccc"
         inkscape:connector-curvature="0"
         id="path1025"
         d="m 66.595515,296.04918 2.099633,1.2153 2.248207,-1.1902 -1.983711,-1.26371 z"
         style="fill:#fbf6d9;fill-opacity:1;stroke:#000000;stroke-width:0.26499999;stroke-linecap:butt;stroke-linejoin:bevel;stroke-miterlimit:4;stroke-dasharray:none;stroke-opacity:1" />
      <path
         sodipodi:nodetypes="ccccc"
         inkscape:connector-curvature="0"
         id="path1027"
         d="m 66.652663,296.2653 -0.05878,3.747 2.160039,1.17553 -0.05878,-3.83517 z"
         style="fill:#d0ccbb;fill-opacity:1;stroke:#000000;stroke-width:0.26458332px;stroke-linecap:butt;stroke-linejoin:bevel;stroke-opacity:1" />
      <path
         sodipodi:nodetypes="ccccccc"
         inkscape:connector-curvature="0"
         id="path1029"
         d="m 68.695148,297.29387 2.292289,-1.11676 0.01469,3.3209 -2.33637,1.70451 0.05876,-2.498 -0.04408,-0.74937 z"
         style="fill:#aaa384;fill-opacity:1;stroke:#000000;stroke-width:0.26458332px;stroke-linecap:butt;stroke-linejoin:bevel;stroke-opacity:1" />
    </g>
    <g
       transform="translate(44.346106,-129.26358)"
       id="g1039">
      <path
         style="fill:#fbf6d9;fill-opacity:1;stroke:#000000;stroke-width:0.26499999;stroke-linecap:butt;stroke-linejoin:bevel;stroke-miterlimit:4;stroke-dasharray:none;stroke-opacity:1"
         d="m 66.595515,296.04918 2.099633,1.2153 2.248207,-1.1902 -1.983711,-1.26371 z"
         id="path1033"
         inkscape:connector-curvature="0"
         sodipodi:nodetypes="ccccc" />
      <path
         style="fill:#d0ccbb;fill-opacity:1;stroke:#000000;stroke-width:0.26458332px;stroke-linecap:butt;stroke-linejoin:bevel;stroke-opacity:1"
         d="m 66.652663,296.2653 -0.05878,3.747 2.160039,1.17553 -0.05878,-3.83517 z"
         id="path1035"
         inkscape:connector-curvature="0"
         sodipodi:nodetypes="ccccc" />
      <path
         style="fill:#aaa384;fill-opacity:1;stroke:#000000;stroke-width:0.26458332px;stroke-linecap:butt;stroke-linejoin:bevel;stroke-opacity:1"
         d="m 68.695148,297.29387 2.292289,-1.11676 0.01469,3.3209 -2.33637,1.70451 0.05876,-2.498 -0.04408,-0.74937 z"
         id="path1037"
         inkscape:connector-curvature="0"
         sodipodi:nodetypes="ccccccc" />
    </g>
  </g>
</svg>
