<?xml version="1.0" encoding="UTF-8" standalone="no"?>
<!-- Created with Inkscape (http://www.inkscape.org/) -->

<svg
   xmlns:dc="http://purl.org/dc/elements/1.1/"
   xmlns:cc="http://creativecommons.org/ns#"
   xmlns:rdf="http://www.w3.org/1999/02/22-rdf-syntax-ns#"
   xmlns:svg="http://www.w3.org/2000/svg"
   xmlns="http://www.w3.org/2000/svg"
   xmlns:sodipodi="http://sodipodi.sourceforge.net/DTD/sodipodi-0.dtd"
   xmlns:inkscape="http://www.inkscape.org/namespaces/inkscape"
   width="163.64471"
   height="163.64471"
   viewBox="0 0 43.297663 43.297663"
   version="1.1"
   id="svg834"
   inkscape:version="0.92.2 5c3e80d, 2017-08-06"
   sodipodi:docname="grass.svg">
  <defs
     id="defs828">
    <filter
       inkscape:collect="always"
       style="color-interpolation-filters:sRGB"
       id="filter1618"
       x="-0.061666667"
       width="1.1233333"
       y="-0.19018213"
       height="1.3803643">
      <feGaussianBlur
         inkscape:collect="always"
         stdDeviation="0.89106586"
         id="feGaussianBlur1620" />
    </filter>
    <filter
       inkscape:collect="always"
       style="color-interpolation-filters:sRGB"
       id="filter1622"
       x="-0.061891824"
       width="1.1237836"
       y="-0.1487525"
       height="1.297505">
      <feGaussianBlur
         inkscape:collect="always"
         stdDeviation="0.89106586"
         id="feGaussianBlur1624" />
    </filter>
    <filter
       inkscape:collect="always"
       style="color-interpolation-filters:sRGB"
       id="filter1656"
       x="-0.24138542"
       width="1.4827708"
       y="-0.36439165"
       height="1.7287832">
      <feGaussianBlur
         inkscape:collect="always"
         stdDeviation="1.4224088"
         id="feGaussianBlur1658" />
    </filter>
    <filter
       inkscape:collect="always"
       style="color-interpolation-filters:sRGB"
       id="filter1780"
       x="-0.35465354"
       width="1.7093071"
       y="-0.35096574"
       height="1.7019315">
      <feGaussianBlur
         inkscape:collect="always"
         stdDeviation="0.16582122"
         id="feGaussianBlur1782" />
    </filter>
    <filter
       inkscape:collect="always"
       style="color-interpolation-filters:sRGB"
       id="filter1798"
       x="-0.090189442"
       width="1.1803789"
       y="-0.46734631"
       height="1.9346926">
      <feGaussianBlur
         inkscape:collect="always"
         stdDeviation="0.10120345"
         id="feGaussianBlur1800" />
    </filter>
    <filter
       inkscape:collect="always"
       style="color-interpolation-filters:sRGB"
       id="filter1834"
       x="-0.54197383"
       width="2.0839477"
       y="-0.28692731"
       height="1.5738546">
      <feGaussianBlur
         inkscape:collect="always"
         stdDeviation="0.19204987"
         id="feGaussianBlur1836" />
    </filter>
    <filter
       inkscape:collect="always"
       style="color-interpolation-filters:sRGB"
       id="filter1838"
       x="-0.13738522"
       width="1.2747704"
       y="-0.54170793"
       height="2.0834157">
      <feGaussianBlur
         inkscape:collect="always"
         stdDeviation="0.19208146"
         id="feGaussianBlur1840" />
    </filter>
    <filter
       inkscape:collect="always"
       style="color-interpolation-filters:sRGB"
       id="filter1866"
       x="-0.072442144"
       width="1.1448843"
       y="-0.14766659"
       height="1.2953331">
      <feGaussianBlur
         inkscape:collect="always"
         stdDeviation="0.66959132"
         id="feGaussianBlur1868" />
    </filter>
    <filter
       inkscape:collect="always"
       style="color-interpolation-filters:sRGB"
       id="filter1908"
       x="-0.034542687"
       width="1.0690854"
       y="-0.17323409"
       height="1.3464682">
      <feGaussianBlur
         inkscape:collect="always"
         stdDeviation="0.3462372"
         id="feGaussianBlur1910" />
    </filter>
  </defs>
  <sodipodi:namedview
     id="base"
     pagecolor="#ffffff"
     bordercolor="#666666"
     borderopacity="1.0"
     inkscape:pageopacity="0.0"
     inkscape:pageshadow="2"
     inkscape:zoom="0.16088913"
     inkscape:cx="198.71362"
     inkscape:cy="-86.317121"
     inkscape:document-units="mm"
     inkscape:current-layer="layer1"
     showgrid="false"
     units="px"
     inkscape:window-width="1680"
     inkscape:window-height="921"
     inkscape:window-x="22"
     inkscape:window-y="42"
     inkscape:window-maximized="0"
     fit-margin-top="0"
     fit-margin-left="0"
     fit-margin-right="0"
     fit-margin-bottom="0" />
  <metadata
     id="metadata831">
    <rdf:RDF>
      <cc:Work
         rdf:about="">
        <dc:format>image/svg+xml</dc:format>
        <dc:type
           rdf:resource="http://purl.org/dc/dcmitype/StillImage" />
        <dc:title></dc:title>
      </cc:Work>
    </rdf:RDF>
  </metadata>
  <g
     inkscape:label="Layer 1"
     inkscape:groupmode="layer"
     id="layer1"
     transform="translate(188.10942,-117.95572)">
    <rect
       style="opacity:1;fill:#9da233;fill-opacity:1;stroke:none;stroke-width:0.52916664;stroke-linecap:square;stroke-linejoin:miter;stroke-miterlimit:4;stroke-dasharray:none;paint-order:stroke fill markers"
       id="rect1379"
       width="43.297665"
       height="43.297665"
       x="-188.10942"
       y="117.95572" />
    <path
       style="opacity:0.52300002;fill:#8d8d36;fill-opacity:1;stroke:none;stroke-width:0.26458332px;stroke-linecap:butt;stroke-linejoin:miter;stroke-opacity:1;filter:url(#filter1622)"
       d="m -183.48053,124.60529 0.91328,5.2107 10.67783,1.03944 1.6064,3.1183 6.99256,0.56696 5.00818,3.30729 c 0,0 5.29167,0.47248 5.66964,0.56697 0.37798,0.0945 3.68527,0.56696 3.68527,0.56696 l -3.1183,-3.1183 -6.4256,-2.36235 -4.34672,-2.92932 -6.52009,-0.85044 c 0,0 -2.26786,-3.30729 -2.64584,-3.30729 -0.37797,0 -6.04761,-0.85045 -6.42559,-0.75596 -0.37798,0.0945 -4.25223,-1.03943 -4.25223,-1.03943 z"
       id="path1450"
       inkscape:connector-curvature="0" />
    <path
       style="opacity:0.54199997;fill:#8d8d36;fill-opacity:1;stroke:none;stroke-width:0.26458332px;stroke-linecap:butt;stroke-linejoin:miter;stroke-opacity:1;filter:url(#filter1618)"
       d="m -185.23415,145.33266 1.13393,4.63021 7.74851,-0.47247 0.94494,1.79538 8.50447,1.32292 0.47247,1.70089 c 0,0 10.58333,0.56697 10.96131,0.85045 0.37797,0.28348 4.91369,0.66146 4.91369,0.66146 l -1.03944,-2.92932 -7.9375,-1.6064 -5.29166,-1.32291 c 0,0 0.85044,-1.98438 -0.18899,-1.98438 -1.03944,0 -8.032,-0.85044 -8.032,-0.85044 l -5.29166,-2.55134 -3.2128,1.13392 z"
       id="path1452"
       inkscape:connector-curvature="0" />
    <ellipse
       style="opacity:0.73200001;fill:#80801e;fill-opacity:1;stroke:none;stroke-width:0.71416491;stroke-linecap:square;stroke-linejoin:miter;stroke-miterlimit:4;stroke-dasharray:none;paint-order:stroke fill markers;filter:url(#filter1834)"
       id="path1454"
       cx="-183.64919"
       cy="136.59636"
       rx="0.42522317"
       ry="0.80319941" />
    <ellipse
       ry="1.6771851"
       rx="0.42540479"
       cy="177.46138"
       cx="138.52415"
       id="ellipse1456"
       style="opacity:0.73200001;fill:#80801e;fill-opacity:1;stroke:none;stroke-width:1.03221464;stroke-linecap:square;stroke-linejoin:miter;stroke-miterlimit:4;stroke-dasharray:none;paint-order:stroke fill markers;filter:url(#filter1838)"
       transform="matrix(-0.03328086,0.99944604,-0.99997085,-0.00763523,0,0)"
       inkscape:transform-center-x="-3.3546961"
       inkscape:transform-center-y="-0.42522755" />
    <path
       inkscape:connector-curvature="0"
       id="path1626"
       d="m -184.75006,137.23964 0.91328,5.2107 10.67783,1.03944 1.6064,3.1183 0.94494,-4.25223 -2.64584,-3.30729 -6.42559,-0.75596 -4.25223,-1.03943 z"
       style="opacity:0.83225804;fill:#8d8d36;fill-opacity:1;stroke:none;stroke-width:0.26458332px;stroke-linecap:butt;stroke-linejoin:miter;stroke-opacity:1;filter:url(#filter1656)"
       sodipodi:nodetypes="ccccccccc"
       transform="rotate(-180,-167.85668,142.55863)" />
    <path
       style="fill:#7d7f1f;fill-opacity:1;stroke:none;stroke-width:0.26458332px;stroke-linecap:butt;stroke-linejoin:miter;stroke-opacity:1;filter:url(#filter1780)"
       d="m -167.15,124.37715 0.36617,-0.64965 0.67327,0.0472 0.0827,0.35436 -0.10631,0.36616 -0.41341,0.36616 -0.25986,-0.0827 -0.14174,-0.18898 -0.15355,-0.15356 -0.0118,-0.0473 z"
       id="path1662"
       inkscape:connector-curvature="0" />
    <path
       style="opacity:0.619;fill:#7e8020;fill-opacity:1;stroke:none;stroke-width:0.26458332px;stroke-linecap:butt;stroke-linejoin:miter;stroke-opacity:1;filter:url(#filter1798)"
       d="m -166.35859,124.69608 c 0.0472,0 2.56315,0.10631 2.56315,0.10631 l -1.54734,-0.38979 c 0,0 -0.38979,-0.12993 -0.4961,-0.12993 -0.1063,0 -0.55515,0.0118 -0.55515,0.0118 l -0.0945,0.22443 z"
       id="path1784"
       inkscape:connector-curvature="0" />
    <path
       inkscape:connector-curvature="0"
       id="path1802"
       d="m -155.9997,129.66882 0.36617,-0.64965 0.67327,0.0472 0.0827,0.35436 -0.10631,0.36616 -0.41341,0.36616 -0.25986,-0.0827 -0.14174,-0.18898 -0.15355,-0.15356 -0.0118,-0.0473 z"
       style="fill:#7d7f1f;fill-opacity:1;stroke:none;stroke-width:0.26458332px;stroke-linecap:butt;stroke-linejoin:miter;stroke-opacity:1;filter:url(#filter1780)" />
    <path
       inkscape:connector-curvature="0"
       id="path1804"
       d="m -155.20829,129.98775 c 0.0472,0 2.56315,0.10631 2.56315,0.10631 l -1.54734,-0.38979 c 0,0 -0.38979,-0.12993 -0.4961,-0.12993 -0.1063,0 -0.55515,0.0118 -0.55515,0.0118 l -0.0945,0.22443 z"
       style="opacity:0.619;fill:#7e8020;fill-opacity:1;stroke:none;stroke-width:0.26458332px;stroke-linecap:butt;stroke-linejoin:miter;stroke-opacity:1;filter:url(#filter1798)" />
    <path
       style="fill:#7d7f1f;fill-opacity:1;stroke:none;stroke-width:0.26458332px;stroke-linecap:butt;stroke-linejoin:miter;stroke-opacity:1;filter:url(#filter1780)"
       d="m -174.42604,139.68519 0.36617,-0.64965 0.67327,0.0472 0.0827,0.35436 -0.10631,0.36616 -0.41341,0.36616 -0.25986,-0.0827 -0.14174,-0.18898 -0.15355,-0.15356 -0.0118,-0.0473 z"
       id="path1806"
       inkscape:connector-curvature="0" />
    <path
       style="opacity:0.619;fill:#7e8020;fill-opacity:1;stroke:none;stroke-width:0.26458332px;stroke-linecap:butt;stroke-linejoin:miter;stroke-opacity:1;filter:url(#filter1798)"
       d="m -173.63463,140.00412 c 0.0472,0 2.56315,0.10631 2.56315,0.10631 l -1.54734,-0.38979 c 0,0 -0.38979,-0.12993 -0.4961,-0.12993 -0.1063,0 -0.55515,0.0118 -0.55515,0.0118 l -0.0945,0.22443 z"
       id="path1808"
       inkscape:connector-curvature="0" />
    <path
       inkscape:connector-curvature="0"
       id="path1810"
       d="m -152.14826,148.51374 0.36617,-0.64965 0.67327,0.0472 0.0827,0.35436 -0.10631,0.36616 -0.41341,0.36616 -0.25986,-0.0827 -0.14174,-0.18898 -0.15355,-0.15356 -0.0118,-0.0473 z"
       style="fill:#7d7f1f;fill-opacity:1;stroke:none;stroke-width:0.26458332px;stroke-linecap:butt;stroke-linejoin:miter;stroke-opacity:1;filter:url(#filter1780)" />
    <path
       inkscape:connector-curvature="0"
       id="path1812"
       d="m -151.35685,148.83267 c 0.0472,0 2.56315,0.10631 2.56315,0.10631 l -1.54734,-0.38979 c 0,0 -0.38979,-0.12993 -0.4961,-0.12993 -0.1063,0 -0.55515,0.0118 -0.55515,0.0118 l -0.0945,0.22443 z"
       style="opacity:0.619;fill:#7e8020;fill-opacity:1;stroke:none;stroke-width:0.26458332px;stroke-linecap:butt;stroke-linejoin:miter;stroke-opacity:1;filter:url(#filter1798)" />
    <path
       style="fill:#7d7f1f;fill-opacity:1;stroke:none;stroke-width:0.26458332px;stroke-linecap:butt;stroke-linejoin:miter;stroke-opacity:1;filter:url(#filter1780)"
       d="m -170.25686,152.18346 0.36617,-0.64965 0.67327,0.0472 0.0827,0.35436 -0.10631,0.36616 -0.41341,0.36616 -0.25986,-0.0827 -0.14174,-0.18898 -0.15355,-0.15356 -0.0118,-0.0473 z"
       id="path1814"
       inkscape:connector-curvature="0" />
    <path
       style="opacity:0.619;fill:#7e8020;fill-opacity:1;stroke:none;stroke-width:0.26458332px;stroke-linecap:butt;stroke-linejoin:miter;stroke-opacity:1;filter:url(#filter1798)"
       d="m -169.46545,152.50239 c 0.0472,0 2.56315,0.10631 2.56315,0.10631 l -1.54734,-0.38979 c 0,0 -0.38979,-0.12993 -0.4961,-0.12993 -0.1063,0 -0.55515,0.0118 -0.55515,0.0118 l -0.0945,0.22443 z"
       id="path1816"
       inkscape:connector-curvature="0" />
    <ellipse
       ry="0.80319941"
       rx="0.42522317"
       cy="136.59636"
       cx="-183.64919"
       id="ellipse1842"
       style="opacity:0.73200001;fill:#80801e;fill-opacity:1;stroke:none;stroke-width:0.71416491;stroke-linecap:square;stroke-linejoin:miter;stroke-miterlimit:4;stroke-dasharray:none;paint-order:stroke fill markers;filter:url(#filter1834)" />
    <ellipse
       ry="0.80319941"
       rx="0.42522317"
       cy="123.29635"
       cx="-151.96173"
       id="ellipse1844"
       style="opacity:0.73200001;fill:#80801e;fill-opacity:1;stroke:none;stroke-width:0.71416491;stroke-linecap:square;stroke-linejoin:miter;stroke-miterlimit:4;stroke-dasharray:none;paint-order:stroke fill markers;filter:url(#filter1834)" />
    <ellipse
       inkscape:transform-center-y="-0.42522755"
       inkscape:transform-center-x="-3.3546961"
       transform="matrix(-0.03328086,0.99944604,-0.99997085,-0.00763523,31.68745,-13.300008)"
       style="opacity:0.73200001;fill:#80801e;fill-opacity:1;stroke:none;stroke-width:1.03221464;stroke-linecap:square;stroke-linejoin:miter;stroke-miterlimit:4;stroke-dasharray:none;paint-order:stroke fill markers;filter:url(#filter1838)"
       id="ellipse1846"
       cx="138.52415"
       cy="177.46138"
       rx="0.42540479"
       ry="1.6771851" />
    <ellipse
       style="opacity:0.73200001;fill:#80801e;fill-opacity:1;stroke:none;stroke-width:0.71416491;stroke-linecap:square;stroke-linejoin:miter;stroke-miterlimit:4;stroke-dasharray:none;paint-order:stroke fill markers;filter:url(#filter1834)"
       id="ellipse1848"
       cx="-151.96173"
       cy="123.29635"
       rx="0.42522317"
       ry="0.80319941" />
    <ellipse
       style="opacity:0.73200001;fill:#80801e;fill-opacity:1;stroke:none;stroke-width:0.71416491;stroke-linecap:square;stroke-linejoin:miter;stroke-miterlimit:4;stroke-dasharray:none;paint-order:stroke fill markers;filter:url(#filter1834)"
       id="ellipse1850"
       cx="-161.70053"
       cy="146.11713"
       rx="0.42522317"
       ry="0.80319941" />
    <ellipse
       ry="1.6771851"
       rx="0.42540479"
       cy="177.46138"
       cx="138.52415"
       id="ellipse1852"
       style="opacity:0.73200001;fill:#80801e;fill-opacity:1;stroke:none;stroke-width:1.03221464;stroke-linecap:square;stroke-linejoin:miter;stroke-miterlimit:4;stroke-dasharray:none;paint-order:stroke fill markers;filter:url(#filter1838)"
       transform="matrix(-0.03328086,0.99944604,-0.99997085,-0.00763523,21.948647,9.5207702)"
       inkscape:transform-center-x="-3.3546961"
       inkscape:transform-center-y="-0.42522755" />
    <ellipse
       ry="0.80319941"
       rx="0.42522317"
       cy="146.11713"
       cx="-161.70053"
       id="ellipse1854"
       style="opacity:0.73200001;fill:#80801e;fill-opacity:1;stroke:none;stroke-width:0.71416491;stroke-linecap:square;stroke-linejoin:miter;stroke-miterlimit:4;stroke-dasharray:none;paint-order:stroke fill markers;filter:url(#filter1834)" />
    <path
       style="opacity:0.75199998;fill:#a7a93b;fill-opacity:1;stroke:none;stroke-width:0.26458332px;stroke-linecap:butt;stroke-linejoin:miter;stroke-opacity:1;filter:url(#filter1866)"
       d="m -182.56725,129.81599 6.70776,-0.50433 4.67657,2.31259 5.08769,2.2612 c 0,0 0.10278,0.5139 0.46252,0.66808 0.35974,0.15417 3.90571,0.15417 3.90571,0.15417 l 1.23338,3.44319 c 0,0 -0.25696,1.79868 -0.25696,2.00424 0,0.20556 -2.87788,-0.46252 -2.87788,-0.46252 l -3.85432,-4.41961 c 0,0 -3.80292,-0.46252 -4.11127,-0.51391 -0.30834,-0.0514 -2.56954,-1.43894 -2.87788,-1.59312 -0.30835,-0.15417 -2.56955,-0.87364 -2.77511,-0.77086 -0.20557,0.10278 -3.44319,-0.41113 -3.44319,-0.41113 0,0 -1.6959,-0.77086 -1.90146,-0.82225 -0.20556,-0.0514 0.0245,-1.34574 0.0245,-1.34574 z"
       id="path1856"
       inkscape:connector-curvature="0" />
    <path
       style="fill:#a5a93b;fill-opacity:1;stroke:none;stroke-width:0.26458332px;stroke-linecap:butt;stroke-linejoin:miter;stroke-opacity:1;filter:url(#filter1908)"
       d="m -179.58644,150.99063 4.17967,0.29515 1.63454,1.1584 2.07131,0.76312 c 0,0 2.18033,1.01748 2.39837,1.05382 0.21803,0.0363 2.87272,0.0485 2.87272,0.0485 l 3.12318,0.31492 3.12514,0.54509 c 0,0 3.05246,-0.0363 3.27049,-0.0363 0.21804,0 1.38088,0.54508 1.38088,0.54508 l -3.30683,0.10902 -3.59755,-0.14536 -3.59754,-0.14536 c 0,0 -2.36202,-0.4724 -2.6164,-0.4724 -0.25437,0 -1.34453,-0.18169 -1.52623,-0.18169 -0.18169,0 -2.28934,-1.09017 -2.28934,-1.09017 l -2.68907,-0.83579 -1.41722,-0.61776 -1.99863,-0.29071 -1.01749,-0.25437 0.14536,-0.72678 z"
       id="path1870"
       inkscape:connector-curvature="0" />
  </g>
</svg>
