<?xml version="1.0" encoding="UTF-8" standalone="no"?>
<!-- Created with Inkscape (http://www.inkscape.org/) -->

<svg
   xmlns:dc="http://purl.org/dc/elements/1.1/"
   xmlns:cc="http://creativecommons.org/ns#"
   xmlns:rdf="http://www.w3.org/1999/02/22-rdf-syntax-ns#"
   xmlns:svg="http://www.w3.org/2000/svg"
   xmlns="http://www.w3.org/2000/svg"
   xmlns:sodipodi="http://sodipodi.sourceforge.net/DTD/sodipodi-0.dtd"
   xmlns:inkscape="http://www.inkscape.org/namespaces/inkscape"
   width="66.748306mm"
   height="66.748306mm"
   viewBox="0 0 66.748306 66.748307"
   version="1.1"
   id="svg8"
   inkscape:version="0.92.2 5c3e80d, 2017-08-06"
   sodipodi:docname="grass.svg">
  <defs
     id="defs2">
    <filter
       inkscape:collect="always"
       style="color-interpolation-filters:sRGB"
       id="filter1521"
       x="-0.14346227"
       width="1.2869245"
       y="-0.50248742"
       height="2.0049748">
      <feGaussianBlur
         inkscape:collect="always"
         stdDeviation="1.5515123"
         id="feGaussianBlur1523" />
    </filter>
    <filter
       inkscape:collect="always"
       style="color-interpolation-filters:sRGB"
       id="filter2023"
       x="-0.2934866"
       width="1.5869732"
       y="-0.83764076"
       height="2.6752815">
      <feGaussianBlur
         inkscape:collect="always"
         stdDeviation="4.7168442"
         id="feGaussianBlur2025" />
    </filter>
    <filter
       inkscape:collect="always"
       style="color-interpolation-filters:sRGB"
       id="filter2129"
       x="-0.23118813"
       width="1.4623764"
       y="-0.55494833"
       height="2.1098967">
      <feGaussianBlur
         inkscape:collect="always"
         stdDeviation="0.70792862"
         id="feGaussianBlur2131" />
    </filter>
    <filter
       inkscape:collect="always"
       style="color-interpolation-filters:sRGB"
       id="filter2593"
       x="-0.21831523"
       width="1.4366305"
       y="-0.7646656"
       height="2.5293312">
      <feGaussianBlur
         inkscape:collect="always"
         stdDeviation="2.3610303"
         id="feGaussianBlur2595" />
    </filter>
    <filter
       inkscape:collect="always"
       style="color-interpolation-filters:sRGB"
       id="filter2597"
       x="-0.22475256"
       width="1.4495051"
       y="-0.7414996"
       height="2.4829993">
      <feGaussianBlur
         inkscape:collect="always"
         stdDeviation="2.3610303"
         id="feGaussianBlur2599" />
    </filter>
    <filter
       inkscape:collect="always"
       style="color-interpolation-filters:sRGB"
       id="filter2601"
       x="-0.19725807"
       width="1.3945161"
       y="-1.1966387"
       height="3.3932774">
      <feGaussianBlur
         inkscape:collect="always"
         stdDeviation="2.3610303"
         id="feGaussianBlur2603" />
    </filter>
    <filter
       inkscape:collect="always"
       style="color-interpolation-filters:sRGB"
       id="filter2613"
       x="-0.26651758"
       width="1.5330352"
       y="-1.0708288"
       height="3.1416576">
      <feGaussianBlur
         inkscape:collect="always"
         stdDeviation="2.3610303"
         id="feGaussianBlur2615" />
    </filter>
    <filter
       inkscape:collect="always"
       style="color-interpolation-filters:sRGB"
       id="filter3900"
       x="-0.19936904"
       width="1.3987381"
       y="-0.75682372"
       height="2.5136474">
      <feGaussianBlur
         inkscape:collect="always"
         stdDeviation="2.8337279"
         id="feGaussianBlur3902" />
    </filter>
    <filter
       inkscape:collect="always"
       style="color-interpolation-filters:sRGB"
       id="filter3976"
       x="-0.26661537"
       width="1.5332307"
       y="-0.87961268"
       height="2.7592254">
      <feGaussianBlur
         inkscape:collect="always"
         stdDeviation="2.8008001"
         id="feGaussianBlur3978" />
    </filter>
  </defs>
  <sodipodi:namedview
     id="base"
     pagecolor="#ffffff"
     bordercolor="#666666"
     borderopacity="1.0"
     inkscape:pageopacity="0.0"
     inkscape:pageshadow="2"
     inkscape:zoom="0.98994949"
     inkscape:cx="-204.17735"
     inkscape:cy="79.406699"
     inkscape:document-units="mm"
     inkscape:current-layer="layer1"
     showgrid="false"
     inkscape:window-width="1680"
     inkscape:window-height="939"
     inkscape:window-x="18"
     inkscape:window-y="21"
     inkscape:window-maximized="0"
     fit-margin-top="0"
     fit-margin-left="0"
     fit-margin-right="0"
     fit-margin-bottom="0"
     inkscape:snap-global="false" />
  <metadata
     id="metadata5">
    <rdf:RDF>
      <cc:Work
         rdf:about="">
        <dc:format>image/svg+xml</dc:format>
        <dc:type
           rdf:resource="http://purl.org/dc/dcmitype/StillImage" />
        <dc:title></dc:title>
      </cc:Work>
    </rdf:RDF>
  </metadata>
  <g
     inkscape:label="Layer 1"
     inkscape:groupmode="layer"
     id="layer1"
     transform="translate(-68.002945,-95.683807)">
    <rect
       style="opacity:1;fill:#88aa00;fill-opacity:1;stroke:#898032;stroke-width:1;stroke-linecap:round;stroke-linejoin:round;stroke-miterlimit:4;stroke-dasharray:none;stroke-opacity:1;paint-order:stroke fill markers"
       id="rect826"
       width="65.748306"
       height="65.748306"
       x="68.502945"
       y="96.183807"
       ry="0" />
    <path
       style="opacity:0.337;fill:#8d8a2f;fill-opacity:1;stroke:none;stroke-width:0.26458332px;stroke-linecap:butt;stroke-linejoin:miter;stroke-opacity:1;filter:url(#filter2597)"
       d="m 99.596727,111.69718 c 4.282713,-0.63319 9.107803,-1.29106 12.887093,1.35203 3.26792,1.59807 6.66963,4.03678 10.50571,3.21236 2.7353,0.0507 1.55948,3.57416 -0.70038,2.18763 -4.2918,0.38836 -9.02638,-0.20011 -12.27347,-3.28789 -3.06029,-2.22166 -8.22413,-1.04543 -10.651313,-3.29014 l 0.2324,-0.17399 z"
       id="path828"
       inkscape:connector-curvature="0" />
    <path
       style="opacity:0.42699998;fill:#8e8b2e;fill-opacity:1;stroke:none;stroke-width:0.26458332px;stroke-linecap:butt;stroke-linejoin:miter;stroke-opacity:1;filter:url(#filter2129)"
       d="m 84.383187,115.05171 c 1.69773,1.86361 8.06577,-0.69213 4.69139,-2.38411 -1.53328,-0.22276 -7.12905,-0.65159 -4.69139,2.38411 z"
       id="path1093"
       inkscape:connector-curvature="0" />
    <path
       style="fill:none;fill-opacity:1;stroke:#114b19;stroke-width:0.26499999;stroke-linecap:round;stroke-linejoin:miter;stroke-miterlimit:4;stroke-dasharray:none;stroke-opacity:1"
       d="m 85.016767,112.55623 c 0.0709,0.54334 0.14174,1.08668 0.21261,1.63002"
       id="path1078"
       inkscape:connector-curvature="0" />
    <path
       style="fill:none;fill-opacity:1;stroke:#114b19;stroke-width:0.26499999;stroke-linecap:round;stroke-linejoin:miter;stroke-miterlimit:4;stroke-dasharray:none;stroke-opacity:1"
       d="m 86.056197,112.72159 c 0,0.51972 0,1.03943 0,1.55915"
       id="path1080"
       inkscape:connector-curvature="0" />
    <path
       style="fill:none;fill-opacity:1;stroke:#114b19;stroke-width:0.26499999;stroke-linecap:round;stroke-linejoin:miter;stroke-miterlimit:4;stroke-dasharray:none;stroke-opacity:1"
       d="m 86.812147,114.65872 c 0.30379,-0.90223 1.0427,-1.59337 1.86626,-2.03162"
       id="path1082"
       inkscape:connector-curvature="0" />
    <path
       inkscape:connector-curvature="0"
       id="path1769"
       d="m 68.860727,150.45126 c 3.96727,-0.39449 8.32593,-1.49443 11.90797,0.91751 3.4162,1.2068 6.24224,4.14952 10.09296,3.70821 2.60383,-0.45292 5.95509,2.56011 1.50475,2.00339 -4.42148,0.36348 -9.09122,0.54467 -12.48239,-2.91766 -3.27697,-1.79315 -7.02925,-1.99278 -10.57558,-2.75957 -0.51762,0.16798 -1.0724,-0.75347 -0.44771,-0.95188 z"
       style="opacity:0.337;fill:#8d8a2f;fill-opacity:1;stroke:#114b19;stroke-width:0.26458332px;stroke-linecap:butt;stroke-linejoin:miter;stroke-opacity:1;filter:url(#filter2593)"
       transform="matrix(0.9063631,0,0,0.64880011,11.579364,54.999938)" />
    <path
       style="fill:none;stroke:#114b19;stroke-width:0.26499999;stroke-linecap:butt;stroke-linejoin:miter;stroke-miterlimit:4;stroke-dasharray:none;stroke-opacity:1"
       d="m 103.26027,127.04013 c 3.96044,-0.14152 7.79888,3.00899 11.72082,1.11379 0.34589,-0.10784 0.69183,-0.21584 1.0412,-0.31204"
       id="path1675"
       inkscape:connector-curvature="0" />
    <path
       style="fill:none;stroke:#114b19;stroke-width:0.26499999;stroke-linecap:butt;stroke-linejoin:miter;stroke-miterlimit:4;stroke-dasharray:none;stroke-opacity:1"
       d="m 97.380337,144.47947 c 0.72377,0.23568 1.65006,0.46679 1.90425,1.30283"
       id="path1683"
       inkscape:connector-curvature="0" />
    <path
       style="fill:none;stroke:#114b19;stroke-width:0.26499999;stroke-linecap:butt;stroke-linejoin:miter;stroke-miterlimit:4;stroke-dasharray:none;stroke-opacity:1"
       d="m 99.451677,143.51062 c 0.31149,0.55792 0.688893,1.13589 0.668063,1.80399"
       id="path1685"
       inkscape:connector-curvature="0" />
    <path
       style="fill:none;stroke:#114b19;stroke-width:0.26499999;stroke-linecap:butt;stroke-linejoin:miter;stroke-miterlimit:4;stroke-dasharray:none;stroke-opacity:1"
       d="m 101.72347,143.20994 c -0.29378,0.68892 -0.64076,1.37837 -0.70147,2.13812"
       id="path1687"
       inkscape:connector-curvature="0" />
    <path
       style="fill:none;stroke:#114b19;stroke-width:0.26499999;stroke-linecap:butt;stroke-linejoin:miter;stroke-miterlimit:4;stroke-dasharray:none;stroke-opacity:1"
       d="m 74.972137,135.18622 c 2.8308,0.22253 5.71475,-0.38549 8.50448,0.33059"
       id="path1689"
       inkscape:connector-curvature="0" />
    <path
       style="fill:none;stroke:#114b19;stroke-width:0.26499999;stroke-linecap:butt;stroke-linejoin:miter;stroke-miterlimit:4;stroke-dasharray:none;stroke-opacity:1"
       d="m 77.948697,133.8633 c 0.45086,0.45408 0.89004,0.93588 1.1813,1.51184"
       id="path1691"
       inkscape:connector-curvature="0" />
    <path
       style="fill:none;stroke:#114b19;stroke-width:0.26499999;stroke-linecap:butt;stroke-linejoin:miter;stroke-miterlimit:4;stroke-dasharray:none;stroke-opacity:1"
       d="m 79.555097,133.76881 c -0.2627,0.53852 0.76323,1.77794 -0.42521,1.60628"
       id="path1693"
       inkscape:connector-curvature="0" />
    <path
       style="fill:none;stroke:#114b19;stroke-width:0.26499999;stroke-linecap:butt;stroke-linejoin:miter;stroke-miterlimit:4;stroke-dasharray:none;stroke-opacity:1"
       d="m 80.311057,135.37521 c 0.46468,-0.82856 1.2375,-1.51689 2.17333,-1.74791"
       id="path1695"
       inkscape:connector-curvature="0" />
    <path
       style="fill:none;stroke:#114b19;stroke-width:0.26499999;stroke-linecap:butt;stroke-linejoin:miter;stroke-miterlimit:4;stroke-dasharray:none;stroke-opacity:1"
       d="m 75.586347,124.36665 c 0.80566,0.23606 1.50656,0.96889 1.51199,1.84254"
       id="path1703"
       inkscape:connector-curvature="0" />
    <path
       style="fill:none;stroke:#114b19;stroke-width:0.26499999;stroke-linecap:butt;stroke-linejoin:miter;stroke-miterlimit:4;stroke-dasharray:none;stroke-opacity:1"
       d="m 79.555097,124.55564 c -0.60223,0.25817 -1.46575,0.5674 -1.46491,1.37015"
       id="path1705"
       inkscape:connector-curvature="0" />
    <path
       style="fill:none;stroke:#114b19;stroke-width:0.26499999;stroke-linecap:butt;stroke-linejoin:miter;stroke-miterlimit:4;stroke-dasharray:none;stroke-opacity:1"
       d="m 73.365737,126.25653 c 1.24413,-0.0143 2.48993,0.0372 3.73253,-0.0473"
       id="path1707"
       inkscape:connector-curvature="0" />
    <path
       style="fill:none;stroke:#114b19;stroke-width:0.26499999;stroke-linecap:butt;stroke-linejoin:miter;stroke-miterlimit:4;stroke-dasharray:none;stroke-opacity:1"
       d="m 73.883127,116.73926 c 0.4897,0.23205 0.56457,0.84809 0.48435,1.31941"
       id="path1709"
       inkscape:connector-curvature="0" />
    <path
       style="fill:none;stroke:#114b19;stroke-width:0.26499999;stroke-linecap:butt;stroke-linejoin:miter;stroke-miterlimit:4;stroke-dasharray:none;stroke-opacity:1"
       d="m 75.336407,117.59119 c -0.0334,0.22824 -0.0668,0.45648 -0.1002,0.68472"
       id="path1711"
       inkscape:connector-curvature="0" />
    <path
       style="fill:none;stroke:#114b19;stroke-width:0.26499999;stroke-linecap:butt;stroke-linejoin:miter;stroke-miterlimit:4;stroke-dasharray:none;stroke-opacity:1"
       d="m 77.741827,116.70586 c -0.84076,0.36762 -1.69386,1.15182 -1.58664,2.15452"
       id="path1713"
       inkscape:connector-curvature="0" />
    <path
       style="fill:none;stroke:#114b19;stroke-width:0.26499999;stroke-linecap:butt;stroke-linejoin:miter;stroke-miterlimit:4;stroke-dasharray:none;stroke-opacity:1"
       d="m 79.649597,118.4844 c 2.8076,0.1893 5.61547,0.5017 8.43368,0.4016"
       id="path1715"
       inkscape:connector-curvature="0" />
    <path
       style="fill:none;stroke:#114b19;stroke-width:0.26499999;stroke-linecap:butt;stroke-linejoin:miter;stroke-miterlimit:4;stroke-dasharray:none;stroke-opacity:1"
       d="m 108.34419,155.04233 c 0.0848,0.32567 0.51738,0.40849 0.5345,0.76837"
       id="path1717"
       inkscape:connector-curvature="0" />
    <path
       style="fill:none;stroke:#114b19;stroke-width:0.26499999;stroke-linecap:butt;stroke-linejoin:miter;stroke-miterlimit:4;stroke-dasharray:none;stroke-opacity:1"
       d="m 109.11259,154.47438 c 0.37297,0.50154 1.15078,0.7687 1.13584,1.50332"
       id="path1719"
       inkscape:connector-curvature="0" />
    <path
       style="fill:none;stroke:#114b19;stroke-width:0.26499999;stroke-linecap:butt;stroke-linejoin:miter;stroke-miterlimit:4;stroke-dasharray:none;stroke-opacity:1"
       d="m 113.28868,154.70824 c -0.68209,0.23303 -1.87761,0.41232 -1.83734,1.36963"
       id="path1721"
       inkscape:connector-curvature="0" />
    <path
       style="fill:none;stroke:#114b19;stroke-width:0.26499999;stroke-linecap:butt;stroke-linejoin:miter;stroke-miterlimit:4;stroke-dasharray:none;stroke-opacity:1"
       d="m 121.76372,145.96535 c 0.10616,0.17788 0.52927,0.8905 0.63467,1.06894"
       id="path1723"
       inkscape:connector-curvature="0" />
    <path
       style="fill:none;stroke:#114b19;stroke-width:0.26499999;stroke-linecap:butt;stroke-linejoin:miter;stroke-miterlimit:4;stroke-dasharray:none;stroke-opacity:1"
       d="m 122.48417,145.55061 c 0.44404,0.21946 0.80898,0.6855 0.76833,1.2026"
       id="path1725"
       inkscape:connector-curvature="0" />
    <path
       style="fill:none;stroke:#114b19;stroke-width:0.26499999;stroke-linecap:butt;stroke-linejoin:miter;stroke-miterlimit:4;stroke-dasharray:none;stroke-opacity:1"
       d="m 125.78353,143.44951 c -1.14783,0.82789 -1.8406,2.23032 -1.83725,3.64144"
       id="path1727"
       inkscape:connector-curvature="0" />
    <path
       style="fill:none;stroke:#114b19;stroke-width:0.26499999;stroke-linecap:butt;stroke-linejoin:miter;stroke-miterlimit:4;stroke-dasharray:none;stroke-opacity:1"
       d="m 122.59702,147.20049 c 1.6601,0.18921 3.42666,0.064 4.91087,-0.76823"
       id="path1729"
       inkscape:connector-curvature="0" />
    <path
       style="fill:none;stroke:#114b19;stroke-width:0.26499999;stroke-linecap:butt;stroke-linejoin:miter;stroke-miterlimit:4;stroke-dasharray:none;stroke-opacity:1"
       d="m 127.25351,137.50276 c 0.0451,0.19983 0.22325,1.00161 0.2672,1.20266"
       id="path1731"
       inkscape:connector-curvature="0" />
    <path
       style="fill:none;stroke:#114b19;stroke-width:0.26499999;stroke-linecap:butt;stroke-linejoin:miter;stroke-miterlimit:4;stroke-dasharray:none;stroke-opacity:1"
       d="m 128.58986,137.66981 c 0.0384,0.16723 0.19432,0.83537 0.2338,1.00221"
       id="path1733"
       inkscape:connector-curvature="0" />
    <path
       style="fill:none;stroke:#114b19;stroke-width:0.26499999;stroke-linecap:butt;stroke-linejoin:miter;stroke-miterlimit:4;stroke-dasharray:none;stroke-opacity:1"
       d="m 131.29596,137.36913 c -0.60865,0.40972 -1.27595,0.90272 -1.4364,1.67019"
       id="path1735"
       inkscape:connector-curvature="0" />
    <path
       style="fill:none;stroke:#114b19;stroke-width:0.26499999;stroke-linecap:butt;stroke-linejoin:miter;stroke-miterlimit:4;stroke-dasharray:none;stroke-opacity:1"
       d="m 123.94626,138.77212 c 1.93391,0.50854 3.94577,0.16545 5.9133,0.2672"
       id="path1737"
       inkscape:connector-curvature="0" />
    <path
       style="fill:none;stroke:#114b19;stroke-width:0.26499999;stroke-linecap:butt;stroke-linejoin:miter;stroke-miterlimit:4;stroke-dasharray:none;stroke-opacity:1"
       d="m 110.39882,120.91535 c 0.10657,0.14647 0.52964,0.73657 0.6346,0.88515"
       id="path1739"
       inkscape:connector-curvature="0" />
    <path
       style="fill:none;stroke:#114b19;stroke-width:0.26499999;stroke-linecap:butt;stroke-linejoin:miter;stroke-miterlimit:4;stroke-dasharray:none;stroke-opacity:1"
       d="m 111.76858,120.81512 c 0.34229,0.25838 0.44054,0.72179 0.4843,1.11901"
       id="path1741"
       inkscape:connector-curvature="0" />
    <path
       style="fill:none;stroke:#114b19;stroke-width:0.26499999;stroke-linecap:butt;stroke-linejoin:miter;stroke-miterlimit:4;stroke-dasharray:none;stroke-opacity:1"
       d="m 114.87559,120.38081 c -0.8446,0.32489 -1.6524,0.97812 -1.85395,1.90398"
       id="path1743"
       inkscape:connector-curvature="0" />
    <path
       style="fill:none;stroke:#114b19;stroke-width:0.26499999;stroke-linecap:butt;stroke-linejoin:miter;stroke-miterlimit:4;stroke-dasharray:none;stroke-opacity:1"
       d="m 106.8875,108.51527 c 0.47905,0.42858 0.45843,1.11761 0.44877,1.70102"
       id="path1745"
       inkscape:connector-curvature="0" />
    <path
       style="fill:none;stroke:#114b19;stroke-width:0.26499999;stroke-linecap:butt;stroke-linejoin:miter;stroke-miterlimit:4;stroke-dasharray:none;stroke-opacity:1"
       d="m 108.30491,108.89325 c -0.008,0.20478 -0.0397,1.02379 -0.0472,1.22851"
       id="path1747"
       inkscape:connector-curvature="0" />
    <path
       style="fill:none;stroke:#114b19;stroke-width:0.26499999;stroke-linecap:butt;stroke-linejoin:miter;stroke-miterlimit:4;stroke-dasharray:none;stroke-opacity:1"
       d="m 110.76176,108.89325 c -0.57089,0.76952 -1.55905,1.35417 -1.60645,2.4097"
       id="path1749"
       inkscape:connector-curvature="0" />
    <path
       style="fill:none;stroke:#114b19;stroke-width:0.26499999;stroke-linecap:butt;stroke-linejoin:miter;stroke-miterlimit:4;stroke-dasharray:none;stroke-opacity:1"
       d="m 96.186047,106.20017 c 0.076,0.13085 0.37531,0.6506 0.449,0.77962"
       id="path1751"
       inkscape:connector-curvature="0" />
    <path
       style="fill:none;stroke:#114b19;stroke-width:0.26499999;stroke-linecap:butt;stroke-linejoin:miter;stroke-miterlimit:4;stroke-dasharray:none;stroke-opacity:1"
       d="m 97.178237,106.48365 c 0.0317,0.12204 0.15762,0.61022 0.1889,0.73226"
       id="path1753"
       inkscape:connector-curvature="0" />
    <path
       style="fill:none;stroke:#114b19;stroke-width:0.26499999;stroke-linecap:butt;stroke-linejoin:miter;stroke-miterlimit:4;stroke-dasharray:none;stroke-opacity:1"
       d="m 98.926377,107.16874 c -0.29143,0.19082 -0.90048,0.3877 -0.8265,0.87374"
       id="path1755"
       inkscape:connector-curvature="0" />
    <path
       style="fill:none;stroke:#114b19;stroke-width:0.26499999;stroke-linecap:butt;stroke-linejoin:miter;stroke-miterlimit:4;stroke-dasharray:none;stroke-opacity:1"
       d="m 100.60365,106.83801 c -0.817253,0.34299 -1.624813,0.94316 -1.866433,1.84244"
       id="path1757"
       inkscape:connector-curvature="0" />
    <path
       style="fill:none;stroke:#114b19;stroke-width:0.26499999;stroke-linecap:butt;stroke-linejoin:miter;stroke-miterlimit:4;stroke-dasharray:none;stroke-opacity:1"
       d="m 109.08449,100.22342 c 0.17415,0.12587 0.86729,0.62989 1.0397,0.75602"
       id="path1759"
       inkscape:connector-curvature="0" />
    <path
       style="fill:none;stroke:#114b19;stroke-width:0.26499999;stroke-linecap:butt;stroke-linejoin:miter;stroke-miterlimit:4;stroke-dasharray:none;stroke-opacity:1"
       d="m 109.67508,99.396601 c 0.74367,0.36769 1.27482,1.064299 1.58269,1.819069"
       id="path1761"
       inkscape:connector-curvature="0" />
    <path
       style="fill:none;stroke:#114b19;stroke-width:0.26499999;stroke-linecap:butt;stroke-linejoin:miter;stroke-miterlimit:4;stroke-dasharray:none;stroke-opacity:1"
       d="m 113.40759,99.420221 c -0.81324,0.41341 -1.81804,1.199499 -1.51198,2.244219"
       id="path1763"
       inkscape:connector-curvature="0" />
    <path
       style="fill:none;stroke:#114b19;stroke-width:0.26499999;stroke-linecap:butt;stroke-linejoin:miter;stroke-miterlimit:4;stroke-dasharray:none;stroke-opacity:1"
       d="m 113.92731,100.55415 c 2.26117,0.55574 4.5969,-0.1384 6.87432,0.2362"
       id="path1765"
       inkscape:connector-curvature="0" />
    <path
       style="opacity:0.337;fill:#668000;fill-opacity:1;stroke:none;stroke-width:0.26458332px;stroke-linecap:butt;stroke-linejoin:miter;stroke-opacity:1;filter:url(#filter3900)"
       d="m 128.22842,155.63691 -3.30729,-1.7009 c 0,0 -4.25223,-1.32291 -4.81919,-1.13393 -0.56697,0.18899 -6.04762,-0.85044 -6.4256,-0.85044 -0.37797,0 -4.06324,-1.88988 -4.44122,-1.88988 -0.37798,0 -3.59077,-0.66146 -3.96875,-0.47247 -0.37798,0.18899 -6.236603,0.37797 -6.236603,0.37797 l -4.25224,-1.32291 v 1.5119 l 1.88988,1.88988 c 0,0 1.88988,0.0945 2.45685,0.0945 0.56696,0 2.078873,-0.18899 2.740323,-0.18899 0.66146,0 4.28028,-0.63287 5.76414,0.94494 1.48387,1.5778 2.74033,-0.0945 3.49628,0 0.75595,0.0945 2.16368,1.81166 2.16368,1.81166 0,0 2.75001,-0.11077 3.60046,0.26721 0.85044,0.37797 2.92931,1.03943 3.30729,1.03943 0.37798,0 2.83482,0.28349 3.49628,0.56697 0.66146,0.28348 3.30729,0.94494 3.77976,1.03943 0.47247,0.0945 1.41741,-0.56696 1.41741,-0.56696 z"
       id="path2355"
       inkscape:connector-curvature="0" />
    <path
       style="opacity:0.337;fill:#908d35;fill-opacity:1;stroke:none;stroke-width:0.26458332px;stroke-linecap:butt;stroke-linejoin:miter;stroke-opacity:1;filter:url(#filter2601)"
       d="m 89.580357,103.2872 c 0,0 -4.15774,-1.5119 -4.53572,-1.5119 -0.37797,0 -6.2366,0.85044 -6.70907,1.03943 -0.47247,0.18899 -3.96875,-0.66145 -3.96875,-0.66145 l -1.6064,0.94494 0.47247,1.6064 4.7247,1.03943 c 0,0 3.68527,-1.13393 3.96875,-1.13393 0.28348,0 1.70089,0.37798 2.07887,0.47247 0.37798,0.0945 3.59077,1.32292 4.06324,1.41741 0.47248,0.0945 3.49628,-0.47247 3.96875,-0.47247 0.47248,0 5.14104,0.45612 5.14104,0.45612 l 4.308373,-1.87353 -0.66146,-1.79539 c 0,0 -5.858633,0 -6.331103,0.18899 -0.47247,0.18899 -2.64583,0.56697 -2.64583,0.56697 z"
       id="path2357"
       inkscape:connector-curvature="0"
       transform="matrix(0.91077303,0,0,1.0513542,9.1769322,-5.348179)" />
    <path
       style="opacity:0.337;fill:#908d35;fill-opacity:1;stroke:none;stroke-width:0.26458332px;stroke-linecap:butt;stroke-linejoin:miter;stroke-opacity:1;filter:url(#filter2613)"
       d="m 114.52679,103.66518 3.30729,-0.28348 c 0,0 4.25223,1.32292 4.63021,1.41741 0.37797,0.0945 7.9375,-0.66146 7.9375,-0.66146 l 0.37797,1.70089 c 0,0 -1.22842,2.83483 -1.70089,2.83483 -0.47247,0 -4.8192,-0.94495 -5.57515,-0.94495 -0.75595,0 -5.76414,-0.66145 -6.14211,-0.94494 -0.37798,-0.28348 -2.45685,-1.03943 -3.40179,-1.03943 -0.94494,0 -4.44122,-1.88988 -4.44122,-1.88988 0,0 2.45685,-0.37798 2.92932,-0.28348 0.47247,0.0945 2.07887,0.0945 2.07887,0.0945 z"
       id="path2359"
       inkscape:connector-curvature="0"
       transform="matrix(0.86499031,0,0,1,14.786073,0)" />
    <path
       style="fill:none;stroke:#114b19;stroke-width:0.26458332px;stroke-linecap:butt;stroke-linejoin:miter;stroke-opacity:1"
       d="m 75.278987,157.42393 c -1.367802,-2.57691 -1.444039,-2.01952 0.141723,-1.03951 -1.095603,-2.27348 -0.627516,-2.16711 0.528266,-0.11485 0.81687,-1.01104 -0.717511,-2.60077 0.827615,-0.37776 -0.170232,-2.65398 0.473106,-2.0434 1.494024,-0.26029 0.126194,-2.74121 0.05142,-0.97883 0.508629,0.4357 -0.120357,-2.20106 1.095425,1.86871 1.341986,-0.64774 0.01419,1.6612 3.635355,-4.9798 2.213728,-0.70141 -1.301386,2.77349 0.380912,0.74773 1.8737,0.95798 -0.489025,0.57127 -1.642426,0.28438 -1.889872,1.08676"
       id="path3500"
       inkscape:connector-curvature="0" />
    <path
       style="fill:none;stroke:#114b19;stroke-width:0.26458332px;stroke-linecap:butt;stroke-linejoin:miter;stroke-opacity:1"
       d="m 125.33226,114.45723 c -1.21799,-1.3002 -2.95913,-4.07274 -0.73818,-1.29151 1.48843,1.6228 1.4547,-2.2652 1.88505,-0.23572 0.98077,-1.58464 1.95849,1.97635 3.17309,-0.88328 1.52385,-1.35415 0.64332,0.73583 0.29038,1.27469"
       id="path3504"
       inkscape:connector-curvature="0" />
    <path
       style="fill:none;stroke:#114b19;stroke-width:0.26458332px;stroke-linecap:butt;stroke-linejoin:miter;stroke-opacity:1"
       d="m 76.689205,108.97821 c -1.579117,-1.21562 -2.440199,-3.30972 -0.120934,-1.1612 -0.447967,-2.08008 0.111546,-2.00642 1.123211,-0.17515 0.330577,-1.99009 1.206857,-2.3913 1.403172,-0.20044 1.061598,-2.02541 1.803077,-1.72549 2.178392,-0.20995 1.732195,-0.86225 5.593183,-2.74614 2.298359,0.21014 0.05231,0.20708 -0.261432,0.40411 -0.06682,0.60136"
       id="path3512"
       inkscape:connector-curvature="0" />
    <path
       inkscape:connector-curvature="0"
       id="path3526"
       d="m 78.883339,132.5442 c 4.282713,-0.63319 9.107803,-1.29106 12.887093,1.35203 3.26792,1.59807 6.66963,4.03678 10.505708,3.21236 2.7353,0.0507 1.55948,3.57416 -0.70038,2.18763 -4.291798,0.38836 -9.026378,-0.20011 -12.273468,-3.28789 -3.06029,-2.22166 -8.22413,-1.04543 -10.651313,-3.29014 l 0.2324,-0.17399 z"
       style="opacity:0.616;fill:#aca793;fill-opacity:1;stroke:none;stroke-width:0.26458332px;stroke-linecap:butt;stroke-linejoin:miter;stroke-opacity:1;filter:url(#filter3976)" />
  </g>
</svg>
