<?xml version="1.0" encoding="UTF-8" standalone="no"?>
<!-- Created with Inkscape (http://www.inkscape.org/) -->

<svg
   xmlns:dc="http://purl.org/dc/elements/1.1/"
   xmlns:cc="http://creativecommons.org/ns#"
   xmlns:rdf="http://www.w3.org/1999/02/22-rdf-syntax-ns#"
   xmlns:svg="http://www.w3.org/2000/svg"
   xmlns="http://www.w3.org/2000/svg"
   xmlns:sodipodi="http://sodipodi.sourceforge.net/DTD/sodipodi-0.dtd"
   xmlns:inkscape="http://www.inkscape.org/namespaces/inkscape"
   width="163.64471"
   height="163.64471"
   viewBox="0 0 43.297663 43.297663"
   version="1.1"
   id="svg834"
   inkscape:version="0.92.3 (2405546, 2018-03-11)"
   sodipodi:docname="grass.svg">
  <defs
     id="defs828" />
  <sodipodi:namedview
     id="base"
     pagecolor="#ffffff"
     bordercolor="#666666"
     borderopacity="1.0"
     inkscape:pageopacity="0.0"
     inkscape:pageshadow="2"
     inkscape:zoom="1.8202527"
     inkscape:cx="153.99649"
     inkscape:cy="107.16813"
     inkscape:document-units="mm"
     inkscape:current-layer="layer1"
     showgrid="false"
     units="px"
     inkscape:window-width="1680"
     inkscape:window-height="921"
     inkscape:window-x="294"
     inkscape:window-y="60"
     inkscape:window-maximized="0"
     fit-margin-top="0"
     fit-margin-left="0"
     fit-margin-right="0"
     fit-margin-bottom="0" />
  <metadata
     id="metadata831">
    <rdf:RDF>
      <cc:Work
         rdf:about="">
        <dc:format>image/svg+xml</dc:format>
        <dc:type
           rdf:resource="http://purl.org/dc/dcmitype/StillImage" />
        <dc:title />
      </cc:Work>
    </rdf:RDF>
  </metadata>
  <g
     inkscape:label="Layer 1"
     inkscape:groupmode="layer"
     id="layer1"
     transform="translate(188.10942,-117.95572)">
    <g
       id="g7055"
       transform="matrix(2.6251759,0,0,2.6251759,283.4532,-214.09548)">
      <g
         transform="matrix(0.26458333,0,0,0.26458333,-188.10942,117.95572)"
         id="use7053">
        <path
           style="fill:#24a159;stroke:none"
           inkscape:connector-curvature="0"
           id="path13243"
           d="m 68,92 v 4 h 4 V 92 H 68 M 96,36 h -4 v 4 h 4 V 36 M 56,80 h 4 v -4 h -4 v 4 m 12,-8 v -4 h -4 v 4 h 4 M 64,52 v 4 h 4 V 52 H 64 M 44,48 v -4 h -4 v 4 h 4 m 44,40 v -8 h -8 v 8 z" />
        <path
           style="fill:#27ae60;stroke:none"
           inkscape:connector-curvature="0"
           id="path13245"
           d="m 92,36 h 4 V 32 H 32 v 64 h 36 v -4 h 4 v 4 H 96 V 40 h -4 v -4 m -4,12 v -4 h 4 v 4 h -4 m 0,32 v 8 h -8 v -8 h 8 M 48,48 h 8 v 8 h -8 v -8 m -4,-4 v 4 h -4 v -4 h 4 m 20,0 h -4 v -4 h 4 v 4 M 36,84 v -4 h 4 v 4 H 36 M 64,56 v -4 h 4 v 4 h -4 m 4,12 v 4 h -4 v -4 h 4 M 44,64 v -4 h 4 v 4 h -4 m 16,16 h -4 v -4 h 4 v 4 m 12,0 v -4 h 4 v 4 z" />
        <path
           style="fill:#29b865;stroke:none"
           inkscape:connector-curvature="0"
           id="path13247"
           d="m 72,76 v 4 h 4 V 76 H 72 M 44,60 v 4 h 4 v -4 h -4 m -8,20 v 4 h 4 V 80 H 36 M 60,44 h 4 v -4 h -4 v 4 m -4,4 h -8 v 8 h 8 v -8 m 32,-4 v 4 h 4 v -4 z" />
      </g>
    </g>
  </g>
</svg>
