<?xml version="1.0" encoding="UTF-8" standalone="no"?>
<!-- Created with Inkscape (http://www.inkscape.org/) -->

<svg
   xmlns:dc="http://purl.org/dc/elements/1.1/"
   xmlns:cc="http://creativecommons.org/ns#"
   xmlns:rdf="http://www.w3.org/1999/02/22-rdf-syntax-ns#"
   xmlns:svg="http://www.w3.org/2000/svg"
   xmlns="http://www.w3.org/2000/svg"
   xmlns:sodipodi="http://sodipodi.sourceforge.net/DTD/sodipodi-0.dtd"
   xmlns:inkscape="http://www.inkscape.org/namespaces/inkscape"
   width="252.27707"
   height="252.27707"
   viewBox="0 0 66.748307 66.748306"
   version="1.1"
   id="svg834"
   inkscape:version="0.92.2 5c3e80d, 2017-08-06"
   sodipodi:docname="mountain.svg">
  <defs
     id="defs828">
    <filter
       height="2.1098967"
       y="-0.55494833"
       width="1.4623764"
       x="-0.23118813"
       id="filter2129"
       style="color-interpolation-filters:sRGB"
       inkscape:collect="always">
      <feGaussianBlur
         id="feGaussianBlur2131"
         stdDeviation="0.70792862"
         inkscape:collect="always" />
    </filter>
    <filter
       height="2.5293312"
       y="-0.7646656"
       width="1.4366305"
       x="-0.21831523"
       id="filter2593"
       style="color-interpolation-filters:sRGB"
       inkscape:collect="always">
      <feGaussianBlur
         id="feGaussianBlur2595"
         stdDeviation="2.3610303"
         inkscape:collect="always" />
    </filter>
    <filter
       height="2.4829993"
       y="-0.7414996"
       width="1.4495051"
       x="-0.22475256"
       id="filter2597"
       style="color-interpolation-filters:sRGB"
       inkscape:collect="always">
      <feGaussianBlur
         id="feGaussianBlur2599"
         stdDeviation="2.3610303"
         inkscape:collect="always" />
    </filter>
    <filter
       height="3.3932774"
       y="-1.1966387"
       width="1.3945161"
       x="-0.19725807"
       id="filter2601"
       style="color-interpolation-filters:sRGB"
       inkscape:collect="always">
      <feGaussianBlur
         id="feGaussianBlur2603"
         stdDeviation="2.3610303"
         inkscape:collect="always" />
    </filter>
    <filter
       height="3.1416576"
       y="-1.0708288"
       width="1.5330352"
       x="-0.26651758"
       id="filter2613"
       style="color-interpolation-filters:sRGB"
       inkscape:collect="always">
      <feGaussianBlur
         id="feGaussianBlur2615"
         stdDeviation="2.3610303"
         inkscape:collect="always" />
    </filter>
    <filter
       height="2.5136473"
       y="-0.75682372"
       width="1.3987381"
       x="-0.19936904"
       id="filter3900"
       style="color-interpolation-filters:sRGB"
       inkscape:collect="always">
      <feGaussianBlur
         id="feGaussianBlur3902"
         stdDeviation="2.8337279"
         inkscape:collect="always" />
    </filter>
    <filter
       height="2.7592254"
       y="-0.87961268"
       width="1.5332307"
       x="-0.26661536"
       id="filter3976"
       style="color-interpolation-filters:sRGB"
       inkscape:collect="always">
      <feGaussianBlur
         id="feGaussianBlur3978"
         stdDeviation="2.8008001"
         inkscape:collect="always" />
    </filter>
  </defs>
  <sodipodi:namedview
     id="base"
     pagecolor="#ffffff"
     bordercolor="#666666"
     borderopacity="1.0"
     inkscape:pageopacity="0.0"
     inkscape:pageshadow="2"
     inkscape:zoom="1.438284"
     inkscape:cx="23.359658"
     inkscape:cy="90.248857"
     inkscape:document-units="mm"
     inkscape:current-layer="layer1-9"
     showgrid="false"
     units="px"
     inkscape:window-width="1563"
     inkscape:window-height="879"
     inkscape:window-x="134"
     inkscape:window-y="130"
     inkscape:window-maximized="0"
     fit-margin-top="0"
     fit-margin-left="0"
     fit-margin-right="0"
     fit-margin-bottom="0"
     inkscape:snap-global="false" />
  <metadata
     id="metadata831">
    <rdf:RDF>
      <cc:Work
         rdf:about="">
        <dc:format>image/svg+xml</dc:format>
        <dc:type
           rdf:resource="http://purl.org/dc/dcmitype/StillImage" />
        <dc:title></dc:title>
      </cc:Work>
    </rdf:RDF>
  </metadata>
  <g
     inkscape:label="Layer 1"
     inkscape:groupmode="layer"
     id="layer1"
     transform="translate(209.95381,-109.55443)">
    <g
       transform="translate(-277.95675,13.870626)"
       id="layer1-9"
       inkscape:label="Layer 1">
      <rect
         ry="0"
         y="96.183807"
         x="68.502945"
         height="65.748306"
         width="65.748306"
         id="rect826"
         style="opacity:1;fill:#88aa00;fill-opacity:1;stroke:#898032;stroke-width:1;stroke-linecap:round;stroke-linejoin:round;stroke-miterlimit:4;stroke-dasharray:none;stroke-opacity:1;paint-order:stroke fill markers" />
      <path
         inkscape:connector-curvature="0"
         id="path828"
         d="m 99.596727,111.69718 c 4.282713,-0.63319 9.107803,-1.29106 12.887093,1.35203 3.26792,1.59807 6.66963,4.03678 10.50571,3.21236 2.7353,0.0507 1.55948,3.57416 -0.70038,2.18763 -4.2918,0.38836 -9.02638,-0.20011 -12.27347,-3.28789 -3.06029,-2.22166 -8.22413,-1.04543 -10.651313,-3.29014 l 0.2324,-0.17399 z"
         style="opacity:0.33700005;fill:#8d8a2f;fill-opacity:1;stroke:none;stroke-width:0.26458332px;stroke-linecap:butt;stroke-linejoin:miter;stroke-opacity:1;filter:url(#filter2597)" />
      <path
         inkscape:connector-curvature="0"
         id="path1093"
         d="m 84.383187,115.05171 c 1.69773,1.86361 8.06577,-0.69213 4.69139,-2.38411 -1.53328,-0.22276 -7.12905,-0.65159 -4.69139,2.38411 z"
         style="opacity:0.42699998;fill:#8e8b2e;fill-opacity:1;stroke:none;stroke-width:0.26458332px;stroke-linecap:butt;stroke-linejoin:miter;stroke-opacity:1;filter:url(#filter2129)" />
      <path
         inkscape:connector-curvature="0"
         id="path1078"
         d="m 85.016767,112.55623 c 0.0709,0.54334 0.14174,1.08668 0.21261,1.63002"
         style="fill:none;fill-opacity:1;stroke:#114b19;stroke-width:0.26499999;stroke-linecap:round;stroke-linejoin:miter;stroke-miterlimit:4;stroke-dasharray:none;stroke-opacity:1" />
      <path
         inkscape:connector-curvature="0"
         id="path1080"
         d="m 86.056197,112.72159 c 0,0.51972 0,1.03943 0,1.55915"
         style="fill:none;fill-opacity:1;stroke:#114b19;stroke-width:0.26499999;stroke-linecap:round;stroke-linejoin:miter;stroke-miterlimit:4;stroke-dasharray:none;stroke-opacity:1" />
      <path
         inkscape:connector-curvature="0"
         id="path1082"
         d="m 86.812147,114.65872 c 0.30379,-0.90223 1.0427,-1.59337 1.86626,-2.03162"
         style="fill:none;fill-opacity:1;stroke:#114b19;stroke-width:0.26499999;stroke-linecap:round;stroke-linejoin:miter;stroke-miterlimit:4;stroke-dasharray:none;stroke-opacity:1" />
      <path
         transform="matrix(0.9063631,0,0,0.64880011,11.579364,54.999938)"
         style="opacity:0.33700005;fill:#8d8a2f;fill-opacity:1;stroke:#114b19;stroke-width:0.26458332px;stroke-linecap:butt;stroke-linejoin:miter;stroke-opacity:1;filter:url(#filter2593)"
         d="m 68.860727,150.45126 c 3.96727,-0.39449 8.32593,-1.49443 11.90797,0.91751 3.4162,1.2068 6.24224,4.14952 10.09296,3.70821 2.60383,-0.45292 5.95509,2.56011 1.50475,2.00339 -4.42148,0.36348 -9.09122,0.54467 -12.48239,-2.91766 -3.27697,-1.79315 -7.02925,-1.99278 -10.57558,-2.75957 -0.51762,0.16798 -1.0724,-0.75347 -0.44771,-0.95188 z"
         id="path1769"
         inkscape:connector-curvature="0" />
      <path
         inkscape:connector-curvature="0"
         id="path1675"
         d="m 103.26027,127.04013 c 3.96044,-0.14152 7.79888,3.00899 11.72082,1.11379 0.34589,-0.10784 0.69183,-0.21584 1.0412,-0.31204"
         style="fill:none;stroke:#114b19;stroke-width:0.26499999;stroke-linecap:butt;stroke-linejoin:miter;stroke-miterlimit:4;stroke-dasharray:none;stroke-opacity:1" />
      <path
         inkscape:connector-curvature="0"
         id="path1689"
         d="m 74.696201,152.57022 c 2.8308,0.22253 5.71475,-0.38549 8.50448,0.33059"
         style="fill:none;stroke:#114b19;stroke-width:0.26499999;stroke-linecap:butt;stroke-linejoin:miter;stroke-miterlimit:4;stroke-dasharray:none;stroke-opacity:1" />
      <path
         inkscape:connector-curvature="0"
         id="path1691"
         d="m 77.672761,151.2473 c 0.45086,0.45408 0.89004,0.93588 1.1813,1.51184"
         style="fill:none;stroke:#114b19;stroke-width:0.26499999;stroke-linecap:butt;stroke-linejoin:miter;stroke-miterlimit:4;stroke-dasharray:none;stroke-opacity:1" />
      <path
         inkscape:connector-curvature="0"
         id="path1693"
         d="m 79.279161,151.15281 c -0.2627,0.53852 0.76323,1.77794 -0.42521,1.60628"
         style="fill:none;stroke:#114b19;stroke-width:0.26499999;stroke-linecap:butt;stroke-linejoin:miter;stroke-miterlimit:4;stroke-dasharray:none;stroke-opacity:1" />
      <path
         inkscape:connector-curvature="0"
         id="path1695"
         d="m 80.035121,152.75921 c 0.46468,-0.82856 1.2375,-1.51689 2.17333,-1.74791"
         style="fill:none;stroke:#114b19;stroke-width:0.26499999;stroke-linecap:butt;stroke-linejoin:miter;stroke-miterlimit:4;stroke-dasharray:none;stroke-opacity:1" />
      <path
         inkscape:connector-curvature="0"
         id="path1703"
         d="m 90.94681,128.59768 c 0.80566,0.23606 1.50656,0.96889 1.51199,1.84254"
         style="fill:none;stroke:#114b19;stroke-width:0.26499999;stroke-linecap:butt;stroke-linejoin:miter;stroke-miterlimit:4;stroke-dasharray:none;stroke-opacity:1" />
      <path
         inkscape:connector-curvature="0"
         id="path1705"
         d="m 94.91556,128.78667 c -0.60223,0.25817 -1.46575,0.5674 -1.46491,1.37015"
         style="fill:none;stroke:#114b19;stroke-width:0.26499999;stroke-linecap:butt;stroke-linejoin:miter;stroke-miterlimit:4;stroke-dasharray:none;stroke-opacity:1" />
      <path
         inkscape:connector-curvature="0"
         id="path1707"
         d="m 88.7262,130.48756 c 1.24413,-0.0143 2.48993,0.0372 3.73253,-0.0473"
         style="fill:none;stroke:#114b19;stroke-width:0.26499999;stroke-linecap:butt;stroke-linejoin:miter;stroke-miterlimit:4;stroke-dasharray:none;stroke-opacity:1" />
      <path
         inkscape:connector-curvature="0"
         id="path1709"
         d="m 73.883127,116.73926 c 0.4897,0.23205 0.56457,0.84809 0.48435,1.31941"
         style="fill:none;stroke:#114b19;stroke-width:0.26499999;stroke-linecap:butt;stroke-linejoin:miter;stroke-miterlimit:4;stroke-dasharray:none;stroke-opacity:1" />
      <path
         inkscape:connector-curvature="0"
         id="path1711"
         d="m 75.336407,117.59119 c -0.0334,0.22824 -0.0668,0.45648 -0.1002,0.68472"
         style="fill:none;stroke:#114b19;stroke-width:0.26499999;stroke-linecap:butt;stroke-linejoin:miter;stroke-miterlimit:4;stroke-dasharray:none;stroke-opacity:1" />
      <path
         inkscape:connector-curvature="0"
         id="path1713"
         d="m 77.741827,116.70586 c -0.84076,0.36762 -1.69386,1.15182 -1.58664,2.15452"
         style="fill:none;stroke:#114b19;stroke-width:0.26499999;stroke-linecap:butt;stroke-linejoin:miter;stroke-miterlimit:4;stroke-dasharray:none;stroke-opacity:1" />
      <path
         inkscape:connector-curvature="0"
         id="path1723"
         d="m 121.76372,145.96535 c 0.10616,0.17788 0.52927,0.8905 0.63467,1.06894"
         style="fill:none;stroke:#114b19;stroke-width:0.26499999;stroke-linecap:butt;stroke-linejoin:miter;stroke-miterlimit:4;stroke-dasharray:none;stroke-opacity:1" />
      <path
         inkscape:connector-curvature="0"
         id="path1725"
         d="m 122.48417,145.55061 c 0.44404,0.21946 0.80898,0.6855 0.76833,1.2026"
         style="fill:none;stroke:#114b19;stroke-width:0.26499999;stroke-linecap:butt;stroke-linejoin:miter;stroke-miterlimit:4;stroke-dasharray:none;stroke-opacity:1" />
      <path
         inkscape:connector-curvature="0"
         id="path1739"
         d="m 110.39882,120.91535 c 0.10657,0.14647 0.52964,0.73657 0.6346,0.88515"
         style="fill:none;stroke:#114b19;stroke-width:0.26499999;stroke-linecap:butt;stroke-linejoin:miter;stroke-miterlimit:4;stroke-dasharray:none;stroke-opacity:1" />
      <path
         inkscape:connector-curvature="0"
         id="path1741"
         d="m 111.76858,120.81512 c 0.34229,0.25838 0.44054,0.72179 0.4843,1.11901"
         style="fill:none;stroke:#114b19;stroke-width:0.26499999;stroke-linecap:butt;stroke-linejoin:miter;stroke-miterlimit:4;stroke-dasharray:none;stroke-opacity:1" />
      <path
         inkscape:connector-curvature="0"
         id="path1743"
         d="m 114.87559,120.38081 c -0.8446,0.32489 -1.6524,0.97812 -1.85395,1.90398"
         style="fill:none;stroke:#114b19;stroke-width:0.26499999;stroke-linecap:butt;stroke-linejoin:miter;stroke-miterlimit:4;stroke-dasharray:none;stroke-opacity:1" />
      <path
         inkscape:connector-curvature="0"
         id="path1751"
         d="m 96.186047,106.20017 c 0.076,0.13085 0.37531,0.6506 0.449,0.77962"
         style="fill:none;stroke:#114b19;stroke-width:0.26499999;stroke-linecap:butt;stroke-linejoin:miter;stroke-miterlimit:4;stroke-dasharray:none;stroke-opacity:1" />
      <path
         inkscape:connector-curvature="0"
         id="path1753"
         d="m 97.178237,106.48365 c 0.0317,0.12204 0.15762,0.61022 0.1889,0.73226"
         style="fill:none;stroke:#114b19;stroke-width:0.26499999;stroke-linecap:butt;stroke-linejoin:miter;stroke-miterlimit:4;stroke-dasharray:none;stroke-opacity:1" />
      <path
         inkscape:connector-curvature="0"
         id="path1755"
         d="m 98.926377,107.16874 c -0.29143,0.19082 -0.90048,0.3877 -0.8265,0.87374"
         style="fill:none;stroke:#114b19;stroke-width:0.26499999;stroke-linecap:butt;stroke-linejoin:miter;stroke-miterlimit:4;stroke-dasharray:none;stroke-opacity:1" />
      <path
         inkscape:connector-curvature="0"
         id="path1757"
         d="m 100.60365,106.83801 c -0.817253,0.34299 -1.624813,0.94316 -1.866433,1.84244"
         style="fill:none;stroke:#114b19;stroke-width:0.26499999;stroke-linecap:butt;stroke-linejoin:miter;stroke-miterlimit:4;stroke-dasharray:none;stroke-opacity:1" />
      <path
         inkscape:connector-curvature="0"
         id="path1759"
         d="m 74.77639,103.44268 c 0.17415,0.12587 0.86729,0.62989 1.0397,0.75602"
         style="fill:none;stroke:#114b19;stroke-width:0.26499999;stroke-linecap:butt;stroke-linejoin:miter;stroke-miterlimit:4;stroke-dasharray:none;stroke-opacity:1" />
      <path
         inkscape:connector-curvature="0"
         id="path1761"
         d="m 75.36698,102.61586 c 0.74367,0.36769 1.27482,1.0643 1.58269,1.81907"
         style="fill:none;stroke:#114b19;stroke-width:0.26499999;stroke-linecap:butt;stroke-linejoin:miter;stroke-miterlimit:4;stroke-dasharray:none;stroke-opacity:1" />
      <path
         inkscape:connector-curvature="0"
         id="path1763"
         d="m 79.09949,102.63948 c -0.81324,0.41341 -1.81804,1.1995 -1.51198,2.24422"
         style="fill:none;stroke:#114b19;stroke-width:0.26499999;stroke-linecap:butt;stroke-linejoin:miter;stroke-miterlimit:4;stroke-dasharray:none;stroke-opacity:1" />
      <path
         inkscape:connector-curvature="0"
         id="path1765"
         d="m 79.61921,103.77341 c 2.26117,0.55574 4.5969,-0.1384 6.87432,0.2362"
         style="fill:none;stroke:#114b19;stroke-width:0.26499999;stroke-linecap:butt;stroke-linejoin:miter;stroke-miterlimit:4;stroke-dasharray:none;stroke-opacity:1" />
      <path
         inkscape:connector-curvature="0"
         id="path2355"
         d="m 128.22842,155.63691 -3.30729,-1.7009 c 0,0 -4.25223,-1.32291 -4.81919,-1.13393 -0.56697,0.18899 -6.04762,-0.85044 -6.4256,-0.85044 -0.37797,0 -4.06324,-1.88988 -4.44122,-1.88988 -0.37798,0 -3.59077,-0.66146 -3.96875,-0.47247 -0.37798,0.18899 -6.236603,0.37797 -6.236603,0.37797 l -4.25224,-1.32291 v 1.5119 l 1.88988,1.88988 c 0,0 1.88988,0.0945 2.45685,0.0945 0.56696,0 2.078873,-0.18899 2.740323,-0.18899 0.66146,0 4.28028,-0.63287 5.76414,0.94494 1.48387,1.5778 2.74033,-0.0945 3.49628,0 0.75595,0.0945 2.16368,1.81166 2.16368,1.81166 0,0 2.75001,-0.11077 3.60046,0.26721 0.85044,0.37797 2.92931,1.03943 3.30729,1.03943 0.37798,0 2.83482,0.28349 3.49628,0.56697 0.66146,0.28348 3.30729,0.94494 3.77976,1.03943 0.47247,0.0945 1.41741,-0.56696 1.41741,-0.56696 z"
         style="opacity:0.33700005;fill:#668000;fill-opacity:1;stroke:none;stroke-width:0.26458332px;stroke-linecap:butt;stroke-linejoin:miter;stroke-opacity:1;filter:url(#filter3900)"
         transform="matrix(0.94991088,0,0,0.71870557,3.5321283,40.45531)" />
      <path
         transform="matrix(0.91077303,0,0,1.0513542,9.1769322,-5.348179)"
         inkscape:connector-curvature="0"
         id="path2357"
         d="m 89.580357,103.2872 c 0,0 -4.15774,-1.5119 -4.53572,-1.5119 -0.37797,0 -6.2366,0.85044 -6.70907,1.03943 -0.47247,0.18899 -3.96875,-0.66145 -3.96875,-0.66145 l -1.6064,0.94494 0.47247,1.6064 4.7247,1.03943 c 0,0 3.68527,-1.13393 3.96875,-1.13393 0.28348,0 1.70089,0.37798 2.07887,0.47247 0.37798,0.0945 3.59077,1.32292 4.06324,1.41741 0.47248,0.0945 3.49628,-0.47247 3.96875,-0.47247 0.47248,0 5.14104,0.45612 5.14104,0.45612 l 4.308373,-1.87353 -0.66146,-1.79539 c 0,0 -5.858633,0 -6.331103,0.18899 -0.47247,0.18899 -2.64583,0.56697 -2.64583,0.56697 z"
         style="opacity:0.33700005;fill:#908d35;fill-opacity:1;stroke:none;stroke-width:0.26458332px;stroke-linecap:butt;stroke-linejoin:miter;stroke-opacity:1;filter:url(#filter2601)" />
      <path
         transform="matrix(0.86499031,0,0,1,14.786073,0)"
         inkscape:connector-curvature="0"
         id="path2359"
         d="m 114.52679,103.66518 3.30729,-0.28348 c 0,0 4.25223,1.32292 4.63021,1.41741 0.37797,0.0945 7.9375,-0.66146 7.9375,-0.66146 l 0.37797,1.70089 c 0,0 -1.22842,2.83483 -1.70089,2.83483 -0.47247,0 -4.8192,-0.94495 -5.57515,-0.94495 -0.75595,0 -5.76414,-0.66145 -6.14211,-0.94494 -0.37798,-0.28348 -2.45685,-1.03943 -3.40179,-1.03943 -0.94494,0 -4.44122,-1.88988 -4.44122,-1.88988 0,0 2.45685,-0.37798 2.92932,-0.28348 0.47247,0.0945 2.07887,0.0945 2.07887,0.0945 z"
         style="opacity:0.33700005;fill:#908d35;fill-opacity:1;stroke:none;stroke-width:0.26458332px;stroke-linecap:butt;stroke-linejoin:miter;stroke-opacity:1;filter:url(#filter2613)" />
      <path
         inkscape:connector-curvature="0"
         id="path3500"
         d="m 120.90048,159.07955 c -1.3678,-2.57691 -1.44404,-2.01952 0.14172,-1.03951 -1.0956,-2.27348 -0.62751,-2.16711 0.52827,-0.11485 0.81687,-1.01104 -0.71751,-2.60077 0.82762,-0.37776 -0.17024,-2.65398 0.4731,-2.0434 1.49402,-0.26029 0.12619,-2.74121 0.0514,-0.97883 0.50863,0.4357 -0.12036,-2.20106 1.09542,1.86871 1.34198,-0.64774 0.0142,1.6612 3.63536,-4.9798 2.21373,-0.70141 -1.30138,2.77349 0.38091,0.74773 1.8737,0.95798 -0.48902,0.57127 -1.64242,0.28438 -1.88987,1.08676"
         style="fill:none;stroke:#114b19;stroke-width:0.26458332px;stroke-linecap:butt;stroke-linejoin:miter;stroke-opacity:1" />
      <path
         inkscape:connector-curvature="0"
         id="path3512"
         d="m 73.469946,133.26062 c -1.579117,-1.21562 -2.440199,-3.30972 -0.120934,-1.1612 -0.447967,-2.08008 0.111546,-2.00642 1.123211,-0.17515 0.330577,-1.99009 1.206857,-2.3913 1.403172,-0.20044 1.061598,-2.02541 1.803077,-1.72549 2.178392,-0.20995 1.732195,-0.86225 5.593183,-2.74614 2.298359,0.21014 0.05231,0.20708 -0.261432,0.40411 -0.06682,0.60136"
         style="fill:none;stroke:#114b19;stroke-width:0.26458332px;stroke-linecap:butt;stroke-linejoin:miter;stroke-opacity:1" />
      <path
         style="opacity:0.61600001;fill:#aca793;fill-opacity:1;stroke:none;stroke-width:0.26458332px;stroke-linecap:butt;stroke-linejoin:miter;stroke-opacity:1;filter:url(#filter3976)"
         d="m 78.883339,132.5442 c 4.282713,-0.63319 9.107803,-1.29106 12.887093,1.35203 3.26792,1.59807 6.66963,4.03678 10.505708,3.21236 2.7353,0.0507 1.55948,3.57416 -0.70038,2.18763 -4.291798,0.38836 -9.026378,-0.20011 -12.273468,-3.28789 -3.06029,-2.22166 -8.22413,-1.04543 -10.651313,-3.29014 l 0.2324,-0.17399 z"
         id="path3526"
         inkscape:connector-curvature="0" />
    </g>
    <path
       style="fill:#647c00;fill-opacity:1;stroke:none;stroke-width:0.5318709px;stroke-linecap:butt;stroke-linejoin:miter;stroke-opacity:1"
       d="m -176.87051,125.23472 c -1.87729,2.14276 -0.68685,5.48453 1.95706,6.28138 3.2988,2.42533 3.52473,7.86111 0.55688,10.65337 -1.16138,1.20292 -2.53932,2.19599 -3.9019,3.15294 l 7.37454,-0.022 c 0,0 5.46712,-2.18684 5.80355,-2.18684 0.33643,0 6.81287,-2.77562 6.81287,-2.77562 l 2.10274,-3.02794 0.50465,-1.09342 -4.71012,-4.03725 -3.86903,-3.02795 -3.28028,-1.8504 -4.71012,-1.68218 -4.20549,-0.75699 z"
       id="path925"
       inkscape:connector-curvature="0" />
    <path
       style="fill:#647c00;fill-opacity:1;stroke:none;stroke-width:0.4330335px;stroke-linecap:butt;stroke-linejoin:miter;stroke-opacity:1"
       d="m -162.92483,153.28994 c 2.79769,1.541 6.12736,0.86241 8.93922,-0.24589 2.68988,-0.78726 5.90035,-1.22124 7.65668,-3.65249 -0.71236,-1.86412 -3.94964,-1.70793 -5.01157,-3.73506 -1.42416,-1.41772 -6.52587,-3.82578 -5.55963,-0.001 0.77533,2.63802 -0.82142,5.15042 -3.22611,6.20752 -0.91489,0.51074 -1.87542,0.93296 -2.79859,1.42785 z"
       id="path987"
       inkscape:connector-curvature="0" />
    <path
       style="fill:#647c00;fill-opacity:1;stroke:none;stroke-width:0.4330335px;stroke-linecap:butt;stroke-linejoin:miter;stroke-opacity:1"
       d="m -149.56173,121.93421 c -2.02406,-0.68604 -3.57312,-2.20056 -5.32111,-3.29006 -1.71883,-0.95003 -3.48871,0.14207 -4.80311,1.23981 -1.80928,1.37575 -0.0595,3.21366 0.94997,4.41365 1.13658,1.70804 -0.98479,2.89798 -1.87056,4.082 -0.25146,1.00686 2.18239,0.0642 2.97959,-0.0429 1.95095,-0.48448 3.44444,-1.86183 4.86355,-3.193 1.27639,-1.15782 3.65513,-1.5135 4.62087,-2.46701 -0.38036,-0.40652 -1.0463,-0.32438 -1.4192,-0.74249 z"
       id="path999"
       inkscape:connector-curvature="0" />
    <path
       style="fill:#647c00;fill-opacity:1;stroke:none;stroke-width:0.4330335px;stroke-linecap:butt;stroke-linejoin:miter;stroke-opacity:1"
       d="m -173.27359,169.70612 3.28027,-1.09343 1.42987,-1.51395 0.25233,-1.34577 -0.25233,-2.10273 -1.17753,-1.7663 -0.50467,-1.42985 0.33643,-1.42986 1.5981,-1.59809 2.10273,-1.42987 1.93451,-0.58875 1.85042,0.42053 1.68219,1.00933 1.59807,1.17753 2.10273,1.17754 1.59809,0.67286 1.85041,1.00931 2.01863,0.58878 -3.78493,1.59808 -2.6915,1.59807 -2.35507,2.35507 -4.28957,2.85971 -2.94384,0.58878 -3.36439,0.16821 -1.93452,-0.16821 z"
       id="path1006"
       inkscape:connector-curvature="0" />
    <path
       inkscape:connector-curvature="0"
       id="path1013"
       d="m -178.78033,152.79173 c -2.02405,-0.68605 -3.5731,-2.20056 -5.32111,-3.29006 -1.71881,-0.95003 -3.48871,0.14207 -4.80311,1.23981 -1.80928,1.37575 -0.0595,3.21365 0.94997,4.41365 1.13658,1.70804 -0.98479,2.89797 -1.87054,4.082 -0.25148,1.00686 2.18237,0.0642 2.97957,-0.0429 1.95096,-0.4845 3.44444,-1.86184 4.86356,-3.193 1.27638,-1.15782 3.65512,-1.5135 4.62086,-2.46701 -0.38036,-0.40654 -1.04629,-0.32439 -1.4192,-0.74249 z"
       style="fill:#647c00;fill-opacity:1;stroke:none;stroke-width:0.4330335px;stroke-linecap:butt;stroke-linejoin:miter;stroke-opacity:1" />
    <path
       style="fill:none;fill-opacity:1;stroke:#000000;stroke-width:0.70483953;stroke-linecap:butt;stroke-linejoin:miter;stroke-miterlimit:4;stroke-dasharray:none;stroke-opacity:1"
       d="m -186.21802,162.76476 c 4.64303,-0.96057 8.62758,-3.47399 12.70072,-5.66574 4.29422,-1.26369 9.5656,-2.56138 13.64081,-0.0518 2.37271,1.87419 4.94944,3.34802 7.70307,4.59401"
       id="path983"
       inkscape:connector-curvature="0" />
    <path
       inkscape:connector-curvature="0"
       id="path1015"
       d="m -200.80042,153.71022 c 2.38033,-0.72887 4.84635,-1.39838 6.79407,-3.02803 2.52306,-1.33993 5.50158,-1.72696 8.32242,-1.51073 1.99845,0.26552 3.26904,2.10693 5.10301,2.83031 0.62785,0.3456 1.26667,0.6712 1.91436,0.97796"
       style="fill:none;fill-opacity:1;stroke:#000000;stroke-width:0.70483953;stroke-linecap:butt;stroke-linejoin:miter;stroke-miterlimit:4;stroke-dasharray:none;stroke-opacity:1" />
    <path
       style="fill:none;fill-opacity:1;stroke:#000000;stroke-width:0.70483953;stroke-linecap:butt;stroke-linejoin:miter;stroke-miterlimit:4;stroke-dasharray:none;stroke-opacity:1"
       d="m -170.81664,148.64719 c 3.09682,-0.53139 6.22884,-1.25776 8.57427,-3.49439 2.97369,-1.77608 7.21559,-2.56151 10.01227,-0.018 1.97333,1.51501 4.01065,3.65035 6.68843,3.58523"
       id="path933"
       inkscape:connector-curvature="0" />
    <path
       style="fill:none;fill-opacity:1;stroke:#000000;stroke-width:0.70483953;stroke-linecap:butt;stroke-linejoin:miter;stroke-miterlimit:4;stroke-dasharray:none;stroke-opacity:1"
       d="m -197.54341,134.95023 c 6.26244,-3.10944 11.8919,-7.52149 18.34704,-10.17285 5.2551,-0.34632 10.88955,1.39371 15.02042,4.60974 2.95253,2.21697 5.87156,4.49129 8.5627,7.0241"
       id="path917"
       inkscape:connector-curvature="0" />
    <path
       style="fill:none;fill-opacity:1;stroke:#000000;stroke-width:0.70483953;stroke-linecap:butt;stroke-linejoin:miter;stroke-miterlimit:4;stroke-dasharray:none;stroke-opacity:1"
       d="m -171.58183,122.8527 c 2.93829,-0.6278 5.53124,-2.17175 8.10694,-3.60022 3.18354,-1.17807 7.20941,-1.75001 10.02179,0.58967 1.27623,0.85454 2.55422,1.74391 4.00514,2.28006"
       id="path950"
       inkscape:connector-curvature="0" />
  </g>
</svg>
