<?xml version="1.0" encoding="UTF-8" standalone="no"?>
<!-- Created with Inkscape (http://www.inkscape.org/) -->

<svg
   xmlns:dc="http://purl.org/dc/elements/1.1/"
   xmlns:cc="http://creativecommons.org/ns#"
   xmlns:rdf="http://www.w3.org/1999/02/22-rdf-syntax-ns#"
   xmlns:svg="http://www.w3.org/2000/svg"
   xmlns="http://www.w3.org/2000/svg"
   xmlns:sodipodi="http://sodipodi.sourceforge.net/DTD/sodipodi-0.dtd"
   xmlns:inkscape="http://www.inkscape.org/namespaces/inkscape"
   width="163.64471"
   height="163.64471"
   viewBox="0 0 43.297663 43.297663"
   version="1.1"
   id="svg834"
   inkscape:version="0.92.2 5c3e80d, 2017-08-06"
   sodipodi:docname="mountain4.svg">
  <defs
     id="defs828">
    <filter
       inkscape:collect="always"
       style="color-interpolation-filters:sRGB"
       id="filter1618"
       x="-0.061666667"
       width="1.1233333"
       y="-0.19018213"
       height="1.3803643">
      <feGaussianBlur
         inkscape:collect="always"
         stdDeviation="0.89106586"
         id="feGaussianBlur1620" />
    </filter>
    <filter
       inkscape:collect="always"
       style="color-interpolation-filters:sRGB"
       id="filter1622"
       x="-0.061891824"
       width="1.1237836"
       y="-0.1487525"
       height="1.297505">
      <feGaussianBlur
         inkscape:collect="always"
         stdDeviation="0.89106586"
         id="feGaussianBlur1624" />
    </filter>
    <filter
       inkscape:collect="always"
       style="color-interpolation-filters:sRGB"
       id="filter1656"
       x="-0.24138542"
       width="1.4827708"
       y="-0.36439165"
       height="1.7287832">
      <feGaussianBlur
         inkscape:collect="always"
         stdDeviation="1.4224088"
         id="feGaussianBlur1658" />
    </filter>
    <filter
       inkscape:collect="always"
       style="color-interpolation-filters:sRGB"
       id="filter1780"
       x="-0.35465354"
       width="1.7093071"
       y="-0.35096574"
       height="1.7019315">
      <feGaussianBlur
         inkscape:collect="always"
         stdDeviation="0.16582122"
         id="feGaussianBlur1782" />
    </filter>
    <filter
       inkscape:collect="always"
       style="color-interpolation-filters:sRGB"
       id="filter1798"
       x="-0.090189442"
       width="1.1803789"
       y="-0.46734631"
       height="1.9346926">
      <feGaussianBlur
         inkscape:collect="always"
         stdDeviation="0.10120345"
         id="feGaussianBlur1800" />
    </filter>
    <filter
       inkscape:collect="always"
       style="color-interpolation-filters:sRGB"
       id="filter1834"
       x="-0.54197383"
       width="2.0839477"
       y="-0.28692731"
       height="1.5738546">
      <feGaussianBlur
         inkscape:collect="always"
         stdDeviation="0.19204987"
         id="feGaussianBlur1836" />
    </filter>
    <filter
       inkscape:collect="always"
       style="color-interpolation-filters:sRGB"
       id="filter1838"
       x="-0.13738522"
       width="1.2747704"
       y="-0.54170793"
       height="2.0834157">
      <feGaussianBlur
         inkscape:collect="always"
         stdDeviation="0.19208146"
         id="feGaussianBlur1840" />
    </filter>
    <filter
       inkscape:collect="always"
       style="color-interpolation-filters:sRGB"
       id="filter1866"
       x="-0.072442144"
       width="1.1448843"
       y="-0.14766659"
       height="1.2953331">
      <feGaussianBlur
         inkscape:collect="always"
         stdDeviation="0.66959132"
         id="feGaussianBlur1868" />
    </filter>
    <filter
       inkscape:collect="always"
       style="color-interpolation-filters:sRGB"
       id="filter1908"
       x="-0.034542687"
       width="1.0690854"
       y="-0.17323409"
       height="1.3464682">
      <feGaussianBlur
         inkscape:collect="always"
         stdDeviation="0.3462372"
         id="feGaussianBlur1910" />
    </filter>
  </defs>
  <sodipodi:namedview
     id="base"
     pagecolor="#ffffff"
     bordercolor="#666666"
     borderopacity="1.0"
     inkscape:pageopacity="0.0"
     inkscape:pageshadow="2"
     inkscape:zoom="0.9101263"
     inkscape:cx="-188.82002"
     inkscape:cy="88.538755"
     inkscape:document-units="mm"
     inkscape:current-layer="layer1"
     showgrid="false"
     units="px"
     inkscape:window-width="1449"
     inkscape:window-height="789"
     inkscape:window-x="153"
     inkscape:window-y="82"
     inkscape:window-maximized="0"
     fit-margin-top="0"
     fit-margin-left="0"
     fit-margin-right="0"
     fit-margin-bottom="0"
     inkscape:snap-global="false" />
  <metadata
     id="metadata831">
    <rdf:RDF>
      <cc:Work
         rdf:about="">
        <dc:format>image/svg+xml</dc:format>
        <dc:type
           rdf:resource="http://purl.org/dc/dcmitype/StillImage" />
        <dc:title />
      </cc:Work>
    </rdf:RDF>
  </metadata>
  <g
     inkscape:label="Layer 1"
     inkscape:groupmode="layer"
     id="layer1"
     transform="translate(188.10942,-117.95572)">
    <g
       id="g899"
       transform="translate(6.9104004e-6,-2.9522705e-6)">
      <rect
         y="117.95572"
         x="-188.10942"
         height="43.297665"
         width="43.297665"
         id="rect1379"
         style="opacity:1;fill:#9da233;fill-opacity:1;stroke:none;stroke-width:0.52916664;stroke-linecap:square;stroke-linejoin:miter;stroke-miterlimit:4;stroke-dasharray:none;paint-order:stroke fill markers" />
      <path
         inkscape:connector-curvature="0"
         id="path1450"
         d="m -183.48053,124.60529 0.91328,5.2107 10.67783,1.03944 1.6064,3.1183 6.99256,0.56696 5.00818,3.30729 c 0,0 5.29167,0.47248 5.66964,0.56697 0.37798,0.0945 3.68527,0.56696 3.68527,0.56696 l -3.1183,-3.1183 -6.4256,-2.36235 -4.34672,-2.92932 -6.52009,-0.85044 c 0,0 -2.26786,-3.30729 -2.64584,-3.30729 -0.37797,0 -6.04761,-0.85045 -6.42559,-0.75596 -0.37798,0.0945 -4.25223,-1.03943 -4.25223,-1.03943 z"
         style="opacity:0.52300002;fill:#8d8d36;fill-opacity:1;stroke:none;stroke-width:0.26458332px;stroke-linecap:butt;stroke-linejoin:miter;stroke-opacity:1;filter:url(#filter1622)" />
      <path
         inkscape:connector-curvature="0"
         id="path1452"
         d="m -185.23415,145.33266 1.13393,4.63021 7.74851,-0.47247 0.94494,1.79538 8.50447,1.32292 0.47247,1.70089 c 0,0 10.58333,0.56697 10.96131,0.85045 0.37797,0.28348 4.91369,0.66146 4.91369,0.66146 l -1.03944,-2.92932 -7.9375,-1.6064 -5.29166,-1.32291 c 0,0 0.85044,-1.98438 -0.18899,-1.98438 -1.03944,0 -8.032,-0.85044 -8.032,-0.85044 l -5.29166,-2.55134 -3.2128,1.13392 z"
         style="opacity:0.54199997;fill:#8d8d36;fill-opacity:1;stroke:none;stroke-width:0.26458332px;stroke-linecap:butt;stroke-linejoin:miter;stroke-opacity:1;filter:url(#filter1618)" />
      <ellipse
         ry="0.80319941"
         rx="0.42522317"
         cy="136.59636"
         cx="-183.64919"
         id="path1454"
         style="opacity:0.73200001;fill:#80801e;fill-opacity:1;stroke:none;stroke-width:0.71416491;stroke-linecap:square;stroke-linejoin:miter;stroke-miterlimit:4;stroke-dasharray:none;paint-order:stroke fill markers;filter:url(#filter1834)" />
      <ellipse
         inkscape:transform-center-y="-0.42522755"
         inkscape:transform-center-x="-3.3546961"
         transform="matrix(-0.03328086,0.99944604,-0.99997085,-0.00763523,0,0)"
         style="opacity:0.73200001;fill:#80801e;fill-opacity:1;stroke:none;stroke-width:1.03221464;stroke-linecap:square;stroke-linejoin:miter;stroke-miterlimit:4;stroke-dasharray:none;paint-order:stroke fill markers;filter:url(#filter1838)"
         id="ellipse1456"
         cx="138.52415"
         cy="177.46138"
         rx="0.42540479"
         ry="1.6771851" />
      <path
         transform="rotate(-180,-167.85668,142.55863)"
         sodipodi:nodetypes="ccccccccc"
         style="opacity:0.83225804;fill:#8d8d36;fill-opacity:1;stroke:none;stroke-width:0.26458332px;stroke-linecap:butt;stroke-linejoin:miter;stroke-opacity:1;filter:url(#filter1656)"
         d="m -184.75006,137.23964 0.91328,5.2107 10.67783,1.03944 1.6064,3.1183 0.94494,-4.25223 -2.64584,-3.30729 -6.42559,-0.75596 -4.25223,-1.03943 z"
         id="path1626"
         inkscape:connector-curvature="0" />
      <path
         inkscape:connector-curvature="0"
         id="path1662"
         d="m -167.15,124.37715 0.36617,-0.64965 0.67327,0.0472 0.0827,0.35436 -0.10631,0.36616 -0.41341,0.36616 -0.25986,-0.0827 -0.14174,-0.18898 -0.15355,-0.15356 -0.0118,-0.0473 z"
         style="fill:#7d7f1f;fill-opacity:1;stroke:none;stroke-width:0.26458332px;stroke-linecap:butt;stroke-linejoin:miter;stroke-opacity:1;filter:url(#filter1780)" />
      <path
         inkscape:connector-curvature="0"
         id="path1784"
         d="m -166.35859,124.69608 c 0.0472,0 2.56315,0.10631 2.56315,0.10631 l -1.54734,-0.38979 c 0,0 -0.38979,-0.12993 -0.4961,-0.12993 -0.1063,0 -0.55515,0.0118 -0.55515,0.0118 l -0.0945,0.22443 z"
         style="opacity:0.619;fill:#7e8020;fill-opacity:1;stroke:none;stroke-width:0.26458332px;stroke-linecap:butt;stroke-linejoin:miter;stroke-opacity:1;filter:url(#filter1798)" />
      <path
         style="fill:#7d7f1f;fill-opacity:1;stroke:none;stroke-width:0.26458332px;stroke-linecap:butt;stroke-linejoin:miter;stroke-opacity:1;filter:url(#filter1780)"
         d="m -155.9997,129.66882 0.36617,-0.64965 0.67327,0.0472 0.0827,0.35436 -0.10631,0.36616 -0.41341,0.36616 -0.25986,-0.0827 -0.14174,-0.18898 -0.15355,-0.15356 -0.0118,-0.0473 z"
         id="path1802"
         inkscape:connector-curvature="0" />
      <path
         style="opacity:0.619;fill:#7e8020;fill-opacity:1;stroke:none;stroke-width:0.26458332px;stroke-linecap:butt;stroke-linejoin:miter;stroke-opacity:1;filter:url(#filter1798)"
         d="m -155.20829,129.98775 c 0.0472,0 2.56315,0.10631 2.56315,0.10631 l -1.54734,-0.38979 c 0,0 -0.38979,-0.12993 -0.4961,-0.12993 -0.1063,0 -0.55515,0.0118 -0.55515,0.0118 l -0.0945,0.22443 z"
         id="path1804"
         inkscape:connector-curvature="0" />
      <path
         inkscape:connector-curvature="0"
         id="path1806"
         d="m -174.42604,139.68519 0.36617,-0.64965 0.67327,0.0472 0.0827,0.35436 -0.10631,0.36616 -0.41341,0.36616 -0.25986,-0.0827 -0.14174,-0.18898 -0.15355,-0.15356 -0.0118,-0.0473 z"
         style="fill:#7d7f1f;fill-opacity:1;stroke:none;stroke-width:0.26458332px;stroke-linecap:butt;stroke-linejoin:miter;stroke-opacity:1;filter:url(#filter1780)" />
      <path
         inkscape:connector-curvature="0"
         id="path1808"
         d="m -173.63463,140.00412 c 0.0472,0 2.56315,0.10631 2.56315,0.10631 l -1.54734,-0.38979 c 0,0 -0.38979,-0.12993 -0.4961,-0.12993 -0.1063,0 -0.55515,0.0118 -0.55515,0.0118 l -0.0945,0.22443 z"
         style="opacity:0.619;fill:#7e8020;fill-opacity:1;stroke:none;stroke-width:0.26458332px;stroke-linecap:butt;stroke-linejoin:miter;stroke-opacity:1;filter:url(#filter1798)" />
      <path
         style="fill:#7d7f1f;fill-opacity:1;stroke:none;stroke-width:0.26458332px;stroke-linecap:butt;stroke-linejoin:miter;stroke-opacity:1;filter:url(#filter1780)"
         d="m -152.14826,148.51374 0.36617,-0.64965 0.67327,0.0472 0.0827,0.35436 -0.10631,0.36616 -0.41341,0.36616 -0.25986,-0.0827 -0.14174,-0.18898 -0.15355,-0.15356 -0.0118,-0.0473 z"
         id="path1810"
         inkscape:connector-curvature="0" />
      <path
         style="opacity:0.619;fill:#7e8020;fill-opacity:1;stroke:none;stroke-width:0.26458332px;stroke-linecap:butt;stroke-linejoin:miter;stroke-opacity:1;filter:url(#filter1798)"
         d="m -151.35685,148.83267 c 0.0472,0 2.56315,0.10631 2.56315,0.10631 l -1.54734,-0.38979 c 0,0 -0.38979,-0.12993 -0.4961,-0.12993 -0.1063,0 -0.55515,0.0118 -0.55515,0.0118 l -0.0945,0.22443 z"
         id="path1812"
         inkscape:connector-curvature="0" />
      <path
         inkscape:connector-curvature="0"
         id="path1814"
         d="m -170.25686,152.18346 0.36617,-0.64965 0.67327,0.0472 0.0827,0.35436 -0.10631,0.36616 -0.41341,0.36616 -0.25986,-0.0827 -0.14174,-0.18898 -0.15355,-0.15356 -0.0118,-0.0473 z"
         style="fill:#7d7f1f;fill-opacity:1;stroke:none;stroke-width:0.26458332px;stroke-linecap:butt;stroke-linejoin:miter;stroke-opacity:1;filter:url(#filter1780)" />
      <path
         inkscape:connector-curvature="0"
         id="path1816"
         d="m -169.46545,152.50239 c 0.0472,0 2.56315,0.10631 2.56315,0.10631 l -1.54734,-0.38979 c 0,0 -0.38979,-0.12993 -0.4961,-0.12993 -0.1063,0 -0.55515,0.0118 -0.55515,0.0118 l -0.0945,0.22443 z"
         style="opacity:0.619;fill:#7e8020;fill-opacity:1;stroke:none;stroke-width:0.26458332px;stroke-linecap:butt;stroke-linejoin:miter;stroke-opacity:1;filter:url(#filter1798)" />
      <ellipse
         style="opacity:0.73200001;fill:#80801e;fill-opacity:1;stroke:none;stroke-width:0.71416491;stroke-linecap:square;stroke-linejoin:miter;stroke-miterlimit:4;stroke-dasharray:none;paint-order:stroke fill markers;filter:url(#filter1834)"
         id="ellipse1842"
         cx="-183.64919"
         cy="136.59636"
         rx="0.42522317"
         ry="0.80319941" />
      <ellipse
         style="opacity:0.73200001;fill:#80801e;fill-opacity:1;stroke:none;stroke-width:0.71416491;stroke-linecap:square;stroke-linejoin:miter;stroke-miterlimit:4;stroke-dasharray:none;paint-order:stroke fill markers;filter:url(#filter1834)"
         id="ellipse1844"
         cx="-151.96173"
         cy="123.29635"
         rx="0.42522317"
         ry="0.80319941" />
      <ellipse
         ry="1.6771851"
         rx="0.42540479"
         cy="177.46138"
         cx="138.52415"
         id="ellipse1846"
         style="opacity:0.73200001;fill:#80801e;fill-opacity:1;stroke:none;stroke-width:1.03221464;stroke-linecap:square;stroke-linejoin:miter;stroke-miterlimit:4;stroke-dasharray:none;paint-order:stroke fill markers;filter:url(#filter1838)"
         transform="matrix(-0.03328086,0.99944604,-0.99997085,-0.00763523,31.68745,-13.300008)"
         inkscape:transform-center-x="-3.3546961"
         inkscape:transform-center-y="-0.42522755" />
      <ellipse
         ry="0.80319941"
         rx="0.42522317"
         cy="123.29635"
         cx="-151.96173"
         id="ellipse1848"
         style="opacity:0.73200001;fill:#80801e;fill-opacity:1;stroke:none;stroke-width:0.71416491;stroke-linecap:square;stroke-linejoin:miter;stroke-miterlimit:4;stroke-dasharray:none;paint-order:stroke fill markers;filter:url(#filter1834)" />
      <ellipse
         ry="0.80319941"
         rx="0.42522317"
         cy="146.11713"
         cx="-161.70053"
         id="ellipse1850"
         style="opacity:0.73200001;fill:#80801e;fill-opacity:1;stroke:none;stroke-width:0.71416491;stroke-linecap:square;stroke-linejoin:miter;stroke-miterlimit:4;stroke-dasharray:none;paint-order:stroke fill markers;filter:url(#filter1834)" />
      <ellipse
         inkscape:transform-center-y="-0.42522755"
         inkscape:transform-center-x="-3.3546961"
         transform="matrix(-0.03328086,0.99944604,-0.99997085,-0.00763523,21.948647,9.5207702)"
         style="opacity:0.73200001;fill:#80801e;fill-opacity:1;stroke:none;stroke-width:1.03221464;stroke-linecap:square;stroke-linejoin:miter;stroke-miterlimit:4;stroke-dasharray:none;paint-order:stroke fill markers;filter:url(#filter1838)"
         id="ellipse1852"
         cx="138.52415"
         cy="177.46138"
         rx="0.42540479"
         ry="1.6771851" />
      <ellipse
         style="opacity:0.73200001;fill:#80801e;fill-opacity:1;stroke:none;stroke-width:0.71416491;stroke-linecap:square;stroke-linejoin:miter;stroke-miterlimit:4;stroke-dasharray:none;paint-order:stroke fill markers;filter:url(#filter1834)"
         id="ellipse1854"
         cx="-161.70053"
         cy="146.11713"
         rx="0.42522317"
         ry="0.80319941" />
      <path
         inkscape:connector-curvature="0"
         id="path1856"
         d="m -182.56725,129.81599 6.70776,-0.50433 4.67657,2.31259 5.08769,2.2612 c 0,0 0.10278,0.5139 0.46252,0.66808 0.35974,0.15417 3.90571,0.15417 3.90571,0.15417 l 1.23338,3.44319 c 0,0 -0.25696,1.79868 -0.25696,2.00424 0,0.20556 -2.87788,-0.46252 -2.87788,-0.46252 l -3.85432,-4.41961 c 0,0 -3.80292,-0.46252 -4.11127,-0.51391 -0.30834,-0.0514 -2.56954,-1.43894 -2.87788,-1.59312 -0.30835,-0.15417 -2.56955,-0.87364 -2.77511,-0.77086 -0.20557,0.10278 -3.44319,-0.41113 -3.44319,-0.41113 0,0 -1.6959,-0.77086 -1.90146,-0.82225 -0.20556,-0.0514 0.0245,-1.34574 0.0245,-1.34574 z"
         style="opacity:0.75199998;fill:#a7a93b;fill-opacity:1;stroke:none;stroke-width:0.26458332px;stroke-linecap:butt;stroke-linejoin:miter;stroke-opacity:1;filter:url(#filter1866)" />
      <path
         inkscape:connector-curvature="0"
         id="path1870"
         d="m -179.58644,150.99063 4.17967,0.29515 1.63454,1.1584 2.07131,0.76312 c 0,0 2.18033,1.01748 2.39837,1.05382 0.21803,0.0363 2.87272,0.0485 2.87272,0.0485 l 3.12318,0.31492 3.12514,0.54509 c 0,0 3.05246,-0.0363 3.27049,-0.0363 0.21804,0 1.38088,0.54508 1.38088,0.54508 l -3.30683,0.10902 -3.59755,-0.14536 -3.59754,-0.14536 c 0,0 -2.36202,-0.4724 -2.6164,-0.4724 -0.25437,0 -1.34453,-0.18169 -1.52623,-0.18169 -0.18169,0 -2.28934,-1.09017 -2.28934,-1.09017 l -2.68907,-0.83579 -1.41722,-0.61776 -1.99863,-0.29071 -1.01749,-0.25437 0.14536,-0.72678 z"
         style="fill:#a5a93b;fill-opacity:1;stroke:none;stroke-width:0.26458332px;stroke-linecap:butt;stroke-linejoin:miter;stroke-opacity:1;filter:url(#filter1908)" />
      <path
         sodipodi:nodetypes="ccccccccccccccc"
         inkscape:connector-curvature="0"
         id="path871"
         d="m -166.46173,117.95909 10e-4,0.23279 -1.16284,1.09017 1.35784,1.81258 -1.24745,2.58475 1.33229,2.98327 -1.26583,3.74052 1.58546,3.8865 -2.03099,4.61565 1.90825,6.10751 -1.91723,2.90801 2.16693,3.48593 -1.79333,3.21151 1.0669,4.56379 0.003,2.07676"
         style="fill:none;stroke:#000000;stroke-width:0.26458332px;stroke-linecap:butt;stroke-linejoin:miter;stroke-opacity:1" />
      <path
         sodipodi:nodetypes="ccccccccc"
         inkscape:connector-curvature="0"
         id="path873"
         d="m -167.68156,119.26706 -4.41961,4.471 2.15842,0.591 0.5396,1.15629 h 2.69802 l -0.81262,-1.78905 0.29871,-0.67771 0.92504,-1.90146 z"
         style="fill:#d38d5f;stroke:#000000;stroke-width:0.26458332px;stroke-linecap:butt;stroke-linejoin:miter;stroke-opacity:1" />
      <path
         style="fill:#d38d5f;stroke:#000000;stroke-width:0.26458332px;stroke-linecap:butt;stroke-linejoin:miter;stroke-opacity:1"
         d="m -167.51803,123.60955 -4.80117,4.41649 2.15842,0.591 0.5396,1.15629 2.04392,0.87213 0.87714,-2.06159 0.55308,-1.7497 -0.71021,-1.42906 z"
         id="path875"
         inkscape:connector-curvature="0"
         sodipodi:nodetypes="ccccccccc" />
      <path
         sodipodi:nodetypes="ccccccccc"
         inkscape:connector-curvature="0"
         id="path878"
         d="m -167.40734,130.32766 -4.7665,4.02133 2.84886,1.35412 -1.07748,2.10109 2.5345,1.09017 1.3677,-2.98823 0.33505,-0.95025 0.28911,-0.68411 z"
         style="fill:#d38d5f;stroke:#000000;stroke-width:0.26458332px;stroke-linecap:butt;stroke-linejoin:miter;stroke-opacity:1" />
      <path
         style="fill:#d38d5f;stroke:#000000;stroke-width:0.26458332px;stroke-linecap:butt;stroke-linejoin:miter;stroke-opacity:1"
         d="m -167.80874,138.89001 -4.65581,3.96226 2.15842,0.591 0.5396,1.15629 h 2.69802 l -0.54008,-1.64369 0.69844,-0.75039 -0.34682,-1.17469 z"
         id="path880"
         inkscape:connector-curvature="0"
         sodipodi:nodetypes="ccccccccc" />
      <path
         style="fill:#d38d5f;stroke:#000000;stroke-width:0.26458332px;stroke-linecap:butt;stroke-linejoin:miter;stroke-opacity:1"
         d="m -167.02745,142.08783 -4.56497,4.18029 0.59585,1.86286 2.10217,-0.11557 1.9349,0.0545 -0.088,-1.72793 0.45288,-0.42076 0.64589,-0.72964 z"
         id="path890"
         inkscape:connector-curvature="0"
         sodipodi:nodetypes="ccccccccc" />
      <path
         sodipodi:nodetypes="ccccccccc"
         inkscape:connector-curvature="0"
         id="path882"
         d="m -167.17281,146.44849 -5.21906,6.06991 2.15842,0.591 0.5396,1.15629 2.33463,-0.0545 0.94981,-1.75271 0.57126,-1.09561 -0.74655,-1.46539 z"
         style="fill:#d38d5f;stroke:#000000;stroke-width:0.26458332px;stroke-linecap:butt;stroke-linejoin:miter;stroke-opacity:1" />
      <path
         style="fill:#d38d5f;stroke:#000000;stroke-width:0.26458332px;stroke-linecap:butt;stroke-linejoin:miter;stroke-opacity:1"
         d="m -167.49986,154.46121 -5.03737,4.67086 1.05009,1.20876 1.64793,0.53853 h 2.69802 l 0.55009,-0.3355 0.0262,-1.40448 -0.40132,-1.59258 z"
         id="path884"
         inkscape:connector-curvature="0"
         sodipodi:nodetypes="ccccccccc" />
    </g>
  </g>
</svg>
