<?xml version="1.0" encoding="UTF-8" standalone="no"?>
<!-- Created with Inkscape (http://www.inkscape.org/) -->

<svg
   xmlns:dc="http://purl.org/dc/elements/1.1/"
   xmlns:cc="http://creativecommons.org/ns#"
   xmlns:rdf="http://www.w3.org/1999/02/22-rdf-syntax-ns#"
   xmlns:svg="http://www.w3.org/2000/svg"
   xmlns="http://www.w3.org/2000/svg"
   xmlns:sodipodi="http://sodipodi.sourceforge.net/DTD/sodipodi-0.dtd"
   xmlns:inkscape="http://www.inkscape.org/namespaces/inkscape"
   width="163.64471"
   height="163.64471"
   viewBox="0 0 43.297663 43.297663"
   version="1.1"
   id="svg834"
   inkscape:version="0.92.2 5c3e80d, 2017-08-06"
   sodipodi:docname="mountain.svg">
  <defs
     id="defs828">
    <inkscape:perspective
       sodipodi:type="inkscape:persp3d"
       inkscape:vp_x="0 : 21.648832 : 1"
       inkscape:vp_y="0 : 1000 : 0"
       inkscape:vp_z="43.297663 : 21.648832 : 1"
       inkscape:persp3d-origin="21.648832 : 14.432554 : 1"
       id="perspective1031" />
  </defs>
  <sodipodi:namedview
     id="base"
     pagecolor="#ffffff"
     bordercolor="#666666"
     borderopacity="1.0"
     inkscape:pageopacity="0.0"
     inkscape:pageshadow="2"
     inkscape:zoom="4.0680815"
     inkscape:cx="82.546769"
     inkscape:cy="81.770939"
     inkscape:document-units="mm"
     inkscape:current-layer="layer1"
     showgrid="false"
     units="px"
     inkscape:window-width="1563"
     inkscape:window-height="879"
     inkscape:window-x="45"
     inkscape:window-y="8"
     inkscape:window-maximized="0"
     fit-margin-top="0"
     fit-margin-left="0"
     fit-margin-right="0"
     fit-margin-bottom="0"
     inkscape:snap-global="false" />
  <metadata
     id="metadata831">
    <rdf:RDF>
      <cc:Work
         rdf:about="">
        <dc:format>image/svg+xml</dc:format>
        <dc:type
           rdf:resource="http://purl.org/dc/dcmitype/StillImage" />
        <dc:title />
      </cc:Work>
    </rdf:RDF>
  </metadata>
  <g
     inkscape:label="Layer 1"
     inkscape:groupmode="layer"
     id="layer1"
     transform="translate(188.10942,-117.95572)">
    <rect
       style="opacity:1;fill:#27ae60;fill-opacity:1;stroke:none;stroke-width:0.27094787;stroke-linecap:round;stroke-linejoin:round;stroke-miterlimit:4;stroke-dasharray:none;paint-order:stroke fill markers"
       id="rect900"
       width="43.315872"
       height="43.315872"
       x="-188.10487"
       y="117.96022" />
    <path
       style="fill:#24a159;fill-opacity:1;stroke:none;stroke-width:0.39930841px;stroke-linecap:butt;stroke-linejoin:miter;stroke-opacity:1"
       d="m -167.9599,124.87162 c -1.4094,1.6087 -0.51566,4.11757 1.46928,4.71582 2.47662,1.82084 2.64624,5.90182 0.41809,7.99814 -0.87192,0.90311 -1.90643,1.64867 -2.9294,2.36711 l 5.53652,-0.0165 c 0,0 4.10451,-1.6418 4.35709,-1.6418 0.25258,0 5.11484,-2.08383 5.11484,-2.08383 l 1.57866,-2.27326 0.37887,-0.8209 -3.53618,-3.03101 -2.90472,-2.27327 -2.46271,-1.38921 -3.53618,-1.26292 -3.15732,-0.56832 z"
       id="path925"
       inkscape:connector-curvature="0" />
    <path
       style="fill:#24a159;fill-opacity:1;stroke:none;stroke-width:0.32510507px;stroke-linecap:butt;stroke-linejoin:miter;stroke-opacity:1"
       d="m -157.49002,145.93441 c 2.1004,1.15692 4.60019,0.64746 6.71123,-0.18461 2.01946,-0.59104 4.42976,-0.91686 5.74834,-2.74215 -0.53481,-1.39951 -2.96524,-1.28225 -3.76249,-2.80414 -1.06921,-1.06437 -4.89938,-2.87225 -4.17396,-0.001 0.58209,1.98053 -0.61669,3.86674 -2.42204,4.66037 -0.68687,0.38345 -1.408,0.70043 -2.10108,1.07198 z"
       id="path987"
       inkscape:connector-curvature="0" />
    <path
       style="fill:none;stroke:#000000;stroke-width:0.52916667;stroke-linecap:butt;stroke-linejoin:miter;stroke-opacity:1;stroke-miterlimit:4;stroke-dasharray:none"
       d="m -163.41489,142.44881 c 2.32498,-0.39895 4.67638,-0.94428 6.43724,-2.62346 2.23253,-1.33341 5.41719,-1.92308 7.51683,-0.0135 1.4815,1.13741 3.01104,2.74054 5.02142,2.69165"
       id="path933"
       inkscape:connector-curvature="0" />
    <path
       style="fill:none;stroke:#000000;stroke-width:0.52916667;stroke-linecap:butt;stroke-linejoin:miter;stroke-opacity:1;stroke-miterlimit:4;stroke-dasharray:none"
       d="m -183.48033,132.16565 c 4.7016,-2.33445 8.92799,-5.64685 13.77426,-7.63739 3.94533,-0.26 8.17546,1.04635 11.27676,3.46082 2.21665,1.66442 4.40814,3.37189 6.42855,5.27343"
       id="path917"
       inkscape:connector-curvature="0" />
    <path
       style="fill:#24a159;fill-opacity:1;stroke:none;stroke-width:0.32510507px;stroke-linecap:butt;stroke-linejoin:miter;stroke-opacity:1"
       d="m -147.45751,122.39372 c -1.51959,-0.51505 -2.68256,-1.6521 -3.99489,-2.47005 -1.29043,-0.71325 -2.61919,0.10666 -3.60599,0.9308 -1.35834,1.03286 -0.0447,2.41269 0.7132,3.3136 0.8533,1.28233 -0.73934,2.17569 -1.40434,3.06461 -0.18879,0.75591 1.63845,0.0482 2.23696,-0.0322 1.4647,-0.36373 2.58595,-1.39779 3.65137,-2.39718 0.95826,-0.86925 2.74413,-1.13628 3.46917,-1.85214 -0.28556,-0.3052 -0.78552,-0.24353 -1.06548,-0.55743 z"
       id="path999"
       inkscape:connector-curvature="0" />
    <path
       style="fill:none;stroke:#000000;stroke-width:0.5291667;stroke-linecap:butt;stroke-linejoin:miter;stroke-miterlimit:4;stroke-dasharray:none;stroke-opacity:1"
       d="m -163.98936,123.08329 c 2.20595,-0.47133 4.15264,-1.63047 6.08638,-2.70291 2.39008,-0.88445 5.41255,-1.31384 7.52398,0.4427 0.95814,0.64156 1.91761,1.30926 3.0069,1.71178"
       id="path950"
       inkscape:connector-curvature="0" />
    <path
       style="fill:#24a159;fill-opacity:1;stroke:none;stroke-width:0.32510507px;stroke-linecap:butt;stroke-linejoin:miter;stroke-opacity:1"
       d="m -164.22366,158.81148 2.4627,-0.8209 1.07349,-1.13662 0.18944,-1.01035 -0.18944,-1.57865 -0.88404,-1.32607 -0.37889,-1.07348 0.25258,-1.07348 1.19979,-1.19979 1.57865,-1.07349 1.45236,-0.44201 1.38922,0.31572 1.26293,0.75776 1.19977,0.88405 1.57865,0.88405 1.19978,0.50516 1.38922,0.75775 1.51551,0.44203 -2.84158,1.19978 -2.02068,1.19977 -1.76809,1.7681 -3.22045,2.14696 -2.21012,0.44203 -2.52586,0.12629 -1.45236,-0.12629 z"
       id="path1006"
       inkscape:connector-curvature="0" />
    <path
       style="fill:none;stroke:#000000;stroke-width:0.52916667;stroke-linecap:butt;stroke-linejoin:miter;stroke-opacity:1;stroke-miterlimit:4;stroke-dasharray:none"
       d="m -174.97766,153.04774 c 3.48581,-0.72116 6.47726,-2.60814 9.53522,-4.25362 3.22394,-0.94873 7.18149,-1.92299 10.241,-0.0389 1.78134,1.40707 3.71585,2.51357 5.78317,3.44901"
       id="path983"
       inkscape:connector-curvature="0" />
    <path
       inkscape:connector-curvature="0"
       id="path1013"
       d="m -169.39372,145.56037 c -1.51958,-0.51506 -2.68255,-1.6521 -3.99489,-2.47005 -1.29042,-0.71325 -2.61919,0.10666 -3.60599,0.9308 -1.35834,1.03286 -0.0447,2.41269 0.7132,3.3136 0.8533,1.28233 -0.73934,2.17569 -1.40433,3.06461 -0.1888,0.75591 1.63844,0.0482 2.23695,-0.0322 1.4647,-0.36374 2.58595,-1.3978 3.65137,-2.39718 0.95826,-0.86925 2.74413,-1.13628 3.46917,-1.85214 -0.28556,-0.30521 -0.78552,-0.24354 -1.06548,-0.55743 z"
       style="fill:#24a159;fill-opacity:1;stroke:none;stroke-width:0.32510507px;stroke-linecap:butt;stroke-linejoin:miter;stroke-opacity:1" />
    <path
       inkscape:connector-curvature="0"
       id="path1015"
       d="m -185.92557,146.24994 c 1.78706,-0.54721 3.63846,-1.04985 5.10073,-2.27333 1.89422,-1.00597 4.13038,-1.29654 6.24816,-1.1342 1.50036,0.19934 2.45427,1.5818 3.83114,2.12489 0.47137,0.25946 0.95097,0.50391 1.43723,0.73421"
       style="fill:none;stroke:#000000;stroke-width:0.52916667;stroke-linecap:butt;stroke-linejoin:miter;stroke-opacity:1;stroke-miterlimit:4;stroke-dasharray:none" />
    <path
       sodipodi:type="star"
       style="opacity:0.3;fill:#ffffff;fill-opacity:1;stroke:none;stroke-width:0.26578501;stroke-linecap:round;stroke-linejoin:round;stroke-miterlimit:4;stroke-dasharray:none;paint-order:stroke fill markers"
       id="path1017"
       sodipodi:sides="5"
       sodipodi:cx="-181.13326"
       sodipodi:cy="136.0575"
       sodipodi:r1="1.4892951"
       sodipodi:r2="0.74464756"
       sodipodi:arg1="0.44814498"
       sodipodi:arg2="1.0764635"
       inkscape:flatsided="false"
       inkscape:rounded="0"
       inkscape:randomized="0"
       d="m -179.79102,136.7028 -0.98894,0.0102 -0.55224,0.82044 -0.3153,-0.93738 -0.95094,-0.27168 0.79407,-0.58954 -0.0355,-0.98835 0.80606,0.57303 0.92902,-0.33915 -0.2959,0.94368 z"
       inkscape:transform-center-x="0.061475048"
       inkscape:transform-center-y="0.082472233" />
    <path
       sodipodi:type="star"
       style="opacity:0.2;fill:#ffffff;fill-opacity:1;stroke:none;stroke-width:0.52916664;stroke-linecap:round;stroke-linejoin:round;stroke-miterlimit:4;stroke-dasharray:none;paint-order:stroke fill markers"
       id="path1019"
       sodipodi:sides="5"
       sodipodi:cx="-184.51205"
       sodipodi:cy="156.31985"
       sodipodi:r1="1.5331365"
       sodipodi:r2="0.76656824"
       sodipodi:arg1="0.23684876"
       sodipodi:arg2="0.86516729"
       inkscape:flatsided="false"
       inkscape:rounded="0"
       inkscape:randomized="0"
       d="m -183.02172,156.67959 -0.99321,0.22378 -0.37871,0.94504 -0.51975,-0.87544 -1.01582,-0.0682 0.67199,-0.76483 -0.24909,-0.98716 0.93505,0.40275 0.86187,-0.54195 -0.0941,1.01374 z"
       inkscape:transform-center-x="-0.036590507"
       inkscape:transform-center-y="0.11116404" />
    <path
       sodipodi:type="star"
       style="opacity:0.2;fill:#ffffff;fill-opacity:1;stroke:none;stroke-width:0.52916664;stroke-linecap:round;stroke-linejoin:round;stroke-miterlimit:4;stroke-dasharray:none;paint-order:stroke fill markers"
       id="path1021"
       sodipodi:sides="5"
       sodipodi:cx="-148.84682"
       sodipodi:cy="129.44244"
       sodipodi:r1="1.1651111"
       sodipodi:r2="0.58255559"
       sodipodi:arg1="-0.84781697"
       sodipodi:arg2="-0.21949844"
       inkscape:flatsided="false"
       inkscape:rounded="0"
       inkscape:randomized="0"
       d="m -148.07595,128.5688 -0.20229,0.7468 0.50052,0.59001 -0.77276,0.0384 -0.40646,0.65834 -0.27531,-0.72307 -0.75172,-0.18313 0.60261,-0.48528 -0.0581,-0.77152 0.64774,0.42316 z"
       inkscape:transform-center-x="0.03403122"
       inkscape:transform-center-y="0.078394825" />
    <path
       sodipodi:type="star"
       style="opacity:1;fill:#24a159;fill-opacity:1;stroke:none;stroke-width:0.52916664;stroke-linecap:round;stroke-linejoin:round;stroke-miterlimit:4;stroke-dasharray:none;paint-order:stroke fill markers"
       id="path1023"
       sodipodi:sides="5"
       sodipodi:cx="-147.35648"
       sodipodi:cy="159.50609"
       sodipodi:r1="1.3979824"
       sodipodi:r2="0.69899112"
       sodipodi:arg1="-0.94200004"
       sodipodi:arg2="-0.31368151"
       inkscape:flatsided="false"
       inkscape:rounded="0"
       inkscape:randomized="0"
       d="m -146.53422,158.37549 -0.15737,0.91492 0.66447,0.64831 -0.91877,0.13306 -0.41125,0.83229 -0.41046,-0.83268 -0.91864,-0.13394 0.66509,-0.64768 -0.1565,-0.91507 0.82151,0.4324 z"
       inkscape:transform-center-x="0.00020690401"
       inkscape:transform-center-y="0.1332986" />
    <circle
       style="opacity:0.2;fill:#ffffff;fill-opacity:1;stroke:none;stroke-width:0.52916664;stroke-linecap:round;stroke-linejoin:round;stroke-miterlimit:4;stroke-dasharray:none;paint-order:stroke fill markers"
       id="path1025"
       cx="-183.07312"
       cy="122.09355"
       r="1.4389439" />
    <circle
       style="opacity:0.25;fill:#ffffff;fill-opacity:1;stroke:none;stroke-width:0.52916664;stroke-linecap:round;stroke-linejoin:round;stroke-miterlimit:4;stroke-dasharray:none;paint-order:stroke fill markers"
       id="path1027"
       cx="-169.04341"
       cy="120.91157"
       r="1.1819897" />
    <circle
       style="opacity:1;fill:#24a159;fill-opacity:1;stroke:none;stroke-width:0.52916664;stroke-linecap:round;stroke-linejoin:round;stroke-miterlimit:4;stroke-dasharray:none;paint-order:stroke fill markers"
       id="path1029"
       cx="-165.54884"
       cy="144.8597"
       r="0.77086282" />
    <rect
       style="opacity:0.3;fill:#ffffff;fill-opacity:1;stroke:none;stroke-width:0.25476992;stroke-linecap:round;stroke-linejoin:round;stroke-miterlimit:4;stroke-dasharray:none;paint-order:stroke fill markers"
       id="rect1047"
       width="2.1231244"
       height="1.312163"
       x="-174.0463"
       y="156.78371" />
    <rect
       style="opacity:0.25;fill:#ffffff;fill-opacity:1;stroke:none;stroke-width:0.28506488;stroke-linecap:round;stroke-linejoin:round;stroke-miterlimit:4;stroke-dasharray:none;paint-order:stroke fill markers"
       id="rect1049"
       width="0.99664283"
       height="1.612602"
       x="-147.819"
       y="134.7357" />
  </g>
</svg>
