<?xml version="1.0" encoding="UTF-8" standalone="no"?>
<!-- Created with Inkscape (http://www.inkscape.org/) -->

<svg
   xmlns:dc="http://purl.org/dc/elements/1.1/"
   xmlns:cc="http://creativecommons.org/ns#"
   xmlns:rdf="http://www.w3.org/1999/02/22-rdf-syntax-ns#"
   xmlns:svg="http://www.w3.org/2000/svg"
   xmlns="http://www.w3.org/2000/svg"
   xmlns:sodipodi="http://sodipodi.sourceforge.net/DTD/sodipodi-0.dtd"
   xmlns:inkscape="http://www.inkscape.org/namespaces/inkscape"
   width="42.217556mm"
   height="41.804794mm"
   viewBox="0 0 42.217556 41.804794"
   version="1.1"
   id="svg8"
   inkscape:version="0.92.2 5c3e80d, 2017-08-06"
   sodipodi:docname="town.svg">
  <defs
     id="defs2" />
  <sodipodi:namedview
     id="base"
     pagecolor="#ffffff"
     bordercolor="#666666"
     borderopacity="1.0"
     inkscape:pageopacity="0.0"
     inkscape:pageshadow="2"
     inkscape:zoom="0.79576171"
     inkscape:cx="133.06326"
     inkscape:cy="57.593913"
     inkscape:document-units="mm"
     inkscape:current-layer="layer1"
     showgrid="false"
     inkscape:snap-global="false"
     fit-margin-top="0"
     fit-margin-left="0"
     fit-margin-right="0"
     fit-margin-bottom="0"
     inkscape:window-width="1680"
     inkscape:window-height="939"
     inkscape:window-x="0"
     inkscape:window-y="1"
     inkscape:window-maximized="1" />
  <metadata
     id="metadata5">
    <rdf:RDF>
      <cc:Work
         rdf:about="">
        <dc:format>image/svg+xml</dc:format>
        <dc:type
           rdf:resource="http://purl.org/dc/dcmitype/StillImage" />
        <dc:title></dc:title>
      </cc:Work>
    </rdf:RDF>
  </metadata>
  <g
     inkscape:label="Layer 1"
     inkscape:groupmode="layer"
     id="layer1"
     transform="translate(47.45173,-150.4912)">
    <g
       transform="matrix(-0.99686816,0.07908142,0.07908142,0.99686816,-84.883171,-14.571487)"
       id="g1383">
      <path
         style="fill:#ebe2ba;fill-opacity:1;stroke:#000000;stroke-width:0.26458332px;stroke-linecap:butt;stroke-linejoin:miter;stroke-opacity:1"
         d="m -32.978423,184.22135 0.472472,7.51228 -9.354913,-2.88207 -0.897691,-8.22098 z"
         id="path1351"
         inkscape:connector-curvature="0" />
      <path
         style="fill:#71544c;fill-opacity:1;stroke:#000000;stroke-width:0.26458332px;stroke-linecap:butt;stroke-linejoin:miter;stroke-opacity:1"
         d="m -43.264253,179.73549 0.334086,1.33635 9.822154,3.60814 -0.03341,-0.80181 -10.056016,-4.40995 z"
         id="path1353"
         inkscape:connector-curvature="0" />
      <path
         style="fill:#ece4bc;fill-opacity:1;stroke:#000000;stroke-width:0.26458332px;stroke-linecap:butt;stroke-linejoin:miter;stroke-opacity:1"
         d="m -33.450893,179.87462 4.093938,-5.68824 2.766636,1.16297 2.324021,2.60436 0.618959,8.77886 -8.858612,5.00106 z"
         id="path1355"
         inkscape:connector-curvature="0"
         sodipodi:nodetypes="ccccccc" />
      <path
         style="fill:#d1a345;fill-opacity:1;stroke:#000000;stroke-width:0.26458332px;stroke-linecap:butt;stroke-linejoin:miter;stroke-opacity:1"
         d="m -27.970239,174.25223 1.653647,0.47247 1.086682,1.79539 1.133928,1.32291 0.566964,1.03944 -0.708705,0.47247 -1.181176,-2.03162 -0.850446,-1.22843 -1.086682,-0.75595 -1.181174,0.33073 -1.128023,1.23433 -1.659553,2.92341 -0.708705,2.45684 -0.944941,1.93713 0.472472,-2.07887 0.425222,-1.55915 0.897694,-2.22061 1.55915,-2.78757 z"
         id="path1357"
         inkscape:connector-curvature="0"
         sodipodi:nodetypes="ccccccccccccccccccc" />
      <path
         style="fill:#333333;stroke:#b26745;stroke-width:0.26458332px;stroke-linecap:butt;stroke-linejoin:miter;stroke-opacity:1"
         d="m -40.407812,183.36034 -0.100227,2.08804 1.637028,0.70158 0.11693,-2.52236 z"
         id="path1359"
         inkscape:connector-curvature="0" />
      <path
         style="fill:#a9a2a9;fill-opacity:1;stroke:#000000;stroke-width:0.26458332px;stroke-linecap:butt;stroke-linejoin:miter;stroke-opacity:1"
         d="m -41.82768,186.76802 9.103868,2.52236 0.150339,2.48894 -9.45466,-2.99007 -0.05011,-2.07134 z"
         id="path1361"
         inkscape:connector-curvature="0" />
      <path
         inkscape:connector-curvature="0"
         id="path1363"
         d="m -36.666039,184.29578 -0.100227,2.08804 1.637028,0.70158 0.11693,-2.52236 z"
         style="fill:#333333;stroke:#b26745;stroke-width:0.26458332px;stroke-linecap:butt;stroke-linejoin:miter;stroke-opacity:1" />
      <path
         inkscape:connector-curvature="0"
         id="path1365"
         d="m -32.272794,189.24026 8.569329,-4.59369 0.03341,2.18826 -8.602738,4.82756 -0.250562,-2.47224 z"
         style="fill:#a9a2a9;fill-opacity:1;stroke:#000000;stroke-width:0.26458332px;stroke-linecap:butt;stroke-linejoin:miter;stroke-opacity:1"
         sodipodi:nodetypes="cccccc" />
      <path
         style="fill:#d1a345;fill-opacity:1;stroke:#000000;stroke-width:0.26458332px;stroke-linecap:butt;stroke-linejoin:miter;stroke-opacity:1"
         d="m -43.559381,179.99204 1.226048,-3.23572 1.606399,-2.59858 2.787574,-1.7009 1.039434,-0.89769 7.465031,2.07887 1.464656,0.61421 -2.267855,2.3151 -0.944941,1.79539 -0.897694,2.22061 -0.897694,3.63802 z"
         id="path1367"
         inkscape:connector-curvature="0"
         sodipodi:nodetypes="cccccccccccc" />
      <path
         style="fill:#c3c1bb;fill-opacity:1;stroke:#000000;stroke-width:0.26458332px;stroke-linecap:butt;stroke-linejoin:miter;stroke-opacity:1"
         d="m -36.833082,170.09709 0.167045,2.45554 0.217157,0.56794 0.467719,0.35079 0.751697,0.15034 c 0,0 0.384199,0 0.451017,-0.0501 0.06682,-0.0501 0.400905,-0.33409 0.400905,-0.33409 l 0.35079,-0.20045 0.434313,-0.35079 0.11693,-0.13363 v -0.48443 l -0.100224,-1.73725 -0.751697,0.16704 h -1.252826 l -0.801809,-0.21716 -0.384199,-0.28397 z"
         id="path1369"
         inkscape:connector-curvature="0" />
      <path
         style="fill:#c3c1bb;fill-opacity:1;stroke:#000000;stroke-width:0.26458332px;stroke-linecap:butt;stroke-linejoin:miter;stroke-opacity:1"
         d="m -35.29628,168.56028 -1.520097,0.28398 -0.451017,0.60135 0.01669,0.51784 0.718286,0.61806 0.902036,0.11693 1.069078,0.0334 0.835215,-0.21716 0.334087,-0.26727 0.417611,-0.35079 -0.0167,-0.43431 -0.451016,-0.61806 -0.785104,-0.30068 -0.584652,-0.0668 z"
         id="path1371"
         inkscape:connector-curvature="0" />
      <path
         style="fill:#1a1a1a;stroke:#000000;stroke-width:0.26458332px;stroke-linecap:butt;stroke-linejoin:miter;stroke-opacity:1"
         d="m -34.628106,169.24516 -0.68488,-0.0167 -0.534537,0.0334 -0.334087,0.15034 0.05011,0.26727 0.701582,0.18375 0.668174,0.0835 0.551243,-0.10022 0.23386,-0.16705 -0.150339,-0.23386 -0.384198,-0.16704 z"
         id="path1373"
         inkscape:connector-curvature="0" />
      <path
         style="fill:#71544c;fill-opacity:1;stroke:#000000;stroke-width:0.26458332px;stroke-linecap:butt;stroke-linejoin:miter;stroke-opacity:1"
         d="m -33.041195,184.61316 9.371138,-4.59369 -0.01671,-0.85193 -9.321024,5.01131 z"
         id="path1375"
         inkscape:connector-curvature="0"
         sodipodi:nodetypes="ccccc" />
      <path
         inkscape:connector-curvature="0"
         id="path1377"
         d="m -27.79496,183.29352 0.100227,2.08804 -1.637028,0.70158 -0.551243,-2.05464 z"
         style="fill:#333333;stroke:#b26745;stroke-width:0.26458332px;stroke-linecap:butt;stroke-linejoin:miter;stroke-opacity:1"
         sodipodi:nodetypes="ccccc" />
      <path
         style="fill:#71544c;fill-opacity:1;stroke:#000000;stroke-width:0.26458332px;stroke-linecap:butt;stroke-linejoin:miter;stroke-opacity:1"
         d="m -28.931925,176.06054 0.300678,5.91333 0.835218,-0.46772 -0.534541,-5.87993 z"
         id="path1379"
         inkscape:connector-curvature="0" />
      <path
         style="fill:#71544c;fill-opacity:1;stroke:#000000;stroke-width:0.26458332px;stroke-linecap:butt;stroke-linejoin:miter;stroke-opacity:1"
         d="m -31.354056,179.85242 5.746295,-2.7228 0.400904,0.60135 -6.314244,2.95667 z"
         id="path1381"
         inkscape:connector-curvature="0" />
    </g>
    <g
       id="g1349"
       transform="translate(-9.808475,-13.964607)">
      <path
         style="fill:#f1e8c4;fill-opacity:1;stroke:#000000;stroke-width:0.26458332px;stroke-linecap:butt;stroke-linejoin:miter;stroke-opacity:1"
         d="m -20.345893,172.11831 3.474504,-1.41987 6.431173,2.07134 -2.973373,1.78737 z"
         id="path1313"
         inkscape:connector-curvature="0" />
      <path
         style="fill:#efe7bd;fill-opacity:1;stroke:#000000;stroke-width:0.26458332px;stroke-linecap:butt;stroke-linejoin:miter;stroke-opacity:1"
         d="m -21.314745,177.0628 0.334087,8.81989 7.349912,1.60362 0.668174,-8.68626 -7.349912,-2.60588 z"
         id="path1315"
         inkscape:connector-curvature="0" />
      <path
         style="fill:#9ba494;fill-opacity:1;stroke:#000000;stroke-width:0.26458332px;stroke-linecap:butt;stroke-linejoin:miter;stroke-opacity:1"
         d="m -13.497111,179.60186 -0.200452,7.55036 5.1449383,-1.73725 0.6681738,-7.75082 -0.4677217,-1.73725 -3.9422254,2.73952 z"
         id="path1317"
         inkscape:connector-curvature="0" />
      <path
         style="fill:#af6545;fill-opacity:1;stroke:#000000;stroke-width:0.26458332px;stroke-linecap:butt;stroke-linejoin:miter;stroke-opacity:1"
         d="m -20.479527,172.0849 -3.107008,4.57699 10.757598,3.40769 -0.701583,-5.71289 z"
         id="path1319"
         inkscape:connector-curvature="0" />
      <path
         style="fill:#704837;fill-opacity:1;stroke:#000000;stroke-width:0.26458332px;stroke-linecap:butt;stroke-linejoin:miter;stroke-opacity:1"
         d="m -13.26325,174.55715 3.4410947,-1.96694 2.2049737,3.63737 -2.3386081,2.37202 c 0,0 -2.4388343,1.40316 -2.6058783,1.43657 -0.167043,0.0334 -0.434313,0.0334 -0.434313,0.0334 l -0.601356,-5.54584 z"
         id="path1321"
         inkscape:connector-curvature="0"
         sodipodi:nodetypes="cccccccc" />
      <path
         style="fill:#ac694e;fill-opacity:1;stroke:#000000;stroke-width:0.26458332px;stroke-linecap:butt;stroke-linejoin:miter;stroke-opacity:1"
         d="m -10.110305,172.65285 0.1336349,-0.18793 -4.6897449,-1.74977 -1.436574,-0.43432 -0.300678,0.3675 1.035669,0.56795 4.34313,1.40316 0.601357,0.20045 z"
         id="path1323"
         inkscape:connector-curvature="0"
         sodipodi:nodetypes="ccccccccc" />
      <path
         style="fill:#c3c1bb;fill-opacity:1;stroke:#000000;stroke-width:0.26458332px;stroke-linecap:butt;stroke-linejoin:miter;stroke-opacity:1"
         d="m -17.469587,168.96056 -1.240234,0.0591 -0.519718,0.2953 -0.366164,0.33073 -0.129929,0.35435 0.03543,0.21261 0.637835,0.6024 c 0,0 0.909505,0.0118 0.968564,0.0118 0.05906,0 0.744141,-0.0472 0.803199,-0.0472 0.05906,0 0.956752,-0.22442 0.956752,-0.22442 0,0 0.153553,-0.41341 0.153553,-0.46066 0,-0.0472 -0.08268,-0.50791 -0.08268,-0.50791 l -0.578776,-0.43703 -0.448847,-0.14174 z"
         id="path1325"
         inkscape:connector-curvature="0" />
      <path
         style="fill:none;stroke:#000000;stroke-width:0.26458332px;stroke-linecap:butt;stroke-linejoin:miter;stroke-opacity:1"
         d="m -18.024739,169.5039 -0.437035,0.0591 -0.118118,0.27167 c 0,0 0.295294,0.24805 0.342541,0.25986 0.04725,0.0118 0.507905,-0.1063 0.507905,-0.1063 l 0.283483,-0.0827 0.07087,-0.18899 -0.295294,-0.17717 -0.460658,-0.0354 z"
         id="path1327"
         inkscape:connector-curvature="0" />
      <path
         style="fill:#c3c1bb;fill-opacity:1;stroke:#000000;stroke-width:0.26458332px;stroke-linecap:butt;stroke-linejoin:miter;stroke-opacity:1"
         d="m -19.453962,170.63783 0.165365,0.90951 -0.118118,0.67327 0.496094,0.22442 0.519717,0.18899 0.519717,0.17717 0.53153,-0.15355 c 0,0 0.755952,-0.37797 0.815011,-0.42522 0.05906,-0.0472 0.236235,-0.36617 0.236235,-0.36617 l 0.02362,-0.27167 -0.188988,-0.99218 -1.133928,0.12993 -0.826823,0.16536 -0.578776,-0.0945 -0.377977,-0.28349 z"
         id="path1329"
         inkscape:connector-curvature="0" />
      <path
         style="fill:#71544c;fill-opacity:1;stroke:#000000;stroke-width:0.26458332px;stroke-linecap:butt;stroke-linejoin:miter;stroke-opacity:1"
         d="m -13.772507,180.06361 -0.566965,6.56734 0.685082,0.23623 0.732329,-0.28348 -0.02363,-6.47284 -0.732328,-0.25986 z"
         id="path1331"
         inkscape:connector-curvature="0" />
      <path
         style="fill:#71544c;fill-opacity:1;stroke:#000000;stroke-width:0.26458332px;stroke-linecap:butt;stroke-linejoin:miter;stroke-opacity:1"
         d="m -12.827567,183.81975 4.0814236,-2.1099 -0.09212,0.91727 -4.0837976,1.87771 z"
         id="path1333"
         inkscape:connector-curvature="0"
         sodipodi:nodetypes="ccccc" />
      <path
         style="fill:#b3acb2;fill-opacity:1;stroke:#000000;stroke-width:0.26458332px;stroke-linecap:butt;stroke-linejoin:miter;stroke-opacity:1"
         d="m -13.18192,186.6782 4.1840245,-2.08223 0.6850816,-0.33073 -0.2061842,1.83354 -4.9666689,2.58405 -0.833251,-0.006 -7.009059,-2.07886 -0.08401,-1.80112 6.481932,1.92901 0.803199,0.0473 z"
         id="path1335"
         inkscape:connector-curvature="0"
         sodipodi:nodetypes="ccccccccccc" />
      <path
         style="fill:#71544c;fill-opacity:1;stroke:#000000;stroke-width:0.26458332px;stroke-linecap:butt;stroke-linejoin:miter;stroke-opacity:1"
         d="m -21.875372,177.46503 0.448847,7.25241 0.87407,0.28349 -0.448847,-7.58315 z"
         id="path1337"
         inkscape:connector-curvature="0" />
      <path
         style="fill:#71544c;fill-opacity:1;stroke:#000000;stroke-width:0.26458332px;stroke-linecap:butt;stroke-linejoin:miter;stroke-opacity:1"
         d="m -14.457589,183.81975 -6.260231,-1.81901 v 0.73233 l 6.425596,1.84263 0.118117,-0.75595 -0.448847,-0.0709 z"
         id="path1339"
         inkscape:connector-curvature="0" />
      <path
         style="fill:#1a1a1a;stroke:#8d5840;stroke-width:0.26458332px;stroke-linecap:butt;stroke-linejoin:miter;stroke-opacity:1"
         d="m -19.14318,180.06958 0.03341,1.28623 1.135895,0.33409 0.116931,-1.38646 z"
         id="path1341"
         inkscape:connector-curvature="0" />
      <path
         style="fill:#1a1a1a;stroke:#79503d;stroke-width:0.26458332px;stroke-linecap:butt;stroke-linejoin:miter;stroke-opacity:1"
         d="m -16.570711,180.5206 0.200452,1.43657 1.219418,0.40091 0.150339,-1.57021 z"
         id="path1343"
         inkscape:connector-curvature="0" />
      <path
         style="fill:#71544c;fill-opacity:1;stroke:#000000;stroke-width:0.26458332px;stroke-linecap:butt;stroke-linejoin:miter;stroke-opacity:1"
         d="m -7.550364,176.39462 -0.868626,7.91786 -0.5679477,0.16705 0.8018084,-7.75082 z"
         id="path1345"
         inkscape:connector-curvature="0" />
      <path
         inkscape:connector-curvature="0"
         id="path1347"
         d="m -9.9683851,179.88583 -0.2004519,1.43657 -1.219418,0.60136 0.05011,-1.40316 z"
         style="fill:#1a1a1a;stroke:#79503d;stroke-width:0.26458332px;stroke-linecap:butt;stroke-linejoin:miter;stroke-opacity:1"
         sodipodi:nodetypes="ccccc" />
    </g>
    <g
       id="g1311"
       transform="matrix(-1,0,0,1,-48.963298,-11.304682)">
      <path
         style="fill:#ebe2ba;fill-opacity:1;stroke:#000000;stroke-width:0.26458332px;stroke-linecap:butt;stroke-linejoin:miter;stroke-opacity:1"
         d="m -32.978423,184.22135 0.472472,7.51228 -9.354913,-2.88207 -0.897691,-8.22098 z"
         id="path1279"
         inkscape:connector-curvature="0" />
      <path
         style="fill:#71544c;fill-opacity:1;stroke:#000000;stroke-width:0.26458332px;stroke-linecap:butt;stroke-linejoin:miter;stroke-opacity:1"
         d="m -43.264253,179.73549 0.334086,1.33635 9.822154,3.60814 -0.03341,-0.80181 -10.056016,-4.40995 z"
         id="path1281"
         inkscape:connector-curvature="0" />
      <path
         style="fill:#ece4bc;fill-opacity:1;stroke:#000000;stroke-width:0.26458332px;stroke-linecap:butt;stroke-linejoin:miter;stroke-opacity:1"
         d="m -33.450893,179.87462 4.093938,-5.68824 2.766636,1.16297 2.324021,2.60436 0.618959,8.77886 -8.858612,5.00106 z"
         id="path1283"
         inkscape:connector-curvature="0"
         sodipodi:nodetypes="ccccccc" />
      <path
         style="fill:#d1a345;fill-opacity:1;stroke:#000000;stroke-width:0.26458332px;stroke-linecap:butt;stroke-linejoin:miter;stroke-opacity:1"
         d="m -27.970239,174.25223 1.653647,0.47247 1.086682,1.79539 1.133928,1.32291 0.566964,1.03944 -0.708705,0.47247 -1.181176,-2.03162 -0.850446,-1.22843 -1.086682,-0.75595 -1.181174,0.33073 -1.128023,1.23433 -1.659553,2.92341 -0.708705,2.45684 -0.944941,1.93713 0.472472,-2.07887 0.425222,-1.55915 0.897694,-2.22061 1.55915,-2.78757 z"
         id="path1285"
         inkscape:connector-curvature="0"
         sodipodi:nodetypes="ccccccccccccccccccc" />
      <path
         style="fill:#333333;stroke:#b26745;stroke-width:0.26458332px;stroke-linecap:butt;stroke-linejoin:miter;stroke-opacity:1"
         d="m -40.407812,183.36034 -0.100227,2.08804 1.637028,0.70158 0.11693,-2.52236 z"
         id="path1287"
         inkscape:connector-curvature="0" />
      <path
         style="fill:#a9a2a9;fill-opacity:1;stroke:#000000;stroke-width:0.26458332px;stroke-linecap:butt;stroke-linejoin:miter;stroke-opacity:1"
         d="m -41.82768,186.76802 9.103868,2.52236 0.150339,2.48894 -9.45466,-2.99007 -0.05011,-2.07134 z"
         id="path1289"
         inkscape:connector-curvature="0" />
      <path
         inkscape:connector-curvature="0"
         id="path1291"
         d="m -36.666039,184.29578 -0.100227,2.08804 1.637028,0.70158 0.11693,-2.52236 z"
         style="fill:#333333;stroke:#b26745;stroke-width:0.26458332px;stroke-linecap:butt;stroke-linejoin:miter;stroke-opacity:1" />
      <path
         inkscape:connector-curvature="0"
         id="path1293"
         d="m -32.272794,189.24026 8.569329,-4.59369 0.03341,2.18826 -8.602738,4.82756 -0.250562,-2.47224 z"
         style="fill:#a9a2a9;fill-opacity:1;stroke:#000000;stroke-width:0.26458332px;stroke-linecap:butt;stroke-linejoin:miter;stroke-opacity:1"
         sodipodi:nodetypes="cccccc" />
      <path
         style="fill:#d1a345;fill-opacity:1;stroke:#000000;stroke-width:0.26458332px;stroke-linecap:butt;stroke-linejoin:miter;stroke-opacity:1"
         d="m -43.559381,179.99204 1.226048,-3.23572 1.606399,-2.59858 2.787574,-1.7009 1.039434,-0.89769 7.465031,2.07887 1.464656,0.61421 -2.267855,2.3151 -0.944941,1.79539 -0.897694,2.22061 -0.897694,3.63802 z"
         id="path1295"
         inkscape:connector-curvature="0"
         sodipodi:nodetypes="cccccccccccc" />
      <path
         style="fill:#c3c1bb;fill-opacity:1;stroke:#000000;stroke-width:0.26458332px;stroke-linecap:butt;stroke-linejoin:miter;stroke-opacity:1"
         d="m -36.833082,170.09709 0.167045,2.45554 0.217157,0.56794 0.467719,0.35079 0.751697,0.15034 c 0,0 0.384199,0 0.451017,-0.0501 0.06682,-0.0501 0.400905,-0.33409 0.400905,-0.33409 l 0.35079,-0.20045 0.434313,-0.35079 0.11693,-0.13363 v -0.48443 l -0.100224,-1.73725 -0.751697,0.16704 h -1.252826 l -0.801809,-0.21716 -0.384199,-0.28397 z"
         id="path1297"
         inkscape:connector-curvature="0" />
      <path
         style="fill:#c3c1bb;fill-opacity:1;stroke:#000000;stroke-width:0.26458332px;stroke-linecap:butt;stroke-linejoin:miter;stroke-opacity:1"
         d="m -35.29628,168.56028 -1.520097,0.28398 -0.451017,0.60135 0.01669,0.51784 0.718286,0.61806 0.902036,0.11693 1.069078,0.0334 0.835215,-0.21716 0.334087,-0.26727 0.417611,-0.35079 -0.0167,-0.43431 -0.451016,-0.61806 -0.785104,-0.30068 -0.584652,-0.0668 z"
         id="path1299"
         inkscape:connector-curvature="0" />
      <path
         style="fill:#1a1a1a;stroke:#000000;stroke-width:0.26458332px;stroke-linecap:butt;stroke-linejoin:miter;stroke-opacity:1"
         d="m -34.628106,169.24516 -0.68488,-0.0167 -0.534537,0.0334 -0.334087,0.15034 0.05011,0.26727 0.701582,0.18375 0.668174,0.0835 0.551243,-0.10022 0.23386,-0.16705 -0.150339,-0.23386 -0.384198,-0.16704 z"
         id="path1301"
         inkscape:connector-curvature="0" />
      <path
         style="fill:#71544c;fill-opacity:1;stroke:#000000;stroke-width:0.26458332px;stroke-linecap:butt;stroke-linejoin:miter;stroke-opacity:1"
         d="m -33.041195,184.61316 9.371138,-4.59369 -0.01671,-0.85193 -9.321024,5.01131 z"
         id="path1303"
         inkscape:connector-curvature="0"
         sodipodi:nodetypes="ccccc" />
      <path
         inkscape:connector-curvature="0"
         id="path1305"
         d="m -27.79496,183.29352 0.100227,2.08804 -1.637028,0.70158 -0.551243,-2.05464 z"
         style="fill:#333333;stroke:#b26745;stroke-width:0.26458332px;stroke-linecap:butt;stroke-linejoin:miter;stroke-opacity:1"
         sodipodi:nodetypes="ccccc" />
      <path
         style="fill:#71544c;fill-opacity:1;stroke:#000000;stroke-width:0.26458332px;stroke-linecap:butt;stroke-linejoin:miter;stroke-opacity:1"
         d="m -28.931925,176.06054 0.300678,5.91333 0.835218,-0.46772 -0.534541,-5.87993 z"
         id="path1307"
         inkscape:connector-curvature="0" />
      <path
         style="fill:#71544c;fill-opacity:1;stroke:#000000;stroke-width:0.26458332px;stroke-linecap:butt;stroke-linejoin:miter;stroke-opacity:1"
         d="m -31.354056,179.85242 5.746295,-2.7228 0.400904,0.60135 -6.314244,2.95667 z"
         id="path1309"
         inkscape:connector-curvature="0" />
    </g>
    <g
       id="g993">
      <path
         inkscape:connector-curvature="0"
         id="path872"
         d="m -20.345893,172.11831 3.474504,-1.41987 6.431173,2.07134 -2.973373,1.78737 z"
         style="fill:#f1e8c4;fill-opacity:1;stroke:#000000;stroke-width:0.26458332px;stroke-linecap:butt;stroke-linejoin:miter;stroke-opacity:1" />
      <path
         inkscape:connector-curvature="0"
         id="path884"
         d="m -21.314745,177.0628 0.334087,8.81989 7.349912,1.60362 0.668174,-8.68626 -7.349912,-2.60588 z"
         style="fill:#efe7bd;fill-opacity:1;stroke:#000000;stroke-width:0.26458332px;stroke-linecap:butt;stroke-linejoin:miter;stroke-opacity:1" />
      <path
         inkscape:connector-curvature="0"
         id="path882"
         d="m -13.497111,179.60186 -0.200452,7.55036 5.1449383,-1.73725 0.6681738,-7.75082 -0.4677217,-1.73725 -3.9422254,2.73952 z"
         style="fill:#9ba494;fill-opacity:1;stroke:#000000;stroke-width:0.26458332px;stroke-linecap:butt;stroke-linejoin:miter;stroke-opacity:1" />
      <path
         inkscape:connector-curvature="0"
         id="path846"
         d="m -20.479527,172.0849 -3.107008,4.57699 10.757598,3.40769 -0.701583,-5.71289 z"
         style="fill:#af6545;fill-opacity:1;stroke:#000000;stroke-width:0.26458332px;stroke-linecap:butt;stroke-linejoin:miter;stroke-opacity:1" />
      <path
         sodipodi:nodetypes="cccccccc"
         inkscape:connector-curvature="0"
         id="path848"
         d="m -13.26325,174.55715 3.4410947,-1.96694 2.2049737,3.63737 -2.3386081,2.37202 c 0,0 -2.4388343,1.40316 -2.6058783,1.43657 -0.167043,0.0334 -0.434313,0.0334 -0.434313,0.0334 l -0.601356,-5.54584 z"
         style="fill:#704837;fill-opacity:1;stroke:#000000;stroke-width:0.26458332px;stroke-linecap:butt;stroke-linejoin:miter;stroke-opacity:1" />
      <path
         sodipodi:nodetypes="ccccccccc"
         inkscape:connector-curvature="0"
         id="path850"
         d="m -10.110305,172.65285 0.1336349,-0.18793 -4.6897449,-1.74977 -1.436574,-0.43432 -0.300678,0.3675 1.035669,0.56795 4.34313,1.40316 0.601357,0.20045 z"
         style="fill:#ac694e;fill-opacity:1;stroke:#000000;stroke-width:0.26458332px;stroke-linecap:butt;stroke-linejoin:miter;stroke-opacity:1" />
      <path
         inkscape:connector-curvature="0"
         id="path852"
         d="m -17.469587,168.96056 -1.240234,0.0591 -0.519718,0.2953 -0.366164,0.33073 -0.129929,0.35435 0.03543,0.21261 0.637835,0.6024 c 0,0 0.909505,0.0118 0.968564,0.0118 0.05906,0 0.744141,-0.0472 0.803199,-0.0472 0.05906,0 0.956752,-0.22442 0.956752,-0.22442 0,0 0.153553,-0.41341 0.153553,-0.46066 0,-0.0472 -0.08268,-0.50791 -0.08268,-0.50791 l -0.578776,-0.43703 -0.448847,-0.14174 z"
         style="fill:#c3c1bb;fill-opacity:1;stroke:#000000;stroke-width:0.26458332px;stroke-linecap:butt;stroke-linejoin:miter;stroke-opacity:1" />
      <path
         inkscape:connector-curvature="0"
         id="path854"
         d="m -18.024739,169.5039 -0.437035,0.0591 -0.118118,0.27167 c 0,0 0.295294,0.24805 0.342541,0.25986 0.04725,0.0118 0.507905,-0.1063 0.507905,-0.1063 l 0.283483,-0.0827 0.07087,-0.18899 -0.295294,-0.17717 -0.460658,-0.0354 z"
         style="fill:none;stroke:#000000;stroke-width:0.26458332px;stroke-linecap:butt;stroke-linejoin:miter;stroke-opacity:1" />
      <path
         inkscape:connector-curvature="0"
         id="path856"
         d="m -19.453962,170.63783 0.165365,0.90951 -0.118118,0.67327 0.496094,0.22442 0.519717,0.18899 0.519717,0.17717 0.53153,-0.15355 c 0,0 0.755952,-0.37797 0.815011,-0.42522 0.05906,-0.0472 0.236235,-0.36617 0.236235,-0.36617 l 0.02362,-0.27167 -0.188988,-0.99218 -1.133928,0.12993 -0.826823,0.16536 -0.578776,-0.0945 -0.377977,-0.28349 z"
         style="fill:#c3c1bb;fill-opacity:1;stroke:#000000;stroke-width:0.26458332px;stroke-linecap:butt;stroke-linejoin:miter;stroke-opacity:1" />
      <path
         inkscape:connector-curvature="0"
         id="path858"
         d="m -13.772507,180.06361 -0.566965,6.56734 0.685082,0.23623 0.732329,-0.28348 -0.02363,-6.47284 -0.732328,-0.25986 z"
         style="fill:#71544c;fill-opacity:1;stroke:#000000;stroke-width:0.26458332px;stroke-linecap:butt;stroke-linejoin:miter;stroke-opacity:1" />
      <path
         sodipodi:nodetypes="ccccc"
         inkscape:connector-curvature="0"
         id="path860"
         d="m -12.827567,183.81975 4.0814236,-2.1099 -0.09212,0.91727 -4.0837976,1.87771 z"
         style="fill:#71544c;fill-opacity:1;stroke:#000000;stroke-width:0.26458332px;stroke-linecap:butt;stroke-linejoin:miter;stroke-opacity:1" />
      <path
         sodipodi:nodetypes="ccccccccccc"
         inkscape:connector-curvature="0"
         id="path862"
         d="m -13.18192,186.6782 4.1840245,-2.08223 0.6850816,-0.33073 -0.2061842,1.83354 -4.9666689,2.58405 -0.833251,-0.006 -7.009059,-2.07886 -0.08401,-1.80112 6.481932,1.92901 0.803199,0.0473 z"
         style="fill:#b3acb2;fill-opacity:1;stroke:#000000;stroke-width:0.26458332px;stroke-linecap:butt;stroke-linejoin:miter;stroke-opacity:1" />
      <path
         inkscape:connector-curvature="0"
         id="path864"
         d="m -21.875372,177.46503 0.448847,7.25241 0.87407,0.28349 -0.448847,-7.58315 z"
         style="fill:#71544c;fill-opacity:1;stroke:#000000;stroke-width:0.26458332px;stroke-linecap:butt;stroke-linejoin:miter;stroke-opacity:1" />
      <path
         inkscape:connector-curvature="0"
         id="path866"
         d="m -14.457589,183.81975 -6.260231,-1.81901 v 0.73233 l 6.425596,1.84263 0.118117,-0.75595 -0.448847,-0.0709 z"
         style="fill:#71544c;fill-opacity:1;stroke:#000000;stroke-width:0.26458332px;stroke-linecap:butt;stroke-linejoin:miter;stroke-opacity:1" />
      <path
         inkscape:connector-curvature="0"
         id="path868"
         d="m -19.14318,180.06958 0.03341,1.28623 1.135895,0.33409 0.116931,-1.38646 z"
         style="fill:#1a1a1a;stroke:#8d5840;stroke-width:0.26458332px;stroke-linecap:butt;stroke-linejoin:miter;stroke-opacity:1" />
      <path
         inkscape:connector-curvature="0"
         id="path870"
         d="m -16.570711,180.5206 0.200452,1.43657 1.219418,0.40091 0.150339,-1.57021 z"
         style="fill:#1a1a1a;stroke:#79503d;stroke-width:0.26458332px;stroke-linecap:butt;stroke-linejoin:miter;stroke-opacity:1" />
      <path
         inkscape:connector-curvature="0"
         id="path878"
         d="m -7.550364,176.39462 -0.868626,7.91786 -0.5679477,0.16705 0.8018084,-7.75082 z"
         style="fill:#71544c;fill-opacity:1;stroke:#000000;stroke-width:0.26458332px;stroke-linecap:butt;stroke-linejoin:miter;stroke-opacity:1" />
      <path
         sodipodi:nodetypes="ccccc"
         style="fill:#1a1a1a;stroke:#79503d;stroke-width:0.26458332px;stroke-linecap:butt;stroke-linejoin:miter;stroke-opacity:1"
         d="m -9.9683851,179.88583 -0.2004519,1.43657 -1.219418,0.60136 0.05011,-1.40316 z"
         id="path880"
         inkscape:connector-curvature="0" />
    </g>
    <g
       id="g954"
       transform="translate(0.99747196,0.33249065)">
      <path
         inkscape:connector-curvature="0"
         id="path826"
         d="m -32.978423,184.22135 0.472472,7.51228 -9.354913,-2.88207 -0.897691,-8.22098 z"
         style="fill:#ebe2ba;fill-opacity:1;stroke:#000000;stroke-width:0.26458332px;stroke-linecap:butt;stroke-linejoin:miter;stroke-opacity:1" />
      <path
         inkscape:connector-curvature="0"
         id="path886"
         d="m -43.264253,179.73549 0.334086,1.33635 9.822154,3.60814 -0.03341,-0.80181 -10.056016,-4.40995 z"
         style="fill:#71544c;fill-opacity:1;stroke:#000000;stroke-width:0.26458332px;stroke-linecap:butt;stroke-linejoin:miter;stroke-opacity:1" />
      <path
         sodipodi:nodetypes="ccccccc"
         inkscape:connector-curvature="0"
         id="path828"
         d="m -33.450893,179.87462 4.093938,-5.68824 2.766636,1.16297 2.324021,2.60436 0.618959,8.77886 -8.858612,5.00106 z"
         style="fill:#ece4bc;fill-opacity:1;stroke:#000000;stroke-width:0.26458332px;stroke-linecap:butt;stroke-linejoin:miter;stroke-opacity:1" />
      <path
         sodipodi:nodetypes="ccccccccccccccccccc"
         inkscape:connector-curvature="0"
         id="path832"
         d="m -27.970239,174.25223 1.653647,0.47247 1.086682,1.79539 1.133928,1.32291 0.566964,1.03944 -0.708705,0.47247 -1.181176,-2.03162 -0.850446,-1.22843 -1.086682,-0.75595 -1.181174,0.33073 -1.128023,1.23433 -1.659553,2.92341 -0.708705,2.45684 -0.944941,1.93713 0.472472,-2.07887 0.425222,-1.55915 0.897694,-2.22061 1.55915,-2.78757 z"
         style="fill:#d1a345;fill-opacity:1;stroke:#000000;stroke-width:0.26458332px;stroke-linecap:butt;stroke-linejoin:miter;stroke-opacity:1" />
      <path
         inkscape:connector-curvature="0"
         id="path834"
         d="m -40.407812,183.36034 -0.100227,2.08804 1.637028,0.70158 0.11693,-2.52236 z"
         style="fill:#333333;stroke:#b26745;stroke-width:0.26458332px;stroke-linecap:butt;stroke-linejoin:miter;stroke-opacity:1" />
      <path
         inkscape:connector-curvature="0"
         id="path838"
         d="m -41.82768,186.76802 9.103868,2.52236 0.150339,2.48894 -9.45466,-2.99007 -0.05011,-2.07134 z"
         style="fill:#a9a2a9;fill-opacity:1;stroke:#000000;stroke-width:0.26458332px;stroke-linecap:butt;stroke-linejoin:miter;stroke-opacity:1" />
      <path
         style="fill:#333333;stroke:#b26745;stroke-width:0.26458332px;stroke-linecap:butt;stroke-linejoin:miter;stroke-opacity:1"
         d="m -36.666039,184.29578 -0.100227,2.08804 1.637028,0.70158 0.11693,-2.52236 z"
         id="path874"
         inkscape:connector-curvature="0" />
      <path
         sodipodi:nodetypes="cccccc"
         style="fill:#a9a2a9;fill-opacity:1;stroke:#000000;stroke-width:0.26458332px;stroke-linecap:butt;stroke-linejoin:miter;stroke-opacity:1"
         d="m -32.272794,189.24026 8.569329,-4.59369 0.03341,2.18826 -8.602738,4.82756 -0.250562,-2.47224 z"
         id="path876"
         inkscape:connector-curvature="0" />
      <path
         sodipodi:nodetypes="cccccccccccc"
         inkscape:connector-curvature="0"
         id="path830"
         d="m -43.559381,179.99204 1.226048,-3.23572 1.606399,-2.59858 2.787574,-1.7009 1.039434,-0.89769 7.465031,2.07887 1.464656,0.61421 -2.267855,2.3151 -0.944941,1.79539 -0.897694,2.22061 -0.897694,3.63802 z"
         style="fill:#d1a345;fill-opacity:1;stroke:#000000;stroke-width:0.26458332px;stroke-linecap:butt;stroke-linejoin:miter;stroke-opacity:1" />
      <path
         inkscape:connector-curvature="0"
         id="path844"
         d="m -36.833082,170.09709 0.167045,2.45554 0.217157,0.56794 0.467719,0.35079 0.751697,0.15034 c 0,0 0.384199,0 0.451017,-0.0501 0.06682,-0.0501 0.400905,-0.33409 0.400905,-0.33409 l 0.35079,-0.20045 0.434313,-0.35079 0.11693,-0.13363 v -0.48443 l -0.100224,-1.73725 -0.751697,0.16704 h -1.252826 l -0.801809,-0.21716 -0.384199,-0.28397 z"
         style="fill:#c3c1bb;fill-opacity:1;stroke:#000000;stroke-width:0.26458332px;stroke-linecap:butt;stroke-linejoin:miter;stroke-opacity:1" />
      <path
         inkscape:connector-curvature="0"
         id="path840"
         d="m -35.29628,168.56028 -1.520097,0.28398 -0.451017,0.60135 0.01669,0.51784 0.718286,0.61806 0.902036,0.11693 1.069078,0.0334 0.835215,-0.21716 0.334087,-0.26727 0.417611,-0.35079 -0.0167,-0.43431 -0.451016,-0.61806 -0.785104,-0.30068 -0.584652,-0.0668 z"
         style="fill:#c3c1bb;fill-opacity:1;stroke:#000000;stroke-width:0.26458332px;stroke-linecap:butt;stroke-linejoin:miter;stroke-opacity:1" />
      <path
         inkscape:connector-curvature="0"
         id="path842"
         d="m -34.628106,169.24516 -0.68488,-0.0167 -0.534537,0.0334 -0.334087,0.15034 0.05011,0.26727 0.701582,0.18375 0.668174,0.0835 0.551243,-0.10022 0.23386,-0.16705 -0.150339,-0.23386 -0.384198,-0.16704 z"
         style="fill:#1a1a1a;stroke:#000000;stroke-width:0.26458332px;stroke-linecap:butt;stroke-linejoin:miter;stroke-opacity:1" />
      <path
         sodipodi:nodetypes="ccccc"
         inkscape:connector-curvature="0"
         id="path888"
         d="m -33.041195,184.61316 9.371138,-4.59369 -0.01671,-0.85193 -9.321024,5.01131 z"
         style="fill:#71544c;fill-opacity:1;stroke:#000000;stroke-width:0.26458332px;stroke-linecap:butt;stroke-linejoin:miter;stroke-opacity:1" />
      <path
         sodipodi:nodetypes="ccccc"
         style="fill:#333333;stroke:#b26745;stroke-width:0.26458332px;stroke-linecap:butt;stroke-linejoin:miter;stroke-opacity:1"
         d="m -27.79496,183.29352 0.100227,2.08804 -1.637028,0.70158 -0.551243,-2.05464 z"
         id="path890"
         inkscape:connector-curvature="0" />
      <path
         inkscape:connector-curvature="0"
         id="path892"
         d="m -28.931925,176.06054 0.300678,5.91333 0.835218,-0.46772 -0.534541,-5.87993 z"
         style="fill:#71544c;fill-opacity:1;stroke:#000000;stroke-width:0.26458332px;stroke-linecap:butt;stroke-linejoin:miter;stroke-opacity:1" />
      <path
         inkscape:connector-curvature="0"
         id="path894"
         d="m -31.354056,179.85242 5.746295,-2.7228 0.400904,0.60135 -6.314244,2.95667 z"
         style="fill:#71544c;fill-opacity:1;stroke:#000000;stroke-width:0.26458332px;stroke-linecap:butt;stroke-linejoin:miter;stroke-opacity:1" />
    </g>
  </g>
</svg>
