<?xml version="1.0" encoding="UTF-8" standalone="no"?>
<!-- Created with Inkscape (http://www.inkscape.org/) -->

<svg
   xmlns:dc="http://purl.org/dc/elements/1.1/"
   xmlns:cc="http://creativecommons.org/ns#"
   xmlns:rdf="http://www.w3.org/1999/02/22-rdf-syntax-ns#"
   xmlns:svg="http://www.w3.org/2000/svg"
   xmlns="http://www.w3.org/2000/svg"
   xmlns:sodipodi="http://sodipodi.sourceforge.net/DTD/sodipodi-0.dtd"
   xmlns:inkscape="http://www.inkscape.org/namespaces/inkscape"
   width="163.64471"
   height="163.64471"
   viewBox="0 0 43.297663 43.297663"
   version="1.1"
   id="svg834"
   inkscape:version="0.92.3 (2405546, 2018-03-11)"
   sodipodi:docname="woods.svg">
  <defs
     id="defs828" />
  <sodipodi:namedview
     id="base"
     pagecolor="#ffffff"
     bordercolor="#666666"
     borderopacity="1.0"
     inkscape:pageopacity="0.0"
     inkscape:pageshadow="2"
     inkscape:zoom="3.6405054"
     inkscape:cx="166.151"
     inkscape:cy="132.36929"
     inkscape:document-units="mm"
     inkscape:current-layer="layer1"
     showgrid="false"
     units="px"
     inkscape:window-width="1680"
     inkscape:window-height="921"
     inkscape:window-x="240"
     inkscape:window-y="84"
     inkscape:window-maximized="0"
     fit-margin-top="0"
     fit-margin-left="0"
     fit-margin-right="0"
     fit-margin-bottom="0" />
  <metadata
     id="metadata831">
    <rdf:RDF>
      <cc:Work
         rdf:about="">
        <dc:format>image/svg+xml</dc:format>
        <dc:type
           rdf:resource="http://purl.org/dc/dcmitype/StillImage" />
        <dc:title />
      </cc:Work>
    </rdf:RDF>
  </metadata>
  <g
     inkscape:label="Layer 1"
     inkscape:groupmode="layer"
     id="layer1"
     transform="translate(188.10942,-117.95572)">
    <g
       id="g6979"
       transform="matrix(2.5650881,0,0,2.5650881,77.187544,-467.00499)">
      <g
         transform="matrix(0.26458333,0,0,0.26458333,-188.10942,117.95572)"
         id="use6977">
        <path
           style="fill:#24a159;stroke:none"
           inkscape:connector-curvature="0"
           id="path14574"
           d="m 360,480 v -4 h -4 v 4 h 4 m 24,-60 h -4 v 4 h 4 v -4 m -16,52 h 8 v -8 h -8 v 8 m -20,-8 v -4 h -4 v 4 h 4 m 8,-8 v -4 h -4 v 4 h 4 m -4,-20 v 4 h 4 v -4 h -4 m -24,-4 h 4 v -4 h -4 z" />
        <path
           style="fill:#27ae60;stroke:none"
           inkscape:connector-curvature="0"
           id="path14576"
           d="m 320,416 v 64 h 36 v -4 h 4 v 4 h 24 v -56 h -4 v -4 h 4 v -4 h -64 m 56,16 v -4 h 4 v 4 h -4 m -40,0 h 8 v 8 h -8 v -8 m -4,0 h -4 v -4 h 4 v 4 m 0,12 h 4 v 4 h -4 v -4 m 20,-4 v -4 h 4 v 4 h -4 m 0,-16 v 4 h -4 v -4 h 4 m 4,28 v 4 h -4 v -4 h 4 m -8,8 v 4 h -4 v -4 h 4 m 16,4 h -4 v -4 h 4 v 4 m -36,4 h -4 v -4 h 4 v 4 m 48,4 h -8 v -8 h 8 z" />
        <path
           style="fill:#29b865;stroke:none"
           inkscape:connector-curvature="0"
           id="path14578"
           d="m 324,468 h 4 v -4 h -4 v 4 m 36,-4 h 4 v -4 h -4 v 4 m -8,-36 v -4 h -4 v 4 h 4 m -16,16 h -4 v 4 h 4 v -4 m 8,-12 h -8 v 8 h 8 v -8 m 32,-4 v 4 h 4 v -4 z" />
      </g>
    </g>
    <g
       id="g6983"
       transform="matrix(2.5650881,0,0,2.5650881,77.187544,-467.00499)">
      <g
         transform="matrix(0.26458333,0,0,0.26458333,-188.10942,117.95572)"
         id="use6981">
        <path
           style="fill:#000000;fill-opacity:0.10196078;stroke:none"
           inkscape:connector-curvature="0"
           id="path14608"
           d="m 364.45,457.25 q -1.2,-0.25 -2.4,-0.6 -1.65,1.25 -1.65,2.9 0,2.15 2.75,3.6 2.8,1.5 6.75,1.5 3.95,0 6.7,-1.5 2.8,-1.45 2.8,-3.6 0,-1.65 -1.65,-2.9 -1.2,0.35 -2.4,0.6 -0.25,1.75 -1.55,3.05 -0.05,0 -0.05,0.05 -1.6,1.6 -3.85,1.6 -2.3,0 -3.9,-1.6 -1.3,-1.3 -1.55,-3.1 z" />
        <path
           style="fill:#115f32;stroke:none"
           inkscape:connector-curvature="0"
           id="path14610"
           d="m 370.6,417.15 q -0.7,-0.3 -1.4,0 -0.7,0.25 -1.05,0.9 l -5.25,9.35 q -0.3,0.55 -0.2,1.25 0.05,0.65 0.55,1.15 l 0.95,0.95 -4.65,9.4 q -0.25,0.55 -0.15,1.15 0.05,0.6 0.5,1.05 l 1.15,1.25 -2.95,5.05 v -0.05 q -1.7,2.75 -0.8,4.7 0.6,2 3.7,3 h -0.05 q 0.55,0.2 1.1,0.35 1.2,0.35 2.4,0.6 0.25,1.8 1.55,3.1 1.6,1.6 3.9,1.6 2.25,0 3.85,-1.6 0,-0.05 0.05,-0.05 1.3,-1.3 1.55,-3.05 1.2,-0.25 2.4,-0.6 0.75,-0.2 1.55,-0.5 2.55,-0.95 3.15,-2.8 0.8,-1.7 -0.4,-4.15 -0.05,-0.1 -0.05,-0.15 l -3.2,-5.45 1.15,-1.25 q 0.4,-0.45 0.5,-1.05 0.05,-0.6 -0.2,-1.15 l -4.6,-9.4 0.95,-0.95 q 0.45,-0.5 0.55,-1.15 0.05,-0.7 -0.25,-1.25 l -5.25,-9.35 q -0.35,-0.65 -1.05,-0.9 m -5.95,11.2 1.35,-2.35 3.9,-7 3.95,7 1.3,2.35 -1.95,1.95 4.15,8.35 1.1,2.35 -2.15,2.35 3.95,6.7 q 1.5,3.05 -1.65,4.2 -2.6,0.95 -5.2,1.35 v 0.85 q 0,1.45 -1.05,2.45 -1,1.05 -2.45,1.05 -1.45,0 -2.5,-1.05 -1,-1 -1,-2.45 v -0.85 q -2.4,-0.35 -4.8,-1.2 -3.95,-1.3 -1.8,-4.75 l 3.7,-6.3 -2.15,-2.35 1.15,-2.35 4.1,-8.35 z" />
        <path
           style="fill:#bb8044;stroke:none"
           inkscape:connector-curvature="0"
           id="path14612"
           d="m 373.4,455.6 q -3.5,0.5 -7,0 v 0.85 q 0,1.45 1,2.45 1.05,1.05 2.5,1.05 1.45,0 2.45,-1.05 1.05,-1 1.05,-2.45 z" />
        <path
           style="fill:#1b914d;stroke:none"
           inkscape:connector-curvature="0"
           id="path14614"
           d="m 359.8,449.65 q -2.15,3.45 1.8,4.75 2.4,0.85 4.8,1.2 3.5,0.5 7,0 2.6,-0.4 5.2,-1.35 3.15,-1.15 1.65,-4.2 l -3.95,-6.7 q -6.55,2.8 -12.8,0 l -3.7,6.3 M 366,426 q 4.05,0.95 7.85,0 l -3.95,-7 -3.9,7 m 7.2,4.3 q -3.05,1.55 -6.6,0 l -4.1,8.35 q 7.55,2.05 14.85,0 z" />
        <path
           style="fill:#198a49;stroke:none"
           inkscape:connector-curvature="0"
           id="path14616"
           d="m 376.3,443.35 2.15,-2.35 -1.1,-2.35 q -7.3,2.05 -14.85,0 l -1.15,2.35 2.15,2.35 q 6.25,2.8 12.8,0 m -9.7,-13.05 q 3.55,1.55 6.6,0 l 1.95,-1.95 -1.3,-2.35 q -3.8,0.95 -7.85,0 l -1.35,2.35 z" />
      </g>
    </g>
    <g
       id="g6987"
       transform="matrix(2.5650881,0,0,2.5650881,77.187544,-467.00499)">
      <g
         transform="matrix(0.26458333,0,0,0.26458333,-188.10942,117.95572)"
         id="use6985">
        <path
           style="fill:#000000;fill-opacity:0.10196078;stroke:none"
           inkscape:connector-curvature="0"
           id="path14562"
           d="m 342.75,455.65 q -1.2,0.35 -2.4,0.6 -0.25,1.75 -1.55,3.05 -0.05,0 -0.05,0.05 -1.6,1.6 -3.85,1.6 -2.3,0 -3.9,-1.6 -1.3,-1.3 -1.55,-3.1 -1.2,-0.25 -2.4,-0.6 -1.65,1.25 -1.65,2.9 0,2.15 2.75,3.6 2.8,1.5 6.75,1.5 3.95,0 6.7,-1.5 2.8,-1.45 2.8,-3.6 0,-1.65 -1.65,-2.9 z" />
        <path
           style="fill:#115f32;stroke:none"
           inkscape:connector-curvature="0"
           id="path14564"
           d="m 323.1,447.6 q -1.7,2.75 -0.8,4.7 0.6,2 3.7,3 h -0.05 q 0.55,0.2 1.1,0.35 1.2,0.35 2.4,0.6 0.25,1.8 1.55,3.1 1.6,1.6 3.9,1.6 2.25,0 3.85,-1.6 0,-0.05 0.05,-0.05 1.3,-1.3 1.55,-3.05 1.2,-0.25 2.4,-0.6 0.75,-0.2 1.55,-0.5 2.55,-0.95 3.15,-2.8 0.8,-1.7 -0.4,-4.15 -0.05,-0.1 -0.05,-0.15 l -3.2,-5.45 1.15,-1.25 q 0.4,-0.45 0.5,-1.05 0.05,-0.6 -0.2,-1.15 l -4.6,-9.4 0.95,-0.95 q 0.45,-0.5 0.55,-1.15 0.05,-0.7 -0.25,-1.25 l -5.25,-9.35 q -0.35,-0.65 -1.05,-0.9 -0.7,-0.3 -1.4,0 -0.7,0.25 -1.05,0.9 l -5.25,9.35 q -0.3,0.55 -0.2,1.25 0.05,0.65 0.55,1.15 l 0.95,0.95 -4.65,9.4 q -0.25,0.55 -0.15,1.15 0.05,0.6 0.5,1.05 l 1.15,1.25 -2.95,5.05 v -0.05 m 15.75,-22.6 1.3,2.35 -1.95,1.95 4.15,8.35 1.1,2.35 -2.15,2.35 3.95,6.7 q 1.5,3.05 -1.65,4.2 -2.6,0.95 -5.2,1.35 v 0.85 q 0,1.45 -1.05,2.45 -1,1.05 -2.45,1.05 -1.45,0 -2.5,-1.05 -1,-1 -1,-2.45 v -0.85 q -2.4,-0.35 -4.8,-1.2 -3.95,-1.3 -1.8,-4.75 l 3.7,-6.3 -2.15,-2.35 1.15,-2.35 4.1,-8.35 -1.95,-1.95 1.35,-2.35 3.9,-7 z" />
        <path
           style="fill:#bb8044;stroke:none"
           inkscape:connector-curvature="0"
           id="path14566"
           d="m 338.4,455.45 v -0.85 q -3.5,0.5 -7,0 v 0.85 q 0,1.45 1,2.45 1.05,1.05 2.5,1.05 1.45,0 2.45,-1.05 1.05,-1 1.05,-2.45 z" />
        <path
           style="fill:#1b914d;stroke:none"
           inkscape:connector-curvature="0"
           id="path14568"
           d="m 341.3,442.35 q -6.55,2.8 -12.8,0 l -3.7,6.3 q -2.15,3.45 1.8,4.75 2.4,0.85 4.8,1.2 3.5,0.5 7,0 2.6,-0.4 5.2,-1.35 3.15,-1.15 1.65,-4.2 l -3.95,-6.7 m -9.7,-13.05 -4.1,8.35 q 7.55,2.05 14.85,0 l -4.15,-8.35 q -3.05,1.55 -6.6,0 M 331,425 q 4.05,0.95 7.85,0 l -3.95,-7 z" />
        <path
           style="fill:#198a49;stroke:none"
           inkscape:connector-curvature="0"
           id="path14570"
           d="m 327.5,437.65 -1.15,2.35 2.15,2.35 q 6.25,2.8 12.8,0 l 2.15,-2.35 -1.1,-2.35 q -7.3,2.05 -14.85,0 m 12.65,-10.3 -1.3,-2.35 q -3.8,0.95 -7.85,0 l -1.35,2.35 1.95,1.95 q 3.55,1.55 6.6,0 z" />
      </g>
    </g>
    <g
       id="g6991"
       transform="matrix(2.5650881,0,0,2.5650881,77.187544,-467.00499)">
      <g
         transform="matrix(0.26458333,0,0,0.26458333,-188.10942,117.95572)"
         id="use6989">
        <path
           style="fill:#000000;fill-opacity:0.10196078;stroke:none"
           inkscape:connector-curvature="0"
           id="path14624"
           d="m 349.25,443 q -0.3,-0.35 -0.6,-0.7 -1.55,1.4 -1.55,3.2 0,2.2 2.05,3.75 2.05,1.55 4.95,1.55 2.9,0 4.95,-1.55 2.05,-1.55 2.05,-3.75 0,-1.8 -1.55,-3.15 -0.2,0.3 -0.5,0.65 H 359 q -0.6,0.6 -1.2,1.05 0,1.6 -1.05,2.75 -0.05,0.15 -0.15,0.25 -1,1.05 -2.5,1.15 h -0.05 q -1.55,0 -2.6,-1.2 -1,-1.25 -1.05,-2.95 -0.65,-0.45 -1.2,-1.05 z" />
      </g>
    </g>
    <g
       id="g6995"
       transform="matrix(2.5650881,0,0,2.5650881,77.187544,-467.00499)">
      <g
         transform="matrix(0.26458333,0,0,0.26458333,-188.10942,117.95572)"
         id="use6993">
        <path
           style="fill:#115f32;stroke:none"
           inkscape:connector-curvature="0"
           id="path14628"
           d="m 355.85,419.05 q -0.35,-0.65 -1.05,-0.9 -0.7,-0.3 -1.4,0 -0.7,0.25 -1.05,0.9 l -4.65,8.25 q -0.3,0.55 -0.2,1.25 0.05,0.65 0.55,1.15 l 0.75,0.75 -3.3,7.4 q -0.05,0 -0.05,0.05 -1.5,3.45 2.05,5.4 0.05,0.05 0.15,0.1 1.05,0.45 2.1,0.75 0.05,1.8 1.3,3.05 1.25,1.25 3.1,1.25 1.8,0 3.05,-1.25 0.05,-0.05 0.1,-0.1 1.25,-1.25 1.25,-3 1,-0.3 2,-0.7 0.05,0 0.1,-0.05 3.65,-1.85 2.2,-5.1 0,-0.05 0,-0.1 l -3.4,-7.7 0.75,-0.8 q 0.45,-0.5 0.55,-1.15 0.05,-0.65 -0.25,-1.2 l -4.65,-8.25 m 1.75,7.15 1.15,2.05 -1.7,1.75 3.95,8.95 q 0.65,1.65 -1.25,2.6 -1.6,0.7 -3.2,1 v 1.5 q 0,1 -0.75,1.7 -0.65,0.7 -1.65,0.7 -1,0 -1.7,-0.7 -0.7,-0.7 -0.7,-1.7 v -1.45 q -1.65,-0.3 -3.3,-1.05 -1.9,-1.05 -1.15,-2.9 l 3.9,-8.65 -1.75,-1.75 1.2,-2.05 3.45,-6.2 z" />
        <path
           style="fill:#1b914d;stroke:none"
           inkscape:connector-curvature="0"
           id="path14630"
           d="m 350.65,426.2 q 3.6,0.85 6.95,0 l -3.5,-6.2 -3.45,6.2 m -2.2,15.35 q 1.65,0.75 3.3,1.05 2.35,0.4 4.8,-0.05 1.6,-0.3 3.2,-1 1.9,-0.95 1.25,-2.6 L 357.05,430 q -2.7,1.35 -5.85,0 l -3.9,8.65 q -0.75,1.85 1.15,2.9 z" />
        <path
           style="fill:#bb8044;stroke:none"
           inkscape:connector-curvature="0"
           id="path14632"
           d="m 351.75,442.6 v 1.45 q 0,1 0.7,1.7 0.7,0.7 1.7,0.7 1,0 1.65,-0.7 0.75,-0.7 0.75,-1.7 v -1.5 q -2.45,0.45 -4.8,0.05 z" />
        <path
           style="fill:#198a49;stroke:none"
           inkscape:connector-curvature="0"
           id="path14634"
           d="m 358.75,428.25 -1.15,-2.05 q -3.35,0.85 -6.95,0 l -1.2,2.05 1.75,1.75 q 3.15,1.35 5.85,0 z" />
      </g>
    </g>
    <g
       id="g6999"
       transform="matrix(2.5650881,0,0,2.5650881,77.187544,-467.00499)">
      <g
         transform="matrix(0.26458333,0,0,0.26458333,-188.10942,117.95572)"
         id="use6997">
        <path
           style="fill:#000000;fill-opacity:0.10196078;stroke:none"
           inkscape:connector-curvature="0"
           id="path14582"
           d="m 367.25,463 q -0.3,-0.35 -0.6,-0.7 -1.55,1.4 -1.55,3.2 0,2.2 2.05,3.75 2.05,1.55 4.95,1.55 2.9,0 4.95,-1.55 2.05,-1.55 2.05,-3.75 0,-1.8 -1.55,-3.15 -0.2,0.3 -0.5,0.65 H 377 q -0.6,0.6 -1.2,1.05 0,1.6 -1.05,2.75 -0.05,0.15 -0.15,0.25 -1,1.05 -2.5,1.15 h -0.05 q -1.55,0 -2.6,-1.2 -1,-1.25 -1.05,-2.95 -0.65,-0.45 -1.2,-1.05 z" />
      </g>
    </g>
    <g
       id="g7003"
       transform="matrix(2.5650881,0,0,2.5650881,77.187544,-467.00499)">
      <g
         transform="matrix(0.26458333,0,0,0.26458333,-188.10942,117.95572)"
         id="use7001">
        <path
           style="fill:#115f32;stroke:none"
           inkscape:connector-curvature="0"
           id="path14586"
           d="m 371.4,438.15 q -0.7,0.25 -1.05,0.9 l -4.65,8.25 q -0.3,0.55 -0.2,1.25 0.05,0.65 0.55,1.15 l 0.75,0.75 -3.3,7.4 q -0.05,0 -0.05,0.05 -1.5,3.45 2.05,5.4 0.05,0.05 0.15,0.1 1.05,0.45 2.1,0.75 0.05,1.8 1.3,3.05 1.25,1.25 3.1,1.25 1.8,0 3.05,-1.25 0.05,-0.05 0.1,-0.1 1.25,-1.25 1.25,-3 1,-0.3 2,-0.7 0.05,0 0.1,-0.05 3.65,-1.85 2.2,-5.1 0,-0.05 0,-0.1 l -3.4,-7.7 0.75,-0.8 q 0.45,-0.5 0.55,-1.15 0.05,-0.65 -0.25,-1.2 l -4.65,-8.25 q -0.35,-0.65 -1.05,-0.9 -0.7,-0.3 -1.4,0 m 4.2,8.05 1.15,2.05 -1.7,1.75 3.95,8.95 q 0.65,1.65 -1.25,2.6 -1.6,0.7 -3.2,1 v 1.5 q 0,1 -0.75,1.7 -0.65,0.7 -1.65,0.7 -1,0 -1.7,-0.7 -0.7,-0.7 -0.7,-1.7 v -1.45 q -1.65,-0.3 -3.3,-1.05 -1.9,-1.05 -1.15,-2.9 l 3.9,-8.65 -1.75,-1.75 1.2,-2.05 3.45,-6.2 z" />
        <path
           style="fill:#1b914d;stroke:none"
           inkscape:connector-curvature="0"
           id="path14588"
           d="m 368.65,446.2 q 3.6,0.85 6.95,0 l -3.5,-6.2 -3.45,6.2 m 1.1,16.4 q 2.35,0.4 4.8,-0.05 1.6,-0.3 3.2,-1 1.9,-0.95 1.25,-2.6 L 375.05,450 q -2.7,1.35 -5.85,0 l -3.9,8.65 q -0.75,1.85 1.15,2.9 1.65,0.75 3.3,1.05 z" />
        <path
           style="fill:#bb8044;stroke:none"
           inkscape:connector-curvature="0"
           id="path14590"
           d="m 374.55,462.55 q -2.45,0.45 -4.8,0.05 v 1.45 q 0,1 0.7,1.7 0.7,0.7 1.7,0.7 1,0 1.65,-0.7 0.75,-0.7 0.75,-1.7 z" />
        <path
           style="fill:#198a49;stroke:none"
           inkscape:connector-curvature="0"
           id="path14592"
           d="m 376.75,448.25 -1.15,-2.05 q -3.35,0.85 -6.95,0 l -1.2,2.05 1.75,1.75 q 3.15,1.35 5.85,0 z" />
      </g>
    </g>
    <g
       id="g7007"
       transform="matrix(2.5650881,0,0,2.5650881,77.187544,-467.00499)">
      <g
         transform="matrix(0.26458333,0,0,0.26458333,-188.10942,117.95572)"
         id="use7005">
        <path
           style="fill:#000000;fill-opacity:0.10196078;stroke:none"
           inkscape:connector-curvature="0"
           id="path14596"
           d="m 361.8,474.3 q -0.05,0 -0.05,0.05 -1.6,1.6 -3.85,1.6 -2.3,0 -3.9,-1.6 -1.3,-1.3 -1.55,-3.1 -1.2,-0.25 -2.4,-0.6 -1.65,1.25 -1.65,2.9 0,2.15 2.75,3.6 2.8,1.5 6.75,1.5 3.95,0 6.7,-1.5 2.8,-1.45 2.8,-3.6 0,-1.65 -1.65,-2.9 -1.2,0.35 -2.4,0.6 -0.25,1.75 -1.55,3.05 z" />
        <path
           style="fill:#115f32;stroke:none"
           inkscape:connector-curvature="0"
           id="path14598"
           d="m 365.15,442.65 q 0.05,-0.7 -0.25,-1.25 l -5.25,-9.35 q -0.35,-0.65 -1.05,-0.9 -0.7,-0.3 -1.4,0 -0.7,0.25 -1.05,0.9 l -5.25,9.35 q -0.3,0.55 -0.2,1.25 0.05,0.65 0.55,1.15 l 0.95,0.95 -4.65,9.4 q -0.25,0.55 -0.15,1.15 0.05,0.6 0.5,1.05 l 1.15,1.25 -2.95,5.05 v -0.05 q -1.7,2.75 -0.8,4.7 0.6,2 3.7,3 h -0.05 q 0.55,0.2 1.1,0.35 1.2,0.35 2.4,0.6 0.25,1.8 1.55,3.1 1.6,1.6 3.9,1.6 2.25,0 3.85,-1.6 0,-0.05 0.05,-0.05 1.3,-1.3 1.55,-3.05 1.2,-0.25 2.4,-0.6 0.75,-0.2 1.55,-0.5 2.55,-0.95 3.15,-2.8 0.8,-1.7 -0.4,-4.15 -0.05,-0.1 -0.05,-0.15 l -3.2,-5.45 1.15,-1.25 q 0.4,-0.45 0.5,-1.05 0.05,-0.6 -0.2,-1.15 l -4.6,-9.4 0.95,-0.95 q 0.45,-0.5 0.55,-1.15 m -12.5,-0.3 1.35,-2.35 3.9,-7 3.95,7 1.3,2.35 -1.95,1.95 4.15,8.35 1.1,2.35 -2.15,2.35 3.95,6.7 q 1.5,3.05 -1.65,4.2 -2.6,0.95 -5.2,1.35 v 0.85 q 0,1.45 -1.05,2.45 -1,1.05 -2.45,1.05 -1.45,0 -2.5,-1.05 -1,-1 -1,-2.45 v -0.85 q -2.4,-0.35 -4.8,-1.2 -3.95,-1.3 -1.8,-4.75 l 3.7,-6.3 -2.15,-2.35 1.15,-2.35 4.1,-8.35 z" />
        <path
           style="fill:#bb8044;stroke:none"
           inkscape:connector-curvature="0"
           id="path14600"
           d="m 361.4,469.6 q -3.5,0.5 -7,0 v 0.85 q 0,1.45 1,2.45 1.05,1.05 2.5,1.05 1.45,0 2.45,-1.05 1.05,-1 1.05,-2.45 z" />
        <path
           style="fill:#1b914d;stroke:none"
           inkscape:connector-curvature="0"
           id="path14602"
           d="m 347.8,463.65 q -2.15,3.45 1.8,4.75 2.4,0.85 4.8,1.2 3.5,0.5 7,0 2.6,-0.4 5.2,-1.35 3.15,-1.15 1.65,-4.2 l -3.95,-6.7 q -6.55,2.8 -12.8,0 l -3.7,6.3 M 357.9,433 354,440 q 4.05,0.95 7.85,0 l -3.95,-7 m 3.3,11.3 q -3.05,1.55 -6.6,0 l -4.1,8.35 q 7.55,2.05 14.85,0 z" />
        <path
           style="fill:#198a49;stroke:none"
           inkscape:connector-curvature="0"
           id="path14604"
           d="m 350.5,452.65 -1.15,2.35 2.15,2.35 q 6.25,2.8 12.8,0 l 2.15,-2.35 -1.1,-2.35 q -7.3,2.05 -14.85,0 M 354,440 l -1.35,2.35 1.95,1.95 q 3.55,1.55 6.6,0 l 1.95,-1.95 -1.3,-2.35 q -3.8,0.95 -7.85,0 z" />
      </g>
    </g>
    <g
       id="g7011"
       transform="matrix(2.5650881,0,0,2.5650881,77.187544,-467.00499)">
      <g
         transform="matrix(0.26458333,0,0,0.26458333,-188.10942,117.95572)"
         id="use7009">
        <path
           style="fill:#000000;fill-opacity:0.10196078;stroke:none"
           inkscape:connector-curvature="0"
           id="path14620"
           d="m 338.1,473.5 q 0,-1.8 -1.55,-3.15 -0.2,0.3 -0.5,0.65 H 336 q -0.6,0.6 -1.2,1.05 0,1.6 -1.05,2.75 -0.05,0.15 -0.15,0.25 -1,1.05 -2.5,1.15 h -0.05 q -1.55,0 -2.6,-1.2 -1,-1.25 -1.05,-2.95 -0.65,-0.45 -1.2,-1.05 h 0.05 q -0.3,-0.35 -0.6,-0.7 -1.55,1.4 -1.55,3.2 0,2.2 2.05,3.75 2.05,1.55 4.95,1.55 2.9,0 4.95,-1.55 2.05,-1.55 2.05,-3.75 z" />
      </g>
    </g>
    <g
       id="g7015"
       transform="matrix(2.5650881,0,0,2.5650881,77.187544,-467.00499)">
      <g
         transform="matrix(0.26458333,0,0,0.26458333,-188.10942,117.95572)"
         id="use7013">
        <path
           style="fill:#115f32;stroke:none"
           inkscape:connector-curvature="0"
           id="path14638"
           d="m 322.5,465.85 q -0.05,0 -0.05,0.05 -1.5,3.45 2.05,5.4 0.05,0.05 0.15,0.1 1.05,0.45 2.1,0.75 0.05,1.8 1.3,3.05 1.25,1.25 3.1,1.25 1.8,0 3.05,-1.25 0.05,-0.05 0.1,-0.1 1.25,-1.25 1.25,-3 1,-0.3 2,-0.7 0.05,0 0.1,-0.05 3.65,-1.85 2.2,-5.1 0,-0.05 0,-0.1 l -3.4,-7.7 0.75,-0.8 q 0.45,-0.5 0.55,-1.15 0.05,-0.65 -0.25,-1.2 l -4.65,-8.25 q -0.35,-0.65 -1.05,-0.9 -0.7,-0.3 -1.4,0 -0.7,0.25 -1.05,0.9 l -4.65,8.25 q -0.3,0.55 -0.2,1.25 0.05,0.65 0.55,1.15 l 0.75,0.75 -3.3,7.4 m 12.1,-11.65 1.15,2.05 -1.7,1.75 3.95,8.95 q 0.65,1.65 -1.25,2.6 -1.6,0.7 -3.2,1 v 1.5 q 0,1 -0.75,1.7 -0.65,0.7 -1.65,0.7 -1,0 -1.7,-0.7 -0.7,-0.7 -0.7,-1.7 v -1.45 q -1.65,-0.3 -3.3,-1.05 -1.9,-1.05 -1.15,-2.9 l 3.9,-8.65 -1.75,-1.75 1.2,-2.05 3.45,-6.2 z" />
        <path
           style="fill:#bb8044;stroke:none"
           inkscape:connector-curvature="0"
           id="path14640"
           d="m 332.8,473.75 q 0.75,-0.7 0.75,-1.7 v -1.5 q -2.45,0.45 -4.8,0.05 v 1.45 q 0,1 0.7,1.7 0.7,0.7 1.7,0.7 1,0 1.65,-0.7 z" />
        <path
           style="fill:#1b914d;stroke:none"
           inkscape:connector-curvature="0"
           id="path14642"
           d="m 324.3,466.65 q -0.75,1.85 1.15,2.9 1.65,0.75 3.3,1.05 2.35,0.4 4.8,-0.05 1.6,-0.3 3.2,-1 1.9,-0.95 1.25,-2.6 L 334.05,458 q -2.7,1.35 -5.85,0 l -3.9,8.65 m 6.8,-18.65 -3.45,6.2 q 3.6,0.85 6.95,0 z" />
        <path
           style="fill:#198a49;stroke:none"
           inkscape:connector-curvature="0"
           id="path14644"
           d="m 335.75,456.25 -1.15,-2.05 q -3.35,0.85 -6.95,0 l -1.2,2.05 1.75,1.75 q 3.15,1.35 5.85,0 z" />
      </g>
    </g>
  </g>
</svg>
