<?xml version="1.0" encoding="UTF-8" standalone="no"?>
<!-- Created with Inkscape (http://www.inkscape.org/) -->

<svg
   xmlns:dc="http://purl.org/dc/elements/1.1/"
   xmlns:cc="http://creativecommons.org/ns#"
   xmlns:rdf="http://www.w3.org/1999/02/22-rdf-syntax-ns#"
   xmlns:svg="http://www.w3.org/2000/svg"
   xmlns="http://www.w3.org/2000/svg"
   xmlns:sodipodi="http://sodipodi.sourceforge.net/DTD/sodipodi-0.dtd"
   xmlns:inkscape="http://www.inkscape.org/namespaces/inkscape"
   width="500"
   height="500"
   viewBox="0 0 132.29166 132.29167"
   version="1.1"
   id="svg8"
   sodipodi:docname="back_head.svg"
   inkscape:version="0.92.2 5c3e80d, 2017-08-06">
  <defs
     id="defs2" />
  <sodipodi:namedview
     id="base"
     pagecolor="#ffffff"
     bordercolor="#666666"
     borderopacity="1.0"
     inkscape:pageopacity="0.0"
     inkscape:pageshadow="2"
     inkscape:zoom="9.4935787"
     inkscape:cx="234.88349"
     inkscape:cy="265.04332"
     inkscape:document-units="mm"
     inkscape:current-layer="g4578"
     showgrid="false"
     units="px"
     inkscape:window-width="1680"
     inkscape:window-height="925"
     inkscape:window-x="32"
     inkscape:window-y="12"
     inkscape:window-maximized="0" />
  <metadata
     id="metadata5">
    <rdf:RDF>
      <cc:Work
         rdf:about="">
        <dc:format>image/svg+xml</dc:format>
        <dc:type
           rdf:resource="http://purl.org/dc/dcmitype/StillImage" />
        <dc:title />
      </cc:Work>
    </rdf:RDF>
  </metadata>
  <g
     inkscape:label="Layer 1"
     inkscape:groupmode="layer"
     id="layer1"
     transform="translate(0,-164.70832)">
    <g
       id="g4578"
       transform="matrix(-0.25548634,0,0,0.25548634,82.358043,168.99649)">
      <path
         style="fill:#ffffff;stroke:none;stroke-width:1.03560662px;stroke-linecap:butt;stroke-linejoin:miter;stroke-opacity:1"
         d="m 101.14383,211.41137 0.20796,17.76788 2.22073,23.52001 -3.42066,6.26018 -6.326934,7.63595 -10.908489,5.23608 -16.690002,1.19994 -17.235424,-4.25432 -13.048426,-9.72585 -2.6598,-8.60043 -0.872685,-12.54477 -1.511737,-16.59305 2.929845,-11.22361 11.235751,-9.05405 16.035488,-5.45425 h 13.962867 l 14.290138,5.127 5.898665,4.33232 z"
         id="path819"
         inkscape:connector-curvature="0"
         sodipodi:nodetypes="ccccccccccccccccccc" />
      <path
         sodipodi:nodetypes="ccccc"
         inkscape:connector-curvature="0"
         id="path3699"
         d="m 35.942591,259.05123 c 15.778212,18.15042 57.962504,21.53744 67.629939,-6.35198 -2.3472,-13.76263 -2.23602,-27.52525 -2.4287,-41.28789 -21.455317,-29.15681 -71.554629,-13.73457 -70.245461,9.90162 2.373455,16.44846 1.277405,31.683 5.044222,37.73825 z"
         style="fill:none;stroke:#000000;stroke-width:1.97708786;stroke-linecap:round;stroke-linejoin:round;stroke-miterlimit:4;stroke-dasharray:none;stroke-opacity:1" />
      <path
         style="opacity:0.2;fill:#1a1a1a;fill-opacity:1;stroke:none;stroke-width:1.03560662px;stroke-linecap:butt;stroke-linejoin:miter;stroke-opacity:1"
         d="M 87.638762,269.0857 C 69.199815,282.09185 44.165546,266.5454 35.942591,259.05123 l -3.007599,-13.09754 -0.420135,-5.6058 -0.309273,-10.61572 -0.890655,-5.30063 c -0.07401,-6.94411 1.630819,-12.29916 7.461166,-17.98366 4.516899,-4.40391 5.359016,-5.71792 13.233988,-7.61536 13.625977,-3.28313 26.483376,-4.97307 36.133368,1.73573 1.152815,0.80145 0.515375,3.31228 -0.655212,5.4493 -7.769121,14.1833 -10.81315,40.83046 0.150526,63.06815 z"
         id="path4631"
         inkscape:connector-curvature="0"
         sodipodi:nodetypes="ccccccsssscc" />
      <path
         style="fill:none;stroke:#000000;stroke-width:1.03560662px;stroke-linecap:butt;stroke-linejoin:miter;stroke-opacity:1"
         d="m 89.340468,240.25258 c -8.58452,-3.13268 -5.817626,14.53458 -1.706566,14.50581"
         id="path884"
         inkscape:connector-curvature="0"
         sodipodi:nodetypes="cc" />
    </g>
  </g>
</svg>
