<?xml version="1.0" encoding="UTF-8" standalone="no"?>
<!-- Created with Inkscape (http://www.inkscape.org/) -->

<svg
   xmlns:dc="http://purl.org/dc/elements/1.1/"
   xmlns:cc="http://creativecommons.org/ns#"
   xmlns:rdf="http://www.w3.org/1999/02/22-rdf-syntax-ns#"
   xmlns:svg="http://www.w3.org/2000/svg"
   xmlns="http://www.w3.org/2000/svg"
   xmlns:sodipodi="http://sodipodi.sourceforge.net/DTD/sodipodi-0.dtd"
   xmlns:inkscape="http://www.inkscape.org/namespaces/inkscape"
   width="400"
   height="116.62239"
   viewBox="0 0 105.83334 30.85634"
   version="1.1"
   id="svg8"
   inkscape:version="0.92.2 5c3e80d, 2017-08-06"
   sodipodi:docname="fire.svg">
  <defs
     id="defs2" />
  <sodipodi:namedview
     id="base"
     pagecolor="#ffffff"
     bordercolor="#666666"
     borderopacity="1.0"
     inkscape:pageopacity="0.0"
     inkscape:pageshadow="2"
     inkscape:zoom="1.4"
     inkscape:cx="228.37582"
     inkscape:cy="-41.794212"
     inkscape:document-units="mm"
     inkscape:current-layer="layer1"
     showgrid="false"
     inkscape:window-width="1680"
     inkscape:window-height="917"
     inkscape:window-x="0"
     inkscape:window-y="1"
     inkscape:window-maximized="1"
     inkscape:snap-global="false"
     fit-margin-top="0"
     fit-margin-left="0"
     fit-margin-right="0"
     fit-margin-bottom="0"
     units="px" />
  <metadata
     id="metadata5">
    <rdf:RDF>
      <cc:Work
         rdf:about="">
        <dc:format>image/svg+xml</dc:format>
        <dc:type
           rdf:resource="http://purl.org/dc/dcmitype/StillImage" />
        <dc:title></dc:title>
      </cc:Work>
    </rdf:RDF>
  </metadata>
  <g
     inkscape:label="Layer 1"
     inkscape:groupmode="layer"
     id="layer1"
     transform="translate(-9.6014636,-11.111908)">
    <g
       id="g213"
       transform="translate(-9.4494048,-4.3144421)"
       inkscape:export-xdpi="299.63367"
       inkscape:export-ydpi="299.63367">
      <path
         inkscape:connector-curvature="0"
         id="path21"
         d="m 26.290684,45.886797 c 0.101746,-1.21358 1.512838,-2.63917 0.645941,-3.69591 -1.330057,-2.00693 -3.283388,-3.8224 -3.898603,-6.13295 -0.308368,-1.84862 0.279967,-3.709338 2.394146,-3.568304 1.563209,-0.202168 0.662567,3.354364 1.412537,1.010493 0.751787,-1.012019 -0.302762,-2.986245 -1.651668,-2.367588 -1.41115,0.850976 -2.71744,0.922867 -1.274174,-1.049958 -0.0147,-1.749984 -1.081672,-2.268258 -2.699712,-2.141486 0.520814,0.696699 1.167997,2.479315 0.04128,3.24491 -0.973892,0.830245 -1.147592,2.565383 -0.433475,3.603263 0.727208,1.09959 1.969956,2.39348 0.330806,3.35204 -1.465389,1.10488 -2.96427,2.6339 -1.52078,4.50685 0.777187,2.62518 3.883705,3.93275 6.353132,3.4791 l 0.171892,-0.13751 z"
         style="fill:#f67c01;fill-opacity:1;stroke:none;stroke-width:0.26458332px;stroke-linecap:butt;stroke-linejoin:miter;stroke-opacity:1" />
      <path
         sodipodi:nodetypes="ccccccccccccccc"
         style="fill:#ffc929;fill-opacity:1;stroke:none;stroke-width:0.18983333px;stroke-linecap:butt;stroke-linejoin:miter;stroke-opacity:1"
         d="m 24.80921,45.929887 c 0.06026,-1.05469 0.8961,-2.29364 0.38261,-3.21202 -0.787832,-1.74417 -1.944848,-3.32195 -2.309259,-5.32998 -1.492679,-2.71192 0.854185,-5.69253 2.764664,-5.014614 0.925936,-0.17571 0.392458,2.915184 0.836688,0.87819 0.445306,-0.87953 -0.179335,-2.59527 -0.978332,-2.057616 -1.003175,1.06303 -3.685766,2.096063 -2.124895,-0.983356 -0.0087,-1.520864 -0.640707,-1.971287 -1.599121,-1.861118 0.308494,0.605491 0.691839,2.154708 0.02445,2.820069 -0.576865,0.72155 -0.06554,4.119385 0.357452,5.021385 0.430747,0.95563 0.576276,2.1746 -0.394643,3.00766 -0.867993,0.96022 -1.755825,2.28906 -0.900802,3.91678 0.460351,2.28148 2.300434,3.41784 3.76315,3.0236 l 0.101817,-0.11954 z"
         id="path151"
         inkscape:connector-curvature="0" />
      <path
         sodipodi:nodetypes="ccccccccc"
         inkscape:connector-curvature="0"
         id="path153"
         d="m 24.48549,46.071767 c 0.04444,-0.77788 0.660908,-1.69165 0.28219,-2.36899 -0.581057,-1.28639 -1.434401,-2.45007 -1.703168,-3.93107 -0.1346,-0.47746 -0.237792,-1.101 -0.665266,-0.91341 0.317692,0.70481 0.559929,1.63439 -0.156161,2.2488 -0.640179,0.7082 -1.294989,1.68827 -0.664377,2.88878 0.339527,1.68268 1.696659,2.52079 2.775469,2.23002 l 0.07509,-0.0882 z"
         style="fill:#f9f079;fill-opacity:1;stroke:none;stroke-width:0.14000942px;stroke-linecap:butt;stroke-linejoin:miter;stroke-opacity:1" />
    </g>
    <g
       id="g221"
       transform="translate(-9.4446657,-4.2553805)"
       inkscape:export-xdpi="299.63367"
       inkscape:export-ydpi="299.63367">
      <path
         inkscape:connector-curvature="0"
         id="path23"
         d="m 36.259806,45.697807 c -1.056764,-2.19589 -2.102409,-3.84139 -1.275667,-6.37834 -0.599301,-1.06506 -2.567879,-1.78692 -1.906828,-3.16789 1.110004,-2.04948 -0.466911,-4.200257 -0.802015,-5.722849 0.17535,-1.706717 2.44036,-4.378233 3.927562,-2.880206 0.534141,0.500218 -1.777817,1.183576 -2.16706,2.449894 -0.54184,2.50379 3.123794,2.642614 2.986504,4.306221 1.259686,-1.325878 2.243724,-0.0846 1.228904,1.19302 -0.225392,1.02809 -0.34454,3.19246 1.220404,2.96331 1.311442,0.12825 2.203928,1.36866 2.094605,2.61438 -0.102787,1.47858 -1.048991,2.78032 -0.723438,4.29172 -0.960116,1.44283 -3.373639,0.63826 -4.582971,0.33074 z"
         style="fill:#f67c01;fill-opacity:1;stroke:none;stroke-width:0.26458332px;stroke-linecap:butt;stroke-linejoin:miter;stroke-opacity:1" />
      <path
         inkscape:connector-curvature="0"
         id="path25"
         d="m 37.488229,27.46046 c 1.197911,-1.351921 1.963727,0.186606 2.55134,1.22842 -0.769235,1.410945 -1.992413,-1.076766 -3.220511,-0.636973 -0.722321,0.07304 0.653674,-0.478083 0.669171,-0.591447 z"
         style="fill:#f67c01;fill-opacity:1;stroke:none;stroke-width:0.26458332px;stroke-linecap:butt;stroke-linejoin:miter;stroke-opacity:1" />
      <path
         inkscape:connector-curvature="0"
         id="path27"
         d="m 36.354302,30.059046 c 2.128557,-0.797582 0.795715,1.962001 0.02211,0.13269 z"
         style="fill:#f67c01;fill-opacity:1;stroke:none;stroke-width:0.26458332px;stroke-linecap:butt;stroke-linejoin:miter;stroke-opacity:1" />
      <path
         sodipodi:nodetypes="cccccccccccc"
         style="fill:#ffc929;fill-opacity:1;stroke:none;stroke-width:0.21081632px;stroke-linecap:butt;stroke-linejoin:miter;stroke-opacity:1"
         d="m 36.725768,45.776157 c -0.842015,-1.74966 -1.67517,-3.06076 -1.016434,-5.08217 -0.477514,-0.84863 -1.195604,-1.75453 -0.668888,-2.85487 0.884436,-1.633 -2.07292,-6.559497 -2.339927,-7.772676 0.139717,-1.359889 1.944446,-3.488517 3.129427,-2.294909 0.425597,0.398567 -1.416539,0.943057 -1.726683,1.952042 -0.431731,1.994986 2.725231,4.373453 2.61584,5.698983 1.003701,-1.05643 1.882262,1.35001 1.073668,2.368 -0.179589,0.81917 0.245193,2.40197 1.492118,2.21939 1.044939,0.10218 1.756059,1.09052 1.668952,2.0831 -0.0819,1.17811 -0.835821,2.21532 -0.576425,3.41958 -0.765007,1.14962 -2.688069,0.50856 -3.651648,0.26353 z"
         id="path155"
         inkscape:connector-curvature="0" />
      <path
         inkscape:connector-curvature="0"
         id="path157"
         d="m 37.888777,46.058317 c -0.347789,-0.72268 -0.691918,-1.26422 -0.419831,-2.09915 -0.197234,-0.35052 -0.493837,-0.7247 -0.27628,-1.17919 0.36531,-0.6745 -0.856206,-2.70935 -0.966491,-3.21045 0.05771,-0.56169 0.80314,-1.44091 1.292589,-0.9479 0.175789,0.16463 -0.585092,0.38953 -0.713195,0.80628 -0.178324,0.82402 1.125638,1.80643 1.080455,2.35393 0.414572,-0.43635 0.777456,0.55761 0.443471,0.97808 -0.07418,0.33836 0.101276,0.99212 0.616309,0.91671 0.431606,0.0422 0.725329,0.45043 0.68935,0.86041 -0.03383,0.48661 -0.34523,0.91502 -0.238089,1.41243 -0.315981,0.47485 -1.110288,0.21006 -1.508288,0.10885 z"
         style="fill:#f9f079;fill-opacity:1;stroke:none;stroke-width:0.08707627px;stroke-linecap:butt;stroke-linejoin:miter;stroke-opacity:1"
         sodipodi:nodetypes="cccccccccccc" />
      <path
         inkscape:connector-curvature="0"
         id="path159"
         d="m 37.885456,27.792766 c 0.300678,0 0.601355,0 0.902033,0 0.144771,0.200453 0.289543,0.400905 0.434314,0.601358 -0.133635,0.06682 -0.26727,0.133634 -0.400905,0.200451 -0.211588,-0.111362 -0.423176,-0.222725 -0.634764,-0.334087 -0.100226,-0.155907 -0.200452,-0.311815 -0.300678,-0.467722 z"
         style="fill:#f9f079;fill-opacity:1;stroke:none;stroke-width:0.26458332px;stroke-linecap:butt;stroke-linejoin:miter;stroke-opacity:1" />
    </g>
    <g
       id="g227"
       transform="translate(-9.9901497,-4.2323644)"
       inkscape:export-xdpi="299.63367"
       inkscape:export-ydpi="299.63367">
      <path
         inkscape:connector-curvature="0"
         id="path29"
         d="m 49.016503,24.57839 c -1.178717,0.657216 -2.653729,1.105992 -2.433724,2.747189 0.378376,1.538902 0.535683,3.215179 -0.444869,4.599311 -0.541134,1.64437 1.541277,2.396817 2.781952,2.848947 1.119765,0.46198 2.041938,1.50872 1.79753,2.79748 0.315372,2.02422 -2.23691,0.94391 -2.484452,2.33921 -0.867869,1.80127 -0.09479,3.83784 1.111671,5.24297 1.183726,1.0159 2.791993,1.43931 4.196742,0.60049 0.550356,-1.63593 -0.588744,-4.03229 0.247423,-5.97451 0.302758,-1.81727 0.266458,-3.99702 -1.434564,-5.10705 -1.163137,-1.571059 -4.02509,-1.708491 -4.18373,-3.938636 0.118982,-1.642696 1.14623,-2.884124 2.035609,-4.17944 -0.15165,-0.90517 0.167018,-3.296068 -1.134617,-2.003447 z"
         style="fill:#f67c01;fill-opacity:1;stroke:none;stroke-width:0.26458332px;stroke-linecap:butt;stroke-linejoin:miter;stroke-opacity:1" />
      <path
         inkscape:connector-curvature="0"
         id="path31"
         d="m 51.567843,24.90912 c 1.075478,-0.571741 3.069563,-0.665195 2.502364,1.083768 -0.409893,-1.344705 -2.450346,0.110848 -2.502364,-1.083768 z"
         style="fill:#f67c01;fill-opacity:1;stroke:none;stroke-width:0.26458332px;stroke-linecap:butt;stroke-linejoin:miter;stroke-opacity:1" />
      <path
         sodipodi:nodetypes="cccccccccccccc"
         style="fill:#ffc929;fill-opacity:1;stroke:none;stroke-width:0.2252052px;stroke-linecap:butt;stroke-linejoin:miter;stroke-opacity:1"
         d="m 49.156054,25.431139 c -0.88903,0.631296 -2.001536,1.062373 -1.8356,2.638844 0.285384,1.47821 0.404031,3.088377 -0.335536,4.417921 -0.408142,1.579523 2.264972,2.235473 3.200733,2.669773 0.844566,0.44376 1.439875,1.54944 1.255535,2.78738 0.237864,1.94438 -2.689418,0.87327 -2.876123,2.21354 -0.654577,1.73023 -0.07149,3.68648 0.838462,5.0362 0.892807,0.97583 2.105819,1.38254 3.16533,0.5768 0.415098,-1.57141 -0.444052,-3.87326 0.186615,-5.73888 0.228351,-1.7456 0.200972,-3.83938 -1.081999,-4.90564 -0.877278,-1.509094 -3.770855,-1.741332 -3.890507,-3.883523 0.08974,-1.577911 0.864528,-2.870605 1.535328,-4.114835 -0.114379,-0.869472 0.860962,-2.965624 -0.120777,-1.723982 z"
         id="path162"
         inkscape:connector-curvature="0" />
      <path
         inkscape:connector-curvature="0"
         id="path164"
         d="m 49.511679,44.998237 c -0.206413,-1.16711 -0.974708,-2.40247 -0.458685,-3.58237 0.512123,-0.93606 1.793517,-0.41215 2.420971,-1.18112 0.886915,-0.9892 0.38564,-2.3989 0.350653,-3.5781 0.209966,2.0511 0.545474,4.17622 -0.0877,6.18926 -0.118811,0.85256 0.72959,1.87102 -0.06507,2.58094 -0.643687,0.53687 -1.588801,0.27883 -2.065591,-0.35025 l -0.09458,-0.0784 z"
         style="fill:#f9f079;fill-opacity:1;stroke:none;stroke-width:0.26458332px;stroke-linecap:butt;stroke-linejoin:miter;stroke-opacity:1" />
    </g>
    <g
       id="g233"
       transform="translate(-10.01286,-4.2603031)"
       inkscape:export-xdpi="299.63367"
       inkscape:export-ydpi="299.63367">
      <path
         inkscape:connector-curvature="0"
         id="path33"
         d="m 65.411219,20.75138 c -1.310579,0.631165 -1.307606,2.41093 -2.30376,2.761926 -1.174015,0.383223 -2.89259,-0.08627 -3.330063,1.38731 -1.428758,1.766695 0.906423,2.968999 -0.01293,4.903737 -0.649097,1.519627 0.190248,3.838702 1.85379,4.207754 1.429064,0.62123 2.546093,-0.936235 4.022317,-0.663279 1.38123,-0.550173 2.087788,1.296739 1.995055,2.338209 0.142062,1.62534 -1.512655,2.02408 -2.37456,3.07387 -1.105087,1.1287 -2.728811,2.2061 -2.264468,4.01344 0.059,1.48518 0.664333,2.60161 2.078692,3.17198 1.670267,0.21019 3.923138,0.7718 5.12111,-0.69646 0.41369,-1.24915 0.742552,-2.93225 -0.637902,-3.67688 -0.296417,-1.32612 1.294708,-2.4502 0.808001,-3.72653 -0.195258,-1.25575 -0.850948,-2.49982 -0.419564,-3.77146 -0.632366,-1.182046 -2.140411,-2.09345 -1.43048,-3.569661 -0.297802,-0.990594 -1.960147,-2.003956 -3.124704,-1.368488 0.03934,-0.184609 1.602706,1.891963 -0.158251,2.372723 -1.292457,0.707492 -3.718431,2.14748 -4.121759,-0.0321 0.114171,-1.700575 -0.171521,-4.071639 1.53553,-5.009249 2.209748,0.03846 2.309023,-1.979498 1.866261,-3.543526 0.228571,-1.631429 3.634901,-0.311115 2.155337,-1.555808 -0.277277,-0.385359 -0.864098,-0.391902 -1.25765,-0.617507 z"
         style="fill:#f67c01;fill-opacity:1;stroke:none;stroke-width:0.26458332px;stroke-linecap:butt;stroke-linejoin:miter;stroke-opacity:1" />
      <path
         inkscape:connector-curvature="0"
         id="path35"
         d="m 67.101356,26.172444 c -0.203786,-1.379149 3.079275,-1.751841 2.08835,-0.609012 -0.675958,0.594635 -1.247517,0.289995 -2.08835,0.609012 z"
         style="fill:#f67c01;fill-opacity:1;stroke:none;stroke-width:0.26458332px;stroke-linecap:butt;stroke-linejoin:miter;stroke-opacity:1" />
      <path
         sodipodi:nodetypes="ccccccccccccccccccc"
         style="fill:#ffc929;fill-opacity:1;stroke:none;stroke-width:0.22666341px;stroke-linecap:butt;stroke-linejoin:miter;stroke-opacity:1"
         d="m 62.498037,24.04507 c -0.92771,0.355919 -1.742393,0.32148 -2.088086,1.690065 -1.129009,1.640819 0.480024,3.607907 -0.246455,5.404796 -0.512918,1.411355 1.284264,2.289531 2.5988,2.632276 1.152874,-0.438836 2.319036,-1.058513 3.485552,-0.805003 1.091453,-0.51097 1.86239,2.480023 1.789112,3.447293 0.112257,1.50953 -1.785893,1.90348 -2.466973,2.87847 -0.873243,1.04829 -2.156315,2.04892 -1.78939,3.72749 0.04663,1.37936 0.524958,2.41625 1.642589,2.94598 1.31985,0.19521 3.100076,0.71681 4.046718,-0.64684 0.326898,-1.16015 0.586766,-2.72333 -0.504072,-3.4149 -0.234231,-1.23164 1.023082,-2.27563 0.638484,-3.46102 -0.154293,-1.16628 -0.672421,-2.32171 -0.33154,-3.50275 -0.499699,-1.09782 -1.69136,-1.94429 -1.13037,-3.315322 -0.235324,-0.920015 -0.647168,-0.558237 -1.567404,0.03195 0.03109,-0.171455 0.104857,0.123494 -1.286657,0.57 -1.458819,0.875842 -4.945844,1.368211 -4.579944,-0.998374 0.09022,-1.579411 -0.867865,-3.99415 0.481052,-4.864956 0.842087,-0.70307 1.951315,-0.962012 1.308584,-2.319155 z"
         id="path171"
         inkscape:connector-curvature="0" />
      <path
         inkscape:connector-curvature="0"
         id="path173"
         d="m 65.481034,45.967097 c -0.479431,-1.00046 -0.956481,-2.02162 -1.227131,-3.09843 -0.01892,-0.87853 0.613823,-1.60462 1.357331,-1.99122 0.735717,-0.50444 1.581926,-0.83054 2.307406,-1.34314 0.650495,-0.4948 0.67603,-1.38802 0.607613,-2.12946 -0.02343,-0.33502 -0.543943,-1.72328 -0.112653,-0.78385 0.530971,0.96281 0.850341,2.1285 0.449542,3.19911 -0.158294,0.81296 -0.541414,1.57079 -0.64873,2.38961 0.142224,0.7134 0.654828,1.41128 0.578291,2.15842 -0.280349,0.5587 -0.343924,1.49438 -1.141568,1.49728 -0.707821,0.25547 -1.440121,0.18287 -2.170101,0.10168 z"
         style="fill:#f9f079;fill-opacity:1;stroke:none;stroke-width:0.26458332px;stroke-linecap:butt;stroke-linejoin:miter;stroke-opacity:1" />
    </g>
    <g
       id="g241"
       transform="translate(-10.37447,-5.1191079)"
       inkscape:export-xdpi="299.63367"
       inkscape:export-ydpi="299.63367">
      <path
         inkscape:connector-curvature="0"
         id="path37"
         d="m 79.254598,46.453757 c -0.92411,-1.48106 -1.938867,-3.14301 -1.687465,-4.91656 0.01329,-2.08357 2.706055,-0.39025 2.348925,-2.10607 -0.22307,-1.25014 0.15695,-2.78379 1.35236,-3.24991 1.08587,0.38863 3.291,-0.25162 2.76925,-1.65403 0.0833,-1.487967 -1.57799,-2.021909 -2.42072,-3.003474 -1.48911,0.109614 -2.54552,1.22622 -1.9951,-1.097597 0.5478,-1.135958 1.0085,-2.294229 0.84917,-3.622192 -1.63917,-1.467763 1.55339,-0.413543 1.33494,0.655484 -0.53855,1.623593 1.09834,2.024607 2.17336,2.741391 2.440149,3.727151 2.555958,8.489839 -0.56696,11.055798 0.0935,1.23324 0.46894,2.54632 0.56301,3.69317 -0.52939,1.26635 -1.01545,2.60763 -2.64188,1.97647 -0.69296,-0.15749 -1.38593,-0.31499 -2.07889,-0.47248 z"
         style="fill:#f67c01;fill-opacity:1;stroke:none;stroke-width:0.26458332px;stroke-linecap:butt;stroke-linejoin:miter;stroke-opacity:1"
         sodipodi:nodetypes="cccccccccccccc" />
      <path
         inkscape:connector-curvature="0"
         id="path39"
         d="m 75.380343,27.6022 c 0.134118,-1.553718 -1.295466,-2.121874 -0.47672,-3.573781 0.456376,-1.707188 1.751618,-1.624225 3.178658,-1.86258 0.606507,-1.727811 2.340427,-2.368691 3.513797,-3.340131 1.38453,-1.283972 -1.88123,-1.282987 -1.85468,0.136528 -1.08085,0.919999 -2.403158,-0.257908 -3.436764,-0.789416 -0.713839,-0.807279 -3.272783,2.019753 -1.052712,1.217707 0.445153,0.603017 -1.323032,2.057515 -0.98721,3.22114 -1.610862,0.958896 -1.890101,2.094829 -0.372646,3.336881 0.129751,2.018733 2.220423,2.824816 1.515596,1.353157 l -0.01993,0.219228 z"
         style="fill:#f67c01;fill-opacity:1;stroke:none;stroke-width:0.26458332px;stroke-linecap:butt;stroke-linejoin:miter;stroke-opacity:1" />
      <path
         inkscape:connector-curvature="0"
         id="path41"
         d="m 80.530268,24.058672 c 2.03738,0.22731 1.04801,-4.615139 1.96849,-1.068955 0.25335,1.18214 -1.20042,2.135127 -1.96849,1.068955 z"
         style="fill:#f67c01;fill-opacity:1;stroke:none;stroke-width:0.26458332px;stroke-linecap:butt;stroke-linejoin:miter;stroke-opacity:1" />
      <path
         inkscape:connector-curvature="0"
         id="path43"
         d="m 73.395968,29.539328 c 0.648531,0.779081 2.009992,2.608171 1.456757,3.256093 -0.969947,-0.522332 -1.995462,-2.009203 -1.220521,-3.067104 L 73.46031,29.590802 Z"
         style="fill:#f67c01;fill-opacity:1;stroke:none;stroke-width:0.26458332px;stroke-linecap:butt;stroke-linejoin:miter;stroke-opacity:1" />
      <path
         sodipodi:nodetypes="ccccccccccccccc"
         style="fill:#ffc929;fill-opacity:1;stroke:none;stroke-width:0.21451274px;stroke-linecap:butt;stroke-linejoin:miter;stroke-opacity:1"
         d="m 80.214588,46.520737 c -0.67926,-1.32449 -1.42514,-2.81074 -1.24035,-4.3968 0.01,-1.8633 1.98904,-0.34899 1.72654,-1.88342 -0.16397,-1.11798 0.11536,-2.4895 0.99402,-2.90634 0.79816,0.34755 3.25422,-1.66159 2.87071,-2.91574 0.0612,-1.330664 -2.16213,-2.476338 -2.78156,-3.354135 -1.09455,0.09803 -1.87104,1.096587 -1.46647,-0.981563 0.40265,-1.015868 0.60765,-0.381255 0.49053,-1.56883 -1.20484,-1.312596 1.14179,-0.369825 0.98122,0.586188 -0.39585,1.451952 1.5089,1.743755 2.29907,2.384763 1.19532,1.660492 1.85298,4.462717 1.19989,6.689417 -0.40212,1.44487 -1.79822,1.77294 -2.65229,2.86351 0.0687,1.10286 0.97946,3.11235 1.0486,4.13796 -0.38912,1.13247 -0.74639,2.33196 -1.94187,1.76752 -0.50934,-0.14084 -1.0187,-0.28169 -1.52804,-0.42253 z"
         id="path179"
         inkscape:connector-curvature="0" />
      <path
         inkscape:connector-curvature="0"
         id="path183"
         d="m 80.908238,46.689997 c -0.24565,-1.22267 -0.63146,-2.4078 -1.08668,-3.56715 0.0395,-0.90402 1.19911,-0.0307 1.48071,-0.6291 0.2602,-0.77237 -0.3588,-1.58367 0.0216,-2.34899 0.0921,-0.61268 0.59726,-0.99204 1.14575,-1.19123 0.49422,-0.29271 1.20285,-0.49751 1.3026,-1.15238 -0.6224,0.86765 -1.11509,1.83917 -1.87177,2.60505 -0.103,0.76269 -0.26422,1.55551 0.10189,2.28078 0.25584,0.8536 0.85904,1.59011 0.81409,2.50711 0.26809,0.71516 -0.18812,1.3279 -0.86863,1.52667 -0.35688,0.1818 -0.91629,0.0138 -1.17212,-0.0198 l 0.13262,-0.0109 z"
         style="fill:#f9f079;fill-opacity:1;stroke:none;stroke-width:0.26458332px;stroke-linecap:butt;stroke-linejoin:miter;stroke-opacity:1" />
    </g>
    <g
       id="g250"
       transform="translate(-11.610838,-5.2887285)"
       inkscape:export-xdpi="299.63367"
       inkscape:export-ydpi="299.63367">
      <path
         inkscape:connector-curvature="0"
         id="path45"
         d="m 88.798498,19.192231 c 0.28007,-1.252153 1.47703,-2.606007 2.81645,-1.838089 1.09312,0.780537 2.39908,1.318766 3.77929,0.88269 1.9906,0.60929 0.58787,-3.372149 1.65758,-1.043097 0.59779,1.110311 -0.3845,2.967187 -1.81717,2.359382 -2.08784,-1.022943 -0.61028,2.02745 -2.20322,1.713569 -1.99692,0.157543 0.75705,-1.853883 -1.6935,-1.596778 -0.8318,-0.05047 -3.00421,1.13556 -2.53943,-0.477677 z"
         style="fill:#f67c01;fill-opacity:1;stroke:none;stroke-width:0.26458332px;stroke-linecap:butt;stroke-linejoin:miter;stroke-opacity:1" />
      <path
         inkscape:connector-curvature="0"
         id="path47"
         d="m 88.798498,29.728317 c -1.75238,-1.540565 -0.0297,-1.554465 0.7087,-0.188989 -0.23623,0.063 -0.47247,0.125993 -0.7087,0.188989 z"
         style="fill:#f67c01;fill-opacity:1;stroke:none;stroke-width:0.26458332px;stroke-linecap:butt;stroke-linejoin:miter;stroke-opacity:1" />
      <path
         inkscape:connector-curvature="0"
         id="path49"
         d="m 88.184288,23.538956 c -1.36175,-0.923673 -0.90686,-2.633695 0.39702,-1.065756 0.47079,0.88271 0.0279,0.537471 -0.39702,1.065756 z"
         style="fill:#f67c01;fill-opacity:1;stroke:none;stroke-width:0.26458332px;stroke-linecap:butt;stroke-linejoin:miter;stroke-opacity:1" />
      <path
         inkscape:connector-curvature="0"
         id="path51"
         d="m 93.192468,27.27147 c 0.81969,-1.285001 1.92958,-1.73535 3.38121,-1.202816 1.5412,-0.03276 0.35429,2.300881 2.02383,2.869694 2.195352,0.968914 0.14382,3.532449 1.33784,5.371729 0.598232,2.17092 -1.57993,2.95521 -2.93729,3.90055 -1.02548,1.44694 0.61318,2.90684 0.33773,4.54221 0.0578,1.41039 0.74748,3.1865 -0.71041,4.08755 -1.14486,0.50472 -2.63078,0.22986 -3.90534,0.41659 -2.95198,-0.99858 -1.72814,-4.026 -1.48828,-6.08306 -0.4966,-1.76791 -0.51087,-3.07406 1.51665,-2.47634 2.07132,-0.63503 -0.0958,-4.66208 3.42067,-3.5831 2.97405,0.5916 2.51772,-3.479189 0.29863,-3.763138 0.32267,-1.392395 0.20311,-2.49624 -0.99111,-3.435838 -0.35127,-1.130826 -1.91871,0.61585 -2.28413,-0.644031 z"
         style="fill:#f67c01;fill-opacity:1;stroke:none;stroke-width:0.26458332px;stroke-linecap:butt;stroke-linejoin:miter;stroke-opacity:1" />
      <path
         inkscape:connector-curvature="0"
         id="path53"
         d="m 92.625508,28.263658 c 1.22272,-1.537896 1.07856,1.38011 1.22843,2.220611 -0.80414,0.495665 -1.59054,-1.360288 -1.22843,-2.220611 z"
         style="fill:#f67c01;fill-opacity:1;stroke:none;stroke-width:0.26458332px;stroke-linecap:butt;stroke-linejoin:miter;stroke-opacity:1" />
      <path
         sodipodi:nodetypes="cccccccccccccc"
         style="fill:#fece34;fill-opacity:1;stroke:none;stroke-width:0.2191613px;stroke-linecap:butt;stroke-linejoin:miter;stroke-opacity:1"
         d="m 95.117158,26.799 c 0.56241,-1.285001 0.44986,-0.31794 1.44585,0.214594 1.05746,-0.03276 -0.22937,1.355941 0.91613,1.924754 1.50629,0.968914 1.2346,4.016875 2.05383,5.856159 0.41046,2.17092 -2.21993,2.47078 -3.15125,3.41612 -0.7036,1.44694 0.42072,2.90684 0.23173,4.54221 0.0397,1.41039 0.51286,3.1865 -0.48743,4.08755 -0.78552,0.50472 -1.80505,0.22986 -2.67955,0.41659 -2.02542,-0.99858 -1.18572,-4.026 -1.02115,-6.08306 -0.34072,-1.76791 -0.87024,-2.05825 0.52089,-1.46053 1.42119,-0.63503 1.62332,-4.99301 4.03603,-3.91403 2.04057,0.5916 1.8444,-4.732017 0.32183,-5.015966 0.22139,-1.392395 -0.4954,-2.312492 -1.31479,-3.25209 -0.24101,-1.130826 -0.6214,0.52758 -0.87212,-0.732301 z"
         id="path188"
         inkscape:connector-curvature="0" />
      <path
         inkscape:connector-curvature="0"
         id="path190"
         d="m 94.078868,47.102987 c -0.29124,-0.56221 -0.92961,-1.00772 -0.91648,-1.67164 -0.0426,-0.67715 -0.11362,-1.40293 0.16192,-2.03921 0.38024,-0.56293 0.78433,-1.13489 0.9826,-1.79193 0.14759,-0.49272 0.19619,-1.4734 0.38428,-1.65852 0.28961,0.50633 0.7629,0.9324 0.92073,1.49628 -0.009,1.01963 -0.13442,2.04677 0.047,3.05852 0.0596,0.56352 0.0862,1.13024 0.0885,1.6968 -0.19046,0.39686 -0.49055,0.81462 -0.97124,0.83235 -0.22667,0.0566 -0.46244,0.12302 -0.69736,0.0773 z"
         style="fill:#f9f079;fill-opacity:1;stroke:none;stroke-width:0.26458332px;stroke-linecap:butt;stroke-linejoin:miter;stroke-opacity:1" />
    </g>
    <g
       id="g258"
       transform="translate(-14.174161,-5.2916667)"
       inkscape:export-xdpi="299.63367"
       inkscape:export-ydpi="299.63367">
      <path
         inkscape:connector-curvature="0"
         id="path57"
         d="m 107.97689,46.902537 c 1.6709,0.93333 4.38401,-1.47582 2.7533,-2.84898 -1.01403,-0.68069 0.37474,-2.33042 0.7357,-3.08323 0.26753,-0.85259 -0.88972,-3.86217 -0.98335,-1.7852 -2.89137,0.19083 -1.82113,-4.1318 0.21298,-3.52462 1.07413,-0.38652 3.32001,0.41425 2.3261,-2.388715 -0.11683,-3.271595 -2.45382,2.885355 -4.51017,0.0668 0.68497,-1.536586 -2.80428,-1.46552 -0.89084,-0.38579 0.98502,1.801657 -2.66544,0.168369 -1.7162,1.264777 1.51049,0.92732 -0.678,1.98751 0.18596,3.25841 -3.15065,-0.23939 -0.47634,3.02447 -1.28955,5.15572 -1.38405,2.04344 0.50739,5.63666 3.17607,4.27083 z"
         style="fill:#f67c01;fill-opacity:1;stroke:none;stroke-width:0.26458332px;stroke-linecap:butt;stroke-linejoin:miter;stroke-opacity:1" />
      <path
         inkscape:connector-curvature="0"
         id="path59"
         d="m 113.15524,29.964331 c 0.008,-2.693917 -2.30144,-3.855357 -3.89838,-5.681565 -2.60538,-0.0927 1.01267,1.446888 0.5408,2.975461 1.65181,0.376945 1.01245,3.36157 3.35758,2.706104 z"
         style="fill:#f67c01;fill-opacity:1;stroke:none;stroke-width:0.26458332px;stroke-linecap:butt;stroke-linejoin:miter;stroke-opacity:1" />
      <path
         inkscape:connector-curvature="0"
         id="path61"
         d="m 106.8744,25.65461 c 1.14741,1.362065 -0.48108,3.004372 -0.12214,0.586304 0.0407,-0.195434 0.0814,-0.390869 0.12214,-0.586304 z"
         style="fill:#f67c01;fill-opacity:1;stroke:none;stroke-width:0.26458332px;stroke-linecap:butt;stroke-linejoin:miter;stroke-opacity:1" />
      <path
         inkscape:connector-curvature="0"
         id="path63"
         d="m 107.70962,19.440595 c -1.06029,-1.030203 -2.52876,-1.194536 -3.76098,-1.832914 -1.99376,-1.051924 0.23767,-1.588304 1.38743,-0.88761 1.16417,0.497776 2.78536,-0.10049 3.60967,1.016679 -0.3361,0.694927 -0.82917,3.362106 -1.23612,1.703845 z"
         style="fill:#f67c01;fill-opacity:1;stroke:none;stroke-width:0.26458332px;stroke-linecap:butt;stroke-linejoin:miter;stroke-opacity:1" />
      <path
         sodipodi:nodetypes="ccccccccccccc"
         style="fill:#fece34;fill-opacity:1;stroke:none;stroke-width:0.21430936px;stroke-linecap:butt;stroke-linejoin:miter;stroke-opacity:1"
         d="m 107.70599,46.920897 c 1.16723,0.87657 3.06251,-1.38606 1.92336,-2.67571 -0.70837,-0.6393 0.26177,-2.1887 0.51393,-2.89572 0.18688,-0.80074 -0.62153,-3.62729 -0.68693,-1.67663 -2.01981,0.17922 -0.87058,-5.10895 0.55037,-4.53869 0.75036,-0.36301 0.28762,1.12139 1.45958,-0.42443 -0.0816,-3.072637 -1.33619,2.1429 -2.77268,-0.50427 0.4785,-1.44313 -2.02984,-1.919727 -0.69318,-0.905667 0.6881,1.692087 -1.81473,0.299871 -1.15163,1.329597 1.05518,0.87093 -0.94609,2.26824 -0.34256,3.46185 -2.20093,-0.22483 -0.45088,2.81691 -1.01896,4.81855 -0.96684,1.91917 0.35446,5.29386 2.2187,4.0111 z"
         id="path195"
         inkscape:connector-curvature="0" />
      <path
         style="fill:#f9f079;fill-opacity:1;stroke:none;stroke-width:0.23943715px;stroke-linecap:butt;stroke-linejoin:miter;stroke-opacity:1"
         d="m 107.0718,47.247477 c -0.29124,-0.46042 -0.92961,-0.82527 -0.91648,-1.36899 -0.0426,-0.55456 -0.11362,-1.14893 0.16192,-1.67002 0.38024,-0.46101 0.78433,-0.92942 0.9826,-1.4675 0.14759,-0.40351 0.19619,-1.20664 0.38428,-1.35825 0.28961,0.41466 0.7629,0.76359 0.92073,1.22538 -0.009,0.83503 -0.13442,1.67621 0.047,2.50478 0.0596,0.4615 0.0862,0.92561 0.0885,1.3896 -0.19046,0.32501 -0.49055,0.66713 -0.97124,0.68165 -0.22667,0.0464 -0.46244,0.10075 -0.69736,0.0633 z"
         id="path197"
         inkscape:connector-curvature="0" />
    </g>
    <g
       id="g263"
       transform="translate(-14.755235,-5.1137924)"
       inkscape:export-xdpi="299.63367"
       inkscape:export-ydpi="299.63367">
      <path
         inkscape:connector-curvature="0"
         id="path65"
         d="m 120.80583,46.969357 c -4.35629,0.52911 -3.59161,-4.67452 -2.17021,-6.26815 -0.90454,-1.71028 -2.13889,-3.31537 -1.49682,-5.35223 0.15168,-2.528577 2.46462,-1.54481 2.37873,-4.105787 1.31529,-0.722043 2.65757,-0.395033 1.24025,0.945308 0.34126,1.329615 -1.67045,1.909309 -0.62369,3.253079 1.50009,-0.0664 3.32843,-2.47176 3.48095,0.65963 -0.0593,1.09288 -0.42581,3.01617 -1.73832,2.64961 -0.17741,1.45391 0.96054,3.03745 2.20315,3.77518 0.59395,1.56056 -0.3496,4.50476 -2.18431,4.55557 -0.3355,0.017 -0.84353,-0.43102 -1.08973,-0.11221 z"
         style="fill:#f67c01;fill-opacity:1;stroke:none;stroke-width:0.26458332px;stroke-linecap:butt;stroke-linejoin:miter;stroke-opacity:1" />
      <path
         sodipodi:nodetypes="ccccccccccc"
         style="fill:#fece34;fill-opacity:1;stroke:none;stroke-width:0.22516222px;stroke-linecap:butt;stroke-linejoin:miter;stroke-opacity:1"
         d="m 120.72553,46.974927 c -3.31902,0.50295 -2.73642,-4.44334 -1.65347,-5.95816 -0.68915,-1.6257 -1.6296,-3.15141 -1.14041,-5.08754 0.11556,-2.403524 1.87777,-1.46841 1.81233,-3.902734 1.00211,-0.686335 1.2898,-0.475723 0.20995,0.798332 0.26,1.263852 -1.10566,1.915112 -0.30815,3.192422 1.14291,-0.0631 1.29979,-0.94635 1.41599,2.03018 -0.0452,1.03883 0.31035,1.56407 -0.68964,1.21564 -0.13517,1.382 1.90113,2.787 2.84787,3.48825 0.45252,1.48338 -0.26636,4.28198 -1.66421,4.33027 -0.25562,0.0162 -0.64268,-0.4097 -0.83026,-0.10666 z"
         id="path199"
         inkscape:connector-curvature="0" />
      <path
         inkscape:connector-curvature="0"
         id="path201"
         d="m 120.33811,46.902537 c -0.5232,-0.9032 -1.4008,-1.70353 -1.47762,-2.79746 0.2492,-0.79313 1.15061,-1.34064 1.04791,-2.30209 0.0568,-0.83302 -0.13061,-1.66782 -0.5963,-2.36782 0.80553,1.4608 1.73021,2.85353 2.77785,4.15243 0.11244,0.81566 0.16565,1.66969 0.0304,2.47959 -0.30954,0.48826 -1.26863,1.02743 -1.78221,0.83535 z"
         style="fill:#000000;fill-opacity:0;stroke:none;stroke-width:0.26458332px;stroke-linecap:butt;stroke-linejoin:miter;stroke-opacity:1" />
    </g>
  </g>
</svg>
