<?xml version="1.0" encoding="UTF-8" standalone="no"?>
<!-- Created with Inkscape (http://www.inkscape.org/) -->

<svg
   xmlns:dc="http://purl.org/dc/elements/1.1/"
   xmlns:cc="http://creativecommons.org/ns#"
   xmlns:rdf="http://www.w3.org/1999/02/22-rdf-syntax-ns#"
   xmlns:svg="http://www.w3.org/2000/svg"
   xmlns="http://www.w3.org/2000/svg"
   xmlns:sodipodi="http://sodipodi.sourceforge.net/DTD/sodipodi-0.dtd"
   xmlns:inkscape="http://www.inkscape.org/namespaces/inkscape"
   width="500"
   height="500"
   viewBox="0 0 132.29166 132.29167"
   version="1.1"
   id="svg8"
   sodipodi:docname="trunk_knight.svg"
   inkscape:version="0.92.2 5c3e80d, 2017-08-06">
  <defs
     id="defs2" />
  <sodipodi:namedview
     id="base"
     pagecolor="#ffffff"
     bordercolor="#666666"
     borderopacity="1.0"
     inkscape:pageopacity="0.0"
     inkscape:pageshadow="2"
     inkscape:zoom="5.12"
     inkscape:cx="264.12691"
     inkscape:cy="259.96165"
     inkscape:document-units="mm"
     inkscape:current-layer="g1785"
     showgrid="false"
     units="px"
     inkscape:window-width="1680"
     inkscape:window-height="921"
     inkscape:window-x="0"
     inkscape:window-y="1"
     inkscape:window-maximized="1" />
  <metadata
     id="metadata5">
    <rdf:RDF>
      <cc:Work
         rdf:about="">
        <dc:format>image/svg+xml</dc:format>
        <dc:type
           rdf:resource="http://purl.org/dc/dcmitype/StillImage" />
        <dc:title></dc:title>
      </cc:Work>
    </rdf:RDF>
  </metadata>
  <g
     inkscape:label="Layer 1"
     inkscape:groupmode="layer"
     id="layer1"
     transform="translate(0,-164.70832)">
    <g
       id="g1785"
       transform="matrix(1.2851698,0,0,1.061818,-40.084073,-12.75243)">
      <path
         style="fill:#006680;stroke:#000000;stroke-width:0.33974138;stroke-linecap:butt;stroke-linejoin:miter;stroke-opacity:1;stroke-miterlimit:4;stroke-dasharray:none"
         d="m 78.785929,226.26467 c -0.373398,1.40262 -0.676974,2.82558 -1.097142,4.21456 -0.355431,0.98041 -0.574701,2.01742 -1.098116,2.928 -0.211581,0.32673 -0.279836,0.76426 -0.493182,1.06121 -0.523926,0.0619 -0.03759,0.21156 0.197873,0.33942 0.988895,0.489 1.966609,1.0112 2.962474,1.4795 1.074022,0.18488 2.143532,0.41615 3.213521,0.60753 1.236511,-0.056 2.449981,-0.33085 3.687054,-0.38052 0.319426,-0.28497 0.638852,-0.56993 0.958278,-0.8549 -0.443553,-1.09201 -0.887106,-2.18403 -1.330659,-3.27604 -0.0018,-1.39441 -0.05958,-2.79359 0.180869,-4.174 0.08167,-0.63665 0.212076,-1.27276 0.07127,-1.90988 -0.05168,-0.42638 -0.10335,-0.85277 -0.155025,-1.27915 -2.050067,0.13525 -4.100133,0.27051 -6.1502,0.40576 -0.315673,0.2795 -0.631345,0.55901 -0.947018,0.83851 z"
         id="path975"
         inkscape:connector-curvature="0" />
      <path
         style="fill:#cccccc;fill-opacity:1;stroke:#000000;stroke-width:0.35980436px;stroke-linecap:butt;stroke-linejoin:miter;stroke-opacity:1"
         d="m 85.266298,221.76887 c 0.710281,0.0353 1.471864,-0.13384 2.10391,0.29045 0.748336,0.37845 1.177728,1.14209 1.470544,1.89236 0.677021,0.79634 -1.015772,1.07515 -1.553434,0.71602 -0.52607,-0.15385 -0.882711,-0.61989 -1.327125,-0.92405 -0.32651,-0.32034 -0.78918,-0.53814 -0.91202,-1.01186 -0.234562,-0.26061 0.01038,-0.51364 0.121786,-0.76879 0.03211,-0.0647 0.06423,-0.12942 0.09634,-0.19413 z"
         id="path1683"
         inkscape:connector-curvature="0" />
      <path
         style="fill:#808080;fill-opacity:1;stroke:#000000;stroke-width:0.36037099;stroke-linecap:butt;stroke-linejoin:round;stroke-miterlimit:4;stroke-dasharray:none;stroke-opacity:1"
         d="m 84.148828,222.92874 c 0.05394,-0.8739 0.147679,-1.88941 0.926811,-2.43929 0.888957,-0.27332 0.382708,1.05515 0.877144,1.39014 0.564512,0.45602 1.414667,0.87554 1.329258,1.72909 -0.06362,0.47657 -0.228323,1.15662 -0.794424,1.11656 -0.74921,-0.63848 -1.54259,-1.21875 -2.338789,-1.7965 z"
         id="path1685"
         inkscape:connector-curvature="0" />
      <path
         style="fill:#666666;fill-opacity:1;stroke:none;stroke-width:0.17949215px;stroke-linecap:butt;stroke-linejoin:miter;stroke-opacity:1"
         d="m 84.381986,236.17517 c 0.592142,0.11308 1.184283,0.22617 1.776425,0.33925 0.150241,0.36905 0.236165,0.78784 0.425101,1.12696 0.166147,0.19221 0.708908,0.30365 0.602685,0.55427 -0.509339,0.58079 -1.334057,0.75493 -2.048764,0.9517 -0.695536,0.066 -1.940182,0.21551 -2.319692,-0.22175 0.228269,-0.75235 0.585087,-1.49461 0.603265,-2.2886 -0.05388,-0.92034 -0.107763,-1.84069 -0.161645,-2.76104 0.218436,0.10047 0.678392,-0.0532 0.718246,0.23517 0.134793,0.68801 0.269586,1.37603 0.404379,2.06404 z"
         id="path1687"
         inkscape:connector-curvature="0" />
      <path
         style="fill:#b3b3b3;fill-opacity:1;stroke:none;stroke-width:0.17949215px;stroke-linecap:butt;stroke-linejoin:miter;stroke-opacity:1"
         d="m 83.187804,233.65435 c 1.263877,0.1623 2.704356,0.19018 3.776552,-0.60001 0.296684,-0.39281 0.221568,0.38822 0.327619,0.60228 0.125856,0.72426 0.38371,1.4325 0.315986,2.17677 0.0011,0.63464 0.0023,1.26928 0.0034,1.90392 -0.315655,0.55132 -0.904495,0.23799 -1.402586,0.1347 -0.93119,-0.20511 -1.990877,-0.69149 -2.171465,-1.73919 -0.193991,-0.85436 -0.391503,-1.71903 -0.849552,-2.47847 z"
         id="path1689"
         inkscape:connector-curvature="0" />
      <path
         style="fill:none;stroke:#000000;stroke-width:0.35767305;stroke-linecap:butt;stroke-linejoin:miter;stroke-miterlimit:4;stroke-dasharray:none;stroke-opacity:1"
         d="m 82.773615,239.05698 c 1.649851,0.4807 3.642941,0.0901 4.810994,-1.2227 0.32716,-1.65182 0.08453,-3.36514 -0.446051,-4.94768 -0.866909,1.0464 -2.393423,0.97083 -3.614201,0.81822 -0.689162,-0.17111 -0.05986,1.00729 -0.178491,1.45017 0.11511,1.32025 0.01039,2.69299 -0.572251,3.90199 z"
         id="path1691"
         inkscape:connector-curvature="0" />
      <path
         style="fill:#ffccaa;fill-opacity:1;stroke:none;stroke-width:0.2800692px;stroke-linecap:butt;stroke-linejoin:miter;stroke-opacity:1"
         d="m 81.747096,221.50771 c -0.162467,0.42436 -0.324934,0.84873 -0.487401,1.27309 -0.358199,0.0603 -0.716399,0.12067 -1.074598,0.18101 0.07054,0.2991 0.04418,0.67547 0.175425,0.92617 0.796197,0.29538 1.584,0.63753 2.385384,0.90401 0.562978,-0.0258 1.15046,0.0203 1.698085,-0.0506 0.222446,-0.19855 0.541904,-0.34387 0.707686,-0.57351 -0.04503,-0.24343 0.203944,-0.64202 -0.11054,-0.74323 -0.33151,-0.22599 -0.78414,-0.33004 -0.926896,-0.74605 -0.205777,-0.31295 -0.358733,-0.68725 -0.597115,-0.96233 -0.47491,-0.19447 -0.942516,-0.41671 -1.465442,-0.42864 -0.22939,-0.0875 -0.227497,0.0388 -0.304588,0.22013 z"
         id="path1693"
         inkscape:connector-curvature="0" />
      <path
         style="fill:#2d7c8f;fill-opacity:1;stroke:none;stroke-width:0.2800692px;stroke-linecap:butt;stroke-linejoin:miter;stroke-opacity:1"
         d="m 80.515969,223.02087 c 1.209512,0.73145 2.760214,1.28589 4.121574,0.6248 0.979706,-0.2487 1.858215,0.5657 1.859328,1.53901 0.09252,0.92822 0.253634,1.85033 0.323067,2.77908 -0.01237,1.04109 -0.259126,2.11886 0.129082,3.12469 0.169612,0.98734 -0.915223,1.25914 -1.627207,1.49078 -0.993821,0.28954 -2.043876,0.1555 -3.063029,0.22282 -0.876176,-0.21919 -2.663924,-0.3201 -2.415295,-1.57224 0.329057,-1.06073 0.429204,-2.16037 0.256196,-3.26171 -0.127419,-1.43615 -0.409464,-2.85974 -0.453686,-4.30201 0.05824,-0.41082 0.485977,-0.64479 0.86997,-0.64522 z"
         id="path1695"
         inkscape:connector-curvature="0" />
      <path
         style="fill:#b7c8b7;fill-opacity:1;stroke:none;stroke-width:0.2800692px;stroke-linecap:butt;stroke-linejoin:miter;stroke-opacity:1"
         d="m 79.732973,225.42621 c 0.153477,1.00033 0.382343,1.99297 0.368968,3.01035 -0.0088,0.54803 0.111223,1.11011 0.01312,1.64841 -0.147658,0.55921 -0.295315,1.11841 -0.442973,1.67762 1.28601,0.2381 2.572694,0.51041 3.867387,0.67571 1.11833,-0.17423 2.236659,-0.34847 3.354989,-0.5227 -0.0077,-1.00478 0.04922,-2.01758 0.0012,-3.01736 -0.337513,-1.2926 -0.675027,-2.58519 -1.01254,-3.87779 -1.535557,-0.12494 -3.080576,-0.16292 -4.600105,-0.43516 -0.318066,-0.0636 -0.551609,0.27587 -0.832002,0.39193 -0.23936,0.14966 -0.478721,0.29933 -0.718081,0.44899 z"
         id="path1697"
         inkscape:connector-curvature="0" />
      <path
         style="fill:none;fill-opacity:1;stroke:#000000;stroke-width:0.42010382;stroke-linecap:butt;stroke-linejoin:miter;stroke-miterlimit:4;stroke-dasharray:none;stroke-opacity:1"
         d="m 84.137327,222.59568 c 0.268739,0.8845 1.123614,1.03952 1.878835,1.29303 0.433292,0.59554 0.340661,1.39138 0.442682,2.09304 0.147256,1.75499 0.340766,3.5087 0.459108,5.26449 0.03445,0.66977 -0.132414,1.42349 -0.771422,1.77471 -1.124354,0.52519 -2.384388,0.1165 -3.559495,0.0319 -0.660141,-0.0861 -1.334469,-0.0264 -1.96725,-0.26295 -0.234703,-0.12207 -0.666693,-0.0334 -0.718034,-0.35133 -0.101729,-0.34296 -0.313979,-0.6782 -0.160585,-1.03897 0.139819,-0.78748 0.319445,-1.57382 0.434785,-2.362 -0.226982,-1.7765 -0.478648,-3.55884 -0.68999,-5.3311 0.200051,-0.8646 1.315591,-0.76606 1.823272,-1.05512 0.182407,-0.4408 0.318962,-0.90855 0.533656,-1.33021 0.396153,-0.12518 0.860359,-0.008 1.274219,0.0331 0.523889,0.21814 0.712669,0.81332 1.020219,1.24139 z"
         id="path1699"
         inkscape:connector-curvature="0" />
      <path
         style="fill:#b3b3b3;fill-opacity:1;stroke:#000000;stroke-width:0.34676549;stroke-linecap:butt;stroke-linejoin:miter;stroke-miterlimit:4;stroke-dasharray:none;stroke-opacity:1"
         d="m 79.606694,232.57324 c -0.768037,1.32851 -1.224888,2.82075 -1.482679,4.32814 0.685489,0.92414 1.978623,1.06384 3.048122,1.04587 1.133896,0.19728 0.836774,-1.14557 1.195333,-1.84136 0.207486,-0.90517 0.655624,-1.89675 0.297262,-2.81589 -1.019346,-0.23892 -2.038692,-0.47784 -3.058038,-0.71676 z"
         id="path1701"
         inkscape:connector-curvature="0" />
      <path
         style="fill:#6c5353;stroke:#000000;stroke-width:0.42010382;stroke-linecap:butt;stroke-linejoin:round;stroke-miterlimit:4;stroke-dasharray:none;stroke-opacity:1"
         d="m 86.92281,231.10777 c 0.247733,0.35294 0.495466,0.70588 0.743199,1.05882 -0.844777,1.45909 -2.709573,1.78487 -4.258625,1.6767 -1.4174,-0.0945 -2.817366,-0.45885 -4.10434,-1.05946 0.123017,-0.34041 0.246035,-0.68083 0.369052,-1.02124 1.891814,0.0698 3.741742,0.97618 5.644899,0.57704 0.681698,-0.16099 1.261988,-0.62631 1.605815,-1.23186 z"
         id="path1703"
         inkscape:connector-curvature="0" />
      <path
         style="fill:#6c5353;stroke:#000000;stroke-width:0.2800692;stroke-linecap:butt;stroke-linejoin:miter;stroke-miterlimit:4;stroke-dasharray:none;stroke-opacity:1"
         d="m 82.495532,233.0073 c 0.08638,0.42685 0.127789,0.87066 0.245917,1.28507 1.316545,1.00597 3.204608,0.67974 4.544333,-0.1177 0.620358,-0.15715 0.599417,-0.69303 0.487837,-1.18733 -0.07362,-0.36733 -0.02858,-0.77952 -0.213273,-1.10639 -1.078922,-0.29751 -2.252721,-0.4801 -3.365865,-0.24868 -0.649923,0.19458 -1.634636,0.62544 -1.698949,1.37503 z"
         id="path1705"
         inkscape:connector-curvature="0" />
      <path
         style="fill:#ececec;stroke:#000000;stroke-width:0.42010382;stroke-linecap:butt;stroke-linejoin:miter;stroke-miterlimit:4;stroke-dasharray:none;stroke-opacity:1"
         d="m 84.094533,232.23459 c -0.173041,0.32895 -0.560965,0.59965 -0.442203,1.0077 0.07676,0.24052 -0.09137,0.63387 0.165406,0.76204 0.291923,0.14404 0.553782,0.41969 0.903693,0.30989 0.55866,-0.0396 1.11732,-0.0793 1.67598,-0.11888 0.247051,-0.25986 0.494102,-0.51971 0.741153,-0.77957 -0.03529,-0.36223 -0.07058,-0.72445 -0.105875,-1.08668 -0.286561,-0.14615 -0.578267,-0.26483 -0.905038,-0.19623 -0.675794,0.041 -1.365732,0.0253 -2.033116,0.10173 z"
         id="path1707"
         inkscape:connector-curvature="0" />
      <path
         style="fill:#6c5353;fill-opacity:1;stroke:#000000;stroke-width:0.42010382;stroke-linecap:butt;stroke-linejoin:round;stroke-miterlimit:4;stroke-dasharray:none;stroke-opacity:1"
         d="m 83.526213,227.58917 c -0.108502,0.55236 -0.217003,1.10473 -0.325505,1.65709 -1.00625,-0.0543 -2.012499,-0.10857 -3.018749,-0.16285 0.136223,-0.50764 -0.169688,-1.41025 0.01673,-1.65538 1.109173,0.0537 2.218347,0.10743 3.32752,0.16114 z"
         id="path1709"
         inkscape:connector-curvature="0" />
      <path
         style="fill:#b3b3b3;stroke:#000000;stroke-width:0.42010382;stroke-linecap:round;stroke-linejoin:round;stroke-miterlimit:4;stroke-dasharray:none;stroke-opacity:1"
         d="m 86.439248,223.70513 c 0.899182,1.89278 1.220367,4.09202 0.795824,6.14652 -0.03565,0.72689 -0.708715,1.11709 -1.362241,1.20032 -0.956136,0.18973 -1.930267,0.28696 -2.884152,0.48153 -1.050455,0.0906 -1.332702,-0.92716 -1.149654,-1.7828 -0.02432,-1.49109 -0.141467,-2.99118 -0.489982,-4.44196 0.09368,-1.21708 1.488992,-0.55675 2.230466,-0.43462 0.889599,0.24368 1.995095,0.15881 2.548516,-0.68175 0.117532,-0.15312 0.219747,-0.31744 0.311223,-0.48724 z"
         id="path1711"
         inkscape:connector-curvature="0" />
      <path
         style="fill:#ffffff;stroke:none;stroke-width:0.2800692;stroke-linecap:butt;stroke-linejoin:miter;stroke-miterlimit:4;stroke-dasharray:none;stroke-opacity:1"
         d="m 85.883174,225.02045 c 0.671607,0.62699 1.348848,1.49305 1.084373,2.47552 -0.01145,0.46342 -0.250994,0.63469 -0.239685,0.0929 -0.05916,-0.70107 0.111072,-1.78148 -0.729275,-2.05366 -0.635176,0.0825 -0.773561,0.15162 -0.283372,-0.32862 0.05599,-0.062 0.111973,-0.12408 0.167959,-0.18612 z"
         id="path1713"
         inkscape:connector-curvature="0" />
      <path
         style="fill:#666666;stroke:none;stroke-width:0.2800692;stroke-linecap:butt;stroke-linejoin:miter;stroke-miterlimit:4;stroke-dasharray:none;stroke-opacity:1"
         d="m 82.031859,226.71413 c 0.0088,1.44845 0.250913,2.89099 0.210614,4.33874 1.547351,0.0565 3.102492,-0.38959 4.458698,-1.11907 0.489177,-0.75755 -0.570297,-0.69553 -0.968629,-0.35487 -0.998862,0.40784 -2.350517,0.18105 -2.849486,-0.86835 -0.193164,-0.46016 -0.303556,-0.9463 -0.558035,-1.38294 -0.09772,-0.20451 -0.195441,-0.40901 -0.293162,-0.61351 z"
         id="path1715"
         inkscape:connector-curvature="0" />
      <path
         style="fill:#808080;stroke:none;stroke-width:0.2800692px;stroke-linecap:butt;stroke-linejoin:miter;stroke-opacity:1"
         d="m 84.237315,232.40565 c -0.167883,0.28595 -0.479226,0.52979 -0.381155,0.89382 0.0057,0.28251 -0.06129,0.60929 0.298029,0.67629 0.321091,0.28032 0.744595,0.0947 1.125355,0.10356 0.357314,-0.0496 0.759633,-0.009 1.090347,-0.11196 0.115418,-0.1624 0.578319,-0.60306 0.45414,-0.57359 -0.708434,0.38136 -1.82449,0.74429 -2.416946,-0.0187 -0.193175,-0.28136 -0.222176,-0.64091 -0.16977,-0.96946 z"
         id="path1717"
         inkscape:connector-curvature="0" />
      <path
         style="fill:#cccccc;fill-opacity:1;stroke:none;stroke-width:0.20152311px;stroke-linecap:butt;stroke-linejoin:miter;stroke-opacity:1"
         d="m 78.618846,222.62719 c -0.881284,0.0468 -2.447773,0.99137 -1.881849,1.94386 0.760758,0.40798 1.59198,0.67919 2.349919,1.11119 0.748718,0.41735 1.886137,0.36777 2.366076,-0.41645 -0.09467,-0.6531 -0.487441,-1.29968 -0.629433,-1.98662 -0.435951,-0.66019 -1.480946,-1.18179 -2.204713,-0.65198 z"
         id="path1721"
         inkscape:connector-curvature="0" />
      <path
         style="fill:#808080;fill-opacity:1;stroke:none;stroke-width:0.20152311px;stroke-linecap:butt;stroke-linejoin:miter;stroke-opacity:1"
         d="m 76.523757,224.27603 c -0.473427,-0.0477 -0.953036,0.18847 -0.426654,0.60336 0.343338,0.61909 1.126772,0.66652 1.69974,0.98676 0.693226,0.19261 1.419167,0.42532 2.140296,0.23126 0.683566,-0.12482 -0.627922,-0.45183 -0.840245,-0.52222 -0.880492,-0.38187 -1.729416,-0.84212 -2.573137,-1.29916 z"
         id="path1723"
         inkscape:connector-curvature="0" />
      <path
         style="fill:none;stroke:#000000;stroke-width:0.47974864;stroke-linecap:butt;stroke-linejoin:miter;stroke-miterlimit:4;stroke-dasharray:none;stroke-opacity:1"
         d="m 75.780961,224.46303 c 0.362249,1.10609 1.713567,1.25467 2.663166,1.59905 0.971291,0.17596 2.123486,0.11921 2.926041,-0.50103 0.550118,-0.56194 0.397454,-1.3926 -0.105583,-1.92195 -0.591078,-0.93922 -1.798004,-1.55107 -2.881059,-1.1053 -0.732892,0.33163 -1.577825,0.69979 -1.889695,1.50836 -0.03529,0.46109 -0.498323,0.15034 -0.71287,0.42087 z"
         id="path1725"
         inkscape:connector-curvature="0" />
      <path
         style="fill:#006680;fill-opacity:1;stroke:#000000;stroke-width:0.33974138;stroke-linecap:butt;stroke-linejoin:miter;stroke-opacity:1;stroke-miterlimit:4;stroke-dasharray:none"
         d="m 82.503497,224.19126 c 0.792312,0.316 1.700609,0.36499 2.501378,0.0505 0.561116,-0.15594 1.227419,-0.61242 1.329027,0.24694 0.207536,-0.94145 -0.409496,0.25034 -0.520036,0.5742 -0.555332,0.37491 -1.095495,0.86127 -1.816834,0.79987 -0.80529,0.0634 -1.654203,0.29678 -2.156061,0.97832 -0.514881,0.4918 -0.918557,1.07901 -1.327622,1.65736 -0.07247,-0.49043 -0.144941,-0.98085 -0.217411,-1.47128 0.36088,-0.66684 0.157998,-1.37945 0.01382,-2.07391 -0.333821,-0.59356 0.490295,-1.17761 0.8504,-1.32519 0.388388,0.35271 0.818269,0.5319 1.343337,0.56317 z"
         id="path983"
         inkscape:connector-curvature="0" />
      <path
         style="fill:#f9f9f9;stroke:none;stroke-width:0.20152311px;stroke-linecap:butt;stroke-linejoin:miter;stroke-opacity:1"
         d="m 79.028349,222.7887 c -0.260299,0.11616 -0.520599,0.23231 -0.780898,0.34847 0.85631,0.0315 1.930784,0.0304 2.446039,0.84171 0.246521,0.85312 0.112421,-0.76595 -0.305108,-0.8668 -0.376464,-0.31048 -0.893698,-0.33915 -1.360033,-0.32338 z"
         id="path1731"
         inkscape:connector-curvature="0" />
      <path
         style="fill:#666666;fill-opacity:1;stroke:none;stroke-width:0.17401837px;stroke-linecap:butt;stroke-linejoin:miter;stroke-opacity:1"
         d="m 80.250726,236.56919 c 0.341349,0.41649 0.614485,0.89864 1.067493,1.20763 -1.041245,0.0643 -2.305921,-0.0189 -2.997625,-0.90955 0.142908,-1.07442 0.451581,-2.12216 0.887645,-3.11358 0.147198,-0.16723 0.172593,-0.87069 0.427342,-0.56702 0.646787,0.47094 0.604877,1.30909 0.330859,1.96982 -0.141494,0.48777 -0.02189,1.01163 0.284286,1.4127 z"
         id="path1733"
         inkscape:connector-curvature="0" />
      <path
         style="fill:#b3b3b3;fill-opacity:1;stroke:none;stroke-width:0.21916194px;stroke-linecap:butt;stroke-linejoin:miter;stroke-opacity:1"
         d="m 86.115539,224.2588 c -0.115249,-0.28888 0.06072,-0.58383 0.34113,-0.66378 0.376563,-0.11593 0.910509,0.068 0.873923,0.52895 0.07611,0.31855 -0.345726,0.49245 -0.589276,0.51236 -0.222652,-0.1089 -0.484823,-0.15382 -0.625777,-0.37753 z"
         id="path1741"
         inkscape:connector-curvature="0" />
      <path
         style="fill:#006680;fill-opacity:1;stroke:#000000;stroke-width:0.33974138;stroke-linecap:butt;stroke-linejoin:miter;stroke-opacity:1;stroke-miterlimit:4;stroke-dasharray:none"
         d="m 86.064549,224.20409 c -0.03623,0.70264 -0.02974,1.41456 -0.09259,2.11142 -0.07349,0.25704 -0.29521,0.55657 -0.276529,0.7872 0.23756,0.20246 0.494862,0.3551 0.816705,0.34484 0.28285,-0.002 0.65924,0.0247 0.46116,-0.36241 -0.176447,-0.89504 -0.231883,-1.81297 -0.165487,-2.72266 -0.246265,-0.0619 -0.489906,-0.1315 -0.743255,-0.15839 z"
         id="path977"
         inkscape:connector-curvature="0" />
      <path
         style="fill:#808080;fill-opacity:1;stroke:none;stroke-width:0.21916194px;stroke-linecap:butt;stroke-linejoin:miter;stroke-opacity:1"
         d="m 86.176344,223.79634 c 0.183945,0.31576 0.426054,0.80672 0.770208,0.79028 -0.482956,0.30643 -1.233873,-0.32154 -0.770208,-0.79028 z"
         id="path1743"
         inkscape:connector-curvature="0" />
      <path
         style="opacity:1;fill:none;fill-opacity:1;stroke:#1a1a1a;stroke-width:0.16566573;stroke-linecap:round;stroke-linejoin:round;stroke-miterlimit:4;stroke-dasharray:none"
         d="m 87.336731,224.1136 c -0.0087,0.74306 -1.270633,0.77582 -1.333091,0.0413 -0.04632,-0.73918 1.189629,-0.84894 1.323381,-0.14043 l 0.008,0.0579 z"
         id="ellipse1745"
         inkscape:connector-curvature="0" />
      <path
         style="opacity:1;fill:#b3b3b3;fill-opacity:1;stroke:#1a1a1a;stroke-width:0.21170586;stroke-linecap:round;stroke-linejoin:round;stroke-miterlimit:4;stroke-dasharray:none"
         d="m 87.275762,224.15939 c -0.01547,0.50718 -0.938324,0.44267 -0.844581,-0.0704 0.107391,-0.40653 0.824553,-0.36668 0.844581,0.0704 z"
         id="ellipse1747"
         inkscape:connector-curvature="0" />
      <path
         style="fill:#ffffff;stroke:none;stroke-width:0.14066768px;stroke-linecap:butt;stroke-linejoin:miter;stroke-opacity:1"
         d="m 86.708654,223.98819 c 0.291946,0.0608 0.476524,0.47322 0.290405,0.005 -0.09003,-0.0456 -0.197809,-0.0348 -0.290405,-0.005 z"
         id="path1749"
         inkscape:connector-curvature="0" />
      <path
         style="fill:#006680;fill-opacity:1;stroke:#000000;stroke-width:0.33974138;stroke-linecap:butt;stroke-linejoin:miter;stroke-opacity:1;stroke-miterlimit:4;stroke-dasharray:none"
         d="m 87.344349,224.29001 c 0.163401,0.57341 0.232085,1.18614 0.605088,1.67252 0.142676,0.2376 0.272276,0.48269 0.408569,0.72395 -0.353341,0.26574 -0.962829,1.084 -0.966565,0.17745 -0.295529,-0.73734 -0.150181,-1.54772 -0.402266,-2.29509 0.118391,-0.0929 0.236783,-0.18589 0.355174,-0.27883 z"
         id="path979"
         inkscape:connector-curvature="0" />
      <path
         style="fill:#808080;fill-opacity:1;stroke:none;stroke-width:0.25856963px;stroke-linecap:butt;stroke-linejoin:miter;stroke-opacity:1"
         d="m 81.181894,224.44271 c -0.675793,-0.007 -0.756114,1.48146 -0.199898,1.32422 0.330291,-0.0499 0.1846,-0.47598 0.278026,-0.71308 0.02815,-0.21766 0.05412,-0.41969 -0.07813,-0.61114 z"
         id="path1811"
         inkscape:connector-curvature="0" />
      <path
         style="fill:#006680;fill-opacity:1;stroke:#000000;stroke-width:0.33974138;stroke-linecap:butt;stroke-linejoin:miter;stroke-opacity:1;stroke-miterlimit:4;stroke-dasharray:none"
         d="m 78.700632,222.08344 c 0.47301,0.62231 0.96242,1.23401 1.298633,1.94474 0.337935,0.56987 0.51065,1.2168 0.768183,1.82417 0.391501,0.0801 0.783003,0.16017 1.174504,0.24025 0.652587,-0.21441 1.106412,-0.6176 0.7207,-1.31066 -0.210645,-1.10821 -1.021402,-1.94204 -1.57368,-2.88777 -0.664295,-0.033 -1.333629,-0.17912 -1.98832,0.003 -0.167427,-0.004 -0.274763,0.0891 -0.40002,0.18604 z"
         id="path981"
         inkscape:connector-curvature="0" />
      <path
         style="fill:#b3b3b3;fill-opacity:1;stroke:none;stroke-width:0.2800692px;stroke-linecap:butt;stroke-linejoin:miter;stroke-opacity:1"
         d="m 80.737776,224.95768 c -0.05796,-0.29108 -0.07883,-0.57014 0.198016,-0.75282 0.194297,-0.24127 0.577545,-0.17643 0.854815,-0.13248 0.264423,0.12587 0.433962,0.3578 0.42423,0.65768 0.115874,0.37679 -0.26192,0.61742 -0.573265,0.71724 -0.243057,0.0617 -0.515406,-0.18447 -0.736667,-0.28717 -0.05571,-0.0675 -0.111419,-0.13497 -0.167129,-0.20245 z"
         id="path1727"
         inkscape:connector-curvature="0" />
      <path
         style="fill:#808080;fill-opacity:1;stroke:none;stroke-width:0.2800692px;stroke-linecap:butt;stroke-linejoin:miter;stroke-opacity:1"
         d="m 80.81187,224.33791 c 0.273969,0.402 0.433559,1.06076 0.948497,1.05454 -0.638046,0.42318 -1.505636,-0.46746 -0.948497,-1.05454 z"
         id="path1729"
         inkscape:connector-curvature="0" />
      <path
         style="opacity:1;fill:none;fill-opacity:1;stroke:#1a1a1a;stroke-width:0.21170586;stroke-linecap:round;stroke-linejoin:round;stroke-miterlimit:4;stroke-dasharray:none"
         d="m 82.225858,224.76309 c 0.0285,0.76802 -1.111504,1.07142 -1.497554,0.42247 -0.432957,-0.58676 0.264322,-1.41786 0.924645,-1.16945 0.326091,0.0913 0.577625,0.40471 0.572909,0.74698 z"
         id="ellipse1735"
         inkscape:connector-curvature="0" />
      <path
         style="opacity:1;fill:#b3b3b3;fill-opacity:1;stroke:#1a1a1a;stroke-width:0.21170586;stroke-linecap:round;stroke-linejoin:round;stroke-miterlimit:4;stroke-dasharray:none"
         d="m 82.15156,224.82446 c 0.0061,0.57453 -0.939663,0.64032 -1.031961,0.0808 -0.108908,-0.56535 0.801119,-0.77108 0.996637,-0.2529 0.02313,0.0542 0.03537,0.11317 0.03532,0.17215 z"
         id="ellipse1737"
         inkscape:connector-curvature="0" />
      <path
         style="fill:#ffffff;stroke:none;stroke-width:0.21380205px;stroke-linecap:butt;stroke-linejoin:miter;stroke-opacity:1"
         d="m 81.409248,224.59767 c 0.508367,-0.16852 0.444405,0.90436 0.549861,0.16852 -0.06708,-0.22928 -0.36511,-0.24552 -0.549861,-0.16852 z"
         id="path1739"
         inkscape:connector-curvature="0" />
    </g>
  </g>
</svg>
