<?xml version="1.0" encoding="UTF-8" standalone="no"?>
<!-- Created with Inkscape (http://www.inkscape.org/) -->

<svg
   xmlns:dc="http://purl.org/dc/elements/1.1/"
   xmlns:cc="http://creativecommons.org/ns#"
   xmlns:rdf="http://www.w3.org/1999/02/22-rdf-syntax-ns#"
   xmlns:svg="http://www.w3.org/2000/svg"
   xmlns="http://www.w3.org/2000/svg"
   xmlns:sodipodi="http://sodipodi.sourceforge.net/DTD/sodipodi-0.dtd"
   xmlns:inkscape="http://www.inkscape.org/namespaces/inkscape"
   width="500"
   height="500"
   viewBox="0 0 132.29166 132.29167"
   version="1.1"
   id="svg8"
   sodipodi:docname="trunk_wizard.svg"
   inkscape:version="0.92.2 5c3e80d, 2017-08-06">
  <defs
     id="defs2" />
  <sodipodi:namedview
     id="base"
     pagecolor="#ffffff"
     bordercolor="#666666"
     borderopacity="1.0"
     inkscape:pageopacity="0.0"
     inkscape:pageshadow="2"
     inkscape:zoom="5.12"
     inkscape:cx="303.77735"
     inkscape:cy="249.80374"
     inkscape:document-units="mm"
     inkscape:current-layer="g1785"
     showgrid="false"
     units="px"
     inkscape:window-width="1680"
     inkscape:window-height="921"
     inkscape:window-x="13"
     inkscape:window-y="0"
     inkscape:window-maximized="0"
     inkscape:snap-global="false" />
  <metadata
     id="metadata5">
    <rdf:RDF>
      <cc:Work
         rdf:about="">
        <dc:format>image/svg+xml</dc:format>
        <dc:type
           rdf:resource="http://purl.org/dc/dcmitype/StillImage" />
        <dc:title />
      </cc:Work>
    </rdf:RDF>
  </metadata>
  <g
     inkscape:label="Layer 1"
     inkscape:groupmode="layer"
     id="layer1"
     transform="translate(0,-164.70832)">
    <g
       id="g1785"
       transform="matrix(1.2851698,0,0,1.061818,-40.084073,-12.75243)">
      <path
         style="fill:#ffccaa;fill-opacity:1;stroke:none;stroke-width:0.42031626;stroke-linecap:butt;stroke-linejoin:miter;stroke-miterlimit:4;stroke-dasharray:none;stroke-opacity:1"
         d="m 81.747096,221.50771 c 0.01827,0.88385 -0.970712,1.16615 -1.385331,1.79845 -0.169592,0.89547 0.830961,1.58716 0.785348,2.54008 0.218956,1.03757 0.220198,2.18209 0.804096,3.09789 0.773745,0.78002 1.970799,0.35288 2.85411,0.0225 0.678334,-0.15721 1.206325,-0.45012 0.926546,-1.22951 -0.127378,-1.31564 -0.538613,-2.58541 -0.66147,-3.90172 -0.76984,-0.9328 -1.359524,-2.24912 -2.646154,-2.54176 -0.239747,-0.0138 -0.649545,-0.14177 -0.677145,0.21411 z"
         id="path1693"
         inkscape:connector-curvature="0" />
      <path
         style="fill:none;fill-opacity:1;stroke:#000000;stroke-width:0.42031626;stroke-linecap:butt;stroke-linejoin:miter;stroke-miterlimit:4;stroke-dasharray:none;stroke-opacity:1"
         d="m 84.137327,222.59568 c 0.35853,1.14738 2.085307,0.98792 2.367705,2.1802 -0.01569,0.8885 0.277727,1.76957 0.163774,2.67562 0.0021,0.94728 -0.284409,1.95431 0.106901,2.85234 0.364896,1.14233 -0.08284,2.77014 -1.408474,3.00748 -0.918867,0.0958 -1.80443,-0.32471 -2.734214,-0.23272 -0.989406,-0.0186 -2.13038,-0.0749 -2.832371,-0.87655 -0.271768,-1.41151 0.657063,-2.78227 0.264604,-4.18987 -0.09854,-1.55067 -0.740932,-3.09359 -0.381527,-4.65301 0.913861,-0.44938 1.988967,-0.95222 2.311621,-2.00753 0.91333,-0.44546 1.843914,0.43844 2.141981,1.24404 z"
         id="path1699"
         inkscape:connector-curvature="0" />
      <path
         style="fill:#e0bb34;fill-opacity:1;stroke:#000000;stroke-width:0.42031625;stroke-linecap:butt;stroke-linejoin:miter;stroke-miterlimit:4;stroke-dasharray:none;stroke-opacity:1"
         d="m 81.628958,230.94584 c -0.614527,0.94046 -0.276098,2.22468 -0.971719,3.1182 -0.459636,0.42238 -1.193365,0.0814 -1.286683,0.88824 -0.599322,1.2505 -1.233462,2.48601 -1.960476,3.66638 -0.686325,1.5612 0.972243,3.35699 2.58415,3.04121 1.174693,-0.11144 2.387883,-0.88664 3.54862,-0.28296 1.428159,-0.16301 3.095258,-0.0363 4.185866,-1.155 0.500974,-0.71692 1.551234,-0.98808 1.724787,-1.85043 -0.138486,-1.99244 -2.164168,-3.32262 -2.099796,-5.36602 0.230729,-0.85989 -0.185359,-1.7433 -0.892526,-2.2429 -0.758829,-0.42442 -1.183399,-1.33729 -2.069364,-1.49661 -1.393974,-0.23025 -2.781261,0.74885 -3.310208,2.00716 0.143934,-0.31593 0.702573,-1.26569 0.547349,-0.32727 z"
         id="path842"
         inkscape:connector-curvature="0"
         sodipodi:nodetypes="ccccccccccccc" />
      <path
         style="fill:#6aa526;fill-opacity:1;stroke:#000000;stroke-width:0.42031625;stroke-linecap:butt;stroke-linejoin:miter;stroke-miterlimit:4;stroke-dasharray:none;stroke-opacity:1"
         d="m 79.003803,224.78565 c 1.20973,0.65215 0.442957,0.82243 0.769419,2.01395 0.20294,0.89529 0.800843,1.76779 1.752459,1.94919 1.562524,0.42284 3.095788,-0.33417 4.638048,-0.48252 0.918928,-0.55711 0.223937,-2.94954 0.292301,-3.86118 0.389174,-0.7212 0.477658,-0.6307 -0.134181,-1.37825 -0.715069,-0.75967 -1.165232,-0.7747 -1.500067,-0.0828 -0.389652,0.82856 -0.677385,0.8708 -1.599666,0.79621 -1.684725,0.16869 -2.549145,-0.80669 -4.233978,-0.6289 -0.509378,-0.0414 -0.501461,1.28528 0.01567,1.67434 z"
         id="path826"
         inkscape:connector-curvature="0"
         sodipodi:nodetypes="ccccccccccc" />
      <path
         style="fill:#dca65b;fill-opacity:1;stroke:#000000;stroke-width:0.42031626;stroke-linecap:butt;stroke-linejoin:miter;stroke-miterlimit:4;stroke-dasharray:none;stroke-opacity:1"
         d="m 79.268025,227.87712 c 2.410641,0.61088 4.945576,0.23513 7.296055,-0.45518 1.205381,-0.0654 -0.08084,1.08272 -0.651562,1.06687 -0.7005,-0.0545 -1.415432,0.0134 -2.121651,0.1228 -1.437953,0.16391 -3.041157,0.48968 -4.351177,-0.31788 -0.210096,-0.16437 -0.386781,-0.18407 -0.171665,-0.41661 z"
         id="path832"
         inkscape:connector-curvature="0" />
      <path
         style="fill:#a05a2c;fill-opacity:1;stroke:#000000;stroke-width:0.42031626;stroke-linecap:butt;stroke-linejoin:miter;stroke-miterlimit:4;stroke-dasharray:none;stroke-opacity:1"
         d="m 80.341741,228.81776 c -0.424648,0.99286 0.585792,1.77987 1.517954,1.70919 1.049563,0.0939 2.100396,-0.12446 3.145218,-0.0534 0.746708,-0.10964 1.652037,-0.72985 1.540183,-1.57352 -0.452403,-1.09601 -1.786603,-0.13761 -2.651144,-0.24559 -1.179347,0.1268 -2.366507,0.16993 -3.552211,0.16334 z"
         id="path834"
         inkscape:connector-curvature="0" />
      <path
         style="fill:#dca65b;fill-opacity:1;stroke:#000000;stroke-width:0.42031626;stroke-linecap:butt;stroke-linejoin:miter;stroke-miterlimit:4;stroke-dasharray:none;stroke-opacity:1"
         d="m 79.873833,229.79384 c -1.15021,0.20659 -0.59737,1.50328 0.283089,1.63337 0.940225,0.28483 1.932581,0.07 2.907156,0.19307 1.437561,3.5e-4 2.886994,-0.22157 4.225689,-0.75786 0.680096,-0.90215 -0.908613,-1.84386 -1.345885,-0.77329 -1.997219,0.57867 -4.270202,0.74064 -6.16549,-0.25536 0.03181,-0.0133 0.06363,-0.0266 0.09544,-0.0399 z"
         id="path836"
         inkscape:connector-curvature="0" />
      <path
         style="fill:#395907;fill-opacity:1;stroke:#000000;stroke-width:0.42031626;stroke-linecap:butt;stroke-linejoin:miter;stroke-miterlimit:4;stroke-dasharray:none;stroke-opacity:1"
         d="m 79.786244,230.9851 c -0.347393,1.25357 -1.505149,2.25016 -1.434147,3.61649 0.136075,1.00878 1.408131,1.12054 2.17971,1.45997 0.782726,0.24633 2.066711,0.26478 2.351241,-0.6664 -0.02412,-1.15373 0.578138,-2.35861 0.09319,-3.47495 -0.566942,-0.86452 -1.785555,0.0574 -2.579861,-0.6314 -0.208888,-0.0897 -0.412125,-0.19215 -0.61013,-0.30371 z"
         id="path838"
         inkscape:connector-curvature="0" />
      <path
         style="fill:#62a725;fill-opacity:1;stroke:#000000;stroke-width:0.42031626;stroke-linecap:butt;stroke-linejoin:miter;stroke-miterlimit:4;stroke-dasharray:none;stroke-opacity:1"
         d="m 85.907441,231.74285 c 0.535884,1.17985 -0.05594,2.59791 0.587113,3.74111 0.624858,0.70503 1.794768,0.13561 2.181005,-0.56727 0.500621,-0.87172 0.285284,-1.9297 -0.03097,-2.81806 -0.0494,-0.78625 -0.832156,-1.64961 -1.661053,-1.26095 -0.291032,0.35918 -1.063196,0.42514 -1.076098,0.90517 z"
         id="path840"
         inkscape:connector-curvature="0" />
      <path
         style="fill:#62a725;fill-opacity:1;stroke:none;stroke-width:0.22649425px;stroke-linecap:butt;stroke-linejoin:miter;stroke-opacity:1"
         d="m 80.13648,235.48745 c 0.699244,0.20606 1.45612,0.53626 2.180889,0.25725 0.659227,-0.37522 0.363738,-1.25001 0.49868,-1.86655 -0.08726,-0.5971 0.236719,-1.33135 -0.188327,-1.82881 -0.596641,-0.22679 -1.274368,-0.30473 -1.920206,-0.29505 -0.798987,0.0698 -0.33706,1.09359 -0.296688,1.59539 0.18352,0.71191 0.105754,1.50149 -0.274348,2.13777 z"
         id="path2544"
         inkscape:connector-curvature="0" />
      <path
         style="fill:#395907;fill-opacity:1;stroke:none;stroke-width:0.22649425px;stroke-linecap:butt;stroke-linejoin:miter;stroke-opacity:1"
         d="m 79.695774,223.42557 c 0.6129,0.45225 1.540266,0.5316 1.868779,1.31421 0.489006,0.7952 0.93529,1.63889 1.154261,2.54871 0.151794,0.79796 -0.768474,0.61351 -1.255987,0.58832 -0.641126,0.15441 -1.292783,-0.14338 -1.393369,-0.84812 -0.367627,-0.61167 -0.06005,-1.47355 -0.409893,-2.07553 -0.438258,-0.3792 -1.369234,-1.02646 -0.660871,-1.60806 0.19037,-0.0794 0.501471,0.0484 0.69708,0.08 z"
         id="path2552"
         inkscape:connector-curvature="0"
         sodipodi:nodetypes="ccccccccc" />
      <path
         style="fill:#d45500;stroke:#000000;stroke-width:0.22649425px;stroke-linecap:butt;stroke-linejoin:miter;stroke-opacity:1"
         d="m 78.20306,237.67271 c 0.580235,1.00285 1.970541,1.61916 2.896255,0.67966 1.085725,-0.64422 2.129131,0.28042 3.21029,0.29673 1.234477,0.10364 1.634694,-1.52078 2.885597,-1.31256 0.758631,0.22963 1.652217,-1.35468 1.72834,0.0575 -0.02964,1.17301 -1.463702,0.7207 -2.189223,1.00434 -0.690218,0.70701 -1.613603,1.17925 -2.604284,1.29624 -1.083448,0.0164 -2.094602,-1.07001 -3.169018,-0.39337 -0.908554,0.5287 -2.205479,0.53375 -2.878297,-0.37617 -0.352179,-0.39759 -0.287045,-0.92468 0.12034,-1.25241 z"
         id="path2564"
         inkscape:connector-curvature="0" />
      <path
         style="opacity:0.6;fill:#000000;stroke:none;stroke-width:0.22649425px;stroke-linecap:butt;stroke-linejoin:miter;stroke-opacity:1"
         d="m 83.242743,228.81126 c -0.816307,0.85258 -0.08939,1.21362 0.07108,1.75508 l -0.589977,-0.0344 c 0,0 -0.931168,-0.12042 -1.00225,-0.15486 -0.07108,-0.0344 -0.561544,0.009 -0.618409,0.009 -0.05687,0 -0.440706,-0.26667 -0.511788,-0.33553 -0.07108,-0.0688 -0.127947,-0.48179 -0.127947,-0.48179 l 0.01423,-0.32692 -0.02132,-0.39576 c 0,0 0.703854,-0.0314 0.774789,-0.0258 l 1.322116,0.10324 0.632627,-0.21506 z"
         id="path2570"
         inkscape:connector-curvature="0"
         sodipodi:nodetypes="ccccsccccsccc" />
      <path
         style="fill:none;stroke:#cccccc;stroke-width:0.51362476;stroke-linecap:butt;stroke-linejoin:miter;stroke-opacity:1;stroke-miterlimit:4;stroke-dasharray:none"
         d="m 84.742566,228.84567 c -0.381471,-0.0172 -0.762942,-0.0344 -1.144413,-0.0516 -0.537329,0.17919 -0.759715,0.98028 -0.388591,1.40351 0.439845,0.30951 1.127713,0.27611 1.546365,-0.0563 0.36973,-0.29935 0.586569,-1.11778 -0.01336,-1.29565 z"
         id="path2572"
         inkscape:connector-curvature="0" />
      <path
         style="fill:none;stroke:#e6e6e6;stroke-width:0.51362476;stroke-linecap:butt;stroke-linejoin:miter;stroke-opacity:1;stroke-miterlimit:4;stroke-dasharray:none"
         d="m 84.10994,228.86288 c 0.04739,0.47318 0.09477,0.94637 0.142162,1.41955"
         id="path2574"
         inkscape:connector-curvature="0" />
    </g>
  </g>
</svg>
