<?xml version="1.0" encoding="UTF-8" standalone="no"?>
<!-- Created with Inkscape (http://www.inkscape.org/) -->

<svg
   xmlns:dc="http://purl.org/dc/elements/1.1/"
   xmlns:cc="http://creativecommons.org/ns#"
   xmlns:rdf="http://www.w3.org/1999/02/22-rdf-syntax-ns#"
   xmlns:svg="http://www.w3.org/2000/svg"
   xmlns="http://www.w3.org/2000/svg"
   xmlns:sodipodi="http://sodipodi.sourceforge.net/DTD/sodipodi-0.dtd"
   xmlns:inkscape="http://www.inkscape.org/namespaces/inkscape"
   width="500"
   height="500"
   viewBox="0 0 132.29166 132.29167"
   version="1.1"
   id="svg8"
   sodipodi:docname="trunk_warlock_f.svg"
   inkscape:version="0.92.2 5c3e80d, 2017-08-06">
  <defs
     id="defs2" />
  <sodipodi:namedview
     id="base"
     pagecolor="#ffffff"
     bordercolor="#666666"
     borderopacity="1.0"
     inkscape:pageopacity="0.0"
     inkscape:pageshadow="2"
     inkscape:zoom="7.2407734"
     inkscape:cx="255.03118"
     inkscape:cy="242.61549"
     inkscape:document-units="mm"
     inkscape:current-layer="g1785"
     showgrid="false"
     units="px"
     inkscape:window-width="1680"
     inkscape:window-height="917"
     inkscape:window-x="0"
     inkscape:window-y="1"
     inkscape:window-maximized="1" />
  <metadata
     id="metadata5">
    <rdf:RDF>
      <cc:Work
         rdf:about="">
        <dc:format>image/svg+xml</dc:format>
        <dc:type
           rdf:resource="http://purl.org/dc/dcmitype/StillImage" />
        <dc:title></dc:title>
      </cc:Work>
    </rdf:RDF>
  </metadata>
  <g
     inkscape:label="Layer 1"
     inkscape:groupmode="layer"
     id="layer1"
     transform="translate(0,-164.70832)">
    <g
       id="g1785"
       transform="matrix(1.2851698,0,0,1.061818,-40.084073,-12.75243)">
      <path
         style="fill:#333333;stroke:#000000;stroke-width:0.22649425px;stroke-linecap:butt;stroke-linejoin:miter;stroke-opacity:1"
         d="m 80.366306,240.22832 1.427448,-1.72771 1.125875,-0.92469 0.944931,-0.55968 1.708915,-0.073 1.451188,0.27628 c 0.0323,0.30536 2.01273,-0.2385 0.01647,2.52212 l -0.462413,1.04633 2.714161,-1.70335 -0.542833,-4.47744 -2.088287,-2.49224 -6.496849,-0.37857 -0.703328,2.60313 -0.924826,3.60143 c 0,0 0.381993,1.75204 0.462412,1.77637 0.08042,0.0243 1.367134,0.51102 1.367134,0.51102 z"
         id="path899"
         inkscape:connector-curvature="0"
         sodipodi:nodetypes="ccccccccccccccccc" />
      <path
         style="fill:#1a1a1a;stroke:#000000;stroke-width:0.22649425px;stroke-linecap:butt;stroke-linejoin:miter;stroke-opacity:1"
         d="m 81.785572,232.78601 1.037792,3.16603 0.284324,2.59821 0.07108,1.25609 0.284326,0.82592 1.620661,0.61944 0.92406,-1.27329 0.554436,-1.15285 c 0,0 -0.241678,-1.65185 -0.241678,-1.77229 0,-0.12045 0,-2.27129 0,-2.27129 l 0.113731,-1.97877 0.22746,-0.68827 c 0,0 -2.459421,0.73989 -2.50207,0.7571 -0.04265,0.0172 -1.592227,-0.12045 -1.592227,-0.12045 l -0.568653,-0.12044 z"
         id="path885"
         inkscape:connector-curvature="0" />
      <path
         style="fill:#ffccaa;fill-opacity:1;stroke:none;stroke-width:0.2800692px;stroke-linecap:butt;stroke-linejoin:miter;stroke-opacity:1"
         d="m 81.747096,221.50771 c -0.162467,0.42436 -0.324934,0.84873 -0.487401,1.27309 -0.358199,0.0603 -0.716399,0.12067 -1.074598,0.18101 0.07054,0.2991 0.04418,0.67547 0.175425,0.92617 0.796197,0.29538 1.057996,5.28334 1.85938,5.54982 0.562978,-0.0258 3.069695,-0.55563 3.61732,-0.62653 0.222446,-0.19855 -0.851327,-4.41375 -0.685545,-4.64339 -0.04503,-0.24343 0.203944,-0.64202 -0.11054,-0.74323 -0.33151,-0.22599 -0.78414,-0.33004 -0.926896,-0.74605 -0.205777,-0.31295 -0.358733,-0.68725 -0.597115,-0.96233 -0.47491,-0.19447 -0.942516,-0.41671 -1.465442,-0.42864 -0.22939,-0.0875 -0.227497,0.0388 -0.304588,0.22013 z"
         id="path1693"
         inkscape:connector-curvature="0"
         sodipodi:nodetypes="ccccccccccccc" />
      <path
         style="fill:#782121;fill-opacity:1;stroke:none;stroke-width:0.2800692px;stroke-linecap:butt;stroke-linejoin:miter;stroke-opacity:1"
         d="m 80.515969,223.02087 c 0.386543,0.23376 3.281569,4.30375 3.720492,4.46745 0.468558,0.17476 0.960714,-1.53906 0.828014,-2.49029 -0.131954,-0.94588 -0.16374,-1.1625 0.2981,-1.38677 0.979706,-0.2487 1.133183,0.60011 1.134296,1.57342 0.09252,0.92822 0.253634,1.85033 0.323067,2.77908 -0.01237,1.04109 -0.259126,2.11886 0.129082,3.12469 0.169612,0.98734 -0.915223,1.25914 -1.627207,1.49078 -0.993821,0.28954 -2.043876,0.1555 -3.063029,0.22282 -0.876176,-0.21919 -2.663924,-0.3201 -2.415295,-1.57224 0.329057,-1.06073 0.429204,-2.16037 0.256196,-3.26171 -0.127419,-1.43615 -0.409464,-2.85974 -0.453686,-4.30201 0.05824,-0.41082 0.485977,-0.64479 0.86997,-0.64522 z"
         id="path1695"
         inkscape:connector-curvature="0"
         sodipodi:nodetypes="csscccccccccc" />
      <path
         style="fill:none;stroke:#000000;stroke-width:0.42031626;stroke-linecap:butt;stroke-linejoin:miter;stroke-opacity:1;stroke-miterlimit:4;stroke-dasharray:none"
         d="m 80.520321,226.71204 c 0,0 -0.142164,1.10123 -0.113731,1.17006 0.02843,0.0688 0.781898,0.79151 0.781898,0.79151 l 0.980925,0.36134 c 0,0 1.009358,-0.0344 1.066224,-0.0344 0.05687,0 0.625516,-0.2753 0.625516,-0.2753 l 0.326976,-0.60224 0.184813,-0.70547 -0.01423,-0.60224 -0.497571,-0.92916"
         id="path889"
         inkscape:connector-curvature="0" />
      <path
         style="fill:#333333;stroke:#000000;stroke-width:0.22649425px;stroke-linecap:butt;stroke-linejoin:miter;stroke-opacity:1;fill-opacity:1"
         d="m 84.003317,227.33148 -1.179953,-1.90994 -1.563796,-1.75508 -1.052007,-1.22168 -2.303043,-1.34212 -0.38384,1.49699 0.312758,1.5486 1.307902,0.24089 1.677525,0.65386 0.511787,0.44737 0.895627,0.98078 c 0,0 0.568653,0.7743 0.582869,0.86033 0.01423,0.086 0.199029,0.86034 0.199029,0.86034 l 0.113731,1.41095 -0.170596,0.87754 0.739247,0.27531 0.312763,-0.32693 -0.142167,-1.70344 0.241678,-1.15287 z"
         id="path893"
         inkscape:connector-curvature="0" />
      <path
         style="fill:none;fill-opacity:1;stroke:#000000;stroke-width:0.42031626;stroke-linecap:butt;stroke-linejoin:miter;stroke-miterlimit:4;stroke-dasharray:none;stroke-opacity:1"
         d="m 84.137327,222.59568 c 0.268739,0.8845 1.123614,1.03952 1.878835,1.29303 0.433292,0.59554 0.378688,0.59431 0.480709,1.29597 -0.07948,0.54546 0.265958,1.40209 0.234995,1.89876 -0.09814,1.57429 -0.372937,3.33709 0.186086,4.1628 0.03445,0.66977 -0.132414,1.42349 -0.771422,1.77471 -1.124354,0.52519 -2.384388,0.1165 -3.559495,0.0319 -0.660141,-0.0861 -1.334469,-0.0264 -1.96725,-0.26295 -0.234703,-0.12207 -0.666693,-0.0334 -0.718034,-0.35133 -0.101729,-0.34296 -0.313979,-0.6782 -0.160585,-1.03897 0.139819,-0.78748 0.319445,-1.57382 0.434785,-2.362 -0.226982,-1.7765 -0.478648,-3.55884 -0.68999,-5.3311 0.200051,-0.8646 1.315591,-0.76606 1.823272,-1.05512 0.182407,-0.4408 0.318962,-0.90855 0.533656,-1.33021 0.396153,-0.12518 0.860359,-0.008 1.274219,0.0331 0.523889,0.21814 0.712669,0.81332 1.020219,1.24139 z"
         id="path1699"
         inkscape:connector-curvature="0"
         sodipodi:nodetypes="cccsccccccccccccc" />
      <path
         style="fill:#808080;stroke:#000000;stroke-width:0.22649425px;stroke-linecap:butt;stroke-linejoin:miter;stroke-opacity:1"
         d="m 77.307433,223.06423 0.213245,1.85832 1.009358,0.24089 1.435847,0.48179 1.194171,0.60223 0.81033,0.82592 0.582869,0.87755 0.398057,1.22167 -0.05687,1.68626 0.298542,-0.0344 0.227462,-1.96156 c 0,0 -0.170595,-1.30771 -0.184811,-1.37653 -0.01423,-0.0688 -0.867196,-1.75509 -0.867196,-1.75509 l -1.84812,-1.39374 -1.03436,-0.63102 -1.098087,-0.57345 -0.597087,-0.15486 z"
         id="path895"
         inkscape:connector-curvature="0" />
      <path
         style="fill:#1a1a1a;stroke:#000000;stroke-width:0.42010382;stroke-linecap:butt;stroke-linejoin:round;stroke-miterlimit:4;stroke-dasharray:none;stroke-opacity:1"
         d="m 86.92281,231.10777 c 0.247733,0.35294 0.495466,0.70588 0.743199,1.05882 -0.844777,1.45909 -2.709573,1.78487 -4.258625,1.6767 -1.4174,-0.0945 -2.817366,-0.45885 -4.10434,-1.05946 0.123017,-0.34041 0.246035,-0.68083 0.369052,-1.02124 1.891814,0.0698 3.741742,0.97618 5.644899,0.57704 0.681698,-0.16099 1.261988,-0.62631 1.605815,-1.23186 z"
         id="path1703"
         inkscape:connector-curvature="0" />
      <path
         style="fill:#666666;fill-opacity:1;stroke:none;stroke-width:0.17401837px;stroke-linecap:butt;stroke-linejoin:miter;stroke-opacity:1"
         d="m 80.250726,236.56919 c 0.341349,0.41649 0.614485,0.89864 1.067493,1.20763 -1.041245,0.0643 -2.305921,-0.0189 -2.997625,-0.90955 0.142908,-1.07442 0.451581,-2.12216 0.887645,-3.11358 0.147198,-0.16723 0.172593,-0.87069 0.427342,-0.56702 0.646787,0.47094 0.604877,1.30909 0.330859,1.96982 -0.141494,0.48777 -0.02189,1.01163 0.284286,1.4127 z"
         id="path1733"
         inkscape:connector-curvature="0" />
      <path
         style="fill:#782121;stroke:#000000;stroke-width:0.22649425px;stroke-linecap:butt;stroke-linejoin:miter;stroke-opacity:1"
         d="m 79.303044,232.78383 -0.806493,1.84768 -0.542833,1.53304 -0.743881,2.77407 -0.703672,0.80302 0.482518,0.85169 c 0,0 1.045453,0.34067 1.246504,0.41367 0.201049,0.073 1.568181,0.46235 1.568181,0.46235 0,0 1.105771,0.0973 1.206295,0.0973 0.100525,0 0.844406,0.0243 0.924826,-0.0243 0.08042,-0.0487 0.763985,-0.19467 0.763985,-0.19467 0,0 -1.328558,-2.14771 -1.427447,-2.77407 -0.09889,-0.62636 -0.341784,-1.50871 -0.341784,-1.63038 0,-0.12166 0,-1.97105 0,-1.97105 l 0.36189,-1.67904 -1.389382,-0.85457 z"
         id="path879"
         inkscape:connector-curvature="0" />
      <path
         style="fill:#782121;stroke:#000000;stroke-width:0.22649425px;stroke-linecap:butt;stroke-linejoin:miter;stroke-opacity:1;fill-opacity:1"
         d="m 87.666009,232.16659 0.983517,1.02922 0.502623,1.72771 0.221155,1.5817 0.261363,1.33837 0.261364,0.73002 0.120629,0.58401 -1.708916,1.48437 -1.166086,0.19468 -0.562936,-0.0487 1.266608,-1.53304 c 0,0 0.442308,-1.24103 0.482517,-1.46004 0.04021,-0.219 -0.04021,-2.57939 -0.04021,-2.57939 0,0 -0.180945,-1.1437 -0.241258,-1.26537 -0.06032,-0.12167 -0.907823,-1.06356 -0.907823,-1.06356 z"
         id="path881"
         inkscape:connector-curvature="0" />
      <path
         style="fill:#333333;stroke:#000000;stroke-width:0.22649425px;stroke-linecap:butt;stroke-linejoin:miter;stroke-opacity:1"
         d="m 79.672088,231.76259 -0.06161,-3.08898 c 0,0 1.037792,1.08402 1.123089,1.13564 0.0853,0.0516 1.521145,0.37855 1.521145,0.37855 l 1.748607,0.24089 2.20353,-0.7743 1.179954,-0.86034 0.312757,-0.32692 c 0,0 -0.440704,1.77229 -0.440704,1.87553 0,0.10324 -0.336045,0.76511 -0.336045,0.76511 l -0.715962,0.92114 -1.222605,0.32693 -1.123089,0.0688 c 0,0 -1.3079,-0.18928 -1.393198,-0.18928 -0.0853,0 -2.303043,-0.49899 -2.303043,-0.49899 z"
         id="path883"
         inkscape:connector-curvature="0" />
      <path
         style="fill:#999999;stroke:#000000;stroke-width:0.22649425px;stroke-linecap:butt;stroke-linejoin:miter;stroke-opacity:1"
         d="m 84.00332,230.42869 -0.895632,1.66905 0.227463,1.60022 0.938275,1.20447 0.142165,1.2905 0.170595,1.68626 0.369625,2.0476 0.04265,-1.37654 -0.184813,-1.63464 0.05687,-1.41095 0.127947,-0.98078 0.639733,-1.25609 -0.113731,-1.85832 -1.037791,-1.06681 z"
         id="path887"
         inkscape:connector-curvature="0" />
      <path
         style="fill:none;stroke:#000000;stroke-width:0.42031626;stroke-linecap:butt;stroke-linejoin:miter;stroke-opacity:1;stroke-miterlimit:4;stroke-dasharray:none"
         d="m 84.188129,228.12301 0.824547,0.70546 0.824546,-0.0172 0.682383,-0.37855 c 0,0 0.300333,-0.46895 0.300333,-0.46895 l 0.168805,-1.11406 -0.184811,-0.70548 -0.383841,-0.44737 -1.194171,-0.18927"
         id="path891"
         inkscape:connector-curvature="0" />
      <path
         style="fill:#cccccc;stroke:#000000;stroke-width:0.22649425px;stroke-linecap:butt;stroke-linejoin:miter;stroke-opacity:1"
         d="m 84.055556,232.01561 0.04021,1.2167 0.442309,0.63268 0.462412,-0.55968 -0.02011,-1.27753 -0.643357,-0.94903 z"
         id="path897"
         inkscape:connector-curvature="0" />
    </g>
  </g>
</svg>
