<?xml version="1.0" encoding="UTF-8" standalone="no"?>
<!-- Created with Inkscape (http://www.inkscape.org/) -->

<svg
   xmlns:dc="http://purl.org/dc/elements/1.1/"
   xmlns:cc="http://creativecommons.org/ns#"
   xmlns:rdf="http://www.w3.org/1999/02/22-rdf-syntax-ns#"
   xmlns:svg="http://www.w3.org/2000/svg"
   xmlns="http://www.w3.org/2000/svg"
   xmlns:sodipodi="http://sodipodi.sourceforge.net/DTD/sodipodi-0.dtd"
   xmlns:inkscape="http://www.inkscape.org/namespaces/inkscape"
   width="329.79999mm"
   height="163.04109mm"
   viewBox="0 0 329.79999 163.04109"
   version="1.1"
   id="svg8"
   inkscape:version="0.92.2 5c3e80d, 2017-08-06"
   sodipodi:docname="logo.svg">
  <defs
     id="defs2">
    <linearGradient
       id="linearGradient2343-3">
      <stop
         id="stop2350"
         offset="0"
         style="stop-color:#aa0044;stop-opacity:1;" />
    </linearGradient>
    <linearGradient
       id="linearGradient2343">
      <stop
         id="stop2347"
         offset="0"
         style="stop-color:#aa0044;stop-opacity:1;" />
    </linearGradient>
    <linearGradient
       id="linearGradient2343-3-6">
      <stop
         style="stop-color:#aa0044;stop-opacity:1;"
         offset="0"
         id="stop2341" />
    </linearGradient>
  </defs>
  <sodipodi:namedview
     id="base"
     pagecolor="#ffffff"
     bordercolor="#666666"
     borderopacity="1.0"
     inkscape:pageopacity="0.0"
     inkscape:pageshadow="2"
     inkscape:zoom="0.45833334"
     inkscape:cx="356.00263"
     inkscape:cy="457.18761"
     inkscape:document-units="mm"
     inkscape:current-layer="layer1"
     showgrid="false"
     inkscape:window-width="1680"
     inkscape:window-height="917"
     inkscape:window-x="0"
     inkscape:window-y="1"
     inkscape:window-maximized="1"
     fit-margin-top="0"
     fit-margin-left="0"
     fit-margin-right="0"
     fit-margin-bottom="0" />
  <metadata
     id="metadata5">
    <rdf:RDF>
      <cc:Work
         rdf:about="">
        <dc:format>image/svg+xml</dc:format>
        <dc:type
           rdf:resource="http://purl.org/dc/dcmitype/StillImage" />
        <dc:title></dc:title>
      </cc:Work>
    </rdf:RDF>
  </metadata>
  <g
     inkscape:label="Layer 1"
     inkscape:groupmode="layer"
     id="layer1"
     transform="translate(35.197153,-54.798801)">
    <g
       id="g2412"
       inkscape:export-filename="/Users/leonardofarroco/Desktop/mana.png"
       inkscape:export-xdpi="16.813421"
       inkscape:export-ydpi="16.813421"
       transform="translate(348.09545,109.10454)">
      <path
         sodipodi:nodetypes="cscsccccsccccccsccsscscscccsccsccscccccccscssccccccssscscccsccccccscccscccccscsscsccssscsssssscscccccscccccsssscccscscccccssscsccssccssscscccccc"
         style="fill:#4491aa;fill-opacity:1;stroke:#1a1a1a;stroke-width:3;stroke-miterlimit:4;stroke-dasharray:none"
         d="m -306.5969,20.175031 c -0.0719,-0.0719 -0.13078,-8.409601 -0.13078,-18.5281512 0,-10.1185503 -0.0954,-18.2842488 -0.21198,-18.1460038 -0.11658,0.138244 -2.33377,6.6807235 -4.92708,14.5388538 -2.59331,7.85812 -4.83666,14.4392602 -4.98521,14.6247602 -0.20277,0.25316 -1.29732,0.31913 -4.39011,0.26458 l -4.12001,-0.0727 -1.35446,-4.7625002 c -0.74495,-2.61938 -2.40172,-8.48069004 -3.6817,-13.0251403 -1.27998,-4.54445 -2.43086,-8.1986005 -2.55751,-8.1203205 -0.12665,0.0783 -0.2321,6.7730205 -0.23433,14.8772208 -0.002,8.1042 -0.10729,14.8978802 -0.23347,15.0970602 -0.1825,0.28809 -2.46812,0.42841 -11.1746,0.686041 -6.01984,0.17814 -11.04017,0.24163 -11.1563,0.14109 -0.11612,-0.10054 -0.0855,-6.898161 0.068,-15.1058312 0.15353,-8.2076703 0.39824,-23.3078968 0.54381,-33.5560598 0.14557,-10.248163 0.29858,-18.666933 0.34002,-18.708379 0.2825,-0.282495 24.83654,-1.223482 25.06845,-0.960701 0.0981,0.111158 1.09942,3.238198 2.22516,6.94898 1.96622,6.481238 4.27544,14.001704 6.54002,21.298956 0.58708,1.891771 1.14673,3.525377 1.24365,3.630237 0.16801,0.18175 1.34573,-2.778286 9.55028,-24.003152 1.96881,-5.093229 3.67597,-9.409244 3.7937,-9.591145 0.16651,-0.25726 3.12878,-0.330729 13.33493,-0.330729 h 13.12088 l -0.17917,2.447395 c -0.0985,1.346068 -0.29572,4.352396 -0.43815,6.680729 -0.14244,2.328334 -0.43967,7.090833 -0.66051,10.583333 -0.22084,3.4925 -0.51539,8.195469 -0.65457,10.451041 -0.13917,2.255572 -0.37098,5.94651 -0.51513,8.202084 -0.14416,2.25557 -0.44704,7.0776005 -0.67307,10.7156208 -0.22603,3.63801996 -0.53417,8.51959 -0.68473,10.84792 -0.15057,2.32833 -0.36708,5.8755002 -0.48113,7.8826002 -0.11404,2.0071 -0.3154,3.748551 -0.44746,3.869891 -0.13206,0.12134 -4.76448,0.41866 -10.29427,0.6607 -5.5298,0.24205 -10.38227,0.47437 -10.78328,0.51628 -0.40101,0.0419 -0.78796,0.0174 -0.8599,-0.0546 z m 49.21401,-2.612771 c -7.70231,-0.71972 -9.87935,-0.92924 -11.77396,-1.13313 -1.23693,-0.13311 -4.33255,-0.44128 -6.87917,-0.68481 -2.54661,-0.24354 -4.72785,-0.53099 -4.84719,-0.6388 -0.11934,-0.10781 0.43686,-2.38437 1.23601,-5.05903 0.79916,-2.6746602 3.0184,-10.10176024 4.93166,-16.5046805 4.60983,-15.4272575 4.17427,-13.9680415 8.83175,-29.5880795 2.24888,-7.542197 4.13772,-13.76193 4.19742,-13.821629 0.27111,-0.271108 19.42177,-1.299096 24.26736,-1.302648 l 3.03056,-0.0022 0.31278,1.058333 c 0.17203,0.582083 1.88481,6.475677 3.80617,13.096875 1.92137,6.621197 4.48069,15.431821 5.6874,19.579165 1.2067,4.147343 2.93386,10.1004635 3.83812,13.2291638 0.90426,3.1287 2.46614,8.49861 3.47083,11.93313 1.00469,3.4345202 1.82671,6.3630902 1.82671,6.5079402 0,0.14485 -1.51804,0.46799 -3.37343,0.7181 -3.89909,0.5256 -8.28114,1.10771 -11.31094,1.50254 -1.16417,0.15171 -3.66448,0.48877 -5.55625,0.74903 -2.51933,0.34658 -3.52406,0.39493 -3.75535,0.1807 -0.28692,-0.26577 -0.68771,-1.63057 -2.22258,-7.5685202 -0.91219,-3.52902 -0.17862,-3.175 -6.57906,-3.175 -5.547,0 -5.55712,0.001 -5.68955,0.59531 -0.073,0.32742 -0.60875,2.73023 -1.19064,5.3395702 -0.5819,2.60933 -1.14954,4.81593 -1.26145,4.90355 -0.1119,0.0876 -0.56064,0.125941 -0.9972,0.0851 z m 12.90758,-26.2032605 c 0.0586,-0.10914 -0.47006,-2.8178105 -1.17477,-6.0192705 -0.70471,-3.201458 -1.4706,-6.713801 -1.70198,-7.805207 -0.23137,-1.091407 -0.46169,-2.026062 -0.5118,-2.077016 -0.20161,-0.204978 -0.65528,0.284498 -0.6521,0.703569 0.002,0.246073 -0.18372,1.280842 -0.41241,2.299488 -1.50398,6.699116 -2.71634,12.6985565 -2.60313,12.8817365 0.16714,0.27044 6.91141,0.28641 7.05619,0.0167 z M -130.25059,17.47498 c -2.55143,-0.25496 -9.35175,-0.9363 -14.4198,-1.44476 -2.18281,-0.21899 -4.83195,-0.47461 -5.88698,-0.56805 -1.77286,-0.15701 -1.91822,-0.21576 -1.91822,-0.77529 0,-0.33298 0.12508,-0.9344 0.27795,-1.33649 0.15288,-0.4021 2.12538,-6.9285202 4.38334,-14.5031702 2.25795,-7.5746403 5.65698,-18.9512918 7.5534,-25.2814468 1.89641,-6.330156 3.60325,-12.045156 3.79297,-12.7 0.18972,-0.654844 0.98722,-3.331411 1.77224,-5.947928 l 1.42729,-4.757303 1.04588,-0.173174 c 0.57524,-0.09525 4.08198,-0.310823 7.79276,-0.47906 3.71078,-0.168237 8.43606,-0.420069 10.50062,-0.559626 2.06456,-0.139558 4.71037,-0.253742 5.87959,-0.253742 h 2.12584 l 0.43385,1.521354 c 0.23862,0.836745 1.43924,4.974167 2.66804,9.194271 1.22881,4.220104 2.888119,9.935104 3.687379,12.699999 0.79926,2.764896 1.68017,5.800989 1.95755,6.746874 0.27739,0.945886 1.3489,4.636823 2.38112,8.202081 2.72148,9.3999108 5.72056,19.7243408 6.87872,23.680211 0.55385,1.89177 0.92922,3.5184 0.83412,3.61474 -0.19939,0.20202 -2.10968,0.47199 -19.222869,2.71665 -5.01,0.657141 -4.65531,0.654071 -4.91392,0.0426 -0.19959,-0.47194 -1.4232,-5.02431 -2.45996,-9.1521002 l -0.29904,-1.19062 h -5.68854 -5.68854 l -1.19221,5.4024302 c -0.65572,2.97135 -1.31056,5.42436 -1.45521,5.451151 -0.14465,0.0268 -1.15597,-0.0405 -2.24737,-0.149591 z m 14.27124,-26.3805605 c -0.04,-1.1385205 -3.35034,-15.5199405 -3.59089,-15.6001255 -0.15215,-0.05072 -0.65149,1.724138 -1.14903,4.084118 -0.48396,2.295599 -1.21915,5.780947 -1.63375,7.745217 -0.41461,1.96427 -0.75382,3.7204405 -0.75382,3.9026005 0,0.24886 0.88801,0.33121 3.57187,0.33121 3.23159,0 3.57033,-0.0441 3.55562,-0.46302 z M -215.20989,17.02358 c -0.0518,-0.36664 0.42049,-10.0316202 0.81778,-16.73489024 0.83043,-14.01167076 1.40611,-26.04251176 2.2748,-47.53920776 l 0.17295,-4.279833 1.88698,-0.141763 c 2.84896,-0.214034 18.37675,-0.967398 19.81252,-0.961247 l 1.25677,0.0054 v 3.739272 3.739272 l 2.09788,-2.004309 c 2.67153,-2.552364 4.38268,-3.681665 7.05793,-4.658013 2.74623,-1.00225 4.6287,-1.200533 7.90981,-0.833154 2.24433,0.251293 3.00719,0.471866 5.02708,1.453522 7.46684,3.628837 11.45275,11.596748 12.98025,25.947784 0.37971,3.567492 0.44283,6.751033 0.40132,20.2406265 -0.0271,8.8040103 -0.13201,17.0788505 -0.23313,18.3885405 l -0.18385,2.38125 -6.87917,-0.10327 c -3.78354,-0.0568 -10.09385,-0.17587 -14.02292,-0.26459 -6.9398,-0.1567 -7.14206,-0.17642 -7.08466,-0.69048 0.0325,-0.29104 0.24811,-1.71979 0.47915,-3.175 1.79595,-11.31167024 2.40196,-16.7673105 2.79204,-25.135411 0.50473,-10.827501 -0.38355,-18.366991 -2.46086,-20.887126 -1.28154,-1.554728 -3.1321,-1.23535 -5.03289,0.868598 -1.14805,1.270757 -1.82424,2.740033 -2.39398,5.201862 -0.78291,3.382854 -0.97555,6.247692 -1.24544,18.5208265 -0.1472,6.6939603 -0.34527,15.2794403 -0.44016,19.0788403 l -0.17252,6.9080002 -2.93597,0.17959 c -2.13873,0.13082 -19.76401,0.90287 -21.65523,0.94857 -0.10915,0.003 -0.21106,-0.0845 -0.22648,-0.19364 z"
         id="path23"
         inkscape:connector-curvature="0" />
      <path
         sodipodi:nodetypes="ccccccc"
         inkscape:connector-curvature="0"
         id="path2355"
         d="m -350.59081,-45.104995 -1.26951,28.464204 3.07358,1.603618 1.67045,-25.190154 13.8312,-4.877667 -1.06908,-1.870887 z"
         style="fill:#ffffff;stroke:none;stroke-width:0.26458332px;stroke-linecap:butt;stroke-linejoin:miter;stroke-opacity:1" />
      <path
         sodipodi:nodetypes="ccccc"
         inkscape:connector-curvature="0"
         id="path2359"
         d="m -258.18236,-46.708612 -9.88897,28.865109 11.22532,-26.192413 16.5707,-3.674957 z"
         style="fill:#ffffff;stroke:none;stroke-width:0.26458332px;stroke-linecap:butt;stroke-linejoin:miter;stroke-opacity:1" />
      <path
         style="fill:#ffffff;stroke:none;stroke-width:0.26458332px;stroke-linecap:butt;stroke-linejoin:miter;stroke-opacity:1"
         d="m -129.36123,-46.522406 -9.88897,28.865109 11.22532,-26.192413 16.5707,-3.674957 z"
         id="path2361"
         inkscape:connector-curvature="0"
         sodipodi:nodetypes="ccccc" />
      <path
         sodipodi:nodetypes="ccccc"
         inkscape:connector-curvature="0"
         id="path2367"
         d="m -209.11532,-47.997768 -0.47248,17.197916 3.49629,-14.930059 13.70163,-3.49628 z"
         style="fill:#ffffff;stroke:none;stroke-width:0.26458332px;stroke-linecap:butt;stroke-linejoin:miter;stroke-opacity:1" />
    </g>
    <g
       id="g2405"
       inkscape:export-filename="/Users/leonardofarroco/Desktop/mana.png"
       inkscape:export-xdpi="16.813421"
       inkscape:export-ydpi="16.813421"
       transform="translate(348.09545,109.10454)">
      <path
         sodipodi:nodetypes="ccsccssccccssscccscsccccccccscsccccccccccccscccsscccscccscscccccccccsccccccssssccsscscccssccccccsccscccccsssccccssccccscccscccscssscsccccccsccccccscccccscccccccccccccccscccccsccccc"
         inkscape:connector-curvature="0"
         id="path21"
         d="m -84.396722,107.13006 c -6.64057,-0.51177 -12.00531,-2.95583 -16.695688,-7.606219 -3.49244,-3.46266 -5.70285,-6.926015 -7.50146,-11.753625 -3.40469,-9.138452 -3.3836,-21.027492 0.0547,-30.849572 1.90487,-5.44154 4.58608,-9.82163 8.26281,-13.49836 5.670408,-5.67043 11.726408,-8.17949 19.771958,-8.19174 7.27567,-0.0111 12.39216,1.97304 17.01885,6.59973 5.59916,5.59917 8.47164,13.94467 8.49238,24.67322 0.0122,6.28293 -0.19052,8.11677 -0.9276,8.39346 -0.30935,0.11612 -2.34839,0.34807 -4.5312,0.51543 -2.18281,0.16736 -4.80219,0.41905 -5.82083,0.5593 -1.01865,0.14026 -3.28084,0.44169 -5.02709,0.66985 -1.74625,0.22816 -4.42515,0.59703 -5.95312,0.81971 -1.52797,0.22268 -4.62291,0.66792 -6.87766,0.98942 -4.6917,0.66897 -4.70731,0.68134 -3.54843,2.810592 0.95768,1.75955 3.18285,3.82849 5.06759,4.71173 1.38242,0.64785 1.80115,0.71234 4.56475,0.70302 2.87538,-0.01 3.18616,-0.0655 5.6516,-1.01419 3.21522,-1.23724 7.63821,-3.54786 9.99967,-5.22395 0.38626,-0.27416 0.78859,-0.49847 0.89405,-0.49847 0.20317,0 0.006,3.04617 -0.41095,6.35 -0.13774,1.09141 -0.43392,3.77031 -0.65813,5.95313 -0.2242,2.182805 -0.54951,5.254105 -0.72286,6.825095 l -0.31523,2.856349 -1.3321,0.8792 c -4.85529,3.20457 -12.36064,4.8737 -19.45605,4.32689 z m 1.85208,-41.358106 c 2.54662,-0.23245 5.40412,-0.50338 6.35,-0.60208 l 1.71979,-0.17944 -0.0959,-1.98437 c -0.16261,-3.36472 -1.28145,-5.63001 -3.2857,-6.65249 -3.07827,-1.57042 -6.93386,0.31041 -9.10061,4.43946 -1.00579,1.9167 -2.03779,5.01183 -1.79959,5.39725 0.0973,0.15749 0.49308,0.22288 0.8794,0.14532 0.38632,-0.0776 2.78601,-0.33121 5.33262,-0.56365 z M -364.72276,106.91016 c -5.69661,-0.56765 -12.65044,-2.26261 -16.00729,-3.90168 l -0.92604,-0.45217 -0.0672,-31.558026 -0.0672,-31.55802 1.12554,-0.47908 c 5.94905,-2.53212 15.53136,-4.27073 23.48285,-4.26071 16.00084,0.0202 26.17446,5.68201 28.99217,16.13476 0.57557,2.13528 0.66127,7.22248 0.15375,9.12812 -1.23804,4.64837 -3.76616,7.75795 -7.88596,9.69964 -1.1856,0.55879 -2.30677,1.01599 -2.49148,1.01599 -0.59875,0 -0.0497,0.31028 2.05439,1.16088 2.7391,1.10732 4.70773,2.45319 6.73915,4.60722 2.88239,3.056402 4.34573,6.574162 4.6383,11.150222 0.19743,3.08779 -0.23569,5.56361 -1.37752,7.874365 -3.21181,6.499869 -10.7682,10.303969 -22.73282,11.444329 -3.28671,0.31326 -12.46275,0.30984 -15.6306,-0.006 z m 10.40146,-18.619954 c 3.05895,-0.81424 4.5475,-2.65172 4.5475,-5.61349 0,-2.43153 -0.98896,-4.119962 -3.04271,-5.194772 -0.80169,-0.41954 -1.6679,-0.57668 -3.57187,-0.64795 -1.38245,-0.0517 -2.64676,7.9e-4 -2.80959,0.11659 -0.19592,0.13944 -0.33012,2.0442 -0.39687,5.632712 l -0.10083,5.42202 0.92604,0.31773 c 1.24936,0.42867 2.75635,0.41754 4.44833,-0.0328 z m 0.24821,-21.892102 c 2.70192,-1.01092 4.28177,-3.0577 4.29347,-5.5624 0.007,-1.55493 -0.36729,-2.45346 -1.54715,-3.71155 -1.67013,-1.78082 -4.64188,-2.25264 -7.03517,-1.11695 l -0.91551,0.43444 -0.0768,5.20044 c -0.0422,2.86024 -0.0315,5.30358 0.0241,5.42965 0.16066,0.36536 3.68843,-0.0867 5.25722,-0.67363 z m 50.33679,38.400496 c -1.09141,-0.10906 -3.94891,-0.3957 -6.35,-0.63699 -5.78861,-0.58168 -11.88321,-1.17916 -14.08906,-1.38121 -1.55615,-0.14254 -1.78594,-0.23179 -1.78594,-0.69368 0,-0.29155 1.54003,-5.661859 3.42231,-11.934014 3.86172,-12.868172 9.96396,-33.276682 13.37788,-44.741432 1.25667,-4.22011 2.38284,-7.77286 2.50264,-7.89501 0.11978,-0.12214 3.29682,-0.3854 7.06009,-0.58502 3.76325,-0.19961 9.04494,-0.48842 11.73708,-0.6418 7.10422,-0.40474 8.40075,-0.37565 8.56466,0.19214 1.09107,3.77958 4.00027,13.82061 5.19359,17.92552 1.40073,4.81838 2.71682,9.35966 7.85947,27.119792 0.94811,3.27422 2.65018,9.10828 3.78238,12.964575 1.13223,3.85631 1.98234,7.090279 1.88913,7.186619 -0.16907,0.17478 -2.60171,0.53958 -10.3559,1.55299 -2.25557,0.29479 -5.47026,0.71805 -7.14375,0.94059 -6.39337,0.85019 -6.36185,0.8483 -6.59037,0.39463 -0.19762,-0.39232 -0.77584,-2.48587 -2.23457,-8.090449 l -0.61979,-2.38125 h -5.66253 -5.66253 l -0.86453,3.83646 c -0.47548,2.110049 -1.01126,4.541619 -1.19062,5.403479 -0.17936,0.86187 -0.44516,1.58848 -0.59069,1.61469 -0.14552,0.0262 -1.15755,-0.0416 -2.24895,-0.15063 z m 14.2875,-26.190766 c 0,-0.15028 -0.6045,-3.03755 -1.34329,-6.41615 -0.73883,-3.3786 -1.49199,-6.85038 -1.67373,-7.71505 -0.18172,-0.86468 -0.45305,-1.61302 -0.60293,-1.66299 -0.14989,-0.05 -0.4259,0.6575 -0.61339,1.57214 -0.18745,0.91464 -0.91897,4.336 -1.62562,7.60301 -0.70663,3.26701 -1.28479,6.15428 -1.28479,6.41615 0,0.43493 0.30903,0.47612 3.57187,0.47612 2.28023,0 3.57188,-0.0988 3.57188,-0.27323 z m 134.24175,22.184586 c 0.0985,-2.374109 0.29054,-9.793444 0.42677,-16.487394 0.29409,-14.451952 0.75414,-34.974002 0.96827,-43.193232 l 0.15335,-5.88698 h 12.67056 c 11.95294,0 12.67055,0.0266 12.67055,0.46906 0,0.25798 -0.18122,2.669 -0.4027,5.35781 -0.22146,2.68882 -0.51501,6.3175 -0.6523,8.06375 -0.1373,1.74625 -0.43551,5.43719 -0.66268,8.20209 -1.55146,18.88225 -1.7817,22.084432 -1.61848,22.509742 0.12147,0.31654 1.71341,0.37671 9.96569,0.37671 h 9.82115 l -0.15801,0.99219 c -0.0869,0.54571 -0.27821,2.36141 -0.42514,4.0349 -0.14692,1.67349 -0.43923,4.88817 -0.6496,7.14375 -0.21037,2.255565 -0.4526,4.934475 -0.53827,5.953115 -0.0857,1.01865 -0.21251,2.229209 -0.28186,2.690149 l -0.1261,0.83806 -2.04261,0.16058 c -1.12345,0.0883 -3.35232,0.27521 -4.95305,0.4153 -1.60073,0.1401 -5.3512,0.43663 -8.33438,0.65895 -2.98317,0.22233 -6.73364,0.51595 -8.33437,0.65249 -1.60073,0.13653 -3.98198,0.31904 -5.29167,0.40557 -1.30969,0.0865 -3.57187,0.26493 -5.02708,0.39644 -1.45521,0.13151 -3.70589,0.3121 -5.0015,0.40131 l -2.35564,0.16221 z m -95.71946,3.15791 c -0.0719,-0.47294 -0.25955,-4.550829 -0.4169,-9.061979 -0.25231,-7.234535 -0.59756,-15.937977 -1.22486,-30.877547 -0.11814,-2.81366 -0.29081,-4.45306 -0.47525,-4.51237 -0.1593,-0.0512 -3.38529,0.0528 -7.16883,0.23115 -3.78354,0.17836 -6.95097,0.2444 -7.03876,0.14674 -0.0878,-0.0977 -0.067,-2.79693 0.0463,-5.99839 0.11322,-3.20145 0.21661,-8.14255 0.22979,-10.9802 0.0132,-2.83766 0.11372,-5.30056 0.22344,-5.47312 0.24352,-0.38297 52.88137,-0.56632 53.20905,-0.18534 0.23588,0.27425 -0.21645,19.99281 -0.46466,20.25595 -0.0922,0.0977 -3.35608,0.32923 -7.25307,0.51443 -6.7981,0.32307 -7.09028,0.35878 -7.20384,0.88063 -0.0651,0.29915 -0.23947,4.17531 -0.38746,8.6137 -0.14798,4.43838 -0.38766,10.80822 -0.53263,14.155202 -0.14496,3.34698 -0.39423,9.59776 -0.55388,13.890625 -0.15967,4.29286 -0.39502,7.914359 -0.52297,8.047769 -0.12796,0.13342 -2.11183,0.3351 -4.40862,0.44818 -2.2968,0.11308 -6.14051,0.3308 -8.5416,0.4838 -2.40109,0.15302 -5.04484,0.27876 -5.87499,0.27943 -1.49995,0.001 -1.51019,-0.004 -1.64021,-0.85866 z m 55.56385,-0.26459 c -0.0759,-0.61846 -0.26554,-4.755879 -0.42153,-9.194269 -0.27533,-7.834275 -0.85381,-22.344957 -1.22352,-30.691657 -0.0999,-2.25557 -0.27119,-4.16057 -0.38063,-4.23333 -0.10943,-0.0728 -3.33584,0.006 -7.16981,0.17619 -3.83397,0.16968 -7.03302,0.22921 -7.10901,0.1323 -0.076,-0.0969 -0.0595,-2.67652 0.0365,-5.73245 0.0961,-3.05594 0.18982,-7.99703 0.20834,-10.98021 0.0185,-2.98318 0.12345,-5.56514 0.23317,-5.7377 0.24353,-0.38297 52.87464,-0.56626 53.21997,-0.18534 0.24659,0.27197 -0.21103,19.98998 -0.47008,20.25595 -0.0952,0.0977 -3.36156,0.32923 -7.25856,0.51443 -6.80055,0.32318 -7.09006,0.3586 -7.19947,0.88063 -0.0627,0.29915 -0.23857,4.29437 -0.39087,8.87828 -0.15229,4.5839 -0.39534,11.01328 -0.54014,14.287502 -0.14478,3.27422 -0.39116,9.40594 -0.54753,13.626035 -0.15634,4.2201 -0.39026,7.782069 -0.51983,7.915479 -0.12956,0.13342 -2.11476,0.3351 -4.41155,0.44818 -2.2968,0.11308 -6.14051,0.3308 -8.5416,0.4838 -2.4011,0.15302 -5.04294,0.27876 -5.87077,0.27943 l -1.50516,0.001 -0.13793,-1.12448 z"
         style="fill:#d55757;fill-opacity:1;stroke:#000000;stroke-width:3;stroke-miterlimit:4;stroke-dasharray:none" />
      <path
         sodipodi:nodetypes="ccccc"
         inkscape:connector-curvature="0"
         id="path2357"
         d="m -377.78547,42.024871 2.40541,2.672694 c 13.64862,-6.103974 26.97584,-4.173071 40.09043,3.073601 l -2.53904,-5.078122 c -14.72231,-7.473489 -27.31693,-3.953955 -39.9568,-0.668173 z"
         style="fill:#f9f9f9;stroke:none;stroke-width:0.26458332px;stroke-linecap:butt;stroke-linejoin:miter;stroke-opacity:1" />
      <path
         sodipodi:nodetypes="ccccc"
         inkscape:connector-curvature="0"
         id="path2363"
         d="m -302.8523,40.790094 -9.88897,28.865109 11.22532,-26.192413 16.5707,-3.674957 z"
         style="fill:#ffffff;stroke:none;stroke-width:0.26458332px;stroke-linecap:butt;stroke-linejoin:miter;stroke-opacity:1" />
      <path
         inkscape:connector-curvature="0"
         id="path2369"
         d="m -263.66139,41.089426 -0.8018,14.03165 6.41447,-12.294398 16.70434,-1.202712 z"
         style="fill:#ffffff;stroke:none;stroke-width:0.26458332px;stroke-linecap:butt;stroke-linejoin:miter;stroke-opacity:1" />
      <path
         style="fill:#ffffff;stroke:none;stroke-width:0.26458332px;stroke-linecap:butt;stroke-linejoin:miter;stroke-opacity:1"
         d="m -206.86662,39.485809 -0.8018,14.03165 6.41447,-12.294398 16.70434,-1.202712 z"
         id="path2371"
         inkscape:connector-curvature="0" />
      <path
         inkscape:connector-curvature="0"
         id="path2373"
         d="m -150.43452,39.031248 -1.6064,43.278274 5.76414,-43.278274 z"
         style="fill:#ffffff;stroke:none;stroke-width:0.26458332px;stroke-linecap:butt;stroke-linejoin:miter;stroke-opacity:1" />
      <path
         sodipodi:nodetypes="ccc"
         inkscape:connector-curvature="0"
         id="path2375"
         d="m -76.540178,37.613839 c -12.758682,0.284031 -28.363072,8.679507 -31.561012,31.183034 0.22052,-23.930421 19.750352,-33.918742 31.561012,-31.183034 z"
         style="fill:#ffffff;stroke:none;stroke-width:0.26458332px;stroke-linecap:butt;stroke-linejoin:miter;stroke-opacity:1" />
    </g>
  </g>
</svg>
