<?xml version="1.0" encoding="UTF-8" standalone="no"?>
<!-- Created with Inkscape (http://www.inkscape.org/) -->

<svg
   xmlns:dc="http://purl.org/dc/elements/1.1/"
   xmlns:cc="http://creativecommons.org/ns#"
   xmlns:rdf="http://www.w3.org/1999/02/22-rdf-syntax-ns#"
   xmlns:svg="http://www.w3.org/2000/svg"
   xmlns="http://www.w3.org/2000/svg"
   xmlns:sodipodi="http://sodipodi.sourceforge.net/DTD/sodipodi-0.dtd"
   xmlns:inkscape="http://www.inkscape.org/namespaces/inkscape"
   width="150"
   height="150"
   viewBox="0 0 39.687497 39.687501"
   version="1.1"
   id="svg8"
   sodipodi:docname="back_split.svg"
   inkscape:version="0.92.2 5c3e80d, 2017-08-06">
  <defs
     id="defs2" />
  <sodipodi:namedview
     id="base"
     pagecolor="#ffffff"
     bordercolor="#666666"
     borderopacity="1.0"
     inkscape:pageopacity="0.0"
     inkscape:pageshadow="2"
     inkscape:zoom="5.7227845"
     inkscape:cx="71.69932"
     inkscape:cy="85.036839"
     inkscape:document-units="mm"
     inkscape:current-layer="g4578"
     showgrid="false"
     units="px"
     inkscape:window-width="1680"
     inkscape:window-height="925"
     inkscape:window-x="7"
     inkscape:window-y="6"
     inkscape:window-maximized="0"
     fit-margin-top="0"
     fit-margin-left="0"
     fit-margin-right="0"
     fit-margin-bottom="0" />
  <metadata
     id="metadata5">
    <rdf:RDF>
      <cc:Work
         rdf:about="">
        <dc:format>image/svg+xml</dc:format>
        <dc:type
           rdf:resource="http://purl.org/dc/dcmitype/StillImage" />
        <dc:title />
      </cc:Work>
    </rdf:RDF>
  </metadata>
  <g
     inkscape:label="Layer 1"
     inkscape:groupmode="layer"
     id="layer1"
     transform="translate(-54.184848,-191.61866)">
    <g
       id="g4578"
       transform="matrix(0.25548634,0,0,0.25548634,51.782645,166.50629)">
      <path
         style="fill:#ffffff;stroke:#000000;stroke-width:1.03560662px;stroke-linecap:butt;stroke-linejoin:miter;stroke-opacity:1"
         d="m 117.43679,172.38146 c 1.26674,4.28277 1.80962,12.36574 0.90482,16.82947 -2.65411,-4.16212 -5.67015,-9.0481 -9.95291,-11.58157 2.20079,5.60982 -0.38927,11.21965 -1.80962,16.82947 -0.95926,-6.89615 -5.33655,-8.85315 -7.600414,-11.40061 -2.57797,4.60272 -2.30257,10.35621 -0.54288,14.47697 -4.779991,-1.94887 -7.135412,-8.47208 -9.590992,-13.21023 -3.72048,2.99579 -4.590922,9.92747 -5.971746,13.39119 -1.8532,-3.7553 -3.091096,-11.14432 -2.533468,-15.38178 -2.491601,4.01523 -7.306833,7.25591 -12.667341,10.31484 2.369635,-5.18758 3.950064,-10.37515 3.438278,-15.56273 -6.393991,-1.87388 -12.787982,1.83939 -19.181973,8.14329 2.108891,-6.88439 2.341402,-14.00332 7.962328,-20.44871 -4.343088,-1.33443 -8.686176,1.42392 -13.029264,2.71443 1.362856,-6.189 2.988533,-12.31229 8.143291,-17.55332 -4.765333,-0.78417 -9.530667,-1.56833 -14.296,-2.3525 15.882897,-17.93267 27.943818,-25.85219 49.25805,-17.21451 2.817793,-0.21393 5.704317,-0.77662 8.480197,-0.77784 l 8.855784,4.78212 c 2.33374,4.24348 4.8857,8.41532 7.08367,12.70338 z"
         id="path837"
         inkscape:connector-curvature="0"
         sodipodi:nodetypes="ccccccccccccccccccccc" />
      <path
         style="fill:#ffffff;stroke:#000000;stroke-width:1.03560662px;stroke-linecap:butt;stroke-linejoin:miter;stroke-opacity:1"
         d="m 91.578924,132.04664 1.247034,-18.47783 8.867142,13.21023 11.76253,-13.39119 2.17154,16.6485 19.18198,-13.39119 -4.52405,16.64851 20.4487,1.80962 -18.63908,12.12446 7.96232,18.0962 -16.46754,-6.15271 1.44769,16.10561 -13.7531,-15.38177 -11.21965,15.01985 -0.542884,-17.91524 -16.105623,12.66734 4.162127,-16.28658 H 73.101099 l 12.667341,-9.22906 -15.924657,-12.8483 z"
         id="path835"
         inkscape:connector-curvature="0"
         sodipodi:nodetypes="ccccccccccccccccccccc" />
    </g>
  </g>
</svg>
