<?xml version="1.0" encoding="UTF-8" standalone="no"?>
<svg
   xmlns:dc="http://purl.org/dc/elements/1.1/"
   xmlns:cc="http://creativecommons.org/ns#"
   xmlns:rdf="http://www.w3.org/1999/02/22-rdf-syntax-ns#"
   xmlns:svg="http://www.w3.org/2000/svg"
   xmlns="http://www.w3.org/2000/svg"
   xmlns:sodipodi="http://sodipodi.sourceforge.net/DTD/sodipodi-0.dtd"
   xmlns:inkscape="http://www.inkscape.org/namespaces/inkscape"
   width="500"
   height="500"
   viewBox="0 0 132.29166 132.29167"
   version="1.1"
   id="svg8"
   sodipodi:docname="back_female2.svg"
   inkscape:version="1.0alpha2 (863a58d, 2019-08-17)">
  <defs
     id="defs2" />
  <sodipodi:namedview
     id="base"
     pagecolor="#ffffff"
     bordercolor="#666666"
     borderopacity="1.0"
     inkscape:pageopacity="0.0"
     inkscape:pageshadow="2"
     inkscape:zoom="7.3380234"
     inkscape:cx="262.98589"
     inkscape:cy="251.55308"
     inkscape:document-units="mm"
     inkscape:current-layer="g4578"
     showgrid="false"
     units="px"
     inkscape:window-width="1680"
     inkscape:window-height="907"
     inkscape:window-x="2127"
     inkscape:window-y="106"
     inkscape:window-maximized="0"
     inkscape:document-rotation="0"
     inkscape:snap-global="false" />
  <metadata
     id="metadata5">
    <rdf:RDF>
      <cc:Work
         rdf:about="">
        <dc:format>image/svg+xml</dc:format>
        <dc:type
           rdf:resource="http://purl.org/dc/dcmitype/StillImage" />
        <dc:title />
      </cc:Work>
    </rdf:RDF>
  </metadata>
  <g
     inkscape:label="Layer 1"
     inkscape:groupmode="layer"
     id="layer1"
     transform="translate(0,-164.70832)">
    <g
       id="g1607">
      <g
         transform="matrix(-0.25548634,0,0,0.25548634,81.49395,170.68906)"
         id="g4578">
        <path
           sodipodi:nodetypes="cccccccccccccccccccccccc"
           inkscape:connector-curvature="0"
           d="m 100.58704,208.18439 c -0.936106,-1.65427 -5.611121,-3.01066 -5.843635,-2.46496 7.216835,2.67939 13.850305,13.07974 13.123255,21.42584 -0.11582,2.45376 -1.25158,-3.81433 -2.03762,-4.55231 -1.3172,-2.21242 -4.69502,-6.88741 -5.74988,-6.62107 1.12014,2.70315 2.37246,5.46966 3.20142,8.21815 1.29248,3.08343 1.68817,6.13083 1.70809,9.46616 -1.44244,-2.35872 -7.591129,-7.85078 -11.617045,-8.85246 4.262684,5.07657 9.392295,9.81594 10.289935,18.81994 -3.856788,-6.66809 -9.016886,-7.83505 -10.18485,-11.5689 2.149545,2.88509 7.94889,20.61627 5.302571,22.1946 -1.730759,-3.86216 -3.156066,-7.75406 -5.641162,-11.19051 -0.782787,-1.4722 -4.810686,-5.05034 -2.708702,-1.01577 1.558818,3.56923 2.490818,6.87719 2.531827,11.0095 0.590458,2.15458 -0.753564,8.71557 -1.689156,3.3027 -1.35107,-3.59771 -1.986876,-7.24897 -4.059244,-10.41844 -1.35357,-1.27148 -2.401105,-2.93243 -3.590375,-4.06536 -1.984576,-2.28581 -4.43858,-3.80414 -6.90583,-5.24579 -3.554847,-1.62996 -6.154855,-4.42935 -9.359353,-6.09532 -2.306071,-1.62481 -4.20167,-5.24629 -5.877071,-7.78676 -1.100316,-2.99145 -1.980883,-6.05833 -3.047283,-9.14185 -0.910311,-3.66892 -2.70578,-7.43086 -1.688932,-11.22412 0.872901,-2.56861 2.851626,-4.37169 4.905516,-6.21312 11.254619,-5.96167 33.767111,2.91088 38.937524,12.01985 z"
           style="fill:#ffffff;stroke:#000000;stroke-width:1.03560999999999992px;stroke-linecap:butt;stroke-linejoin:miter;stroke-opacity:1"
           id="path4316" />
        <path
           sodipodi:nodetypes="cccccccccccccccccccccccccc"
           inkscape:connector-curvature="0"
           d="m 30.935719,209.80101 c -8.668844,13.48309 -0.918595,31.07274 -5.684331,45.44696 -0.819373,1.15633 -1.484752,3.13822 -2.708691,4.40162 -0.691662,1.42336 -3.396791,4.73352 0.338581,2.878 1.212247,-0.29135 3.841673,-5.01187 3.415314,-1.6901 0.932023,1.98543 -0.685439,6.35624 -0.685439,6.35624 0,0 3.774364,-5.14738 5.111117,-4.5349 0.721547,2.77148 0.805593,6.87482 -0.438654,9.08764 8.966754,-3.12976 8.649331,-2.5447 10.068563,-3.60707 0.164126,2.50647 -0.124508,5.58293 -0.758787,7.85112 1.719993,-1.13179 8.35789,-3.25338 9.359101,-6.18331 1.48987,2.33957 0.608023,6.96018 0.726485,8.31073 1.497938,-1.38345 3.665401,-3.66746 4.333485,-5.42673 2.352947,-2.1638 2.243777,6.38168 1.737068,8.09853 2.311068,-0.65868 3.907713,-5.45655 5.053511,-7.93525 1.579121,-2.16405 2.312663,5.92931 2.133024,8.86761 3.542409,-1.74945 6.74961,-5.17293 6.427448,-8.36603 1.572298,3.1119 4.40222,5.29935 7.953788,6.23016 3.626897,0.99602 -0.950071,-4.00268 -1.085029,-6.071 -0.619068,-1.89219 -1.548705,-3.93365 0.434251,-1.29062 2.947506,2.10776 6.366259,3.13136 9.975624,2.9704 1.536651,-0.90981 -3.020038,-3.67714 -3.158886,-5.79641 -6.617076,-10.60403 -7.874995,-25.17624 -2.708107,-35.67957 1.569018,-3.21422 3.369653,-6.10273 4.744752,-9.45179 1.429994,-2.54329 1.525976,-5.87932 1.801082,-8.9833 5.056036,-30.08299 -43.870599,-24.54093 -56.38527,-5.48293 z"
           style="fill:#ffffff;stroke:#000000;stroke-width:1.03724;stroke-linecap:butt;stroke-linejoin:round;stroke-miterlimit:4;stroke-dasharray:none;stroke-opacity:1"
           id="path4314" />
        <path
           sodipodi:nodetypes="ccccccccc"
           inkscape:connector-curvature="0"
           id="path4324"
           d="m 81.118278,237.98005 -4.909521,-0.50788 -9.397471,-37.78155 -4.485815,6.43774 9.426242,-11.62829 6.120602,1.01546 7.8399,3.73088 7.087312,12.66244 z"
           style="fill:#ffffff;stroke:none;stroke-width:1.03560999999999992px;stroke-linecap:butt;stroke-linejoin:miter;stroke-opacity:1" />
        <path
           inkscape:connector-curvature="0"
           id="path4339"
           d="m 77.786607,243.74763 c -0.93626,0.12338 -0.262847,-4.19504 -0.564519,-4.79838 -0.142468,-0.28494 -0.232587,-1.07936 -0.423387,-1.27016 -0.03324,-0.0333 -0.115035,0.0391 -0.141133,0 -0.430304,-0.0999 -0.05437,-0.39104 -0.141122,-0.56452 -0.105197,-0.21039 -0.366345,-0.33633 -0.423387,-0.56451 -0.03428,-0.13692 0.02765,-0.285 0,-0.42339 -0.03521,-0.17603 -0.375883,-0.61064 -0.423387,-0.70565 -0.08678,-0.17349 -0.0041,-0.42735 -0.141132,-0.56451 -0.03324,-0.0332 -0.107859,0.0332 -0.141122,0 -0.237838,-0.23784 -0.394535,-0.76126 -0.56452,-0.98791 -0.119757,-0.15967 -0.30364,-0.26371 -0.423387,-0.42338 -0.04981,-0.0664 -0.08627,-0.36851 -0.141132,-0.42339 -0.03324,-0.0332 -0.107859,0.0332 -0.141122,0 -0.178725,-0.17873 -0.389668,-0.75476 -0.56452,-0.9879 -0.187776,-0.25036 -0.272623,-0.13149 -0.564509,-0.42338 -0.650941,-0.65093 -1.400575,-2.37777 -1.834681,-3.24597 -0.06649,-0.13305 -0.04816,-0.30722 -0.141132,-0.42338 -0.105953,-0.13245 -0.303443,-0.16233 -0.423377,-0.28226 -0.275233,-0.27523 -0.361613,-0.79086 -0.564519,-1.12903 -0.217488,-0.36247 -0.49589,-0.62083 -0.705642,-0.9879 -0.144281,-0.25249 -0.484809,-0.8102 -0.56452,-1.12903 -0.02278,-0.0912 0.05644,-0.20699 0,-0.28226 -0.1018,-0.13569 -0.336116,-0.13681 -0.423387,-0.28226 -0.0726,-0.12101 0.02765,-0.285 0,-0.42339 -0.06193,-0.30944 -0.323596,-0.54739 -0.423387,-0.84677 -0.243771,-0.73133 -0.454175,-1.50366 -0.705641,-2.25806 -0.07964,-0.23904 -0.825524,-2.66019 -0.846774,-2.68145 -0.03324,-0.0332 -0.107869,0.0333 -0.141133,0 -0.03324,-0.0332 0.02102,-0.0991 0,-0.14113 -0.03593,-0.0719 -1.549702,-1.3034 -1.693538,-1.41128 -0.191898,-0.14393 -0.491095,-0.0339 -0.705652,-0.14113 -0.86063,-0.43032 -1.519069,-0.79676 -2.116925,-1.69355 -0.227129,-0.34069 -0.199861,-0.54874 -0.423387,-0.84678 -0.119757,-0.15967 -0.320706,-0.25224 -0.423387,-0.42338 -0.04836,-0.0807 0,-0.18817 0,-0.28226 -0.04702,-0.14113 -0.05188,-0.30437 -0.141132,-0.42338 -0.06307,-0.0842 -0.207877,-0.0667 -0.282255,-0.14113 -0.199955,-0.19996 -0.314047,-0.62809 -0.423387,-0.84677 -0.847364,-1.69474 0.223091,0.60702 -0.564519,-0.70565 -0.532136,-0.88689 -0.672285,-1.51906 -1.411284,-2.25806 -0.137155,-0.13716 -0.39819,-0.0413 -0.564519,-0.14113 -0.34406,-0.20643 -0.609082,-0.51623 -0.987896,-0.70564 -0.0842,-0.042 -0.215727,0.0665 -0.282265,0 -0.03324,-0.0333 0,-0.094 0,-0.14114 -0.09403,0 -0.198101,0.0421 -0.282255,0 -0.460689,-0.23034 0.684774,-0.0758 -0.141132,-0.28225 -0.932067,-0.23301 -1.977522,-0.36728 -2.963699,-0.56451 -0.103147,-0.0206 -0.18817,-0.0941 -0.282255,-0.14113 -0.18818,-0.047 -0.372507,-0.1137 -0.564519,-0.14114 -0.441976,-0.0632 -0.986737,-0.0198 -1.411294,-0.14112 -0.202285,-0.0578 -0.369173,-0.20413 -0.564509,-0.28226 -0.517565,-0.20702 -1.174937,-0.25052 -1.693548,-0.42339 -0.282804,-0.0942 -0.538433,-0.30005 -0.846774,-0.42339 -0.249892,-0.0999 -0.79052,-0.0849 -0.987897,-0.28225 -0.02081,-0.0208 -0.257078,-0.4108 -0.282264,-0.42339 -0.0842,-0.042 -0.198102,0.042 -0.282255,0 -0.153332,-0.0766 -1.160832,-1.30195 -1.270161,-1.41128 -0.09248,-0.0925 -0.493808,-0.0704 -0.564509,-0.14113 -0.07052,-0.0705 -0.07052,-0.21169 -0.141133,-0.28226 -0.09248,-0.0925 -0.493808,-0.0704 -0.564519,-0.14113 -0.09497,-0.095 -0.07446,-0.17834 -0.282255,-0.28226 -0.08523,-0.0426 -0.358144,0.0652 -0.423387,0 -0.03324,-0.0332 0.03324,-0.10786 0,-0.14113 -0.114776,-0.11477 -0.540193,-0.19953 -0.705642,-0.28225 -0.79258,-0.39629 -3.987054,1.72899 -4.657247,2.39919 -0.211698,0.21169 -0.352831,0.49395 -0.564519,0.70564 -0.117604,0.11761 -0.305784,0.16465 -0.423387,0.28225 -0.03324,0.0333 0.03324,0.10787 0,0.14114 -0.131419,0.13141 -0.358558,0.0763 -0.56452,0.28225 -0.117603,0.11761 -0.164641,0.30578 -0.282254,0.42339 -0.08181,0.0818 -0.482717,0.20046 -0.56451,0.28226 -0.03324,0.0333 0.03324,0.10786 0,0.14112 -0.07052,0.0705 -0.211698,0.0705 -0.282264,0.14114 -0.03324,0.0332 0.03324,0.10787 0,0.14113 -0.211689,0.21169 -0.493954,0.35282 -0.705642,0.56451 -0.07052,0.0705 -0.07052,0.2117 -0.141133,0.28225 -0.140811,0.14081 -0.460513,0.2154 -0.564509,0.42339 -0.02102,0.042 0.03324,0.10787 0,0.14113 -0.04702,0.047 -0.37635,0.0941 -0.423387,0.14114 -0.117614,0.1176 -0.164651,0.30577 -0.282254,0.42338 -0.117614,0.11761 -0.305784,0.16465 -0.423387,0.28226 -0.133418,0.13341 -0.305328,0.44645 -0.423387,0.56452 -0.03324,0.0332 -0.107869,-0.0332 -0.141133,0 -0.08181,0.0818 -0.200462,0.48271 -0.282254,0.56451 -0.0785,0.0785 -0.325595,0.2278 -0.423388,0.42338 -0.08958,0.17919 0.06255,0.51809 0,0.70564 -0.04205,0.12623 -0.222758,0.16326 -0.282264,0.28227 -0.03376,0.0675 -0.546645,1.67567 -0.56451,1.69354 -0.09497,0.095 -0.178352,0.0745 -0.282254,0.28226 -0.300119,0.60022 0.302117,2.21834 0,2.82258 -0.130994,0.26198 -0.01823,0.60089 -0.141133,0.84677 -0.610863,1.22172 -0.423387,1.99343 -0.423387,3.38709 0,0.31124 0.09911,0.8318 0,1.12903 -0.101489,0.30457 -0.236729,0.74662 -0.141132,1.12903 0.05344,0.21355 0.228869,0.4921 0.282265,0.70565 0.05706,0.22818 -0.03863,0.47362 0,0.70564 0.07757,0.46575 0.414491,1.808 0.564509,2.25806 0.111286,0.33387 0.312101,0.65403 0.423387,0.9879 0.15561,0.46683 -0.0176,1.07619 0.141132,1.55242 0.01491,0.0446 0.120089,-0.042 0.141123,0 0.126665,0.25331 -0.07001,0.70786 0,0.98791 0.07311,0.29232 0.338736,0.59281 0.423387,0.84676 0.168524,0.50556 0.05509,1.03632 0.141132,1.55243 0.09424,0.56556 0.187994,1.12797 0.282255,1.69353 0.08585,0.51481 -0.241048,1.49371 0,1.97581 0.08471,0.16936 1.192925,1.5138 1.270161,1.55242 0.04205,0.021 0.107869,-0.0332 0.141132,0 0.292,0.292 -0.446222,-0.0114 0.141122,0.28226 0.08554,0.0428 0.364254,0.082 0.423387,0.14112 0.07053,0.0705 0.07053,0.2117 0.141133,0.28226 0.135405,0.1354 0.621426,-0.11305 0.705641,-0.14113 0.112788,-0.0376 0.484913,0.0796 0.56452,0 0.03324,-0.0332 -0.03324,-0.10786 0,-0.14113 0.224457,-0.22446 1.112086,0.38951 1.129029,0.42339 0.02599,0.0521 0.360577,0.83088 0.423387,0.9879 0.290819,0.19095 0.06524,0.47808 0.141132,0.70564 0.268906,0.80673 0.02693,-0.85316 0.282255,0.42339 0.118463,0.5923 0.233633,1.17292 0.564519,1.83468 0.132392,0.2648 0.02786,0.70485 0.141122,0.9879 0.06296,0.15748 0.219269,0.2659 0.282265,0.42339 0.238594,0.59648 -0.0031,1.54693 0.282255,2.11693 0.522774,1.04556 -1.522507,4.26378 -0.705642,5.08063 0.4639,0.46392 2.082315,0.79352 2.822577,0.42339 0.189019,-0.0945 0.195543,-0.33667 0.282255,-0.42339 0.203652,-0.20366 1.179411,-0.93751 1.693548,-0.42338 0.172584,0.17258 0.207359,0.62209 0.282254,0.84677 0.02102,0.0631 0.09403,0.094 0.141133,0.14113 0.04702,0.14113 0.111949,0.27752 0.141122,0.42339 0.08958,0.44776 0.03728,0.8922 0.141133,1.41128 0.318562,1.59281 -0.851259,2.11021 0.282254,3.81049 0.09393,0.14095 0.291078,0.60641 0.423387,0.70564 1.060451,0.79534 2.490106,-0.10766 3.387097,-0.70564 0.208778,-0.1392 0.341077,-0.45281 0.564509,-0.56452 0.08419,-0.0421 0.215727,0.0665 0.282265,0 0.03324,-0.0332 -0.04205,-0.12009 0,-0.14113 0.35047,-0.17524 0.850595,-0.14113 1.27015,-0.14113 0.0581,0 0.386033,-0.0374 0.423387,0 0.0349,0.0349 0.416604,1.09507 0.423387,1.12903 0.1681,0.8405 0.728726,1.76544 0.423388,2.68145 -0.363053,1.08915 -0.901807,2.10985 -1.129029,3.24596 -0.0379,0.18973 -0.498945,1.05347 -0.282255,1.27016 0.337618,0.33762 1.847864,0.16652 2.258058,-0.14113 0.135695,-0.1018 0.271681,-0.2064 0.423387,-0.28226 0.04205,-0.021 0.120089,0.042 0.141132,0 0.04205,-0.0842 -0.0349,-0.1949 0,-0.28225 0.06296,-0.15748 0.222697,-0.26458 0.282255,-0.42339 0.199468,-0.53193 0.289224,-1.1569 0.423387,-1.69354 0.06638,-0.26572 -0.05375,-0.57787 0,-0.84678 0.166743,-0.83371 0.502476,-1.58652 0.705641,-2.39919 0.05934,-0.23753 0.286242,-0.70564 0.56452,-0.70564 0.118618,0 1.194551,1.05342 1.270161,1.12903 1.005719,1.00573 -0.135654,-0.0803 0.846764,0.70564 0.401287,0.32103 0.639373,0.78051 0.987906,1.12903 0.03324,0.0332 0.126251,-0.0446 0.141133,0 0.04463,0.13389 -0.04463,0.2895 0,0.42339 0.01491,0.0446 0.120089,-0.0421 0.141122,0 0.107278,0.21455 0.05685,0.48105 0.141132,0.70565 0.517421,1.37979 0.660811,3.05336 0,4.37499 -0.06317,0.12623 0.04463,0.28949 0,0.42339 -0.06265,0.1879 -0.332875,0.38349 -0.423387,0.56451 -0.04205,0.0842 0.02972,0.193 0,0.28226 -0.135405,0.40621 -0.892693,2.72736 -0.987906,2.82258 -0.03324,0.0332 -0.107859,-0.0332 -0.141122,0 -0.01408,0.0141 -0.01408,0.40927 0,0.42337 0.05913,0.0591 0.337856,0.0984 0.423387,0.14114 0.119012,0.0595 0.163242,0.22275 0.282254,0.28225 0.12623,0.0631 0.289504,-0.0446 0.423387,0 0.290933,0.0969 1.497985,0.36896 1.552416,0.42339 0.150287,0.15029 0.328847,1.03449 0.56452,1.27016 0.196692,0.19669 2.075158,-0.62211 2.258057,-0.9879 0.129451,-0.2589 0.07467,-0.37315 0.141132,-0.70565 0.255308,-1.27655 0.01336,0.38334 0.282255,-0.42339 0.05955,-0.1785 -0.05955,-0.38599 0,-0.5645 0.268906,-0.80673 0.02693,0.85316 0.282255,-0.42339 0.159234,-0.79619 0.297105,-1.59696 0.564519,-2.39919 0.06649,-0.19959 0.23123,-0.36041 0.282255,-0.56452 0.153083,-0.61233 0.234565,-1.2682 0.423387,-1.83467 0.04463,-0.13388 -0.04463,-0.2895 0,-0.42339 0.145513,-0.43655 0.386053,-0.52718 0.564519,-0.70564 0.03324,-0.0332 -0.04702,-0.14113 0,-0.14113 0.246412,0 1.045538,1.58421 1.129029,1.83467 0.17596,0.52788 -0.03708,1.15888 0.141132,1.69355 0.265074,0.79522 0.423387,1.63292 0.423387,2.54032 0,0.65215 -0.08243,3.30468 0.282255,3.66935 0.03324,0.0332 0.107858,-0.0332 0.141122,0 0.148848,0.14884 0.342216,0.48334 0.56452,0.70564 0.159939,0.15994 0.647709,0.32386 0.846774,0.42339 0.380647,0.19032 1.544679,-0.86226 1.270161,-1.4113 -0.181697,-0.36339 -0.377665,-0.7553 -0.56452,-1.12902 -0.04205,-0.0842 0.04205,-0.19811 0,-0.28226 -0.05603,-0.11196 -0.274653,-0.26706 -0.282254,-0.28225 -0.04205,-0.0842 0.02972,-0.19301 0,-0.28227 -0.155352,-0.46605 -0.620484,-1.04144 -0.705642,-1.55241 -0.03096,-0.18562 0.04567,-0.38197 0,-0.56451 -0.103146,-0.4127 -0.429528,-0.72407 -0.564519,-1.12904 -0.29375,-0.88124 -0.385122,-1.7845 -0.56452,-2.68145 -0.110396,-0.552 -0.351661,-2.75317 0,-3.10483 0.03324,-0.0332 0.107869,0.0332 0.141133,0 0.06524,-0.0652 -0.04256,-0.33818 0,-0.42338 0.05551,-0.11099 0.217373,-0.49963 0.282254,-0.56452 0.03324,-0.0333 0.107869,0.0332 0.141133,0 0.04702,-0.047 0.09403,-0.37634 0.141132,-0.42339 0.03324,-0.0332 0.107858,0.0332 0.141122,0 0.230671,-0.23066 0.44703,-0.79185 1.129039,-0.56451 0.155828,0.052 0.427354,0.24797 0.564509,0.28225 0.136918,0.0343 0.284999,-0.0276 0.423387,0 0.206449,0.0413 1.969621,0.69947 1.975803,0.70565 0.06649,0.0666 -0.08419,0.24018 0,0.28226 0.120307,0.0602 0.908569,0.26471 0.987907,0.42339 0.04205,0.0842 -0.04205,0.1981 0,0.28225 0.04702,0.094 0.235207,0.047 0.282254,0.14113 0.06835,0.13663 0.05965,0.44228 0.141133,0.56451 0.190054,0.2851 0.354446,0.21982 0.423387,0.56452 0.09445,0.47212 0.191276,0.81526 0.282254,1.27016 0.04122,0.2063 0.231231,0.36042 0.282255,0.56451 0.02278,0.0912 -0.04205,0.19812 0,0.28226 0.02102,0.042 0.120089,-0.0421 0.141132,0 0.04205,0.0842 -0.04205,0.19811 0,0.28226 0.02102,0.0421 0.107859,-0.0332 0.141123,0 0.06069,0.0607 0.238883,0.57552 0.282264,0.70564 0.0959,0.28773 0.04526,0.70018 0.141123,0.98791 0.02133,0.0638 0.419897,1.26666 0.423387,1.27015 0.03324,0.0333 0.120099,-0.042 0.141132,0 0.06307,0.12623 -0.06307,0.29716 0,0.42339 0.293677,0.58734 -0.0093,-0.15087 0.282255,0.14113 0.164651,0.16465 0.258736,0.39987 0.423387,0.56452 0.328556,0.32855 1.019472,0.15164 1.411293,0.28226 0.199582,0.0665 0.364927,0.21572 0.56451,0.28225 0.112787,0.0376 0.484912,-0.0796 0.564519,0 0.03324,0.0332 -0.03324,0.10787 0,0.14113 0.155382,0.15539 1.085802,0.52129 1.270161,0.70564 0.03324,0.0333 -0.04205,0.12009 0,0.14114 0.08419,0.042 0.192996,-0.0297 0.282255,0 0.244579,0.0815 0.947445,0.38292 1.129028,0.56451 0.03324,0.0332 -0.04205,0.12008 0,0.14113 0.08419,0.042 0.198112,-0.0421 0.282265,0 0.04205,0.021 -0.03324,0.10787 0,0.14113 0.06649,0.0665 0.198102,-0.042 0.282255,0 0.20824,0.10412 1.903932,0.91865 2.116935,0.70564 0.03324,-0.0332 -0.03324,-0.10787 0,-0.14113 0.06649,-0.0665 0.215727,0.0665 0.282255,0 0.07042,-0.0704 0,-0.59513 0,-0.70564 0,-0.37634 0.04702,0.047 -0.141133,-0.14113 -0.01678,-0.0168 -1.058162,-3.38588 -1.129028,-3.66936 -0.01139,-0.0457 0,-0.094 0,-0.14112 -0.09403,-0.094 -0.222749,-0.16325 -0.282255,-0.28226 -0.06307,-0.12622 0.06307,-0.29716 0,-0.42338 -0.100868,-0.20162 -0.284802,-0.70819 -0.423387,-0.84677 -0.03324,-0.0333 -0.107869,0.0332 -0.141133,0 -0.06649,-0.0665 0.04205,-0.19811 0,-0.28227 -0.451897,-0.90379 0.169643,0.62155 -0.282254,-0.28225 -0.09994,-0.19993 -0.07301,-0.50123 -0.141133,-0.70564 -0.244993,-0.73498 -0.489427,-1.54339 -0.846774,-2.25807 -0.04205,-0.0842 0.06649,-0.21573 0,-0.28226 -0.03324,-0.0332 -0.107858,0.0333 -0.141122,0 -0.201487,-0.20147 -1.020911,-2.10782 -1.129039,-2.54031 -0.100454,-0.40182 -0.101282,-1.04941 -0.282254,-1.41129 -0.02102,-0.0421 -0.115036,0.0391 -0.141133,0 -0.36794,-0.55193 -0.366573,-1.382 -0.564509,-1.9758 -0.134194,-0.40259 -0.423843,-0.70702 -0.564519,-1.12903 -0.109982,-0.32996 -0.02931,-0.7936 -0.141123,-1.12903 -0.159421,-0.47825 -0.338312,-0.95887 -0.564519,-1.4113 -0.08906,-0.17817 0.135488,-0.71128 0,-0.84677 -0.03324,-0.0332 -0.107869,0.0332 -0.141133,0 -0.121186,-0.12119 0.06628,-2.31578 0.141133,-2.54031 0.09693,-0.2907 -0.11924,-1.85657 0,-1.97581 0.03324,-0.0333 0.107869,0.0332 0.141132,0 0.117604,-0.11761 -0.117613,-0.58803 0,-0.70565 0.03324,-0.0332 0.107859,0.0332 0.141122,0 0.11807,-0.11806 0.0072,-0.71335 0.141133,-0.84677 0.03324,-0.0332 0.107869,0.0332 0.141132,0 0.09403,-0.094 -0.09414,-0.47042 0,-0.56451 0.03324,-0.0332 0.107859,0.0332 0.141123,0 0.07052,-0.0705 -0.07053,-0.35282 0,-0.42339 0.03324,-0.0332 0.107868,0.0333 0.141132,0 0.192209,-0.19221 -0.212268,-1.11095 0,-1.27016 0.168307,-0.12623 0.376339,-0.18817 0.564519,-0.28225 z"
           style="fill:#000000;stroke:#000000;stroke-width:1.03560999999999992px;stroke-linecap:butt;stroke-linejoin:miter;stroke-opacity:1;opacity:0.1" />
        <path
           id="path2319"
           style="fill:none;stroke:#000000;stroke-width:1.03561px;stroke-linecap:butt;stroke-linejoin:miter;stroke-opacity:1"
           d="m 68.893739,260.56273 c -0.924488,4.28627 -1.931035,9.21738 0.682796,13.14389"
           inkscape:connector-curvature="0" />
        <path
           id="path2321"
           style="fill:none;stroke:#000000;stroke-width:1.03561px;stroke-linecap:butt;stroke-linejoin:miter;stroke-opacity:1"
           d="m 53.186684,259.03989 c -0.807597,4.15803 -1.243234,9.04989 -4.950293,11.77829"
           inkscape:connector-curvature="0" />
        <path
           id="path2323"
           style="fill:none;stroke:#000000;stroke-width:1.03561px;stroke-linecap:butt;stroke-linejoin:miter;stroke-opacity:1"
           d="m 46.06565,256.83692 c -2.055155,3.97175 -2.150078,9.5401 -6.657294,11.77828"
           inkscape:connector-curvature="0" />
        <path
           id="path2327"
           style="fill:none;stroke:#000000;stroke-width:1.03561px;stroke-linecap:butt;stroke-linejoin:miter;stroke-opacity:1"
           d="m 32.505098,250.22263 c 0.877702,4.26679 0.23459,8.89136 -2.048399,12.63179"
           inkscape:connector-curvature="0" />
        <path
           id="path2331"
           style="fill:none;stroke:#000000;stroke-width:1.03561px;stroke-linecap:butt;stroke-linejoin:miter;stroke-opacity:1"
           d="m 44.661084,225.47116 c -3.401489,4.91431 -2.044017,11.97631 -6.657294,16.21648"
           inkscape:connector-curvature="0" />
        <path
           id="path2333"
           style="fill:none;stroke:#000000;stroke-width:1.03561px;stroke-linecap:butt;stroke-linejoin:miter;stroke-opacity:1"
           d="m 51.147678,234.51825 c -1.834961,5.06804 0.08124,10.74482 -2.219098,15.70438"
           inkscape:connector-curvature="0" />
        <path
           id="path2335"
           style="fill:none;stroke:#000000;stroke-width:1.03561px;stroke-linecap:butt;stroke-linejoin:miter;stroke-opacity:1"
           d="m 62.925974,203.96298 c -3.721234,3.61808 -7.757903,7.51513 -8.876391,12.80249"
           inkscape:connector-curvature="0" />
        <path
           sodipodi:nodetypes="cc"
           inkscape:connector-curvature="0"
           id="path4326"
           d="m 100.08496,215.66299 c -1.016751,-2.15878 -1.548511,-4.17899 -5.080637,-7.05645"
           style="fill:none;stroke:#000000;stroke-width:1.03561px;stroke-linecap:butt;stroke-linejoin:miter;stroke-opacity:1" />
        <path
           sodipodi:nodetypes="cc"
           inkscape:connector-curvature="0"
           id="path4328"
           d="m 93.02852,224.55411 c -1.53662,-1.50538 -2.786384,-3.01075 -4.657257,-4.51613"
           style="fill:none;stroke:#000000;stroke-width:1.03561px;stroke-linecap:butt;stroke-linejoin:miter;stroke-opacity:1" />
        <path
           sodipodi:nodetypes="cc"
           inkscape:connector-curvature="0"
           id="path4330"
           d="M 95.42771,235.98554 C 93.762025,230.9903 91.488123,227.2115 89.076904,223.70733"
           style="fill:none;stroke:#000000;stroke-width:1.03561px;stroke-linecap:butt;stroke-linejoin:miter;stroke-opacity:1" />
        <path
           sodipodi:nodetypes="cc"
           inkscape:connector-curvature="0"
           id="path4332"
           d="m 90.205937,241.20731 c -1.932867,-3.86803 -2.338378,-8.82703 -6.633048,-11.00806"
           style="fill:none;stroke:#000000;stroke-width:1.03561px;stroke-linecap:butt;stroke-linejoin:miter;stroke-opacity:1" />
        <path
           sodipodi:nodetypes="cccccccccccccccccc"
           inkscape:connector-curvature="0"
           d="m 54.21809,223.84846 c 7.845737,5.08541 7.359242,15.70493 12.956552,22.48783 4.214737,5.68348 9.390298,-3.18272 10.287655,2.99061 -0.126905,6.82164 1.54053,13.55038 5.388141,19.23445 3.201985,4.54692 -0.658143,4.44989 -2.982611,0.97711 -2.529779,-2.39956 -11.336952,-3.3192 -6.247148,2.09477 3.098869,8.37541 -7.673359,-5.44992 -5.72767,0.921 0.662033,6.30167 -5.872689,2.27488 -4.708398,-2.01863 -2.160397,-6.33119 -5.203837,-0.8331 -4.144205,2.99846 -2.228325,3.18879 -5.917387,-8.15745 -6.945899,-0.79861 -1.943716,-1.71488 -5.061789,-11.86556 -5.514153,-4.68014 -4.100781,7.56426 -5.097469,-8.66033 -10.691194,-1.38891 -2.709484,-2.64637 -4.879946,-6.86766 -8.399836,-6.59726 -3.136429,-6.0686 -0.340307,-12.60844 -0.965641,-18.92193 0.122942,-10.30006 -2.36103,-21.74754 4.14874,-30.74838 3.991964,-4.55017 -0.764744,7.28372 4.37294,4.12379 4.941469,-2.64769 13.288407,-3.81232 16.301633,1.98865 -0.640927,2.94734 3.306081,5.46225 2.871094,7.33719 z"
           style="opacity:0.2;fill:#000000;stroke:#000000;stroke-width:1.03561px;stroke-linecap:butt;stroke-linejoin:miter;stroke-opacity:1"
           id="path4334" />
      </g>
    </g>
  </g>
</svg>
