<?xml version="1.0" encoding="UTF-8" standalone="no"?>
<!-- Created with Inkscape (http://www.inkscape.org/) -->

<svg
   xmlns:dc="http://purl.org/dc/elements/1.1/"
   xmlns:cc="http://creativecommons.org/ns#"
   xmlns:rdf="http://www.w3.org/1999/02/22-rdf-syntax-ns#"
   xmlns:svg="http://www.w3.org/2000/svg"
   xmlns="http://www.w3.org/2000/svg"
   xmlns:sodipodi="http://sodipodi.sourceforge.net/DTD/sodipodi-0.dtd"
   xmlns:inkscape="http://www.inkscape.org/namespaces/inkscape"
   width="110"
   height="110"
   viewBox="0 0 29.104165 29.104167"
   version="1.1"
   id="svg8"
   sodipodi:docname="back_long1.svg"
   inkscape:version="0.92.2 5c3e80d, 2017-08-06">
  <defs
     id="defs2" />
  <sodipodi:namedview
     id="base"
     pagecolor="#ffffff"
     bordercolor="#666666"
     borderopacity="1.0"
     inkscape:pageopacity="0.0"
     inkscape:pageshadow="2"
     inkscape:zoom="8.2264057"
     inkscape:cx="53.443501"
     inkscape:cy="75.732158"
     inkscape:document-units="mm"
     inkscape:current-layer="g4578"
     showgrid="false"
     units="px"
     inkscape:window-width="1680"
     inkscape:window-height="925"
     inkscape:window-x="84"
     inkscape:window-y="12"
     inkscape:window-maximized="0"
     fit-margin-top="0"
     fit-margin-left="0"
     fit-margin-right="0"
     fit-margin-bottom="0" />
  <metadata
     id="metadata5">
    <rdf:RDF>
      <cc:Work
         rdf:about="">
        <dc:format>image/svg+xml</dc:format>
        <dc:type
           rdf:resource="http://purl.org/dc/dcmitype/StillImage" />
        <dc:title />
      </cc:Work>
    </rdf:RDF>
  </metadata>
  <g
     inkscape:label="Layer 1"
     inkscape:groupmode="layer"
     id="layer1"
     transform="translate(-54.198774,-210.72516)">
    <g
       id="g4578"
       transform="matrix(0.25548634,0,0,0.25548634,51.782645,166.50629)">
      <path
         style="fill:#ffffff;stroke:#000000;stroke-width:0.81472397;stroke-linecap:butt;stroke-linejoin:miter;stroke-miterlimit:4;stroke-dasharray:none;stroke-opacity:1"
         d="m 101.61394,235.9105 c 1.5641,-11.82608 3.42975,-14.81813 5.46224,-26.57328 -0.98737,-3.2206 -1.97075,-10.7915 -2.96069,-11.2126 -1.05468,3.42327 -1.72778,11.18737 -2.30906,11.9827 -0.45104,-5.64497 -1.74945,-11.1181 -3.789337,-16.38938 -0.75943,-3.35606 -1.0316,-6.79963 -1.5985,-10.19278 -1.53291,4.78433 -1.48144,12.00768 -1.5226,15.54268 -0.81517,-6.50356 -5.526203,-11.25088 -8.157207,-16.82863 -0.328622,-1.23174 -0.298505,-7.74694 -0.941124,-4.16944 -1.940984,2.30271 2.323877,11.12469 -0.818276,4.85415 -2.759442,-5.43019 -7.907493,-10.43085 -8.309671,-16.51082 -0.493462,5.82895 -0.123624,11.66971 0.353197,17.46749 -3.515491,-5.90307 -6.61876,-12.06805 -8.726946,-18.59826 -1.109602,4.17302 -0.304824,13.70944 0.516851,14.41085 -1.341545,-6.19073 -6.844844,-10.05371 -9.263076,-15.78576 1.056407,4.47501 -2.734327,13.38658 -2.367417,14.64851 -1.973135,-2.81152 -3.430865,-11.88398 -4.090703,-3.94916 -2.172952,1.29592 -2.262664,10.21657 -2.429721,4.13392 -0.805003,-3.16503 -2.498525,-13.36674 -3.839012,-4.78687 -1.132371,3.26597 0.841923,11.60865 -0.514212,4.04026 -0.514999,-2.82386 -2.492445,-7.7833 -2.939588,-1.78382 -1.743952,3.68956 -3.804245,7.47361 -1.975395,11.49924 -0.205845,1.26241 -4.043475,-6.55285 -4.681403,-8.94111 -0.241016,-3.82516 -0.724914,-5.64485 -1.941044,-1.13321 -1.96644,5.61972 -3.56164,11.59198 -3.4197,17.568 0.91923,2.66294 2.54582,5.41208 -0.0457,1.54061 -1.59309,-1.32156 -3.46114,-10.36902 -3.23552,-3.66908 -1.23415,3.98861 -0.0248,11.91628 -0.0765,13.40664 -2.61261,-1.38154 -5.40824,-8.57312 -3.81162,-1.9183 0.21188,3.85268 0.15604,7.86062 3.00906,10.86924 -3.10585,0.061 -5.86828,-6.16786 -4.11514,-0.44247 1.06837,4.22209 4.33196,15.55374 9.33488,11.46015 0.80358,-5.25547 23.317437,27.77532 29.056658,25.32301 l 10.471846,0.0603 10.163959,1.12862 6.723852,-3.83739 v 0 l 6.542662,-6.20223 4.859117,-4.6199 z"
         id="path844"
         inkscape:connector-curvature="0"
         sodipodi:nodetypes="cccccccccccccccccccccccccccccccccccccccc" />
      <path
         style="opacity:0.2;fill:#000000;stroke:none;stroke-width:1.03560662px;stroke-linecap:butt;stroke-linejoin:miter;stroke-opacity:1"
         d="m 39.968284,232.46913 12.191085,13.2126 5.672306,5.1309 3.63599,0.96035 10.471847,0.0603 10.163959,1.12862 6.72385,-3.83739 6.542662,-6.20223 4.859117,-4.6199 5.28198,-18.26379 1.5651,-10.70137 -2.96069,-11.2126 -2.30906,11.9827 -2.276053,-10.88946 -3.111784,-15.6927 -1.5226,15.54268 -2.279388,-7.27737 -1.789127,-1.83969 -2.64365,-4.28019 -10.279699,8.15515 -11.944734,12.65227 -15.255653,22.88348 z"
         id="path814"
         inkscape:connector-curvature="0"
         sodipodi:nodetypes="ccccccccccccccccccccccc" />
    </g>
  </g>
</svg>
