<?xml version="1.0" encoding="UTF-8" standalone="no"?>
<svg
   xmlns:dc="http://purl.org/dc/elements/1.1/"
   xmlns:cc="http://creativecommons.org/ns#"
   xmlns:rdf="http://www.w3.org/1999/02/22-rdf-syntax-ns#"
   xmlns:svg="http://www.w3.org/2000/svg"
   xmlns="http://www.w3.org/2000/svg"
   xmlns:sodipodi="http://sodipodi.sourceforge.net/DTD/sodipodi-0.dtd"
   xmlns:inkscape="http://www.inkscape.org/namespaces/inkscape"
   inkscape:version="1.0alpha2 (863a58d, 2019-08-17)"
   sodipodi:docname="back_dark1.svg"
   id="svg8"
   version="1.1"
   viewBox="0 0 132.29166 132.29167"
   height="500"
   width="500">
  <defs
     id="defs2" />
  <sodipodi:namedview
     inkscape:snap-global="false"
     inkscape:document-rotation="0"
     inkscape:window-maximized="0"
     inkscape:window-y="23"
     inkscape:window-x="0"
     inkscape:window-height="907"
     inkscape:window-width="1680"
     units="px"
     showgrid="false"
     inkscape:current-layer="g4578"
     inkscape:document-units="mm"
     inkscape:cy="221.55139"
     inkscape:cx="262.28441"
     inkscape:zoom="8.9293395"
     inkscape:pageshadow="2"
     inkscape:pageopacity="0.0"
     borderopacity="1.0"
     bordercolor="#666666"
     pagecolor="#ffffff"
     id="base" />
  <metadata
     id="metadata5">
    <rdf:RDF>
      <cc:Work
         rdf:about="">
        <dc:format>image/svg+xml</dc:format>
        <dc:type
           rdf:resource="http://purl.org/dc/dcmitype/StillImage" />
        <dc:title />
      </cc:Work>
    </rdf:RDF>
  </metadata>
  <g
     transform="translate(0,-164.70832)"
     id="layer1"
     inkscape:groupmode="layer"
     inkscape:label="Layer 1">
    <g
       transform="matrix(-0.25548634,0,0,0.25548634,82.358043,168.99649)"
       id="g4578">
      <path
         sodipodi:nodetypes="ccccccccccccccccccccccccccccccccccccc"
         inkscape:connector-curvature="0"
         id="path863"
         d="m 78.078743,263.11413 c -5.110895,-0.56007 -10.164693,-1.19627 -14.437555,-2.87371 -2.224186,1.47609 -4.174451,3.13479 -5.547889,5.17804 -1.473057,-2.15751 -2.481215,-4.31503 -2.958873,-6.47254 -4.126063,0.83828 -7.348179,2.76129 -10.811101,4.39534 -0.520166,-2.45141 -0.316788,-4.90281 1.00982,-7.35422 -3.532332,1.45998 -6.516579,3.89433 -9.417219,6.47732 -1.257859,-3.22573 -1.228968,-6.50996 -0.938847,-9.80606 -2.242058,0.74814 -4.59933,0.45937 -6.579064,3.56843 -0.82391,-5.93733 1.112712,-10.51431 1.830704,-15.69181 -1.624608,0.15067 -2.624048,1.55168 -3.399886,3.39989 -0.36055,-4.62037 -0.80581,-7.42751 0.251283,-12.04787 -0.962883,-2.54122 -3.501563,-2.08718 -4.95883,0.0175 0.15327,-6.73141 2.882097,-12.49699 7.584379,-17.52252 -1.209444,-7.10113 2.290704,-19.97227 6.965439,-21.70462 -0.695868,3.57345 -0.213594,4.35635 1.005797,7.9298 3.533988,-5.43673 4.787547,-8.93035 10.711814,-11.9768 -0.02618,2.04562 -0.695529,4.09124 1.97783,6.13686 4.825092,-3.5733 8.061831,-9.16814 15.723052,-9.13183 -0.539479,1.70224 0.45023,3.43581 3.368645,5.20888 5.029306,-3.08433 10.236378,-5.85264 17.780325,-4.46649 -1.419755,2.36902 -1.721414,4.67228 1.661366,6.75881 5.747991,-0.7791 11.065862,-2.6335 17.867947,-0.77735 -2.13506,2.18609 -7.318268,4.67702 -4.88368,7.66897 2.90578,-0.0481 9.13124,3.67159 11.24958,5.72328 -4.76129,-1.00155 -8.97072,-1.26729 -12.03038,0 4.3763,1.34243 8.74882,2.69618 12.29191,6.53825 -3.92229,0.61111 -7.59508,1.36082 -8.99693,3.37217 4.37762,1.8866 5.45117,7.4325 5.45117,7.4325 -8.30512,-0.7881 -7.07172,-3.1078 -12.561855,0.60809 5.536615,3.42445 6.191025,8.64761 7.932825,13.47016 -3.0789,-0.7363 -6.480747,-2.54911 -8.983614,-1.36531 1.335419,3.55502 1.64249,7.51389 1.31611,9.0139 -1.493515,-1.4244 -14.061316,-13.56147 -17.722385,-11.48777 3.441435,3.5067 1.202555,8.74124 0.419041,10.92439 -1.379124,-1.25895 -3.325628,-1.14393 -4.659334,-0.56403 0.884949,5.61743 0.386789,12.85608 2.488405,19.42035 z"
         style="fill:#ffffff;fill-opacity:1;stroke:#000000;stroke-width:1.95705;stroke-linecap:butt;stroke-linejoin:round;stroke-miterlimit:4;stroke-dasharray:none;stroke-opacity:1;paint-order:stroke fill markers" />
      <path
         sodipodi:nodetypes="ccc"
         inkscape:connector-curvature="0"
         id="path886"
         d="m 38.543783,215.35296 c -8.818073,1.90492 -11.785203,23.78336 -11.644736,28.20971 -0.484436,-6.13403 1.740307,-27.66068 11.644736,-28.20971 z"
         style="fill:#999999;stroke:none;stroke-width:1.03560662px;stroke-linecap:butt;stroke-linejoin:miter;stroke-opacity:1" />
      <path
         style="fill:#999999;stroke:none;stroke-width:1.03560662px;stroke-linecap:butt;stroke-linejoin:miter;stroke-opacity:1"
         d="m 44.605509,223.41021 c -8.537216,5.89308 -8.674087,21.83366 -6.349066,25.74367 -2.788147,-2.93664 -3.555363,-25.19464 6.349066,-25.74367 z"
         id="path888"
         inkscape:connector-curvature="0"
         sodipodi:nodetypes="ccc" />
      <path
         sodipodi:nodetypes="ccc"
         inkscape:connector-curvature="0"
         id="path890"
         d="m 75.781278,231.23696 c 7.217189,2.46663 5.445302,9.75681 4.468394,13.02085 1.945576,-3.58261 1.700639,-12.75268 -4.468394,-13.02085 z"
         style="fill:#999999;stroke:none;stroke-width:1.03560662px;stroke-linecap:butt;stroke-linejoin:miter;stroke-opacity:1" />
      <path
         inkscape:transform-center-y="2.4245021"
         inkscape:transform-center-x="-2.2817174"
         style="fill:#999999;stroke:none;stroke-width:1.03560662px;stroke-linecap:butt;stroke-linejoin:miter;stroke-opacity:1"
         d="m 49.032975,206.01374 c -1.057295,-12.27831 12.418283,-19.94329 16.944955,-20.39401 -4.018427,-0.49987 -19.519161,7.9979 -16.944955,20.39401 z"
         id="path892"
         inkscape:connector-curvature="0"
         sodipodi:nodetypes="ccc" />
      <path
         inkscape:transform-center-y="3.08652"
         inkscape:transform-center-x="-1.5238634"
         sodipodi:nodetypes="ccc"
         inkscape:connector-curvature="0"
         id="path894"
         d="m 38.234882,205.36251 c -1.617411,-4.92168 5.877764,-14.91106 10.026878,-16.7762 -3.969112,0.80235 -12.814421,12.42503 -10.026878,16.7762 z"
         style="fill:#999999;stroke:none;stroke-width:1.03560662px;stroke-linecap:butt;stroke-linejoin:miter;stroke-opacity:1" />
      <path
         inkscape:transform-center-y="-0.92775848"
         inkscape:transform-center-x="-3.3796841"
         style="fill:#999999;stroke:none;stroke-width:1.03560662px;stroke-linecap:butt;stroke-linejoin:miter;stroke-opacity:1"
         d="m 79.87689,204.13658 c 7.51393,-7.53 27.46608,-4.50921 33.40445,1.5191 -4.75376,-6.4756 -29.56895,-10.66722 -33.40445,-1.5191 z"
         id="path896"
         inkscape:connector-curvature="0"
         sodipodi:nodetypes="ccc" />
      <path
         sodipodi:nodetypes="ccc"
         inkscape:connector-curvature="0"
         id="path1470"
         d="m 73.940615,202.73034 c 1.338924,-10.28687 29.129445,-11.49433 32.827265,-10.37116 -5.51534,-1.69915 -34.844192,0.74938 -32.827265,10.37116 z"
         style="fill:#999999;stroke:none;stroke-width:1.03560662px;stroke-linecap:butt;stroke-linejoin:miter;stroke-opacity:1" />
      <path
         inkscape:transform-center-y="2.2353237"
         inkscape:transform-center-x="-3.6883168"
         style="fill:#999999;stroke:none;stroke-width:1.03560662px;stroke-linecap:butt;stroke-linejoin:miter;stroke-opacity:1"
         d="M 67.967901,199.478 C 66.6488,189.18857 81.817427,184.666 87.139733,186.27308 81.148975,183.61589 64.976405,190.57227 67.967901,199.478 Z"
         id="path1472"
         inkscape:connector-curvature="0"
         sodipodi:nodetypes="ccc" />
      <path
         inkscape:transform-center-y="3.4197756"
         inkscape:transform-center-x="-1.2989058"
         style="fill:#999999;stroke:none;stroke-width:1.03560662px;stroke-linecap:butt;stroke-linejoin:miter;stroke-opacity:1"
         d="m 33.011358,214.53806 c -5.243349,1.46801 -11.030539,12.94003 -10.890072,17.36638 -0.484436,-6.13403 7.340708,-18.60471 10.890072,-17.36638 z"
         id="path1474"
         inkscape:connector-curvature="0"
         sodipodi:nodetypes="ccc" />
      <path
         sodipodi:nodetypes="ccc"
         inkscape:connector-curvature="0"
         id="path1476"
         d="m 87.518916,214.45174 c 5.778463,-6.18868 20.196714,0.17296 22.330634,8.64261 -0.31097,-7.12168 -16.177822,-16.42349 -22.330634,-8.64261 z"
         style="fill:#999999;stroke:none;stroke-width:1.03560662px;stroke-linecap:butt;stroke-linejoin:miter;stroke-opacity:1"
         inkscape:transform-center-x="-3.1875499"
         inkscape:transform-center-y="-1.4973121" />
      <path
         inkscape:transform-center-y="-1.4973121"
         inkscape:transform-center-x="-3.1875499"
         style="fill:#999999;stroke:none;stroke-width:1.03560662px;stroke-linecap:butt;stroke-linejoin:miter;stroke-opacity:1"
         d="m 87.076509,208.30929 c 4.486521,-7.3121 20.870771,0.62233 26.318801,3.98039 -5.42256,-4.98717 -21.289417,-11.76127 -26.318801,-3.98039 z"
         id="path1478"
         inkscape:connector-curvature="0"
         sodipodi:nodetypes="ccc" />
      <path
         style="fill:#999999;stroke:none;stroke-width:1.03560662px;stroke-linecap:butt;stroke-linejoin:miter;stroke-opacity:1"
         d="m 60.651578,248.38693 c -1.382622,7.5007 2.30658,11.39164 6.306184,12.41587 -4.076401,-0.0575 -9.092607,-6.90545 -6.306184,-12.41587 z"
         id="path1480"
         inkscape:connector-curvature="0"
         sodipodi:nodetypes="ccc" />
      <path
         inkscape:transform-center-y="-1.4973121"
         inkscape:transform-center-x="-3.1875499"
         style="fill:#999999;stroke:none;stroke-width:1.03560662px;stroke-linecap:butt;stroke-linejoin:miter;stroke-opacity:1"
         d="m 88.507023,224.42948 c 7.182747,-3.77331 14.579577,4.27347 16.713497,12.74312 -0.31097,-7.12168 -9.156401,-18.05246 -16.713497,-12.74312 z"
         id="path1482"
         inkscape:connector-curvature="0"
         sodipodi:nodetypes="ccc" />
      <path
         sodipodi:nodetypes="ccc"
         inkscape:connector-curvature="0"
         id="path1484"
         d="m 86.737513,230.95464 c 3.756294,-2.20051 9.499393,4.85265 10.815503,13.86655 -0.31097,-7.12168 -5.505262,-18.05246 -10.815503,-13.86655 z"
         style="fill:#999999;stroke:none;stroke-width:1.03560662px;stroke-linecap:butt;stroke-linejoin:miter;stroke-opacity:1"
         inkscape:transform-center-x="-3.1875499"
         inkscape:transform-center-y="-1.4973121" />
    </g>
  </g>
</svg>
