<?xml version="1.0" encoding="UTF-8" standalone="no"?>
<!-- Created with Inkscape (http://www.inkscape.org/) -->

<svg
   xmlns:dc="http://purl.org/dc/elements/1.1/"
   xmlns:cc="http://creativecommons.org/ns#"
   xmlns:rdf="http://www.w3.org/1999/02/22-rdf-syntax-ns#"
   xmlns:svg="http://www.w3.org/2000/svg"
   xmlns="http://www.w3.org/2000/svg"
   xmlns:sodipodi="http://sodipodi.sourceforge.net/DTD/sodipodi-0.dtd"
   xmlns:inkscape="http://www.inkscape.org/namespaces/inkscape"
   width="150"
   height="150"
   viewBox="0 0 39.687497 39.687501"
   version="1.1"
   id="svg8"
   sodipodi:docname="back_split.svg"
   inkscape:version="0.92.2 5c3e80d, 2017-08-06">
  <defs
     id="defs2" />
  <sodipodi:namedview
     id="base"
     pagecolor="#ffffff"
     bordercolor="#666666"
     borderopacity="1.0"
     inkscape:pageopacity="0.0"
     inkscape:pageshadow="2"
     inkscape:zoom="4.0466197"
     inkscape:cx="36.250965"
     inkscape:cy="115.56587"
     inkscape:document-units="mm"
     inkscape:current-layer="g4578"
     showgrid="false"
     units="px"
     inkscape:window-width="1680"
     inkscape:window-height="925"
     inkscape:window-x="7"
     inkscape:window-y="6"
     inkscape:window-maximized="0"
     fit-margin-top="0"
     fit-margin-left="0"
     fit-margin-right="0"
     fit-margin-bottom="0" />
  <metadata
     id="metadata5">
    <rdf:RDF>
      <cc:Work
         rdf:about="">
        <dc:format>image/svg+xml</dc:format>
        <dc:type
           rdf:resource="http://purl.org/dc/dcmitype/StillImage" />
        <dc:title />
      </cc:Work>
    </rdf:RDF>
  </metadata>
  <g
     inkscape:label="Layer 1"
     inkscape:groupmode="layer"
     id="layer1"
     transform="translate(-54.184848,-191.61866)">
    <g
       id="g4578"
       transform="matrix(0.25548634,0,0,0.25548634,51.782645,166.50629)">
      <path
         style="fill:#ffffff;stroke:#000000;stroke-width:1.03560662px;stroke-linecap:butt;stroke-linejoin:miter;stroke-opacity:1"
         d="m 117.43679,172.38146 c 1.26674,4.28277 1.80962,12.36574 0.90482,16.82947 -2.65411,-4.16212 -5.67015,-9.0481 -9.95291,-11.58157 2.20079,5.60982 -0.38927,11.21965 -1.80962,16.82947 -0.95926,-6.89615 -5.33655,-8.85315 -7.600414,-11.40061 -2.57797,4.60272 -2.30257,10.35621 -0.54288,14.47697 -4.779991,-1.94887 -7.135412,-8.47208 -9.590992,-13.21023 -3.72048,2.99579 -4.590922,9.92747 -5.971746,13.39119 -1.8532,-3.7553 -3.091096,-11.14432 -2.533468,-15.38178 -2.491601,4.01523 -7.306833,7.25591 -12.667341,10.31484 2.369635,-5.18758 3.950064,-10.37515 3.438278,-15.56273 -6.393991,-1.87388 -12.787982,1.83939 -19.181973,8.14329 2.108891,-6.88439 2.341402,-14.00332 7.962328,-20.44871 -4.343088,-1.33443 -8.686176,1.42392 -13.029264,2.71443 1.362856,-6.189 2.988533,-12.31229 8.143291,-17.55332 -4.765333,-0.78417 -9.530667,-1.56833 -14.296,-2.3525 15.882897,-17.93267 27.943818,-25.85219 49.25805,-17.21451 2.817793,-0.21393 5.704317,-0.77662 8.480197,-0.77784 l 8.855784,4.78212 c 2.33374,4.24348 4.8857,8.41532 7.08367,12.70338 z"
         id="path837"
         inkscape:connector-curvature="0"
         sodipodi:nodetypes="ccccccccccccccccccccc" />
      <path
         style="fill:#000000;stroke:#000000;stroke-width:1.03560662px;stroke-linecap:butt;stroke-linejoin:miter;stroke-opacity:1"
         d="m 80.164056,140.90112 c -11.026131,10.5489 -0.128151,31.82074 14.732325,29.75547 15.487999,4.53199 30.482129,-17.14187 17.252639,-28.43472 -8.57957,-7.98114 -22.490563,-7.12714 -31.984964,-1.32075 z"
         id="path2506"
         inkscape:connector-curvature="0" />
      <path
         style="fill:#ffffff;stroke:none;stroke-width:1.03560662px;stroke-linecap:butt;stroke-linejoin:miter;stroke-opacity:1"
         d="m 84.925555,139.36397 -5.219342,3.79213 -0.723848,7.05752 0.452405,7.148 1.900101,2.80491 c 0,0 4.524051,5.60982 5.066936,5.79078 0.542887,0.18096 6.876558,1.62866 6.876558,1.62866 l 9.048095,0.99529 6.51464,-2.17154 4.79549,-4.7955 0.90481,-8.50521 -6.51463,-10.13387 -15.11033,-2.53347 -5.338379,0.27144 z"
         id="path2522"
         inkscape:connector-curvature="0"
         sodipodi:nodetypes="ccccccccccccccc" />
      <path
         style="opacity:0.2;fill:#000000;stroke:none;stroke-width:1.03560662px;stroke-linecap:butt;stroke-linejoin:miter;stroke-opacity:1"
         d="m 81.80396,167.99555 c -3.142236,5.9257 -6.284472,11.8514 -9.426708,17.7771 4.162128,-3.13667 8.32425,-6.27335 12.486378,-9.41002 -0.603207,4.10181 -1.206413,8.20361 -1.80962,12.30542 3.377955,-3.92085 6.755918,-7.84169 10.133873,-11.76254 -0.06032,3.37796 -0.120641,6.75592 -0.180962,10.13388 2.473146,-3.43828 4.946293,-6.87656 7.419439,-10.31484 1.86994,2.83507 3.73988,5.67014 5.60982,8.50521 0,-4.16212 0,-8.32425 0,-12.48637 3.82295,2.34619 8.97296,3.82045 9.86347,8.93806 1.4648,2.45773 0.58892,-3.7227 1.20452,-4.75099 1.16909,-5.43527 -2.38198,-10.12169 -5.24832,-14.33731 -3.44595,-2.95154 -8.11078,-6.01199 -12.857805,-4.79834 -3.339625,1.08189 -6.693881,2.17429 -10.027652,3.20436 -2.834764,1.79585 -4.73414,4.72207 -7.166433,6.99638 z"
         id="path2550"
         inkscape:connector-curvature="0" />
      <path
         style="fill:#ffffff;stroke:#000000;stroke-width:1.03560662px;stroke-linecap:butt;stroke-linejoin:miter;stroke-opacity:1"
         d="m 89.966949,130.37516 c -1.672776,-6.539 -0.823024,-12.61935 1.247034,-18.47783 3.470195,4.14617 7.347736,8.08867 8.867147,13.21023 2.99359,-3.72839 8.47386,-12.002 11.89825,-12.35066 1.04837,4.67829 0.74482,12.41822 2.63526,15.1895 5.32778,-4.75744 10.59625,-9.54454 18.58254,-12.97272 -2.50441,4.95287 -5.08142,12.01864 -3.88503,16.70506 7.10617,-1.17594 13.33889,0.70516 19.80968,1.75307 -5.60743,6.07573 -10.63416,10.81279 -18.63908,12.12446 1.833,5.45232 7.54883,14.57246 6.9331,17.71166 -4.60464,0.98825 -12.12661,-3.91853 -15.34784,-4.76157 1.97219,4.99438 1.94008,12.11009 0.93314,14.62472 -4.16956,-3.4243 -9.31394,-6.01304 -11.28168,-11.32462 -3.79735,4.08079 -10.16725,9.24433 -13.653863,10.56458 -1.630175,-3.67625 -3.260351,-7.35249 -4.890526,-11.02874 -2.516757,3.23664 -7.276883,4.67859 -11.371123,6.65325 0.683455,-5.30868 0.104776,-10.84684 4.290086,-15.51882 -4.376729,1.95618 -9.585464,0.16833 -14.60492,-0.76776 2.520057,-4.14681 8.301565,-7.80697 12.169695,-9.63057 -6.174355,-2.7041 -10.940599,-7.37957 -15.427011,-12.44679 7.959889,-1.18183 15.785761,-2.09563 21.735141,0.74355 z"
         id="path835"
         inkscape:connector-curvature="0"
         sodipodi:nodetypes="ccccccccccccccccccccc" />
      <path
         style="opacity:0.2;fill:#000000;stroke:none;stroke-width:1.03560662px;stroke-linecap:butt;stroke-linejoin:miter;stroke-opacity:1"
         d="m 126.57537,120.98825 c -1.05482,3.37166 -6.8189,7.10341 -4.97957,10.29316 3.01476,1.6283 7.48435,1.44679 6.14872,-3.15958 -0.0633,-2.25833 2.50164,-7.48079 0.30682,-8.10059 -0.49199,0.32233 -0.98398,0.64467 -1.47597,0.96701 z"
         id="path2524"
         inkscape:connector-curvature="0" />
      <path
         style="opacity:0.2;fill:#000000;stroke:none;stroke-width:1.03560662px;stroke-linecap:butt;stroke-linejoin:miter;stroke-opacity:1"
         d="m 121.36701,155.4885 c 4.51809,1.70582 8.60982,4.52653 13.34377,5.63021 -2.27262,-5.28899 -4.54523,-10.57798 -6.81785,-15.86697 -2.17531,3.41225 -4.35061,6.82451 -6.52592,10.23676 z"
         id="path2526"
         inkscape:connector-curvature="0" />
      <path
         style="opacity:0.2;fill:#000000;stroke:none;stroke-width:1.03560662px;stroke-linecap:butt;stroke-linejoin:miter;stroke-opacity:1"
         d="m 119.31965,157.27993 c 0,0 -8.69506,-3.85919 -6.92408,-0.57227 3.03313,4.45608 6.06626,8.91217 9.0994,13.36825 -1.19429,-4.99043 -0.98104,-7.80555 -2.17532,-12.79598 z"
         id="path2528"
         inkscape:connector-curvature="0"
         sodipodi:nodetypes="cccc" />
      <path
         style="opacity:0.2;fill:#000000;stroke:none;stroke-width:1.03560662px;stroke-linecap:butt;stroke-linejoin:miter;stroke-opacity:1"
         d="m 98.974097,169.18016 c 1.194283,-5.4596 2.388573,-10.91921 3.582863,-16.37881 2.68209,0.161 7.06666,1.37862 3.40118,4.33388 -2.32802,4.01497 -4.65603,8.02995 -6.984043,12.04493 z"
         id="path2530"
         inkscape:connector-curvature="0" />
      <path
         style="fill:#000000;stroke:none;stroke-width:1.03560662px;stroke-linecap:butt;stroke-linejoin:miter;stroke-opacity:1;opacity:0.2"
         d="m 85.154475,163.6779 5.886135,-11.51635 6.525933,1.40756 z"
         id="path2532"
         inkscape:connector-curvature="0" />
      <path
         style="opacity:0.2;fill:#000000;stroke:none;stroke-width:1.03560662px;stroke-linecap:butt;stroke-linejoin:miter;stroke-opacity:1"
         d="m 74.277921,150.1142 c 4.094703,-1.19429 8.189405,-2.38858 12.284108,-3.58287 1.894112,1.51817 4.088668,4.62545 -0.137955,3.48164 -4.048717,0.0337 -8.097435,0.0675 -12.146153,0.10123 z"
         id="path2534"
         inkscape:connector-curvature="0" />
      <path
         style="opacity:0.2;fill:#000000;stroke:none;stroke-width:1.03560662px;stroke-linecap:butt;stroke-linejoin:miter;stroke-opacity:1"
         d="m 129.68437,138.72581 c 5.24634,-1.62082 10.49267,-3.24164 15.73901,-4.86246 -2.28975,3.73398 -6.05305,5.99033 -9.75319,7.99151 -2.49887,1.49534 -9.6612,1.36866 -5.98582,-3.12905 z"
         id="path2536"
         inkscape:connector-curvature="0" />
      <path
         style="opacity:0.2;fill:#000000;stroke:none;stroke-width:1.03560662px;stroke-linecap:butt;stroke-linejoin:miter;stroke-opacity:1"
         d="m 110.23453,116.71678 c -1.35698,5.07959 -4.43163,10.04087 -3.14187,15.47168 -0.42132,4.54246 4.94903,-1.36293 5.23854,-3.56227 -0.22842,-3.62223 -1.53465,-7.19408 -1.91673,-10.87974 l -0.09,-0.51483 z"
         id="path2538"
         inkscape:connector-curvature="0" />
      <path
         style="opacity:0.2;fill:#000000;stroke:none;stroke-width:1.03560662px;stroke-linecap:butt;stroke-linejoin:miter;stroke-opacity:1"
         d="m 91.16857,121.96312 c 2.28734,3.22527 5.343007,-3.61103 5.543162,1.02806 0.10719,2.10042 3.516688,8.55201 -0.338204,5.34131 -2.926719,-1.12448 -4.966322,-3.1147 -5.204958,-6.36937 z"
         id="path2540"
         inkscape:connector-curvature="0" />
      <path
         style="opacity:0.2;fill:#000000;stroke:none;stroke-width:1.03560662px;stroke-linecap:butt;stroke-linejoin:miter;stroke-opacity:1"
         d="m 81.187732,130.79232 c 2.8033,2.13482 -1.916956,5.37973 -0.790056,5.85195 3.75377,0.99397 9.777513,3.22942 12.152791,3.49631 -3.787578,-3.11609 -7.575157,-6.23217 -11.362735,-9.34826 z"
         id="path2542"
         inkscape:connector-curvature="0" />
      <path
         style="opacity:0.2;fill:#000000;stroke:none;stroke-width:1.03560662px;stroke-linecap:butt;stroke-linejoin:miter;stroke-opacity:1"
         d="m 101.40533,141.79683 c 5.4596,-2.04735 10.91921,-4.0947 16.37881,-6.14205 2.97593,1.48876 9.57642,3.17384 4.36309,6.88435 -1.70353,2.6773 -3.33645,7.27269 -7.32739,6.34991 -6.86008,-0.48733 -13.72016,-0.97466 -20.580243,-1.46199 1.685166,-2.59278 3.951807,-5.11002 7.165733,-5.63022 z"
         id="path2544"
         inkscape:connector-curvature="0" />
      <path
         style="opacity:0.2;fill:#000000;stroke:none;stroke-width:1.03560662px;stroke-linecap:butt;stroke-linejoin:miter;stroke-opacity:1"
         d="m 51.295178,163.42385 c 3.175746,-3.75404 3.703264,-9.7021 8.437353,-12.03398 2.596415,0.90005 8.425408,-0.9486 8.881075,1.77643 -2.414972,3.38679 -3.535295,9.36752 -8.792672,9.00376 -2.841918,0.41793 -5.683837,0.83586 -8.525756,1.25379 z"
         id="path2546"
         inkscape:connector-curvature="0" />
      <path
         style="opacity:0.2;fill:#000000;stroke:none;stroke-width:1.03560662px;stroke-linecap:butt;stroke-linejoin:miter;stroke-opacity:1"
         d="m 59.61943,176.54359 c 4.10077,-3.02558 6.147212,-9.20496 11.864322,-9.6136 4.333691,-2.32595 7.528746,3.01042 3.929606,6.10177 -2.160445,6.18561 -7.352573,-1.32609 -11.266752,1.69919 -1.473189,0.68834 -3.020539,1.20319 -4.527176,1.81264 z"
         id="path2548"
         inkscape:connector-curvature="0" />
    </g>
  </g>
</svg>
