<?xml version="1.0" encoding="UTF-8" standalone="no"?>
<svg
   xmlns:dc="http://purl.org/dc/elements/1.1/"
   xmlns:cc="http://creativecommons.org/ns#"
   xmlns:rdf="http://www.w3.org/1999/02/22-rdf-syntax-ns#"
   xmlns:svg="http://www.w3.org/2000/svg"
   xmlns="http://www.w3.org/2000/svg"
   xmlns:sodipodi="http://sodipodi.sourceforge.net/DTD/sodipodi-0.dtd"
   xmlns:inkscape="http://www.inkscape.org/namespaces/inkscape"
   inkscape:version="1.0alpha2 (863a58d, 2019-08-17)"
   sodipodi:docname="back_male1.svg"
   id="svg8"
   version="1.1"
   viewBox="0 0 132.29166 132.29167"
   height="500"
   width="500">
  <defs
     id="defs2" />
  <sodipodi:namedview
     inkscape:snap-global="false"
     inkscape:document-rotation="0"
     inkscape:window-maximized="0"
     inkscape:window-y="23"
     inkscape:window-x="0"
     inkscape:window-height="907"
     inkscape:window-width="1680"
     units="px"
     showgrid="false"
     inkscape:current-layer="layer1"
     inkscape:document-units="mm"
     inkscape:cy="251.21725"
     inkscape:cx="238.01088"
     inkscape:zoom="3.0244009"
     inkscape:pageshadow="2"
     inkscape:pageopacity="0.0"
     borderopacity="1.0"
     bordercolor="#666666"
     pagecolor="#ffffff"
     id="base" />
  <metadata
     id="metadata5">
    <rdf:RDF>
      <cc:Work
         rdf:about="">
        <dc:format>image/svg+xml</dc:format>
        <dc:type
           rdf:resource="http://purl.org/dc/dcmitype/StillImage" />
        <dc:title />
      </cc:Work>
    </rdf:RDF>
  </metadata>
  <g
     transform="translate(0,-164.70832)"
     id="layer1"
     inkscape:groupmode="layer"
     inkscape:label="Layer 1">
    <path
       style="fill:#ffffff;stroke:#000000;stroke-width:0.2;stroke-linecap:butt;stroke-linejoin:miter;stroke-opacity:1;stroke-miterlimit:4;stroke-dasharray:none"
       d="m 56.921243,225.37932 c -2.369821,-0.17436 -4.524009,0.39403 -5.999604,3.29978 0.315856,-2.86521 1.992775,-4.81346 5.999604,-3.29978 z"
       id="path882"
       inkscape:connector-curvature="0"
       sodipodi:nodetypes="ccc" />
    <g
       transform="matrix(-0.25548634,0,0,0.25548634,81.49395,170.68906)"
       id="g4578">
      <path
         sodipodi:nodetypes="ccsscccc"
         inkscape:connector-curvature="0"
         id="path863"
         d="m 78.078743,263.11413 c -17.870904,3.35577 -45.153382,-4.94462 -48.815649,-8.63793 -1.290113,-16.6644 -4.040183,-21.76225 -3.218585,-29.99024 4.140455,-41.46507 63.534336,-32.99196 74.598461,-12.6241 3.81654,7.02586 2.85349,15.86068 -0.30777,25.31074 -1.887245,0.33071 -6.186087,-1.86379 -6.211416,0.33297 -1.123147,5.75398 3.190744,14.08192 -2.874693,16.43361 -4.746995,-29.80309 -15.820798,-7.85817 -13.170348,9.17495 z"
         style="fill:#ffffff;fill-opacity:1;stroke:#000000;stroke-width:1.82005816;stroke-linecap:square;stroke-linejoin:miter;stroke-miterlimit:4;stroke-dasharray:none;stroke-opacity:1;paint-order:stroke fill markers" />
      <path
         sodipodi:nodetypes="ccc"
         inkscape:connector-curvature="0"
         id="path886"
         d="m 36.489014,221.3705 c -8.818073,1.90492 -6.648281,20.99474 -6.507814,25.42109 -0.484436,-6.13403 -3.396615,-24.87206 6.507814,-25.42109 z"
         style="fill:#999999;stroke:none;stroke-width:1.03561px;stroke-linecap:butt;stroke-linejoin:miter;stroke-opacity:1" />
      <path
         style="fill:#999999;stroke:none;stroke-width:1.03561px;stroke-linecap:butt;stroke-linejoin:miter;stroke-opacity:1"
         d="m 50.03597,227.66651 c -8.537216,5.89308 -11.315933,26.08997 -8.990912,29.99998 -2.788147,-2.93664 -0.913517,-29.45095 8.990912,-29.99998 z"
         id="path888"
         inkscape:connector-curvature="0"
         sodipodi:nodetypes="ccc" />
      <path
         sodipodi:nodetypes="ccc"
         inkscape:connector-curvature="0"
         id="path890"
         d="m 73.22479,228.68047 c 7.217189,2.46663 5.445302,9.75681 4.468394,13.02085 1.945576,-3.58261 1.700639,-12.75268 -4.468394,-13.02085 z"
         style="fill:#999999;stroke:none;stroke-width:1.03561px;stroke-linecap:butt;stroke-linejoin:miter;stroke-opacity:1" />
      <path
         inkscape:transform-center-y="2.4245021"
         inkscape:transform-center-x="-2.2817174"
         style="fill:#999999;stroke:none;stroke-width:1.03561px;stroke-linecap:butt;stroke-linejoin:miter;stroke-opacity:1"
         d="m 39.028161,215.8715 c -1.057295,-12.27831 12.418283,-19.94329 16.944955,-20.39401 -4.018427,-0.49987 -19.519161,7.9979 -16.944955,20.39401 z"
         id="path892"
         inkscape:connector-curvature="0"
         sodipodi:nodetypes="ccc" />
      <path
         inkscape:transform-center-y="3.08652"
         inkscape:transform-center-x="-1.5238634"
         sodipodi:nodetypes="ccc"
         inkscape:connector-curvature="0"
         id="path894"
         d="m 32.364114,216.22343 c -1.617411,-4.92168 5.877764,-14.91106 10.026878,-16.7762 -3.969112,0.80235 -12.814421,12.42503 -10.026878,16.7762 z"
         style="fill:#999999;stroke:none;stroke-width:1.03561px;stroke-linecap:butt;stroke-linejoin:miter;stroke-opacity:1" />
      <path
         inkscape:transform-center-y="1.2801663"
         inkscape:transform-center-x="-3.0977084"
         style="fill:#999999;stroke:none;stroke-width:1.03561px;stroke-linecap:butt;stroke-linejoin:miter;stroke-opacity:1"
         d="m 57.784271,219.64957 c 3.036153,-10.19518 22.02914,-17.0128 30.118084,-14.5281 -7.258896,-3.44094 -31.087528,4.65595 -30.118084,14.5281 z"
         id="path896"
         inkscape:connector-curvature="0"
         sodipodi:nodetypes="ccc" />
      <path
         sodipodi:nodetypes="ccc"
         inkscape:connector-curvature="0"
         id="path1470"
         d="M 50.848062,215.19301 C 50.234577,204.83752 77.305901,198.44109 81.148728,198.85104 75.412622,198.21608 47.062932,206.12 50.848062,215.19301 Z"
         style="fill:#999999;stroke:none;stroke-width:1.03561px;stroke-linecap:butt;stroke-linejoin:miter;stroke-opacity:1" />
      <path
         inkscape:transform-center-y="2.2353237"
         inkscape:transform-center-x="-3.6883168"
         style="fill:#999999;stroke:none;stroke-width:1.03561px;stroke-linecap:butt;stroke-linejoin:miter;stroke-opacity:1"
         d="m 49.376386,212.21002 c -1.319101,-10.28943 13.849526,-14.812 19.171832,-13.20492 -5.990758,-2.65719 -22.163328,4.29919 -19.171832,13.20492 z"
         id="path1472"
         inkscape:connector-curvature="0"
         sodipodi:nodetypes="ccc" />
      <path
         inkscape:transform-center-y="3.4197756"
         inkscape:transform-center-x="-1.2989058"
         style="fill:#999999;stroke:none;stroke-width:1.03561px;stroke-linecap:butt;stroke-linejoin:miter;stroke-opacity:1"
         d="m 33.011358,214.53806 c -5.243349,1.46801 -5.30654,11.1788 -5.166073,15.60515 -0.484436,-6.13403 1.616709,-16.84348 5.166073,-15.60515 z"
         id="path1474"
         inkscape:connector-curvature="0"
         sodipodi:nodetypes="ccc" />
      <path
         sodipodi:nodetypes="ccc"
         inkscape:connector-curvature="0"
         id="path1476"
         d="m 78.125687,219.8822 c 5.778463,-6.18868 22.104713,-3.93658 24.238633,4.53307 -0.31097,-7.12168 -18.085821,-12.31395 -24.238633,-4.53307 z"
         style="fill:#999999;stroke:none;stroke-width:1.03561px;stroke-linecap:butt;stroke-linejoin:miter;stroke-opacity:1"
         inkscape:transform-center-x="-3.1875499"
         inkscape:transform-center-y="-1.4973121" />
      <path
         inkscape:transform-center-y="1.4961422"
         inkscape:transform-center-x="-3.0221891"
         style="fill:#999999;stroke:none;stroke-width:1.03561px;stroke-linecap:butt;stroke-linejoin:miter;stroke-opacity:1"
         d="m 71.143232,223.89738 c -1.946789,-8.35498 15.285426,-14.22434 21.521218,-15.66396 -7.362541,0.26272 -23.411237,6.59397 -21.521218,15.66396 z"
         id="path1478"
         inkscape:connector-curvature="0"
         sodipodi:nodetypes="ccc" />
      <path
         inkscape:transform-center-y="-1.4973121"
         inkscape:transform-center-x="-3.1875499"
         style="fill:#999999;stroke:none;stroke-width:1.03561px;stroke-linecap:butt;stroke-linejoin:miter;stroke-opacity:1"
         d="m 83.663639,221.34733 c 7.182747,-3.77331 14.579577,4.27347 16.713501,12.74312 -0.31097,-7.12168 -9.156405,-18.05246 -16.713501,-12.74312 z"
         id="path1482"
         inkscape:connector-curvature="0"
         sodipodi:nodetypes="ccc" />
      <path
         sodipodi:nodetypes="ccc"
         inkscape:connector-curvature="0"
         id="path1484"
         d="m 78.835642,223.74999 c 3.756294,-2.20051 9.499393,4.85265 10.815503,13.86655 -0.31097,-7.12168 -5.505262,-18.05246 -10.815503,-13.86655 z"
         style="fill:#999999;stroke:none;stroke-width:1.03561px;stroke-linecap:butt;stroke-linejoin:miter;stroke-opacity:1"
         inkscape:transform-center-x="-3.1875499"
         inkscape:transform-center-y="-1.4973121" />
      <path
         sodipodi:nodetypes="ccc"
         inkscape:connector-curvature="0"
         id="path876"
         d="m 42.844278,225.90528 c -8.537216,5.89308 -10.435317,26.97058 -8.110296,30.88059 -2.788147,-2.93664 -1.794133,-30.33156 8.110296,-30.88059 z"
         style="fill:#999999;stroke:none;stroke-width:1.03561px;stroke-linecap:butt;stroke-linejoin:miter;stroke-opacity:1" />
      <path
         style="fill:#999999;stroke:none;stroke-width:1.03561px;stroke-linecap:butt;stroke-linejoin:miter;stroke-opacity:1"
         d="m 59.575968,229.86804 c -8.537216,5.89308 -9.848241,26.38351 -7.52322,30.29352 -2.788147,-2.93664 -2.381209,-29.74449 7.52322,-30.29352 z"
         id="path878"
         inkscape:connector-curvature="0"
         sodipodi:nodetypes="ccc" />
      <path
         sodipodi:nodetypes="ccc"
         inkscape:connector-curvature="0"
         id="path880"
         d="m 67.207966,233.53728 c -8.537216,5.89308 -8.967625,25.06258 -6.642604,28.97259 -2.788147,-2.93664 -3.261825,-28.42356 6.642604,-28.97259 z"
         style="fill:#999999;stroke:none;stroke-width:1.03561px;stroke-linecap:butt;stroke-linejoin:miter;stroke-opacity:1" />
    </g>
    <g
       id="g874"
       style="opacity:0">
      <path
         inkscape:connector-curvature="0"
         id="path868"
         d="m 55.397966,236.76408 1.584171,2.25624 3.264352,2.25625 3.408366,0.57606 4.560493,-0.52806 2.880309,-1.39215 1.872203,-1.20013 0.960101,-3.64839 0.09601,-2.25624 0.624068,-4.75252 -1.10412,-3.16834 -3.984429,-3.02432 -3.936423,-0.8641 -4.032435,0.62407 -3.696399,1.8722 -1.872202,1.72819 -0.09601,5.42458 -0.288031,3.6484 -0.192021,2.25624 z"
         style="fill:none;stroke:#000000;stroke-width:0.26458300000000001px;stroke-linecap:butt;stroke-linejoin:miter;stroke-opacity:1" />
      <path
         inkscape:connector-curvature="0"
         id="path870"
         d="m 59.190376,232.97167 1.296138,0.67207 0.192021,1.87221 -0.672073,0.91209 -0.528055,0.52806"
         style="fill:none;stroke:#000000;stroke-width:0.26458300000000001px;stroke-linecap:butt;stroke-linejoin:miter;stroke-opacity:1" />
    </g>
    <path
       id="path884"
       style="opacity:0.2;fill:#000000;stroke:#000000;stroke-width:0.264583px;stroke-linecap:butt;stroke-linejoin:miter;stroke-opacity:1"
       d="m 60.820987,232.57884 c 0.0523,-1.81632 2.284418,-2.36252 2.666577,-4.059 0.469343,-1.65868 1.747243,-2.91852 3.227308,-3.72621 0.806043,-1.06996 1.270608,-2.62304 2.631182,-3.3407 1.279145,-0.34446 2.533833,0.81385 3.438818,1.65312 1.201302,1.11304 1.849089,2.74579 2.053358,4.34364 0.421526,2.46098 -0.573809,4.85623 -0.620884,7.31222 0.150654,1.78167 -2.453136,1.89993 -3.766653,2.43416 -2.08334,0.35129 -4.137692,1.11971 -6.281231,0.81627 -1.00559,-0.27503 -3.423937,0.57404 -2.522305,-1.12783 0.270678,-1.50409 -0.344012,-2.91918 -0.82617,-4.30567 z"
       inkscape:connector-curvature="0" />
  </g>
</svg>
