<?xml version="1.0" encoding="UTF-8" standalone="no"?>
<svg
   xmlns:dc="http://purl.org/dc/elements/1.1/"
   xmlns:cc="http://creativecommons.org/ns#"
   xmlns:rdf="http://www.w3.org/1999/02/22-rdf-syntax-ns#"
   xmlns:svg="http://www.w3.org/2000/svg"
   xmlns="http://www.w3.org/2000/svg"
   xmlns:sodipodi="http://sodipodi.sourceforge.net/DTD/sodipodi-0.dtd"
   xmlns:inkscape="http://www.inkscape.org/namespaces/inkscape"
   inkscape:version="1.0alpha2 (863a58d, 2019-08-17)"
   sodipodi:docname="back_female1.svg"
   id="svg8"
   version="1.1"
   viewBox="0 0 132.29166 132.29167"
   height="500"
   width="500">
  <defs
     id="defs2" />
  <sodipodi:namedview
     inkscape:snap-global="false"
     inkscape:document-rotation="0"
     inkscape:window-maximized="0"
     inkscape:window-y="41"
     inkscape:window-x="7"
     inkscape:window-height="907"
     inkscape:window-width="1680"
     units="px"
     showgrid="false"
     inkscape:current-layer="g4578"
     inkscape:document-units="mm"
     inkscape:cy="247.19642"
     inkscape:cx="283.33706"
     inkscape:zoom="6.7906265"
     inkscape:pageshadow="2"
     inkscape:pageopacity="0.0"
     borderopacity="1.0"
     bordercolor="#666666"
     pagecolor="#ffffff"
     id="base" />
  <metadata
     id="metadata5">
    <rdf:RDF>
      <cc:Work
         rdf:about="">
        <dc:format>image/svg+xml</dc:format>
        <dc:type
           rdf:resource="http://purl.org/dc/dcmitype/StillImage" />
        <dc:title />
      </cc:Work>
    </rdf:RDF>
  </metadata>
  <g
     transform="translate(0,-164.70832)"
     id="layer1"
     inkscape:groupmode="layer"
     inkscape:label="Layer 1">
    <g
       id="g1607">
      <g
         id="g4578"
         transform="matrix(-0.25548634,0,0,0.25548634,81.49395,170.68906)">
        <path
           sodipodi:nodetypes="ccsssssssssssssssssssssccc"
           inkscape:connector-curvature="0"
           d="m 45.42614,195.15493 c -29.151866,6.13911 -11.528485,27.79517 -26.48393,67.4198 0.450714,0.91402 4.816495,5.09677 5.54209,5.92081 0.40983,0.46543 1.890087,-0.21657 2.376678,0.22014 0.495921,0.4451 -4.16e-4,2.00835 0.566963,2.42361 2.040415,1.49336 4.515894,2.7938 7.232172,3.90119 0.803194,0.32745 2.760524,-1.31912 3.600804,-1.02543 0.89386,0.31241 0.672779,2.56286 1.596875,2.83706 3.075788,0.91265 6.285576,1.6136 9.406423,2.1027 1.392233,0.21819 0.95881,-3.82248 2.399892,-3.67377 1.247204,0.12871 -0.451689,3.75211 0.794918,4.01928 1.547777,0.33172 4.904695,0.4956 6.514092,0.55552 0.658341,0.0245 0.493226,-3.47062 1.149049,-3.47652 0.723236,-0.007 0.515609,3.47338 1.226259,3.44106 2.279488,-0.10369 4.468535,-0.31 6.402298,-0.42541 1.032755,-0.0616 1.13745,-5.69943 2.165924,-5.78805 0.997491,-0.0859 1.476852,5.48108 2.466066,5.37075 2.089253,-0.23303 4.155379,-0.51937 6.178662,-0.85446 0.600205,-0.0994 0.578596,-5.6625 1.170747,-5.77036 0.601297,-0.10953 1.816221,5.23603 2.408143,5.11802 4.298582,-0.85698 8.335739,-1.93416 11.905088,-3.18373 1.148805,-0.40218 1.322083,-3.08838 2.367088,-3.52468 0.95949,-0.40059 2.799393,1.45127 3.660249,1.02449 4.81328,-2.38624 8.00154,-5.16251 8.6338,-8.11306 -9.95397,-7.16686 -2.17438,-47.27303 -10.187685,-58.32286 C 80.116703,186.93032 58.999344,192.77007 45.42614,195.15493 Z"
           style="fill:#ffffff;stroke:#000000;stroke-width:1.03561px;stroke-linecap:butt;stroke-linejoin:miter;stroke-opacity:1"
           id="path1729" />
        <path
           sodipodi:nodetypes="zzzzzzzz"
           inkscape:connector-curvature="0"
           d="M 94.320281,234.70362 C 96.16866,223.90189 83.533064,217.11631 72.085835,218.03225 60.638606,218.94819 49.366461,206.08922 37.554499,202.20174 25.742537,198.31426 26.060378,225.41586 25.09881,235.14703 c -0.961568,9.73117 -3.555214,21.07659 -2.880946,30.37812 0.674267,9.30153 24.365024,10.47416 35.533821,9.99081 11.168797,-0.48335 43.322115,-2.92888 48.309145,-11.49604 4.987,-8.56716 -13.588928,-18.51457 -11.740549,-29.3163 z"
           style="opacity:0.1;fill:#000000;stroke:#000000;stroke-width:1.03561px;stroke-linecap:butt;stroke-linejoin:miter;stroke-opacity:1"
           id="path2346" />
        <path
           inkscape:connector-curvature="0"
           d="m 73.945331,208.22518 c -3.513322,1.01918 -7.757903,7.51513 -8.876391,12.80249"
           style="fill:none;stroke:#000000;stroke-width:1.03561px;stroke-linecap:butt;stroke-linejoin:miter;stroke-opacity:1"
           id="path2335"
           sodipodi:nodetypes="cc" />
        <path
           style="fill:none;stroke:#000000;stroke-width:1.03561px;stroke-linecap:butt;stroke-linejoin:miter;stroke-opacity:1"
           d="m 79.586512,272.42808 c -2.513741,-13.17456 -3.80338,-26.65515 -4.120289,-40.37892"
           id="path3018"
           inkscape:connector-curvature="0"
           sodipodi:nodetypes="cc" />
        <path
           style="fill:none;stroke:#000000;stroke-width:1.03561px;stroke-linecap:butt;stroke-linejoin:miter;stroke-opacity:1"
           d="m 69.880347,273.8509 c -0.78378,-5.15191 -1.565829,-10.30094 -1.545118,-14.11203"
           id="path3020"
           inkscape:connector-curvature="0"
           sodipodi:nodetypes="cc" />
        <path
           style="fill:none;stroke:#000000;stroke-width:1.03561px;stroke-linecap:butt;stroke-linejoin:miter;stroke-opacity:1"
           d="m 59.9121,276.54837 c 2.214569,-13.30931 2.835959,-13.60489 3.695189,-25.42931"
           id="path3022"
           inkscape:connector-curvature="0"
           sodipodi:nodetypes="cc" />
        <path
           style="fill:none;stroke:#000000;stroke-width:1.03561px;stroke-linecap:butt;stroke-linejoin:miter;stroke-opacity:1"
           d="m 51.572204,275.13935 c 2.665562,-11.39669 6.670757,-23.09107 7.107513,-33.99246"
           id="path3024"
           inkscape:connector-curvature="0"
           sodipodi:nodetypes="cc" />
        <path
           style="fill:none;stroke:#000000;stroke-width:1.03561px;stroke-linecap:butt;stroke-linejoin:miter;stroke-opacity:1"
           d="m 96.486744,270.82524 c -2.441389,-11.29712 -5.484879,-22.70372 -5.04736,-33.47741"
           id="path3026"
           inkscape:connector-curvature="0"
           sodipodi:nodetypes="cc" />
        <path
           style="fill:none;stroke:#000000;stroke-width:1.03561px;stroke-linecap:butt;stroke-linejoin:miter;stroke-opacity:1"
           d="m 37.989906,274.05046 c 4.596759,-9.09899 6.766242,-19.43407 7.519551,-27.29697"
           id="path3028"
           inkscape:connector-curvature="0"
           sodipodi:nodetypes="cc" />
        <path
           style="fill:none;stroke:#000000;stroke-width:1.03561px;stroke-linecap:butt;stroke-linejoin:miter;stroke-opacity:1"
           d="m 26.839381,268.52484 c 3.828301,-7.76152 5.491487,-16.50718 6.28345,-25.64885"
           id="path3030"
           inkscape:connector-curvature="0"
           sodipodi:nodetypes="cc" />
        <path
           style="fill:none;stroke:#000000;stroke-width:1.03561px;stroke-linecap:butt;stroke-linejoin:miter;stroke-opacity:1"
           d="m 45.697074,236.27246 c 0.366422,-5.78788 0.07144,-16.6806 6.386461,-25.64883"
           id="path3032"
           inkscape:connector-curvature="0"
           sodipodi:nodetypes="cc" />
        <path
           sodipodi:nodetypes="czzzzzcc"
           inkscape:connector-curvature="0"
           d="m 78.214947,227.57606 c -6.406179,-7.93498 -24.126714,0.57917 -30.605885,-5.39446 -6.479171,-5.97363 -17.706243,-20.75094 -20.244328,-9.01496 -2.538084,11.73599 -2.868102,33.16253 -5.983393,43.79026 -3.115292,10.62773 8.555536,16.10114 20.49981,19.32106 11.944274,3.21992 37.255794,-0.0306 47.886018,-2.49104 10.630231,-2.46042 19.848321,-10.485 15.200001,-14.05153 -3.00928,-10.64049 -19.797585,-23.48848 -26.752223,-32.15933 z"
           style="opacity:0.2;fill:#000000;stroke:#000000;stroke-width:1.02251px;stroke-linecap:butt;stroke-linejoin:miter;stroke-opacity:1"
           id="path2339" />
      </g>
    </g>
  </g>
</svg>
