<?xml version="1.0" encoding="UTF-8" standalone="no"?>
<svg
   xmlns:dc="http://purl.org/dc/elements/1.1/"
   xmlns:cc="http://creativecommons.org/ns#"
   xmlns:rdf="http://www.w3.org/1999/02/22-rdf-syntax-ns#"
   xmlns:svg="http://www.w3.org/2000/svg"
   xmlns="http://www.w3.org/2000/svg"
   xmlns:sodipodi="http://sodipodi.sourceforge.net/DTD/sodipodi-0.dtd"
   xmlns:inkscape="http://www.inkscape.org/namespaces/inkscape"
   inkscape:version="1.0alpha2 (863a58d, 2019-08-17)"
   sodipodi:docname="dark1.svg"
   id="svg8"
   version="1.1"
   viewBox="0 0 29.104165 29.104167"
   height="110"
   width="110">
  <defs
     id="defs2" />
  <sodipodi:namedview
     inkscape:document-rotation="0"
     fit-margin-bottom="0"
     fit-margin-right="0"
     fit-margin-left="0"
     fit-margin-top="0"
     inkscape:window-maximized="0"
     inkscape:window-y="154"
     inkscape:window-x="2010"
     inkscape:window-height="907"
     inkscape:window-width="1680"
     units="px"
     showgrid="false"
     inkscape:current-layer="g4578"
     inkscape:document-units="mm"
     inkscape:cy="45.755605"
     inkscape:cx="54.371831"
     inkscape:zoom="12.022747"
     inkscape:pageshadow="2"
     inkscape:pageopacity="0.0"
     borderopacity="1.0"
     bordercolor="#666666"
     pagecolor="#ffffff"
     id="base" />
  <metadata
     id="metadata5">
    <rdf:RDF>
      <cc:Work
         rdf:about="">
        <dc:format>image/svg+xml</dc:format>
        <dc:type
           rdf:resource="http://purl.org/dc/dcmitype/StillImage" />
        <dc:title />
      </cc:Work>
    </rdf:RDF>
  </metadata>
  <g
     transform="translate(-54.198774,-210.72516)"
     id="layer1"
     inkscape:groupmode="layer"
     inkscape:label="Layer 1">
    <g
       transform="matrix(0.25548634,0,0,0.25548634,51.782645,166.50629)"
       id="g4578">
      <path
         sodipodi:nodetypes="cccccccccccccccccccccccsscccccc"
         style="fill:#ffffff;stroke:#000000;stroke-width:1.03560657;stroke-linecap:round;stroke-linejoin:miter;stroke-opacity:1;stroke-miterlimit:4;stroke-dasharray:none"
         d="m 27.170745,210.62923 c 2.668857,-4.78566 3.322393,-10.17591 8.202065,-14.29833 0.487536,0.73348 -0.522058,1.966 1.464654,2.19975 6.272589,-5.86725 12.881539,-11.7277 20.860234,-14.91392 -0.605285,1.53191 0.08275,2.80515 0.670179,4.09851 7.203784,-1.99245 14.419605,-4.16544 21.383954,-2.56636 -1.295739,0.91656 -2.451931,1.83311 -2.050518,2.74967 6.689235,-0.65297 12.564887,0.0161 17.282925,2.56637 -1.538702,1.0614 -3.84984,2.01245 -3.808108,3.29962 7.223718,1.24032 11.87999,3.94775 15.6718,7.14916 -1.65092,0.18516 -3.402,0.2201 -4.10102,1.83312 4.20772,3.5699 5.59383,7.48886 7.32325,11.36534 l -4.16581,-2.41534 c 1.78249,5.57122 1.64281,11.14245 1.23651,16.71367 -1.35587,-3.16822 -4.6257,-5.69846 -8.934388,-7.88241 0.956672,3.73572 1.435859,7.38463 -0.292932,10.63209 -2.869602,-4.52305 -8.04138,-7.43458 -13.328353,-10.26547 -0.158707,4.27728 -1.837567,8.55456 -3.954566,12.83184 -3.648635,-3.83209 -8.828512,-7.05169 -14.939474,-9.89885 -2.766381,3.71241 -4.373995,7.59036 -5.419219,11.54865 -3.86109,-2.34909 -7.634665,-4.75945 -9.080855,-8.79897 -2.829859,3.09095 -4.1289,6.73855 -4.247497,10.81541 -1.999586,-2.45538 -3.154029,-4.77861 -3.525708,-7.6991 -1.339961,0.55539 1.45836,5.20663 -0.02563,8.35807 -1.435381,3.04823 -8.463616,4.59729 -9.603179,5.2597 -2.718112,1.58 -4.336109,-6.63035 -6.764782,-4.8188 0.110091,-2.89423 -2.003385,-6.15905 0.732326,-8.61567 -1.639226,-1.7769 -3.930072,-1.81614 -6.298013,-1.6498 1.429867,-3.09754 2.965616,-5.87742 5.12629,-6.78254 -0.723192,-3.43764 -2.968041,-3.83197 -5.12629,-4.39949 2.01301,-3.33719 3.945042,-5.78363 5.712151,-6.41592 z"
         id="path3746"
         inkscape:connector-curvature="0" />
      <path
         style="fill:#808080;stroke:none;stroke-width:1.03560662px;stroke-linecap:butt;stroke-linejoin:miter;stroke-opacity:1"
         d="m 70.097625,206.75872 c 20.8438,2.07764 12.396138,23.72855 10.38915,26.28445 2.410621,-6.51361 7.572761,-20.94247 -10.38915,-26.28445 z"
         id="path27"
         inkscape:connector-curvature="0"
         sodipodi:nodetypes="ccc" />
      <path
         sodipodi:nodetypes="ccc"
         inkscape:connector-curvature="0"
         id="path29"
         d="m 87.418782,209.67913 c 10.197679,2.14887 11.884651,15.23546 10.566957,20.51021 0.652064,-0.6535 3.158091,-18.77798 -10.566957,-20.51021 z"
         style="fill:#808080;fill-opacity:1;stroke:none;stroke-width:1.03560662px;stroke-linecap:butt;stroke-linejoin:miter;stroke-opacity:1" />
      <path
         sodipodi:nodetypes="ccc"
         inkscape:connector-curvature="0"
         id="path31"
         d="m 46.606751,236.33409 c -2.538843,-1.29377 -4.964538,-12.65505 -1.863402,-18.22537 -1.235045,3.10195 -0.94253,14.48053 1.863402,18.22537 z"
         style="fill:#808080;fill-opacity:1;stroke:none;stroke-width:1.03560662px;stroke-linecap:butt;stroke-linejoin:miter;stroke-opacity:1" />
      <path
         sodipodi:nodetypes="ccc"
         inkscape:connector-curvature="0"
         id="path33"
         d="m 34.222136,206.38021 c -0.284244,-8.34303 15.41852,-19.05162 22.78577,-21.96776 -7.515714,4.29131 -20.854248,13.5466 -22.78577,21.96776 z"
         style="fill:#808080;fill-opacity:1;stroke:none;stroke-width:1.03560662px;stroke-linecap:butt;stroke-linejoin:miter;stroke-opacity:1" />
      <path
         sodipodi:nodetypes="ccc"
         inkscape:connector-curvature="0"
         id="path35"
         d="m 78.964873,185.23284 c -7.079518,-1.41886 -32.995799,4.58265 -35.47691,19.61865 -1.301439,-13.99244 26.407523,-21.97471 35.47691,-19.61865 z"
         style="fill:#808080;fill-opacity:1;stroke:none;stroke-width:1.03560662px;stroke-linecap:butt;stroke-linejoin:miter;stroke-opacity:1" />
      <path
         sodipodi:nodetypes="ccc"
         inkscape:connector-curvature="0"
         id="path37"
         d="m 62.453667,193.66708 c 17.298164,-8.5182 30.142645,-4.51884 31.562116,-3.49915 -4.864331,-0.92903 -19.051511,-1.37362 -31.562116,3.49915 z"
         style="fill:#808080;fill-opacity:1;stroke:none;stroke-width:1.03560662px;stroke-linecap:butt;stroke-linejoin:miter;stroke-opacity:1" />
      <path
         sodipodi:nodetypes="ccc"
         inkscape:connector-curvature="0"
         id="path39"
         d="m 80.49019,194.246 c 14.631667,-2.76407 24.39567,5.2614 25.53819,6.30789 -2.82339,-2.28603 -9.49828,-6.21371 -25.53819,-6.30789 z"
         style="fill:#808080;fill-opacity:1;stroke:none;stroke-width:1.03560662px;stroke-linecap:butt;stroke-linejoin:miter;stroke-opacity:1" />
      <path
         sodipodi:nodetypes="ccc"
         inkscape:connector-curvature="0"
         id="path41"
         d="m 88.508839,198.88255 c 12.786031,-4.88621 20.781291,12.9174 20.932181,14.584 -9.648754,-21.38278 -24.211967,-12.43951 -20.932181,-14.584 z"
         style="fill:#808080;fill-opacity:1;stroke:none;stroke-width:1.03560662px;stroke-linecap:butt;stroke-linejoin:miter;stroke-opacity:1" />
      <path
         sodipodi:nodetypes="ccc"
         inkscape:connector-curvature="0"
         id="path43"
         d="m 103.58928,208.82438 c 4.1811,4.40506 3.90929,17.23353 3.3672,18.27442 0.38877,-10.30336 -2.30789,-14.12431 -3.3672,-18.27442 z"
         style="fill:#808080;fill-opacity:1;stroke:none;stroke-width:1.03560662px;stroke-linecap:butt;stroke-linejoin:miter;stroke-opacity:1" />
      <path
         sodipodi:nodetypes="ccc"
         inkscape:connector-curvature="0"
         id="path47"
         d="m 51.05612,215.74878 c -2.111171,11.88846 4.838217,16.20207 9.003315,19.2843 -4.67854,-3.87127 -8.940256,-9.84081 -9.003315,-19.2843 z"
         style="fill:#808080;fill-opacity:1;stroke:none;stroke-width:1.03560662px;stroke-linecap:butt;stroke-linejoin:miter;stroke-opacity:1" />
      <path
         style="fill:#808080;fill-opacity:1;stroke:none;stroke-width:1.03560662px;stroke-linecap:butt;stroke-linejoin:miter;stroke-opacity:1"
         d="m 35.23925,196.90255 c -0.806206,0.8034 -8.390103,11.20305 -6.336331,13.97563 0.956883,-5.62042 3.714297,-10.13426 6.336331,-13.97563 z"
         id="path79"
         inkscape:connector-curvature="0"
         sodipodi:nodetypes="ccc" />
      <path
         sodipodi:nodetypes="ccc"
         inkscape:connector-curvature="0"
         id="path81"
         d="m 27.872645,211.25665 c -0.921787,-1.20771 -4.70124,2.9507 -5.62946,5.52697 0.894993,-2.07645 4.36362,-5.37652 5.62946,-5.52697 z"
         style="fill:#808080;fill-opacity:1;stroke:none;stroke-width:1.03560662px;stroke-linecap:butt;stroke-linejoin:miter;stroke-opacity:1" />
      <path
         style="fill:#808080;fill-opacity:1;stroke:none;stroke-width:1.03560662px;stroke-linecap:butt;stroke-linejoin:miter;stroke-opacity:1"
         d="m 28.068792,221.91562 c -0.921787,-1.20771 -4.70124,2.9507 -5.62946,5.52697 0.894993,-2.07645 4.36362,-5.37652 5.62946,-5.52697 z"
         id="path83"
         inkscape:connector-curvature="0"
         sodipodi:nodetypes="ccc" />
      <path
         style="fill:#000000;fill-opacity:1;stroke:none;stroke-width:1.03560662px;stroke-linecap:butt;stroke-linejoin:miter;stroke-opacity:1"
         d="m 58.815773,208.11851 c -2.241936,13.9807 6.390873,13.735 21.671002,24.92466 -4.220862,-6.15966 -22.392533,-11.16592 -21.671002,-24.92466 z"
         id="path87"
         inkscape:connector-curvature="0"
         sodipodi:nodetypes="ccc" />
    </g>
  </g>
</svg>
