<?xml version="1.0" encoding="UTF-8" standalone="no"?>
<svg
   xmlns:dc="http://purl.org/dc/elements/1.1/"
   xmlns:cc="http://creativecommons.org/ns#"
   xmlns:rdf="http://www.w3.org/1999/02/22-rdf-syntax-ns#"
   xmlns:svg="http://www.w3.org/2000/svg"
   xmlns="http://www.w3.org/2000/svg"
   xmlns:sodipodi="http://sodipodi.sourceforge.net/DTD/sodipodi-0.dtd"
   xmlns:inkscape="http://www.inkscape.org/namespaces/inkscape"
   inkscape:version="1.0alpha2 (863a58d, 2019-08-17)"
   sodipodi:docname="2.svg"
   id="svg8"
   version="1.1"
   viewBox="0 0 29.104165 39.687501"
   height="150"
   width="110">
  <defs
     id="defs2" />
  <sodipodi:namedview
     inkscape:snap-global="false"
     inkscape:document-rotation="0"
     fit-margin-bottom="0"
     fit-margin-right="0"
     fit-margin-left="0"
     fit-margin-top="0"
     inkscape:window-maximized="0"
     inkscape:window-y="23"
     inkscape:window-x="0"
     inkscape:window-height="907"
     inkscape:window-width="1680"
     units="px"
     showgrid="false"
     inkscape:current-layer="layer1"
     inkscape:document-units="mm"
     inkscape:cy="52.305832"
     inkscape:cx="35.878623"
     inkscape:zoom="18.152643"
     inkscape:pageshadow="2"
     inkscape:pageopacity="0.0"
     borderopacity="1.0"
     bordercolor="#666666"
     pagecolor="#ffffff"
     id="base" />
  <metadata
     id="metadata5">
    <rdf:RDF>
      <cc:Work
         rdf:about="">
        <dc:format>image/svg+xml</dc:format>
        <dc:type
           rdf:resource="http://purl.org/dc/dcmitype/StillImage" />
        <dc:title></dc:title>
      </cc:Work>
    </rdf:RDF>
  </metadata>
  <g
     transform="translate(-54.198774,-200.14182)"
     id="layer1"
     inkscape:groupmode="layer"
     inkscape:label="Layer 1">
    <g
       style="fill:#ff2a2a;opacity:1"
       transform="matrix(0.25548634,0,0,0.25548634,51.782645,166.50629)"
       id="g4578">
      <path
         inkscape:connector-curvature="0"
         id="path926"
         d="m 52.096136,242.88553 26.263249,11.12326 9.114892,-5.25265 10.350809,-12.20468 4.171224,-8.34245 -1.5449,-9.26938 1.69939,-15.13999 0.46347,-13.13162 -13.904075,-16.83938 -18.229785,-4.17122 -13.749583,8.34244 -17.302846,13.4406 -1.081428,22.40101 6.025098,10.04183 5.407139,12.82264 z"
         style="fill:none;stroke:#000000;stroke-width:1.03560999999999992px;stroke-linecap:butt;stroke-linejoin:miter;stroke-opacity:1;opacity:0" />
      <path
         style="fill:#ff2a2a;stroke:#000000;stroke-width:0.95566399999999996px;stroke-linecap:butt;stroke-linejoin:miter;stroke-opacity:1;opacity:0"
         d="m 100.06579,232.55369 -11.537912,14.24682 -9.130003,8.32736 -3.31088,0.40132 -19.463961,-8.82901 -12.741872,-26.48705 2.106923,-20.26659 21.269897,-11.63825 15.350443,1.10363 12.139894,5.7188 3.912856,4.81582 2.608575,4.51483 -0.30099,4.7155 -2.207258,9.73198 0.100337,7.4244 z"
         id="path869"
         inkscape:connector-curvature="0" />
      <path
         sodipodi:nodetypes="ccccccccc"
         inkscape:connector-curvature="0"
         d="m 30.37342,203.72741 c 0.930466,3.07965 -0.202001,-3.96626 -0.835654,0.18995 -1.584509,8.61634 0.612777,38.11559 6.899946,40.76677 1.073561,-4.56302 3.867025,-5.12405 7.163017,-8.60307 1.377581,2.59537 2.091082,4.68115 1.937971,8.99012 16.991502,-12.49013 11.880219,-13.02939 11.843402,-23.65804 1.980715,-7.88702 3.961426,-15.77405 5.942141,-23.66107 l -32.950824,5.97534 z"
         style="fill:#ffffff;stroke:#000000;stroke-width:1.03561px;stroke-linecap:butt;stroke-linejoin:miter;stroke-opacity:1"
         id="path867" />
      <path
         sodipodi:nodetypes="ccccccccccccc"
         inkscape:connector-curvature="0"
         id="path870"
         d="m 75.650816,206.4781 3.646907,0.97251 3.07961,-0.0811 2.998568,-0.32417 2.998567,-1.70189 2.917526,-1.21564 -0.405212,-6.40234 -4.133161,-2.59336 v 0 l -11.751144,4.53837 -1.458762,2.99857 -1.458763,2.26919 z"
         style="opacity:0.3;fill:#000000;stroke:none;stroke-width:1.03561px;stroke-linecap:butt;stroke-linejoin:miter;stroke-opacity:1" />
      <path
         sodipodi:nodetypes="ccccccccccccc"
         inkscape:connector-curvature="0"
         d="m 85.377772,173.69706 c 27.392778,0.40908 29.368058,48.68187 14.18766,59.08233 2.964818,-11.06594 4.351468,-30.23222 -5.055467,-33.91157 11.882295,7.52778 -15.34157,30.9099 -15.34157,30.9099 0,0 10.669485,-17.39663 10.30976,-26.88281 1.187216,-6.26335 -4.649769,-4.01246 -5.402387,-0.36974 -7.386094,-10.73434 -23.505508,28.54875 -40.79389,25.18128 9.466495,-5.2166 10.835259,-7.97347 10.957515,-18.51798 -14.661947,12.64056 -18.428139,2.41198 -22.052749,-2.14339 1.986992,0.32483 7.727946,1.31435 2.917527,0.4356 -15.296825,-5.17978 8.002212,-28.49468 13.889357,-33.51573 14.642137,-5.93349 22.876634,-5.29838 36.384244,-0.26795 z"
         style="fill:#ffffff;stroke:#000000;stroke-width:1.03561px;stroke-linecap:butt;stroke-linejoin:miter;stroke-opacity:1"
         id="path865" />
      <path
         sodipodi:nodetypes="cccccccc"
         inkscape:connector-curvature="0"
         id="path904"
         d="m 30.128877,211.31984 0.184211,-7.82918 15.448971,-7.57 10.814278,0.46347 2.008366,7.10653 -9.578361,4.78918 -14.058563,1.23592 z"
         style="fill:#ffffff;stroke:none;stroke-width:1.03561px;stroke-linecap:butt;stroke-linejoin:miter;stroke-opacity:1" />
      <path
         sodipodi:nodetypes="cccccccccccc"
         inkscape:connector-curvature="0"
         d="m 52.335021,174.24741 c -3.266148,17.81566 -1.094325,15.56783 15.436825,13.73805 l -13.413469,20.29469 c 0.05388,8.38531 -2.757115,15.87451 -11.116265,19.68174 4.209661,0.72985 9.354508,-1.45774 13.310763,-4.52899 l 1.138668,6.63818 c -0.84106,8.12171 -7.269422,10.65612 -11.87425,15.01406 l 0.07134,-3.93462 -2.202547,-5.69523 c -3.973404,4.40677 -7.029993,5.43608 -7.629787,8.77648 -3.458067,-4.34164 -7.450691,-31.34506 -5.983192,-41.78173 3.4374,-15.05396 17.95648,-29.97728 22.261914,-28.20263 z"
         style="opacity:0.3;fill:#000000;stroke:#000000;stroke-width:1.03561px;stroke-linecap:butt;stroke-linejoin:miter;stroke-opacity:1"
         id="path922" />
      <path
         sodipodi:nodetypes="ccccsccc"
         inkscape:connector-curvature="0"
         d="m 81.992245,180.48979 4.182077,9.6652 c -0.05576,3.20023 -1.542723,4.49892 -1.882821,7.68106 -5.153762,-15.0206 -8.700557,-18.265 -20.641796,-26.55144 2.013088,0.30963 1.632033,-0.43203 3.412029,-0.70737 1.887922,-0.29203 7.511419,2.90505 9.43425,4.00685 1.362082,0.8518 4.697457,4.50939 5.496259,5.9057 z"
         style="opacity:0.3;fill:#000000;stroke:#000000;stroke-width:1.03561px;stroke-linecap:butt;stroke-linejoin:miter;stroke-opacity:1"
         id="path924" />
    </g>
  </g>
</svg>
