<?xml version="1.0" encoding="UTF-8" standalone="no"?>
<svg
   xmlns:dc="http://purl.org/dc/elements/1.1/"
   xmlns:cc="http://creativecommons.org/ns#"
   xmlns:rdf="http://www.w3.org/1999/02/22-rdf-syntax-ns#"
   xmlns:svg="http://www.w3.org/2000/svg"
   xmlns="http://www.w3.org/2000/svg"
   xmlns:sodipodi="http://sodipodi.sourceforge.net/DTD/sodipodi-0.dtd"
   xmlns:inkscape="http://www.inkscape.org/namespaces/inkscape"
   width="110"
   height="150"
   viewBox="0 0 29.104165 39.687501"
   version="1.1"
   id="svg8"
   sodipodi:docname="1.svg"
   inkscape:version="1.0alpha2 (863a58d, 2019-08-17)">
  <defs
     id="defs2" />
  <sodipodi:namedview
     id="base"
     pagecolor="#ffffff"
     bordercolor="#666666"
     borderopacity="1.0"
     inkscape:pageopacity="0.0"
     inkscape:pageshadow="2"
     inkscape:zoom="7.1218823"
     inkscape:cx="41.65555"
     inkscape:cy="80.657351"
     inkscape:document-units="mm"
     inkscape:current-layer="g4578"
     showgrid="false"
     units="px"
     inkscape:window-width="1680"
     inkscape:window-height="907"
     inkscape:window-x="0"
     inkscape:window-y="23"
     inkscape:window-maximized="0"
     fit-margin-top="0"
     fit-margin-left="0"
     fit-margin-right="0"
     fit-margin-bottom="0"
     inkscape:document-rotation="0"
     inkscape:snap-global="false" />
  <metadata
     id="metadata5">
    <rdf:RDF>
      <cc:Work
         rdf:about="">
        <dc:format>image/svg+xml</dc:format>
        <dc:type
           rdf:resource="http://purl.org/dc/dcmitype/StillImage" />
        <dc:title />
      </cc:Work>
    </rdf:RDF>
  </metadata>
  <g
     inkscape:label="Layer 1"
     inkscape:groupmode="layer"
     id="layer1"
     transform="translate(-54.198774,-200.14182)">
    <g
       id="g4578"
       transform="matrix(0.25548634,0,0,0.25548634,51.782645,166.50629)">
      <path
         sodipodi:nodetypes="ccccc"
         inkscape:connector-curvature="0"
         id="path852"
         d="m 55.697971,210.3208 c 16.908096,-2.12978 37.067614,-7.70223 47.985929,-3.48989 l -2.472,-12.94166 -45.950165,5.52566 z"
         style="opacity:0.3;fill:#000000;stroke:#000000;stroke-width:1.03561px;stroke-linecap:butt;stroke-linejoin:miter;stroke-opacity:1" />
      <path
         inkscape:connector-curvature="0"
         id="path869-3"
         d="m 100.59166,233.49057 -11.537912,14.24682 -9.13001,8.32736 -3.31088,0.40132 -19.463957,-8.82901 -12.741871,-26.48704 2.106922,-20.26659 21.269896,-11.63826 15.35044,1.10363 12.1399,5.7188 3.91285,4.81583 2.608582,4.51482 -0.30099,4.7155 -2.207262,9.73198 0.10034,7.42441 z"
         style="opacity:0;fill:#ff2a2a;stroke:#000000;stroke-width:0.95566399999999996px;stroke-linecap:butt;stroke-linejoin:miter;stroke-opacity:1" />
      <path
         inkscape:connector-curvature="0"
         id="path869"
         d="m 100.06579,232.55369 -11.537912,14.24682 -9.130003,8.32736 -3.31088,0.40132 -19.463961,-8.82901 -12.741872,-26.48705 2.106923,-20.26659 21.269897,-11.63825 15.350443,1.10363 12.139894,5.7188 3.912856,4.81582 2.608575,4.51483 -0.30099,4.7155 -2.207258,9.73198 0.100337,7.4244 z"
         style="fill:#b3b3b3;stroke:#000000;stroke-width:0.95566399999999996px;stroke-linecap:butt;stroke-linejoin:miter;stroke-opacity:1;opacity:0" />
      <path
         style="fill:#ffffff;stroke:#000000;stroke-width:1.03561;stroke-linecap:butt;stroke-linejoin:miter;stroke-miterlimit:4;stroke-dasharray:none;stroke-opacity:1"
         d="m 59.471341,203.56119 c -4.653624,12.83466 2.319919,18.21465 4.15706,33.32108 -6.890284,-5.86142 -12.589944,-12.14806 -13.786139,-20.04308 2.160369,5.72826 3.298739,11.96752 9.33729,15.75669 l 5.835804,23.05143 c -5.312627,-1.69852 -6.662717,-5.04411 -9.337286,-9.62909 l 1.750741,6.4194 c -10.773163,-4.06082 -9.243017,-3.8101 -12.838773,-14.29773 l 2.917904,7.58654 c -6.691583,-1.83862 -7.647032,-6.36175 -10.504447,-12.25518 l 3.209687,5.544 c -2.940507,-0.3612 -7.885393,-2.69646 -9.622322,-6.2672 4.619334,-29.86344 -7.482871,-39.23143 3.956484,-50.67744 11.439355,-11.44601 34.192728,-19.29723 60.033656,-6.58184 3.795718,2.20769 11.86578,11.07567 14.12906,20.5229 0.1345,0.5614 0.79499,3.06192 0.91847,3.60219 l -9.11357,50.31078 c -3.760923,-1.14886 -8.764689,-3.00565 -9.757917,-4.98826 4.329807,-4.759 7.414224,-9.82473 9.222853,-12.61679 -2.68929,-12.00569 1.758084,-21.2553 2.968194,-29.19453 -12.480315,-7.92802 -27.100074,0.16836 -43.476749,0.43613 z"
         id="path881"
         inkscape:connector-curvature="0"
         sodipodi:nodetypes="cccccccccccczcscccccc" />
      <path
         sodipodi:nodetypes="cccccccccccccc"
         inkscape:connector-curvature="0"
         id="path875"
         d="m 90.493184,244.87443 2.613872,2.92138 6.61156,2.30636 3.690164,-1.84509 2.48981,-8.34841 3.19921,-18.09782 -1.0763,-11.07052 -0.92255,-10.45549 -1.38381,10.76301 -4.13086,-6.67218 c 0.44654,9.77029 -3.684746,14.06361 -2.480694,28.65945 l -2.76763,4.45896 -3.075144,4.92023 z"
         style="opacity:0.5;fill:#000000;stroke:none;stroke-width:1.03561px;stroke-linecap:butt;stroke-linejoin:miter;stroke-opacity:1" />
      <path
         sodipodi:nodetypes="cccccccc"
         inkscape:connector-curvature="0"
         id="path873"
         d="m 101.76251,249.81504 -5.24873,-1.64626 6.9512,-9.97016 0.95526,-11.14093 -1.37764,-17.19176 -3.77493,-10.85743 10.28524,0.91264 c 3.50077,23.04554 4.49111,29.62817 -7.7904,49.8939 z"
         style="fill:#ffffff;fill-opacity:1;stroke:#000000;stroke-width:1.03560999999999992px;stroke-linecap:butt;stroke-linejoin:miter;stroke-opacity:1" />
      <path
         sodipodi:nodetypes="ccccccc"
         inkscape:connector-curvature="0"
         id="path877"
         d="m 99.220826,198.07606 1.318484,2.03118 8.6236,0.49888 -0.0616,-1.64986 -1.02401,-2.3936 -4.82974,0.088 z"
         style="fill:#ffffff;fill-opacity:1;stroke:none;stroke-width:1.03560999999999992px;stroke-linecap:butt;stroke-linejoin:miter;stroke-opacity:1" />
      <path
         id="path879"
         style="opacity:0.3;fill:#000000;stroke:#000000;stroke-width:1.03561px;stroke-linecap:butt;stroke-linejoin:miter;stroke-opacity:1"
         d="m 63.194129,235.70632 c -2.13617,-13.49759 -5.641236,-26.73743 -7.952317,-40.20115 0.476156,-5.35193 -7.97622,0.7547 -8.968552,-0.43409 -0.03306,-4.46399 1.110892,-15.97747 -2.656151,-8.82862 -4.297301,8.44955 1.038941,-7.07459 -6.127756,-4.09327 -9.176136,1.38352 -8.041861,15.72484 -6.770286,22.42504 2.500395,10.30812 -0.0089,18.51223 0.110578,28.66437 4.292666,6.31127 13.550485,9.69157 18.605135,15.3154 3.146888,4.05716 8.329915,2.83604 7.112512,-1.04128 0.87854,5.85867 12.08855,10.80415 6.722194,1.2716 -0.751834,-4.3181 -5.009596,-13.04767 -2.541546,-14.97614 0.661246,0.7357 1.261053,2.07222 2.466189,1.89814 z"
         inkscape:connector-curvature="0"
         sodipodi:nodetypes="cccccccccccc" />
      <path
         sodipodi:nodetypes="cc"
         inkscape:connector-curvature="0"
         id="path884"
         d="m 85.955885,199.86086 c 0.04462,-5.73568 -0.560012,-11.36315 -4.233189,-16.4792"
         style="fill:none;stroke:#000000;stroke-width:1.03561px;stroke-linecap:butt;stroke-linejoin:miter;stroke-opacity:1" />
      <path
         sodipodi:nodetypes="cc"
         inkscape:connector-curvature="0"
         id="path886"
         d="m 70.981441,202.2519 c 1.564393,-0.34974 -0.730393,-17.48557 -3.13369,-17.33536"
         style="fill:none;stroke:#000000;stroke-width:1.03561px;stroke-linecap:butt;stroke-linejoin:miter;stroke-opacity:1" />
      <path
         sodipodi:nodetypes="cc"
         inkscape:connector-curvature="0"
         id="path888"
         d="m 96.600748,200.49762 c 0.47665,-6.68882 0.457458,-9.7864 -2.521213,-16.10501"
         style="fill:none;stroke:#000000;stroke-width:1.03561px;stroke-linecap:butt;stroke-linejoin:miter;stroke-opacity:1" />
      <path
         sodipodi:nodetypes="ccccccccc"
         inkscape:connector-curvature="0"
         id="path894"
         d="m 80.94696,183.45021 c 3.338014,4.92108 1.231318,11.09084 0.350417,17.0346 l 3.37933,-0.74423 2.441208,0.37557 -1.471252,-3.7008 -0.547198,-6.83109 -1.26755,-4.08433 -2.159531,-2.15953 z"
         style="opacity:0.5;fill:#000000;stroke:none;stroke-width:1.03561px;stroke-linecap:butt;stroke-linejoin:miter;stroke-opacity:1" />
      <path
         sodipodi:nodetypes="cccccccc"
         inkscape:connector-curvature="0"
         id="path896"
         d="m 67.863037,184.6623 0.113265,7.21647 -2.190307,11.48056 4.029171,-1.09296 1.963788,0.31616 -1.173658,-8.2156 -1.054845,-8.02597 z"
         style="opacity:0.5;fill:#000000;stroke:none;stroke-width:1.03561px;stroke-linecap:butt;stroke-linejoin:miter;stroke-opacity:1" />
      <path
         style="opacity:0.5;fill:#000000;stroke:none;stroke-width:1.03561px;stroke-linecap:butt;stroke-linejoin:miter;stroke-opacity:1"
         d="m 92.77333,184.38038 c 3.338014,4.92108 1.718547,14.1028 -2.041433,15.70579 l 3.645091,-0.30129 2.441208,0.55274 c 1.179721,-3.93141 -0.764055,-9.16449 -1.159911,-13.90752 l -2.159531,-2.15953 z"
         id="path898"
         inkscape:connector-curvature="0"
         sodipodi:nodetypes="ccccccc" />
    </g>
  </g>
</svg>
