<?xml version="1.0" encoding="UTF-8" standalone="no"?>
<!-- Created with Inkscape (http://www.inkscape.org/) -->

<svg
   xmlns:dc="http://purl.org/dc/elements/1.1/"
   xmlns:cc="http://creativecommons.org/ns#"
   xmlns:rdf="http://www.w3.org/1999/02/22-rdf-syntax-ns#"
   xmlns:svg="http://www.w3.org/2000/svg"
   xmlns="http://www.w3.org/2000/svg"
   xmlns:sodipodi="http://sodipodi.sourceforge.net/DTD/sodipodi-0.dtd"
   xmlns:inkscape="http://www.inkscape.org/namespaces/inkscape"
   width="110"
   height="110"
   viewBox="0 0 29.104165 29.104167"
   version="1.1"
   id="svg8"
   sodipodi:docname="long1.svg"
   inkscape:version="0.92.2 5c3e80d, 2017-08-06">
  <defs
     id="defs2" />
  <sodipodi:namedview
     id="base"
     pagecolor="#ffffff"
     bordercolor="#666666"
     borderopacity="1.0"
     inkscape:pageopacity="0.0"
     inkscape:pageshadow="2"
     inkscape:zoom="3.6657074"
     inkscape:cx="108.87369"
     inkscape:cy="31.184247"
     inkscape:document-units="mm"
     inkscape:current-layer="g4578"
     showgrid="false"
     units="px"
     inkscape:window-width="1680"
     inkscape:window-height="925"
     inkscape:window-x="84"
     inkscape:window-y="12"
     inkscape:window-maximized="0"
     fit-margin-top="0"
     fit-margin-left="0"
     fit-margin-right="0"
     fit-margin-bottom="0" />
  <metadata
     id="metadata5">
    <rdf:RDF>
      <cc:Work
         rdf:about="">
        <dc:format>image/svg+xml</dc:format>
        <dc:type
           rdf:resource="http://purl.org/dc/dcmitype/StillImage" />
        <dc:title />
      </cc:Work>
    </rdf:RDF>
  </metadata>
  <g
     inkscape:label="Layer 1"
     inkscape:groupmode="layer"
     id="layer1"
     transform="translate(-54.198774,-210.72516)">
    <g
       id="g4578"
       transform="matrix(0.25548634,0,0,0.25548634,51.782645,166.50629)">
      <path
         style="fill:#ffffff;stroke:#000000;stroke-width:0.81472397;stroke-linecap:butt;stroke-linejoin:miter;stroke-miterlimit:4;stroke-dasharray:none;stroke-opacity:1"
         d="m 34.364789,250.93794 c -1.564092,-11.82608 -3.303861,-23.6303 -5.336351,-35.38545 0.987374,-3.2206 1.970752,-10.7915 2.960695,-11.2126 1.054681,3.42327 1.727778,11.18737 2.309059,11.9827 0.451038,-5.64497 1.749454,-11.1181 3.789342,-16.38938 0.759432,-3.35606 1.031597,-6.79963 1.5985,-10.19278 1.532908,4.78433 1.481435,12.00768 1.522594,15.54268 0.815172,-6.50356 5.526208,-11.25088 8.157212,-16.82863 0.328622,-1.23174 0.298505,-7.74694 0.941124,-4.16944 1.940984,2.30271 -2.323877,11.12469 0.818276,4.85415 2.759442,-5.43019 7.907493,-10.43085 8.309671,-16.51082 0.493462,5.82895 0.123624,11.66971 -0.353197,17.46749 3.515491,-5.90307 6.61876,-12.06805 8.726946,-18.59826 1.109602,4.17302 0.304824,13.70944 -0.516851,14.41085 1.341545,-6.19073 6.844844,-10.05371 9.263076,-15.78576 -1.056407,4.47501 2.734327,13.38658 2.367417,14.64851 1.973135,-2.81152 3.430865,-11.25454 4.090703,-3.31972 2.172952,1.29592 2.262664,9.58713 2.429721,3.50448 0.805003,-3.16503 2.498525,-13.36674 3.839012,-4.78687 1.132371,3.26597 -0.841923,11.60865 0.514212,4.04026 0.514999,-2.82386 2.492445,-7.7833 2.939588,-1.78382 1.743952,3.68956 3.804245,7.47361 1.975395,11.49924 0.205845,1.26241 4.043475,-6.55285 4.681403,-8.94111 0.241016,-3.82516 0.724914,-5.64485 1.941044,-1.13321 1.96644,5.61972 3.56164,11.59198 3.4197,17.568 -0.91923,2.66294 -2.54582,5.41208 0.0457,1.54061 1.59309,-1.32156 3.46114,-10.36902 3.23552,-3.66908 1.23415,3.98861 0.0248,11.91628 0.0765,13.40664 2.61261,-1.38154 5.40824,-8.57312 3.81162,-1.9183 -0.21188,3.85268 -0.15604,7.86062 -3.00906,10.86924 3.10585,0.061 5.86828,-6.16786 4.11514,-0.44247 -1.06837,4.22209 -4.33196,15.55374 -9.33488,11.46015 -0.80358,-5.25547 -0.43396,-12.62391 -6.173181,-15.07622 -5.617884,-1.03273 -7.381578,11.7528 -12.44943,4.86301 -7.646853,-6.9488 -20.263228,-11.13065 -29.37478,-4.52162 -5.781851,4.34373 -7.756647,12.37518 -5.311291,19.04609 0.812083,3.51723 1.624166,7.03446 2.436249,10.55169 -2.176767,-5.57703 -7.034484,-6.02838 -10.673984,-2.0633 -2.594108,1.82435 -5.188266,3.64871 -7.782344,5.47305 z"
         id="path844"
         inkscape:connector-curvature="0" />
    </g>
  </g>
</svg>
