<?xml version="1.0" encoding="UTF-8" standalone="no"?>
<svg
   xmlns:dc="http://purl.org/dc/elements/1.1/"
   xmlns:cc="http://creativecommons.org/ns#"
   xmlns:rdf="http://www.w3.org/1999/02/22-rdf-syntax-ns#"
   xmlns:svg="http://www.w3.org/2000/svg"
   xmlns="http://www.w3.org/2000/svg"
   xmlns:sodipodi="http://sodipodi.sourceforge.net/DTD/sodipodi-0.dtd"
   xmlns:inkscape="http://www.inkscape.org/namespaces/inkscape"
   inkscape:version="1.0alpha2 (863a58d, 2019-08-17)"
   sodipodi:docname="long1.svg"
   id="svg8"
   version="1.1"
   viewBox="0 0 29.104165 39.687501"
   height="150"
   width="110">
  <defs
     id="defs2" />
  <sodipodi:namedview
     inkscape:document-rotation="0"
     fit-margin-bottom="0"
     fit-margin-right="0"
     fit-margin-left="0"
     fit-margin-top="0"
     inkscape:window-maximized="0"
     inkscape:window-y="67"
     inkscape:window-x="1995"
     inkscape:window-height="907"
     inkscape:window-width="1680"
     units="px"
     showgrid="false"
     inkscape:current-layer="g4578"
     inkscape:document-units="mm"
     inkscape:cy="64.867689"
     inkscape:cx="70.013986"
     inkscape:zoom="6.2897617"
     inkscape:pageshadow="2"
     inkscape:pageopacity="0.0"
     borderopacity="1.0"
     bordercolor="#666666"
     pagecolor="#ffffff"
     id="base" />
  <metadata
     id="metadata5">
    <rdf:RDF>
      <cc:Work
         rdf:about="">
        <dc:format>image/svg+xml</dc:format>
        <dc:type
           rdf:resource="http://purl.org/dc/dcmitype/StillImage" />
        <dc:title />
      </cc:Work>
    </rdf:RDF>
  </metadata>
  <g
     transform="translate(-54.198774,-200.14182)"
     id="layer1"
     inkscape:groupmode="layer"
     inkscape:label="Layer 1">
    <g
       transform="matrix(0.25548634,0,0,0.25548634,51.782645,166.50629)"
       id="g4578">
      <path
         sodipodi:nodetypes="cccsccccccccccccccccccccccccccccccccccc"
         inkscape:connector-curvature="0"
         id="path844"
         d="m 32.542651,221.33195 c -1.432791,-8.67115 -13.713299,-30.37061 -6.203759,-35.52537 1.054681,3.42327 1.727778,5.42464 2.309059,6.21997 0.207671,-2.59911 -1.545462,-14.38216 -0.988849,-16.90548 0.652288,-2.95705 3.018929,10.11096 4.119593,7.26673 0.759432,-3.35606 1.690195,-13.55026 2.257098,-16.94341 1.532908,4.78433 1.481435,12.00768 1.522594,15.54268 0.815172,-6.50356 5.526208,-11.25088 8.157212,-16.82863 0.328622,-1.23174 0.298505,-7.74694 0.941124,-4.16944 1.940984,2.30271 -2.323877,11.12469 0.818276,4.85415 2.759442,-5.43019 7.907493,-10.43085 8.309671,-16.51082 0.493462,5.82895 0.123624,11.66971 -0.353197,17.46749 3.515491,-5.90307 6.61876,-12.06805 8.726946,-18.59826 1.109602,4.17302 0.304824,13.70944 -0.516851,14.41085 1.341545,-6.19073 6.844844,-10.05371 9.263076,-15.78576 -1.056407,4.47501 2.734327,13.38658 2.367417,14.64851 1.973135,-2.81152 3.430865,-11.25454 4.090703,-3.31972 2.172952,1.29592 2.262664,9.58713 2.429721,3.50448 0.805003,-3.16503 2.498525,-13.36674 3.839012,-4.78687 1.132371,3.26597 -0.841923,11.60865 0.514212,4.04026 0.514999,-2.82386 2.492445,-7.7833 2.939588,-1.78382 1.743952,3.68956 3.804245,7.47361 1.975395,11.49924 0.205845,1.26241 4.043475,-6.55285 4.681403,-8.94111 0.241016,-3.82516 0.724914,-5.64485 1.941044,-1.13321 1.96644,5.61972 3.561635,11.59198 3.4197,17.568 -0.91923,2.66294 -2.54582,5.41208 0.0457,1.54061 1.593081,-1.32156 3.461141,-10.36902 3.235521,-3.66908 1.23415,3.98861 0.0248,11.91628 0.0765,13.40664 2.61261,-1.38154 5.40824,-8.57312 3.81162,-1.9183 -0.21188,3.85268 -0.15604,7.86062 -3.00906,10.86924 3.10585,0.061 5.86828,-6.16786 4.11514,-0.44247 -1.06837,4.22209 -4.33196,15.55374 -9.334881,11.46015 -0.80358,-5.25547 -0.43396,-12.62391 -6.173181,-15.07622 -5.617884,-1.03273 -7.381578,11.7528 -12.44943,4.86301 -7.646853,-6.9488 -20.263228,-11.13065 -29.37478,-4.52162 -5.781851,4.34373 -7.756647,12.37518 -5.311291,19.04609 l 2.436249,10.55169 c -6.432435,-10.09618 -12.319044,0.50811 -12.56789,0.68839 z"
         style="fill:#ffffff;stroke:#000000;stroke-width:1.03561;stroke-linecap:butt;stroke-linejoin:miter;stroke-miterlimit:4;stroke-dasharray:none;stroke-opacity:1" />
      <path
         inkscape:connector-curvature="0"
         id="path840"
         d="m 49.631475,164.74751 -7.57388,24.86209 6.915282,-6.75063 1.975796,-21.73375 z"
         style="fill:#000000;stroke:none;stroke-width:1.03560999999999992px;stroke-linecap:butt;stroke-linejoin:miter;stroke-opacity:1;opacity:0.2" />
      <path
         inkscape:connector-curvature="0"
         id="path842"
         d="m 29.379578,196.85418 5.268787,21.5691 4.610188,-3.293 1.317196,-3.78694 -7.73853,-13.99521 -1.058523,-14.96033 z"
         style="fill:#000000;stroke:none;stroke-width:1.03560999999999992px;stroke-linecap:butt;stroke-linejoin:miter;stroke-opacity:1;opacity:0.2" />
      <path
         inkscape:connector-curvature="0"
         id="path845"
         d="m 69.060125,156.67969 -3.457641,24.53278 -2.469743,-6.58598 5.104137,-21.07515 z"
         style="fill:#000000;stroke:none;stroke-width:1.03560999999999992px;stroke-linecap:butt;stroke-linejoin:miter;stroke-opacity:1;opacity:0.2" />
      <path
         sodipodi:nodetypes="ccccc"
         inkscape:connector-curvature="0"
         id="path847"
         d="m 61.641568,161.61241 -6.082707,19.27076 -2.469744,-2.96369 6.585983,-21.07514 z"
         style="opacity:0.2;fill:#000000;stroke:none;stroke-width:1.03561px;stroke-linecap:butt;stroke-linejoin:miter;stroke-opacity:1" />
    </g>
  </g>
</svg>
