<?xml version="1.0" encoding="UTF-8" standalone="no"?>
<!-- Created with Inkscape (http://www.inkscape.org/) -->

<svg
   xmlns:dc="http://purl.org/dc/elements/1.1/"
   xmlns:cc="http://creativecommons.org/ns#"
   xmlns:rdf="http://www.w3.org/1999/02/22-rdf-syntax-ns#"
   xmlns:svg="http://www.w3.org/2000/svg"
   xmlns="http://www.w3.org/2000/svg"
   xmlns:sodipodi="http://sodipodi.sourceforge.net/DTD/sodipodi-0.dtd"
   xmlns:inkscape="http://www.inkscape.org/namespaces/inkscape"
   width="150"
   height="150"
   viewBox="0 0 39.687497 39.687501"
   version="1.1"
   id="svg8"
   sodipodi:docname="split.svg"
   inkscape:version="0.92.2 5c3e80d, 2017-08-06">
  <defs
     id="defs2" />
  <sodipodi:namedview
     id="base"
     pagecolor="#ffffff"
     bordercolor="#666666"
     borderopacity="1.0"
     inkscape:pageopacity="0.0"
     inkscape:pageshadow="2"
     inkscape:zoom="5.7227845"
     inkscape:cx="67.680298"
     inkscape:cy="103.54496"
     inkscape:document-units="mm"
     inkscape:current-layer="g4578"
     showgrid="false"
     units="px"
     inkscape:window-width="1680"
     inkscape:window-height="925"
     inkscape:window-x="7"
     inkscape:window-y="6"
     inkscape:window-maximized="0"
     fit-margin-top="0"
     fit-margin-left="0"
     fit-margin-right="0"
     fit-margin-bottom="0" />
  <metadata
     id="metadata5">
    <rdf:RDF>
      <cc:Work
         rdf:about="">
        <dc:format>image/svg+xml</dc:format>
        <dc:type
           rdf:resource="http://purl.org/dc/dcmitype/StillImage" />
        <dc:title></dc:title>
      </cc:Work>
    </rdf:RDF>
  </metadata>
  <g
     inkscape:label="Layer 1"
     inkscape:groupmode="layer"
     id="layer1"
     transform="translate(-54.184848,-191.61866)">
    <g
       id="g4578"
       transform="matrix(0.25548634,0,0,0.25548634,51.782645,166.50629)">
      <path
         style="fill:#ffffff;stroke:#000000;stroke-width:1.13604283;stroke-linecap:butt;stroke-linejoin:miter;stroke-miterlimit:4;stroke-dasharray:none;stroke-opacity:1"
         d="m 124.05593,158.89488 c 2.46086,-1.08847 5.25045,-4.80679 7.71132,-5.89526 -2.68421,-4.86993 -7.04576,-3.97618 -11.82849,-5.60453"
         id="path857"
         inkscape:connector-curvature="0"
         sodipodi:nodetypes="ccc" />
      <path
         sodipodi:nodetypes="ccc"
         inkscape:connector-curvature="0"
         id="path966"
         d="m 89.811324,148.76369 c 4.22833,6.81059 7.50023,16.03666 10.332246,26.37363 -6.259956,-9.14266 -12.810446,-10.46055 -19.282402,-13.8938"
         style="fill:#ffffff;stroke:#000000;stroke-width:1.03560662px;stroke-linecap:butt;stroke-linejoin:miter;stroke-opacity:1" />
      <path
         style="fill:#ffffff;stroke:none;stroke-width:1.13604283px;stroke-linecap:butt;stroke-linejoin:miter;stroke-opacity:1"
         d="m 56.009792,156.33383 9.342508,-12.67532 10.115259,-2.58504 10.011887,-5.5916 8.349845,-1.78417 8.160699,7.28769 -6.539933,13.77044 -9.184395,14.21887 -4.984798,19.87077 -11.073861,0.85184 -5.31494,-15.34745 z"
         id="path887"
         inkscape:connector-curvature="0"
         sodipodi:nodetypes="cccccccccccc" />
      <path
         style="fill:#ffffff;stroke:#000000;stroke-width:1.03560662px;stroke-linecap:butt;stroke-linejoin:miter;stroke-opacity:1"
         d="m 89.15966,157.61835 c 6.478707,4.72114 15.43711,8.66738 25.53593,12.25723 -8.6539,-6.91992 -9.48301,-13.55003 -12.42749,-20.25849"
         id="path964"
         inkscape:connector-curvature="0"
         sodipodi:nodetypes="ccc" />
      <path
         style="fill:#ffffff;stroke:#000000;stroke-width:1.13604283;stroke-linecap:butt;stroke-linejoin:miter;stroke-miterlimit:4;stroke-dasharray:none;stroke-opacity:1"
         d="m 98.885421,138.1614 c 20.119249,1.9998 26.411949,19.54139 40.593499,24.4226 -27.52765,10.88215 -25.2501,-1.07213 -39.56118,-7.20544"
         id="path855"
         inkscape:connector-curvature="0"
         sodipodi:nodetypes="ccc" />
      <path
         style="fill:#ffffff;stroke:#000000;stroke-width:1.13604283;stroke-linecap:butt;stroke-linejoin:miter;stroke-miterlimit:4;stroke-dasharray:none;stroke-opacity:1"
         d="m 68.049307,171.84911 -1.98473,21.99062 c 4.855989,-3.25385 9.549409,-6.56189 8.583994,-11.75621 0.955038,4.33149 2.514598,8.15921 1.43314,14.18777 2.938182,-4.14021 7.262544,-8.91921 5.580176,-10.93015 2.986479,3.19342 2.30501,6.38685 2.812396,9.58027 2.981558,-2.76092 4.554029,-10.7287 2.870426,-13.71397"
         id="path869"
         inkscape:connector-curvature="0"
         sodipodi:nodetypes="ccccccc" />
      <path
         style="opacity:0.2;fill:#000000;stroke:#000000;stroke-width:1.03560662px;stroke-linecap:butt;stroke-linejoin:miter;stroke-opacity:1"
         d="m 111.97175,168.1732 c -7.84156,-3.90326 -12.86426,-7.03646 -15.491792,-10.55485 l -1.532155,3.23455 4.596465,2.63871 7.745892,3.40479 z"
         id="path970"
         inkscape:connector-curvature="0"
         sodipodi:nodetypes="cccccc" />
      <path
         style="fill:#ffffff;stroke:#000000;stroke-width:1.13604283;stroke-linecap:butt;stroke-linejoin:miter;stroke-miterlimit:4;stroke-dasharray:none;stroke-opacity:1"
         d="m 106.52907,151.94699 -6.61133,3.43157 c -6.791261,3.19439 -10.69633,21.5246 -6.121371,32.93711 -13.083124,-5.12518 -21.49611,-21.46786 -22.451887,-32.28103"
         id="path853"
         inkscape:connector-curvature="0"
         sodipodi:nodetypes="cccc" />
      <path
         style="fill:#ffffff;stroke:#000000;stroke-width:1.13604283;stroke-linecap:butt;stroke-linejoin:miter;stroke-miterlimit:4;stroke-dasharray:none;stroke-opacity:1"
         d="m 61.696758,163.83597 c 0.189296,3.36 -1.431845,6.98953 -1.242549,10.34953 -4.262395,5.8177 -9.640594,7.06705 -14.373967,12.12734 9.12716,3.44841 12.570095,2.62556 20.815299,-0.62482 2.337396,-2.54781 1.754576,-2.76865 2.978077,-6.06763 l 0.692609,-5.82307"
         id="path861"
         inkscape:connector-curvature="0"
         sodipodi:nodetypes="cccccc" />
      <path
         style="fill:#ffffff;stroke:#000000;stroke-width:1.13604283;stroke-linecap:butt;stroke-linejoin:miter;stroke-miterlimit:4;stroke-dasharray:none;stroke-opacity:1"
         d="m 56.009791,156.33383 c -4.428694,11.48546 -10.808297,15.99315 -21.721766,20.16007 14.147622,7.36132 22.700452,4.55877 29.620225,-9.1524"
         id="path863"
         inkscape:connector-curvature="0"
         sodipodi:nodetypes="ccc" />
      <path
         style="fill:#ffffff;stroke:#000000;stroke-width:1.13604283;stroke-linecap:butt;stroke-linejoin:miter;stroke-miterlimit:4;stroke-dasharray:none;stroke-opacity:1"
         d="m 93.829291,133.6977 c -0.476231,-7.94794 -1.88222,-15.9365 -4.739963,-22.795 -8.483816,15.07841 -21.047952,3.45137 -28.739291,-7.27532 -1.336619,-0.98053 -3.743784,-3.991114 -3.133477,-0.56852 0.941623,19.42117 4.126041,21.03272 -15.567538,18.37946 -2.217013,-0.8144 -4.434016,-1.6288 -6.651019,-2.4432 0.73831,8.91993 8.942981,21.64564 -4.808339,15.0624 -3.086878,-1.73952 -1.887546,0.64038 -1.07704,2.64657 7.699755,10.06295 14.216292,15.99324 26.897167,19.62974"
         id="path865"
         inkscape:connector-curvature="0"
         sodipodi:nodetypes="ccccccccc" />
      <path
         style="fill:#000000;stroke:#000000;stroke-width:1.13604283;stroke-linecap:butt;stroke-linejoin:miter;stroke-miterlimit:4;stroke-dasharray:none;stroke-opacity:1"
         d="m 56.009758,156.33387 c 2.094798,-2.51612 3.571305,-5.68442 6.073062,-7.77128 4.368932,-2.67745 8.388866,-6.03704 13.384738,-7.48912 4.578011,-2.06129 9.400826,-3.33747 14.301022,-4.36547 3.028441,0.0997 6.079651,1.03393 9.116811,1.45343 -1.89295,-2.55551 -3.16314,-1.90822 -5.0561,-4.46373 -6.523529,0.68041 -12.788739,1.3683 -19.145986,2.98432 -2.486158,0.31836 -6.593582,1.64824 -8.499732,3.29721 -2.798075,1.89483 -5.860138,4.66575 -7.712635,7.59533 -2.829448,3.33173 -2.825214,3.36255 -4.745823,7.32438 1.325002,0.80451 0.959641,0.63041 2.284643,1.43493 z"
         id="path867"
         inkscape:connector-curvature="0"
         sodipodi:nodetypes="ccccccccccc" />
      <path
         style="opacity:0.2;fill:#000000;stroke:#000000;stroke-width:1.03560662px;stroke-linecap:butt;stroke-linejoin:miter;stroke-opacity:1"
         d="M 93.796371,188.31567 C 83.277186,173.18389 76.96047,163.4786 72.373644,146.35315 c -1.762091,2.87241 -0.904413,6.39975 -1.02916,9.68149 l 4.018784,14.81319 9.598091,11.72153 z"
         id="path956"
         inkscape:connector-curvature="0"
         sodipodi:nodetypes="cccccc" />
      <path
         style="opacity:0.2;fill:#000000;stroke:#000000;stroke-width:1.03560662px;stroke-linecap:butt;stroke-linejoin:miter;stroke-opacity:1"
         d="m 34.288026,176.4939 c 9.873409,-1.68825 19.746817,-2.47193 29.620226,-9.1524 l -1.391067,3.21505 -6.55422,6.72446 -4.851824,2.89407 -7.745896,-0.17024 z"
         id="path958"
         inkscape:connector-curvature="0"
         sodipodi:nodetypes="ccccccc" />
      <path
         style="opacity:0.2;fill:#000000;stroke:#000000;stroke-width:1.03560662px;stroke-linecap:butt;stroke-linejoin:miter;stroke-opacity:1"
         d="m 46.080243,186.31284 c 12.549422,-0.68362 12.468146,-2.25409 21.033407,-10.81935 l 2.979191,-4.25598 0.17024,5.78814 -1.191677,6.21374 -2.175861,2.44863 -7.698027,2.57343 -6.72446,-0.17024 z"
         id="path960"
         inkscape:connector-curvature="0"
         sodipodi:nodetypes="ccccccccc" />
      <path
         style="opacity:0.2;fill:#000000;stroke:#000000;stroke-width:1.03560662px;stroke-linecap:butt;stroke-linejoin:miter;stroke-opacity:1"
         d="m 70.566229,173.79732 c 3.693244,6.97092 11.039571,8.62826 16.976157,12.33614 l -0.08512,2.80895 -2.982982,5.979 -0.08133,-4.95756 -2.731068,-4.62271 -0.381022,3.50433 -3.612369,5.28924 -1.361916,0.4256 0.255359,-3.9155 -1.913368,-8.56129 -0.129506,3.70946 -2.127993,3.57503 -6.326495,4.47172 0.453234,-4.47172 0.37773,-3.67999 2.60146,-4.23615 z"
         id="path962"
         inkscape:connector-curvature="0"
         sodipodi:nodetypes="cccccccccccccccccc" />
      <path
         style="opacity:0.2;fill:#000000;stroke:#000000;stroke-width:1.03560662px;stroke-linecap:butt;stroke-linejoin:miter;stroke-opacity:1"
         d="m 137.59279,162.1297 c -17.16462,0.82613 -19.40554,0.79432 -31.06372,-10.18271 l -6.611328,3.43157 4.393228,2.15467 8.34174,6.29886 6.80958,2.97919 h 6.80958 l 8.25661,-1.95775 4.95045,-2.26953 z"
         id="path968"
         inkscape:connector-curvature="0"
         sodipodi:nodetypes="cccccccccc" />
      <path
         style="opacity:0.2;fill:#000000;stroke:none;stroke-width:1.03560662px;stroke-linecap:butt;stroke-linejoin:miter;stroke-opacity:1"
         d="m 93.415648,167.66248 3.31967,2.97919 3.408252,4.49565 -0.972429,-3.859 -2.180464,-7.02063 -2.042872,-3.40479 -0.851199,2.21311 -1.447036,4.17087 z"
         id="path974"
         inkscape:connector-curvature="0"
         sodipodi:nodetypes="ccccccccc" />
      <path
         style="opacity:0.2;fill:#000000;stroke:#000000;stroke-width:1.03560662px;stroke-linecap:butt;stroke-linejoin:miter;stroke-opacity:1"
         d="m 60.350038,103.62738 c 2.49903,9.9948 10.845417,22.47 17.510609,32.23335 C 63.505545,122.83689 61.561599,120.65485 57.216562,103.05886 v 0 l 0.481342,-1.22523 z"
         id="path976"
         inkscape:connector-curvature="0"
         sodipodi:nodetypes="cccccc" />
      <path
         style="opacity:0.2;fill:#000000;stroke:#000000;stroke-width:1.03560662px;stroke-linecap:butt;stroke-linejoin:miter;stroke-opacity:1"
         d="m 34.998003,118.99512 c 1.835319,5.0896 2.726903,10.24788 3.366041,15.57404 l 19.322553,14.68282 C 49.058313,140.65589 39.071966,129.86837 34.998003,118.99512 Z"
         id="path978"
         inkscape:connector-curvature="0"
         sodipodi:nodetypes="cccc" />
      <path
         style="opacity:0.2;fill:#000000;stroke:#000000;stroke-width:1.03560662px;stroke-linecap:butt;stroke-linejoin:miter;stroke-opacity:1"
         d="m 30.189664,134.05752 c 7.015904,7.51903 14.117405,14.97904 23.535453,20.84142 l -3.355634,-0.65076 -8.911253,-5.07446 -6.064603,-5.56954 -6.281002,-6.90009 -0.546089,-2.80514 z"
         id="path980"
         inkscape:connector-curvature="0"
         sodipodi:nodetypes="cccccccc" />
      <path
         style="opacity:0.2;fill:#000000;stroke:#000000;stroke-width:1.03560662px;stroke-linecap:butt;stroke-linejoin:miter;stroke-opacity:1"
         d="m 73.726081,116.63925 4.440485,1.4959 c 1.552787,0.44217 3.007132,-0.002 4.440487,-0.63435 1.672183,-0.81401 4.457827,-1.70177 4.185755,-3.31635 l -1.313361,21.29742 -3.379879,-0.47287 -7.133304,-15.96315 z"
         id="path982"
         inkscape:connector-curvature="0"
         sodipodi:nodetypes="cccccccc" />
    </g>
  </g>
</svg>
