<?xml version="1.0" encoding="UTF-8" standalone="no"?>
<svg
   xmlns:dc="http://purl.org/dc/elements/1.1/"
   xmlns:cc="http://creativecommons.org/ns#"
   xmlns:rdf="http://www.w3.org/1999/02/22-rdf-syntax-ns#"
   xmlns:svg="http://www.w3.org/2000/svg"
   xmlns="http://www.w3.org/2000/svg"
   xmlns:sodipodi="http://sodipodi.sourceforge.net/DTD/sodipodi-0.dtd"
   xmlns:inkscape="http://www.inkscape.org/namespaces/inkscape"
   width="150"
   height="150"
   viewBox="0 0 39.687498 39.6875"
   version="1.1"
   id="svg8"
   sodipodi:docname="split2.svg"
   inkscape:version="1.0alpha2 (863a58d, 2019-08-17)">
  <defs
     id="defs2" />
  <sodipodi:namedview
     id="base"
     pagecolor="#ffffff"
     bordercolor="#666666"
     borderopacity="1.0"
     inkscape:pageopacity="0.0"
     inkscape:pageshadow="2"
     inkscape:zoom="8.3173824"
     inkscape:cx="71.241223"
     inkscape:cy="75.700743"
     inkscape:document-units="mm"
     inkscape:current-layer="layer1"
     showgrid="false"
     units="px"
     inkscape:window-width="1680"
     inkscape:window-height="907"
     inkscape:window-x="0"
     inkscape:window-y="23"
     inkscape:window-maximized="0"
     fit-margin-top="0"
     fit-margin-left="0"
     fit-margin-right="0"
     fit-margin-bottom="0"
     inkscape:document-rotation="0" />
  <metadata
     id="metadata5">
    <rdf:RDF>
      <cc:Work
         rdf:about="">
        <dc:format>image/svg+xml</dc:format>
        <dc:type
           rdf:resource="http://purl.org/dc/dcmitype/StillImage" />
        <dc:title />
      </cc:Work>
    </rdf:RDF>
  </metadata>
  <g
     inkscape:label="Layer 1"
     inkscape:groupmode="layer"
     id="layer1"
     transform="translate(-54.198774,-200.14183)">
    <path
       id="path855"
       style="opacity:0.3;fill:#000000;stroke:#000000;stroke-width:0.264583px;stroke-linecap:butt;stroke-linejoin:miter;stroke-opacity:1"
       d="m 70.823833,218.6522 c 0.500742,0.0977 1.02123,0.48469 1.529183,0.20027 0.526159,-0.39852 0.948814,-1.05767 1.669866,-1.09791 0.56755,0.0304 1.093598,0.54955 1.671891,0.27683 0.619697,-0.25206 0.853305,-1.06928 1.558192,-1.16597 0.494481,-0.2077 1.082107,0.46771 1.489114,0.007 0.529416,-0.33912 1.149986,0.2519 1.055976,0.81054 0.02301,0.61144 0.722021,0.64591 0.984046,1.08559 0.206379,0.43929 0.800849,0.38097 1.047822,0.0205 0.373594,-0.51517 0.3169,-1.27985 -0.113741,-1.74709 -0.471839,-0.5363 -0.77354,-1.18398 -1.112628,-1.80462 -0.239194,-0.42669 -0.642478,-0.77353 -1.145114,-0.81825 -0.813366,-0.13858 -1.643311,-0.0575 -2.463143,-0.11128 -0.913825,-0.003 -1.828221,0.15696 -2.674907,0.50256 -0.665599,0.18209 -1.318352,0.51226 -1.724113,1.09009 -0.477208,0.55024 -1.004926,1.06601 -1.346974,1.71718 -0.155978,0.31555 -0.40199,0.61563 -0.429017,0.97474 l 0.0036,0.0603 z"
       inkscape:connector-curvature="0" />
    <path
       id="path844"
       style="fill:#ffffff;stroke:#000000;stroke-width:0.264583px;stroke-linecap:butt;stroke-linejoin:miter;stroke-opacity:1"
       d="m 75.622656,209.87003 c -0.181372,0.20647 0.576991,-0.27572 -0.231153,-0.52315 -1.197971,-0.36678 -1.962732,0.424 -3.138991,-0.0823 -1.355654,-0.58352 -1.382373,1.37121 -2.829899,1.0584 -1.08703,-0.2349 -1.241465,1.14169 -2.026633,1.43081 -0.581593,0.21416 -1.734099,0.11147 -1.799635,0.94261 -0.09904,1.25607 -1.386169,1.22985 -1.789177,2.01855 -0.532013,1.04117 -1.832792,1.30298 -1.810082,2.26628 0.03408,1.44547 -1.595595,1.04763 -1.585385,2.14236 0.0092,0.98636 -0.301485,1.31408 -1.168584,1.92383 -0.845681,0.59469 0.585075,1.52794 -0.421656,2.3781 -0.963117,0.81333 -0.218938,1.50521 0.647578,2.08241 0.528984,0.35236 -0.389863,1.66673 0.871154,1.3256 1.075068,-0.29083 0.897226,1.53468 1.896482,1.29229 1.225699,-0.29732 0.9976,1.42439 1.564688,1.39402 0.325382,-0.0174 0.784458,0.57136 1.205724,0.81697 0.437971,0.25534 1.035032,-0.54006 1.484713,-0.23335 0.894972,0.61044 1.525622,1.80141 1.911967,1.20903 0.447398,-0.68599 2.228423,-0.31734 1.722922,-1.4555 -0.425202,-0.95737 -0.733681,-1.85612 0.435661,-2.2824 0.943877,-0.34409 -0.394067,-1.93205 0.38564,-2.3994 0.651694,-0.39062 0.306632,-1.37945 0.227896,-2.03539 -0.143675,-1.19694 1.481741,-1.21285 1.130641,-2.66738 -0.412233,-1.70779 1.747393,-0.51468 1.689059,-2.31772 -0.06072,-1.87684 0.92489,-0.66908 1.499708,-1.51391 0.480749,-0.7066 0.830682,-1.57499 1.927189,-1.28788 0.418207,0.1095 0.514723,0.79833 1.156906,0.0428 0.580524,-0.68299 1.1867,0.0635 1.499687,0.98551 0.25834,0.76103 1.673997,0.6912 1.156896,1.75677 -0.510446,1.05185 1.508269,1.13788 1.255319,2.13896 -0.174098,0.68901 -0.601952,1.35118 0.287224,1.71728 0.734988,0.30261 -0.0707,2.53623 1.451873,1.91282 0.817284,-0.33463 1.607551,1.60596 2.037437,0.53709 0.418752,-1.04118 1.556162,-1.60963 0.693179,-2.5044 -0.815841,-0.84589 -1.41755,-1.73315 -0.912557,-2.77547 0.568107,-1.17259 -0.928439,-1.1817 -1.077931,-1.99375 -0.145532,-0.79054 0.112042,-1.53002 -0.135285,-2.24619 -0.221138,-0.64033 -1.216188,-0.47341 -1.67108,-0.94258 -0.617789,-0.63719 -0.01842,-2.39435 -1.26645,-2.27456 -1.387939,0.13322 -0.765333,-2.16478 -2.187836,-2.13398 -0.717797,0.0155 -0.803231,0.37761 -1.558961,-0.2619 -0.819278,-0.69328 -1.764248,-0.31099 -2.528248,0.55872 z"
       inkscape:connector-curvature="0"
       sodipodi:nodetypes="ssssssssssssssssssssssssssssssssssssssssss" />
    <path
       sodipodi:nodetypes="ccccccccccccccccccccccc"
       inkscape:connector-curvature="0"
       d="m 70.710429,224.02775 c 0.121164,-0.60788 0.443058,-1.2153 0.211977,-1.84368 -0.160827,-0.76523 0.65243,-1.0772 0.912659,-1.66225 0.407502,-0.78326 -0.525212,-1.39998 -1.227486,-1.34336 -0.85528,0.13165 -3.094803,-0.3164 -3.408843,-1.05503 -0.504452,-0.74912 0.0897,-1.92333 -0.798147,-2.47044 -0.764501,-0.42462 -0.660283,-1.45335 -1.091834,-2.11251 -0.661843,0.13901 -1.150486,0.83981 -1.582167,1.34814 -0.371361,0.57293 -0.952537,0.93371 -1.431133,1.3976 -0.526861,0.56554 0.0615,1.65133 -0.966542,1.85445 -0.991661,0.18867 -1.131371,1.11795 -1.124414,1.95496 -0.32592,0.56866 -1.068943,0.96188 -1.026848,1.71096 0.105796,0.74293 0.432954,1.70004 -0.443359,2.09766 -0.44272,0.70009 0.309554,0.97246 0.835484,1.12772 0.816467,0.28814 -0.0341,1.73654 1.061671,1.4396 0.832803,-0.36621 1.203449,0.45861 1.660271,0.94215 0.558985,0.09 1.508823,-0.44716 1.671766,0.48697 -0.106485,0.75586 2.064099,1.06285 2.759703,0.98333 0.32832,0.46853 1.069194,1.08278 1.409433,0.25117 0.455851,-0.15379 1.555377,0.31966 1.229339,-0.6395 -0.321151,-0.4818 -0.773758,-1.35795 0.05959,-1.60323 0.872103,-0.19672 0.694365,-1.191 0.472178,-1.81995 -0.193722,-0.65928 0.542383,-0.73102 0.816702,-1.04476 z"
       style="opacity:0.1;fill:#000000;stroke:#000000;stroke-width:0.264583px;stroke-linecap:butt;stroke-linejoin:miter;stroke-opacity:1"
       id="path863" />
    <path
       sodipodi:nodetypes="ccccccccccccc"
       inkscape:connector-curvature="0"
       d="m 62.511304,215.99562 c -0.44031,1.26224 -1.449813,2.24405 -1.929718,3.28605 -0.15244,1.5822 -1.928896,2.18829 -1.388783,3.85495 -1.503367,1.2185 0.509251,1.91203 0.941179,2.97526 -0.170907,0.81336 1.747292,0.12481 1.771735,1.4126 1.023352,0.0721 1.9618,0.38061 2.08711,1.48952 1.077038,0.68551 3.818402,2.1268 4.876888,1.30326 2.264654,0.039 -0.543133,-2.61361 1.340787,-3.38363 -0.01889,-1.20929 -0.01237,-2.39578 0.231585,-3.53565 -0.592479,-1.20963 -4.233641,-0.17208 -4.101609,-2.11155 0.341391,-1.47264 -0.796901,-1.57983 -1.871894,-1.47287 -1.309348,-1.39715 1.27793,-3.15625 -0.684741,-4.42436 -0.415696,-0.72685 -0.763692,0.58132 -1.272539,0.60642 z"
       style="opacity:0.2;fill:#000000;stroke:#000000;stroke-width:0.264583px;stroke-linecap:butt;stroke-linejoin:miter;stroke-opacity:1"
       id="path847" />
    <path
       inkscape:connector-curvature="0"
       d="m 67.910163,218.69505 c -0.824315,-0.16502 -0.916764,-1.65561 0.131836,-1.27614 0.777738,0.41606 1.318973,-0.11728 1.647968,-0.75374 0.838876,-0.64963 0.892444,0.66117 0.09255,0.75578 -0.712405,0.35034 -0.189323,1.70125 -1.348376,1.42548 -0.18333,-0.0119 -0.383709,-0.0157 -0.523974,-0.15138 z"
       style="opacity:0.3;fill:#000000;stroke:#000000;stroke-width:0.264583px;stroke-linecap:butt;stroke-linejoin:miter;stroke-opacity:1"
       id="path849" />
    <path
       inkscape:connector-curvature="0"
       d="m 66.881809,212.65347 c -0.795066,0.1405 -0.833481,1.24622 -0.129613,1.54438 -0.0153,0.72902 0.628411,1.72583 1.371225,0.99094 0.587719,-0.85289 -0.665882,-1.07123 -0.916968,-1.69886 -0.251421,-0.39569 0.289328,-0.80373 -0.324644,-0.83646 z"
       style="opacity:0.3;fill:#000000;stroke:#000000;stroke-width:0.264583px;stroke-linecap:butt;stroke-linejoin:miter;stroke-opacity:1"
       id="path851" />
    <path
       inkscape:connector-curvature="0"
       d="m 82.906994,221.65157 c -0.314138,-1.00741 0.80422,-1.34126 1.513456,-1.50775 0.342086,-0.37624 0.300139,-2.04765 0.823694,-0.92645 0.02103,0.73336 -0.823141,1.48245 -0.231967,2.15043 0.79326,0.45742 0.183059,1.28471 0.630714,1.91333 0.81221,0.22946 0.401621,1.57984 -0.344582,1.01186 -0.272954,-0.9738 -1.583257,0.0676 -1.855011,-0.82003 -0.15174,-0.61361 -0.03483,-1.34212 -0.536304,-1.82139 z"
       style="opacity:0.3;fill:#000000;stroke:#000000;stroke-width:0.264583px;stroke-linecap:butt;stroke-linejoin:miter;stroke-opacity:1"
       id="path853" />
    <path
       inkscape:connector-curvature="0"
       d="m 75.237186,211.32518 c -0.689591,-0.23781 -1.806743,-0.44955 -2.138171,0.41787 -0.10301,0.37443 -0.247593,0.83612 -0.732659,0.78194"
       style="fill:none;stroke:#000000;stroke-width:0.264583px;stroke-linecap:butt;stroke-linejoin:miter;stroke-opacity:1"
       id="path865" />
    <path
       inkscape:connector-curvature="0"
       d="m 72.966238,213.81037 c -0.272764,-0.10535 -0.602209,-0.0675 -0.824732,0.1295 -0.403058,0.31867 -0.589505,0.8511 -1.045274,1.11078 -0.121911,0.0674 -0.262033,0.0978 -0.400941,0.0879"
       style="fill:none;stroke:#000000;stroke-width:0.264583px;stroke-linecap:butt;stroke-linejoin:miter;stroke-opacity:1"
       id="path867" />
    <path
       inkscape:connector-curvature="0"
       d="m 66.153391,216.38126 c -1.251317,-0.26509 -1.672458,1.08317 -1.526018,1.99525 l -0.145055,0.0615"
       style="fill:none;stroke:#000000;stroke-width:0.264583px;stroke-linecap:butt;stroke-linejoin:miter;stroke-opacity:1"
       id="path869" />
    <path
       inkscape:connector-curvature="0"
       d="m 66.838961,219.63771 c -0.248558,0.17928 -0.319386,0.49513 -0.437483,0.76013 -0.02847,0.12701 0.06986,0.2641 -0.0054,0.38486 -0.126546,0.30149 0.01281,0.63312 0.182748,0.88708 0.08797,0.13251 0.191058,0.25457 0.30297,0.36742"
       style="fill:none;stroke:#000000;stroke-width:0.264583px;stroke-linecap:butt;stroke-linejoin:miter;stroke-opacity:1"
       id="path871" />
    <path
       inkscape:connector-curvature="0"
       d="m 83.506868,220.36613 c 0.228621,-0.0723 0.528269,-0.0531 0.676565,-0.2748 0.124417,-0.12305 0.222024,-0.24325 0.300918,-0.40337 0.05558,-0.15494 0.04009,-0.33547 0.147404,-0.47014 0.07528,-0.18783 0.04163,-0.39743 0.05421,-0.59523 0.0063,-0.13842 -0.02208,-0.27205 -0.06505,-0.39884"
       style="fill:none;stroke:#000000;stroke-width:0.264583px;stroke-linecap:butt;stroke-linejoin:miter;stroke-opacity:1"
       id="path873" />
    <path
       inkscape:connector-curvature="0"
       d="m 80.164717,213.72467 c 0.812566,-0.18226 1.463905,0.52853 1.705553,1.23082 0.06572,0.13558 0.183883,0.27729 0.351158,0.26887"
       style="fill:none;stroke:#000000;stroke-width:0.264583px;stroke-linecap:butt;stroke-linejoin:miter;stroke-opacity:1"
       id="path875" />
    <path
       inkscape:connector-curvature="0"
       d="m 62.982633,222.16575 c -1.187775,0.39173 0.122297,2.06005 -0.985507,2.57084"
       style="fill:none;stroke:#000000;stroke-width:0.264583px;stroke-linecap:butt;stroke-linejoin:miter;stroke-opacity:1"
       id="path877" />
    <path
       inkscape:connector-curvature="0"
       d="m 66.024847,224.95087 c -0.802959,0.81154 -0.409731,2.17015 -0.728413,2.99936"
       style="fill:none;stroke:#000000;stroke-width:0.264583px;stroke-linecap:butt;stroke-linejoin:miter;stroke-opacity:1"
       id="path879" />
  </g>
</svg>
