<?xml version="1.0" encoding="UTF-8" standalone="no"?>
<!-- Created with Inkscape (http://www.inkscape.org/) -->

<svg
   xmlns:dc="http://purl.org/dc/elements/1.1/"
   xmlns:cc="http://creativecommons.org/ns#"
   xmlns:rdf="http://www.w3.org/1999/02/22-rdf-syntax-ns#"
   xmlns:svg="http://www.w3.org/2000/svg"
   xmlns="http://www.w3.org/2000/svg"
   xmlns:sodipodi="http://sodipodi.sourceforge.net/DTD/sodipodi-0.dtd"
   xmlns:inkscape="http://www.inkscape.org/namespaces/inkscape"
   width="150"
   height="150"
   viewBox="0 0 39.687498 39.6875"
   version="1.1"
   id="svg8"
   sodipodi:docname="split2.svg"
   inkscape:version="0.92.2 5c3e80d, 2017-08-06">
  <defs
     id="defs2" />
  <sodipodi:namedview
     id="base"
     pagecolor="#ffffff"
     bordercolor="#666666"
     borderopacity="1.0"
     inkscape:pageopacity="0.0"
     inkscape:pageshadow="2"
     inkscape:zoom="5.980709"
     inkscape:cx="56.584221"
     inkscape:cy="87.826314"
     inkscape:document-units="mm"
     inkscape:current-layer="g4578"
     showgrid="false"
     units="px"
     inkscape:window-width="1618"
     inkscape:window-height="871"
     inkscape:window-x="18"
     inkscape:window-y="25"
     inkscape:window-maximized="0"
     fit-margin-top="0"
     fit-margin-left="0"
     fit-margin-right="0"
     fit-margin-bottom="0" />
  <metadata
     id="metadata5">
    <rdf:RDF>
      <cc:Work
         rdf:about="">
        <dc:format>image/svg+xml</dc:format>
        <dc:type
           rdf:resource="http://purl.org/dc/dcmitype/StillImage" />
        <dc:title />
      </cc:Work>
    </rdf:RDF>
  </metadata>
  <g
     inkscape:label="Layer 1"
     inkscape:groupmode="layer"
     id="layer1"
     transform="translate(-54.198774,-200.14183)">
    <g
       id="g4578"
       transform="matrix(0.25548634,0,0,0.25548634,51.782645,166.50629)">
      <path
         sodipodi:nodetypes="ccccccccccccccccccccccccccccccccccccccccccccc"
         inkscape:connector-curvature="0"
         id="path853"
         d="m 87.770896,172.84702 c -9.74548,-8.88998 -22.657603,4.832 -27.713403,6.40807 -2.960849,2.86314 -7.585578,4.41595 -6.480483,8.44571 -3.688053,2.60205 -5.731262,1.14463 -7.022953,1.06798 -8.426009,5.32283 4.842566,5.80412 -3.095149,7.94291 -1.908026,0.25863 -2.424101,0.68635 0.709354,4.76634 -11.334716,0.0489 -1.169156,3.53653 -7.101415,5.69641 -1.100331,4.15438 1.814161,5.60848 -5.360649,4.31981 -3.26055,0.16088 -6.134875,7.04693 -1.515815,4.08311 3.71559,4.02728 2.271305,3.86821 5.96904,4.45708 -1.961376,2.27754 -4.992267,-3.22124 -6.304557,5.19962 2.332734,3.28737 -0.363039,2.01203 -4.441893,4.1765 4.187205,5.78993 5.320357,0.33191 11.756767,0.6582 -0.361012,2.50228 -6.475513,13.70638 1.551988,8.28752 -0.42039,-3.10436 6.30511,-11.79194 5.56319,-9.1039 -5.99047,5.68067 1.652107,6.28945 -1.654753,13.92004 5.80081,-4.31256 0.444233,-7.64211 4.922543,-12.06773 -5.78771,7.08634 8.950407,2.02467 1.630648,8.78985 -3.79216,5.7829 -2.144442,7.79445 2.978448,9.44231 4.236812,-1.29845 -6.391659,-1.37087 0.685614,-5.69733 3.237734,-3.99702 3.190376,-3.46848 4.538925,-5.1004 3.956254,7.04388 1.928392,15.0262 6.497899,8.48766 0.68826,-4.88794 -2.128774,-12.04418 4.038516,-15.00236 6.41612,-5.70249 -2.67549,-12.33785 0.44359,-18.88099 4.32421,-4.16501 16.278232,-18.69727 23.821672,-20.77623 -3.09684,5.93062 -2.88614,13.71616 -10e-4,19.65801 1.08149,2.62972 8.68862,6.52793 3.42066,1.55178 -3.87316,-6.32611 -4.403118,-15.20527 0.600092,-21.48703 1.91627,-2.50456 3.398392,-3.27101 4.179428,-0.71367 0.75079,6.65427 2.09928,13.03337 -3.74992,17.81614 -1.43347,1.534 5.58139,-5.13819 5.5902,-8.21662 0.90451,-5.19648 3.38309,-8.5072 3.76833,-13.75886 5.83181,1.56495 11.75089,13.63222 11.03693,20.24895 -1.57505,5.29106 2.85398,4.31927 4.1096,8.87489 2.4302,3.04154 2.8054,13.18857 4.89201,5.36854 -4.13841,-13.02238 1.21874,-3.15992 -0.69068,-12.02517 3.77677,-0.77905 3.92063,5.91886 3.92063,5.91886 -1.949,7.22205 2.67572,3.0997 5.94001,6.38627 1.82647,2.59128 -3.75058,7.25589 1.1076,3.52891 7.30539,-6.07463 -7.57886,-10.29443 -3.50229,-17.78437 -3.53599,-5.37855 0.68232,-3.66887 2.53151,-1.7262 -1.29443,-6.89229 -10.4255,-9.41605 -7.68944,-17.43982 -5.65211,-4.96436 -7.93915,-12.30097 -13.72841,-16.97384 -3.03139,-2.51541 -16.312416,-6.49585 -20.611006,-1.8638 z"
         style="fill:#ffffff;stroke:#000000;stroke-width:1.03723741;stroke-linecap:round;stroke-linejoin:round;stroke-miterlimit:4;stroke-dasharray:none;stroke-opacity:1" />
      <path
         style="opacity:0.2;fill:#000000;stroke:#000000;stroke-width:0.82601577px;stroke-linecap:butt;stroke-linejoin:miter;stroke-opacity:1"
         d="m 110.52674,173.20464 c 2.61751,2.02685 7.03575,4.10144 5.06691,8.16356 -0.15453,1.37985 1.27497,5.61985 -0.0518,5.06245 -2.48613,-2.82439 -3.07811,-8.15616 -7.23901,-8.71892 -3.27749,-1.83023 -6.33957,0.22553 -9.370876,0.82252 -1.076327,-1.9318 0.838137,-5.92803 3.454586,-6.49561 2.80056,-0.837 5.62063,-0.20706 8.14017,1.166 z"
         id="path862"
         inkscape:connector-curvature="0" />
      <path
         style="opacity:0.2;fill:#000000;stroke:#000000;stroke-width:1.03560662px;stroke-linecap:butt;stroke-linejoin:miter;stroke-opacity:1"
         d="m 115.00119,192.95923 c 2.2017,2.64224 4.14759,5.69809 3.98449,9.28111 0.51948,3.4023 -1.01467,7.5292 1.93146,10.11272 1.43784,0.87686 2.09837,5.59819 2.42012,1.33048 -0.82274,-2.72222 -1.73363,-5.83583 2.21456,-7.07866 3.03064,-0.87593 4.28519,2.24427 4.46853,4.67073 0.50821,-5.20909 -2.09438,-9.95924 -3.45718,-14.84311 -0.94469,-1.4703 -1.48347,-7.47389 -3.19876,-4.06431 -1.63074,3.35897 -3.61237,0.76672 -5.14233,-0.79351 -1.25576,0.63624 -0.96675,2.97892 -2.63146,0.96565 -0.948,-0.8078 -1.45273,-1.14467 -0.58943,0.4189 z"
         id="path2596"
         inkscape:connector-curvature="0"
         sodipodi:nodetypes="ccccccccccc" />
      <path
         style="fill:#000000;stroke:#000000;stroke-width:1.03723741;stroke-linecap:butt;stroke-linejoin:round;stroke-miterlimit:4;stroke-dasharray:none;stroke-opacity:1;opacity:0.2"
         d="m 44.694598,203.9648 c -4.831887,0.12678 -4.23535,6.33149 -6.307121,9.17096 -1.123168,1.53936 -5.518266,2.01449 -1.596684,3.2902 4.652097,1.51335 -0.510438,6.76107 1.085371,8.28383 2.34563,2.23826 6.441235,-8.54931 6.804901,-3.44706 0.153787,2.15764 -2.418699,7.07482 0.631514,3.26899 1.464232,-1.82696 7.054815,-8.78944 5.542337,-3.20046 -0.694463,2.56621 -3.33976,6.64734 0.891156,3.93766 3.777187,-2.41909 4.177211,1.52097 2.619006,4.47479 -2.043926,3.87459 2.15724,2.14744 2.932497,-0.54786 0.709902,-2.46808 3.251262,-9.10718 4.332229,-7.71158 2.759085,3.56216 -4.32985,10.00084 -1.35039,11.86291 4.468468,2.79266 5.246863,-6.17894 5.547715,-10.20955 0.342536,-4.58906 -2.803922,-9.59986 0.378072,-13.5044 2.073826,-2.54474 4.193187,-11.04493 0.825084,-9.85668 -1.789949,0.63149 -3.943833,8.41714 -4.150063,3.93903 -0.164388,-3.56954 -1.85613,-5.13941 -3.754466,-1.07729 -1.495723,3.2006 -0.295365,-7.59163 -3.536879,-3.0013 -1.564343,2.21528 -3.562492,12.1261 -5.266188,7.64446 -1.273687,-3.35049 6.001173,-7.04346 3.353964,-10.23314 -2.378469,-2.86587 -5.020091,7.72296 -5.325975,3.37916 -0.305651,-4.3405 -2.479485,-5.0084 -2.420913,-0.72044 0.01989,1.45584 0.557034,4.21074 -1.235167,4.25777 z"
         id="path2603"
         inkscape:connector-curvature="0"
         sodipodi:nodetypes="sssssssssssssssssssssss" />
      <path
         style="fill:#000000;stroke:#000000;stroke-width:1.03560662px;stroke-linecap:butt;stroke-linejoin:miter;stroke-opacity:1;opacity:0.2"
         d="m 68.71846,184.75568 c -1.637022,1.68242 -7.02607,4.70962 -6.160873,5.51391 2.381401,-1.29306 4.112093,0.49055 1.455179,1.93435 -3.294013,4.19203 4.193883,-0.79099 6.072188,-0.86344 0.750872,0.43416 -6.813892,4.84586 -2.114149,3.18728 2.371852,-0.76075 6.359052,-2.60643 3.105623,0.41097 -0.508866,0.80669 -3.767718,3.87996 -1.373409,2.29914 2.111391,-1.0554 6.942278,-4.5924 7.476082,-3.99477 -1.484532,1.59452 -4.582637,4.63307 -1.308659,1.96902 3.166668,-2.38352 6.333336,-4.76703 9.500004,-7.15055 -1.747849,0.62621 -4.057545,0.16257 -0.885593,-0.65981 1.630909,-0.9575 8.158513,-2.81105 6.665045,-3.38074 -2.048925,0 -4.09785,0 -6.146775,0 1.675611,-0.67696 7.261381,-3.14576 2.300095,-2.51666 -1.942244,0.0246 -9.374587,1.18329 -4.589712,-0.91295 1.917638,-1.07517 7.07659,-3.61489 2.108561,-1.69714 -1.90066,0.55036 -6.675627,2.74001 -6.883065,1.94085 1.980781,-1.15953 3.264758,-3.124 0.274403,-1.28662 -3.254054,1.54979 -6.767912,2.76253 -9.494945,5.20716 z"
         id="path2609"
         inkscape:connector-curvature="0" />
    </g>
  </g>
</svg>
