<?xml version="1.0" encoding="UTF-8" standalone="no"?>
<!-- Created with Inkscape (http://www.inkscape.org/) -->

<svg
   xmlns:dc="http://purl.org/dc/elements/1.1/"
   xmlns:cc="http://creativecommons.org/ns#"
   xmlns:rdf="http://www.w3.org/1999/02/22-rdf-syntax-ns#"
   xmlns:svg="http://www.w3.org/2000/svg"
   xmlns="http://www.w3.org/2000/svg"
   xmlns:sodipodi="http://sodipodi.sourceforge.net/DTD/sodipodi-0.dtd"
   xmlns:inkscape="http://www.inkscape.org/namespaces/inkscape"
   width="150"
   height="150"
   viewBox="0 0 39.687498 39.6875"
   version="1.1"
   id="svg8"
   sodipodi:docname="split2.svg"
   inkscape:version="0.92.2 5c3e80d, 2017-08-06">
  <defs
     id="defs2" />
  <sodipodi:namedview
     id="base"
     pagecolor="#ffffff"
     bordercolor="#666666"
     borderopacity="1.0"
     inkscape:pageopacity="0.0"
     inkscape:pageshadow="2"
     inkscape:zoom="0.52862499"
     inkscape:cx="101.41205"
     inkscape:cy="78.97176"
     inkscape:document-units="mm"
     inkscape:current-layer="g4578"
     showgrid="false"
     units="px"
     inkscape:window-width="1680"
     inkscape:window-height="925"
     inkscape:window-x="81"
     inkscape:window-y="34"
     inkscape:window-maximized="0"
     fit-margin-top="0"
     fit-margin-left="0"
     fit-margin-right="0"
     fit-margin-bottom="0" />
  <metadata
     id="metadata5">
    <rdf:RDF>
      <cc:Work
         rdf:about="">
        <dc:format>image/svg+xml</dc:format>
        <dc:type
           rdf:resource="http://purl.org/dc/dcmitype/StillImage" />
        <dc:title></dc:title>
      </cc:Work>
    </rdf:RDF>
  </metadata>
  <g
     inkscape:label="Layer 1"
     inkscape:groupmode="layer"
     id="layer1"
     transform="translate(-54.198774,-200.14183)">
    <g
       id="g4578"
       transform="matrix(0.25548634,0,0,0.25548634,51.782645,166.50629)">
      <path
         sodipodi:nodetypes="ccccccccccccccccccccccccccccccccccccccccccccccccccccccc"
         inkscape:connector-curvature="0"
         id="path853"
         d="m 87.770896,172.84702 c -9.74548,-8.88998 -22.657603,4.832 -27.713403,6.40807 -2.960849,2.86314 -4.035843,2.42463 -6.480483,8.44571 -6.87683,4.58339 -9.493942,-0.97817 -7.144342,-3.58848 -4.16762,4.65399 4.72792,10.84655 -2.97376,12.59937 -4.32868,4.34521 5.51103,0.28462 7.16024,4.22252 3.39854,2.24227 5.96307,-1.67345 8.83113,-3.02438 4.84169,-3.60203 -5.18227,4.39401 -7.41246,3.70772 -3.43045,-0.5597 -2.03191,4.99974 -6.23628,1.40582 -3.90526,0.47693 4.39097,5.47529 6.74944,2.50224 7.83065,-1.19608 -4.73911,0.67704 -6.78295,1.73541 -4.40624,4.70536 -10.25415,6.37899 -15.22502,3.13126 -3.26055,0.16088 -5.52267,4.59811 -0.90361,1.63429 3.71559,4.02728 6.25064,13.78594 13.98893,10.33425 -4.77752,2.27754 -13.19075,-5.70539 -14.50304,2.71547 1.85655,7.22671 -5.53164,4.64473 -9.95681,4.21183 5.39931,5.44361 12.42194,1.8012 18.85835,2.12749 6.34412,-6.40215 -3.79247,2.03682 -1.44172,5.32184 -1.38029,3.93061 -1.53003,4.10046 2.13662,1.61883 -0.42039,-3.10436 6.30511,-11.79194 5.56319,-9.1039 -5.99047,5.68067 3.81658,10.44524 1.28893,16.77714 5.80081,-4.31256 -2.49945,-10.49921 1.97886,-14.92483 -5.78771,7.08634 11.93738,9.47045 3.0592,16.58195 -3.79216,5.7829 3.54854,11.61728 8.67143,13.26514 3.60627,1.08021 6.06689,1.59679 1.63218,-1.36167 -3.54791,-1.9907 -9.91974,-9.10905 -2.52705,-10.06322 7.56668,-5.38229 -6.14125,-14.29626 4.4516,-17.82601 -0.788,-0.10617 -7.36518,6.25408 -1.61952,8.74562 3.39429,3.14721 -1.02945,11.51859 3.78922,4.41581 0.68826,-4.88794 -3.2543,-9.87971 2.91299,-12.83789 6.41612,-5.70249 -2.67549,-12.33785 0.44359,-18.88099 4.32421,-4.16501 16.278232,-18.69727 23.821672,-20.77623 -3.09684,5.93062 -2.88614,13.71616 -10e-4,19.65801 1.08149,2.62972 8.68862,6.52793 3.42066,1.55178 -3.87316,-6.32611 -4.22996,-16.93685 0.77325,-23.21861 1.91627,-2.50456 4.35076,-6.82074 4.17943,-0.71367 0.75079,6.65427 1.92612,14.76495 -3.92308,19.54772 -1.43347,1.534 5.58139,-5.13819 5.5902,-8.21662 0.90451,-5.19648 0.8723,-10.49852 1.25754,-15.75018 5.83181,1.56495 12.70326,11.98723 11.9893,18.60396 -1.57505,5.29106 5.10503,6.39716 6.36065,10.95278 2.4302,3.04154 0.55435,11.11068 2.64096,3.29065 -2.11065,-3.81908 -2.62142,-6.67882 1.89957,-2.62026 1.08738,-1.12335 -9.85606,-6.66177 -7.42404,-11.80278 3.11419,-4.03833 3.00818,-14.03012 -0.27437,-18.55423 2.53776,3.8456 4.33539,15.12757 0.27437,18.55423 7.37647,0.92304 7.56928,5.02231 7.62889,11.17383 -1.949,7.22205 5.35967,3.87891 8.62396,7.16548 1.82647,2.59128 -3.75058,7.25589 1.1076,3.52891 7.30539,-6.07463 -7.57886,-10.29443 -3.50229,-17.78437 -3.53599,-5.37855 0.68232,-3.66887 2.53151,-1.7262 -1.29443,-6.89229 -10.4255,-9.41605 -7.68944,-17.43982 -5.65211,-4.96436 -7.93915,-12.30097 -13.72841,-16.97384 -3.03139,-2.51541 -16.312416,-6.49585 -20.611006,-1.8638 z"
         style="fill:#ffffff;stroke:#000000;stroke-width:1.03560662px;stroke-linecap:butt;stroke-linejoin:miter;stroke-opacity:1" />
      <path
         style="opacity:0.2;fill:#000000;stroke:#000000;stroke-width:1.03560662px;stroke-linecap:butt;stroke-linejoin:miter;stroke-opacity:1"
         d="m 78.287786,188.89346 c -5.85397,3.84544 -17.812108,15.0605 -16.202888,22.79222 2.07605,6.06166 3.9703,17.31306 -5.92637,16.11473 -2.55642,-1.73014 -9.76395,3.74192 -8.91515,0.28494 1.81001,-6.75505 13.77749,-0.60426 10.79183,-9.85622 -4.34746,-2.10194 -0.71603,-7.9042 -1.61787,-9.81602 -5.7892,1.648 -2.22864,8.43963 -3.57324,10.94785 -4.32999,-0.2513 -3.21927,-9.65358 0.81056,-11.87299 5.33485,-1.8231 4.24819,-6.97721 -1.61684,-5.87042 -2.89656,-1.20204 6.09772,-3.29609 7.42944,-4.723 7.66762,-1.8378 13.409748,-14.91203 15.595138,-20.50043 9.346704,-2.53469 5.870669,21.58247 4.14003,13.61571 l -0.4443,-0.64414 z"
         id="path855"
         inkscape:connector-curvature="0"
         sodipodi:nodetypes="cccccccccccccc" />
      <path
         style="opacity:0.2;fill:#000000;stroke:#000000;stroke-width:1.03560662px;stroke-linecap:butt;stroke-linejoin:miter;stroke-opacity:1"
         d="m 105.0401,172.36349 c 2.86538,2.12829 8.95792,2.24096 8.315,7.08739 -0.62906,2.83719 2.83174,8.14717 2.13466,9.08374 -2.94166,-3.3795 -6.05562,-6.6143 -9.06439,-9.93745 -3.59859,0.20965 -7.707706,-1.44468 -10.781572,1.23638 -1.234192,0.6324 -5.279244,4.55047 -4.389049,1.24926 0.266172,-2.04065 0.532344,-4.0813 0.798516,-6.12195 2.594128,-2.25525 5.798391,-4.54373 9.417365,-3.29628 0.71875,0.0801 4.50998,1.0719 3.56947,0.69891 z"
         id="path862"
         inkscape:connector-curvature="0" />
    </g>
  </g>
</svg>
