<?xml version="1.0" encoding="UTF-8" standalone="no"?>
<!-- Created with Inkscape (http://www.inkscape.org/) -->

<svg
   xmlns:dc="http://purl.org/dc/elements/1.1/"
   xmlns:cc="http://creativecommons.org/ns#"
   xmlns:rdf="http://www.w3.org/1999/02/22-rdf-syntax-ns#"
   xmlns:svg="http://www.w3.org/2000/svg"
   xmlns="http://www.w3.org/2000/svg"
   xmlns:xlink="http://www.w3.org/1999/xlink"
   xmlns:sodipodi="http://sodipodi.sourceforge.net/DTD/sodipodi-0.dtd"
   xmlns:inkscape="http://www.inkscape.org/namespaces/inkscape"
   width="500"
   height="500"
   viewBox="0 0 132.29166 132.29167"
   version="1.1"
   id="svg8"
   sodipodi:docname="iron_armor.svg"
   inkscape:version="0.92.2 5c3e80d, 2017-08-06">
  <defs
     id="defs2">
    <linearGradient
       inkscape:collect="always"
       id="linearGradient996">
      <stop
         style="stop-color:#e8b46d;stop-opacity:1"
         offset="0"
         id="stop992" />
      <stop
         style="stop-color:#b07451;stop-opacity:1"
         offset="1"
         id="stop994" />
    </linearGradient>
    <linearGradient
       inkscape:collect="always"
       xlink:href="#linearGradient996"
       id="linearGradient998"
       x1="46.987164"
       y1="215.45163"
       x2="49.632999"
       y2="217.86122"
       gradientUnits="userSpaceOnUse"
       gradientTransform="matrix(8.9353321,0,0,8.9353321,-332.80805,-1667.8013)" />
  </defs>
  <sodipodi:namedview
     id="base"
     pagecolor="#ffffff"
     bordercolor="#666666"
     borderopacity="1.0"
     inkscape:pageopacity="0.0"
     inkscape:pageshadow="2"
     inkscape:zoom="0.64"
     inkscape:cx="-73.125314"
     inkscape:cy="135.15838"
     inkscape:document-units="mm"
     inkscape:current-layer="g977"
     showgrid="false"
     units="px"
     inkscape:window-width="1680"
     inkscape:window-height="925"
     inkscape:window-x="9"
     inkscape:window-y="0"
     inkscape:window-maximized="0"
     inkscape:snap-global="false"
     showguides="false" />
  <metadata
     id="metadata5">
    <rdf:RDF>
      <cc:Work
         rdf:about="">
        <dc:format>image/svg+xml</dc:format>
        <dc:type
           rdf:resource="http://purl.org/dc/dcmitype/StillImage" />
        <dc:title />
      </cc:Work>
    </rdf:RDF>
  </metadata>
  <g
     inkscape:label="Layer 1"
     inkscape:groupmode="layer"
     id="layer1"
     transform="translate(0,-164.70832)"
     style="display:inline">
    <g
       id="g977"
       transform="translate(15.916341,2.273763)"
       style="stroke-width:1.5875;stroke-miterlimit:4;stroke-dasharray:none">
      <path
         sodipodi:nodetypes="cccccccccc"
         inkscape:connector-curvature="0"
         id="path926"
         d="m 27.080988,174.44384 c 4.570201,-1.67797 8.184623,-1.20544 11.947733,-1.06746 -12.814905,25.07454 3.760511,27.97538 30.225341,3.02253 l 11.418457,3.58226 c -21.329598,23.67179 -14.871465,42.53184 12.53792,57.76398 l -6.612889,34.34163 -2.53304,11.557 C 67.537785,289.74024 30.105572,297.62093 19.471933,278.10275 9.6980317,254.67839 6.1339418,231.02403 7.7566285,207.17758 10.866291,192.93454 17.860299,182.57585 27.080988,174.44384 Z"
         style="fill:#666666;stroke:#000000;stroke-width:1.5875;stroke-linecap:butt;stroke-linejoin:miter;stroke-miterlimit:4;stroke-dasharray:none;stroke-opacity:1" />
      <path
         style="fill:#999999;stroke:#000000;stroke-width:1.5875;stroke-linecap:butt;stroke-linejoin:miter;stroke-miterlimit:4;stroke-dasharray:none;stroke-opacity:1"
         d="m 27.259046,175.70966 c 3.897229,-1.43088 5.126008,-0.70102 8.334995,-0.58336 -10.927886,21.38227 3.372763,31.35069 33.564831,4.15032 l 7.837291,2.10488 c -21.909182,23.58985 -10.769611,44.34728 12.603688,57.33646 l -5.751072,33.09092 -2.160048,9.85521 C 46.325914,291.78845 27.938475,288.90193 18.870658,272.25784 10.535983,252.28276 7.6550239,227.67872 9.0387717,207.3437 11.69053,195.19797 19.396119,182.64421 27.259046,175.70966 Z"
         id="path928"
         inkscape:connector-curvature="0"
         sodipodi:nodetypes="cccccccccc" />
      <path
         sodipodi:nodetypes="ccc"
         inkscape:connector-curvature="0"
         id="path930"
         d="M 86.874548,252.88098 C 53.436975,250.0397 31.54176,240.24119 28.614581,214.88535 c -6.139519,11.59857 -15.068959,18.2009 -19.4727533,17.7313"
         style="fill:none;stroke:#000000;stroke-width:1.5875;stroke-linecap:butt;stroke-linejoin:miter;stroke-miterlimit:4;stroke-dasharray:none;stroke-opacity:1" />
      <path
         inkscape:connector-curvature="0"
         id="path934"
         d="m 66.242266,184.19939 c -10.016151,6.82294 -20.027002,13.65384 -30.079878,20.42265 -0.867143,5.7845 -1.921418,11.65505 -0.621433,17.4672 0.352165,5.34214 2.809599,10.51342 7.675794,13.09631 6.989892,4.98241 15.445985,7.29088 23.342148,10.4401 -2.127967,-5.19973 -7.598476,-9.77385 -7.420885,-15.40467 1.660087,-9.75875 2.012934,-19.66374 2.557664,-29.51772 1.83468,-6.43041 6.652842,-11.65614 9.918978,-17.4497 1.363081,-1.90168 -3.060007,0.51896 -4.405234,0.64041 -0.322389,0.1018 -0.644771,0.20361 -0.967154,0.30542 z"
         style="fill:#ffffff;stroke:none;stroke-width:1.5875;stroke-linecap:butt;stroke-linejoin:miter;stroke-opacity:1;stroke-miterlimit:4;stroke-dasharray:none;opacity:0.687" />
      <path
         style="fill:none;stroke:#000000;stroke-width:1.5875;stroke-linecap:butt;stroke-linejoin:miter;stroke-miterlimit:4;stroke-dasharray:none;stroke-opacity:1"
         d="M 85.449709,263.32978 C 52.012136,260.4885 29.008714,253.85629 26.081534,228.50045 19.942016,240.09902 15.367206,243.53505 10.963412,243.06544"
         id="path939"
         inkscape:connector-curvature="0"
         sodipodi:nodetypes="ccc" />
      <path
         inkscape:connector-curvature="0"
         id="path943"
         d="m 17.09381,200.35959 6.262522,-3.81045 1.11945,4.81366 0.895569,6.49285 v 4.70172 l -1.007515,3.69421 -3.806151,4.03004 -3.918103,4.92561 -5.037548,4.03005 -1.9030843,0.44778 0.223899,-13.99321 2.2389133,-11.41846 z"
         style="fill:#1c2224;stroke:none;stroke-width:1.58749998;stroke-linecap:butt;stroke-linejoin:miter;stroke-miterlimit:4;stroke-dasharray:none;stroke-opacity:1;opacity:0.22"
         sodipodi:nodetypes="ccccccccccccc" />
      <path
         inkscape:connector-curvature="0"
         id="path945"
         d="m 11.042294,243.67827 2.798653,12.09014 5.373394,16.9038 4.813666,6.71674 8.731763,5.37339 8.283977,2.57475 10.970676,0.22389 12.985695,-2.12697 14.105158,-3.80615 3.134481,-1.11946 2.798647,-17.23963 -12.537914,-1.4553 -15.672395,-3.02253 -12.76182,-4.36588 -11.754292,-9.85122 -4.701719,-9.2915 -1.455297,-6.71674 -4.365873,7.61231 -7.164525,7.05258 z"
         style="opacity:0.22000002;fill:#000000;stroke:#000000;stroke-width:1.5875;stroke-linecap:butt;stroke-linejoin:miter;stroke-opacity:1;stroke-miterlimit:4;stroke-dasharray:none" />
      <path
         sodipodi:nodetypes="cccccc"
         inkscape:connector-curvature="0"
         id="path947"
         d="m 29.196528,245.70481 c 0.706735,3.27298 2.087307,19.99279 4.838525,22.85687 9.99211,5.45151 35.235917,1.39332 46.634799,0.51435 L 60.34123,264.39847 C 49.668261,263.50282 38.947039,259.58914 29.75064,245.94228 Z"
         style="opacity:0.653;fill:#ffffff;stroke:none;stroke-width:1.58749998;stroke-linecap:butt;stroke-linejoin:miter;stroke-miterlimit:4;stroke-dasharray:none;stroke-opacity:1" />
      <path
         style="fill:#000000;stroke:#000000;stroke-width:0.26458332px;stroke-linecap:butt;stroke-linejoin:miter;stroke-opacity:1;opacity:0.51702786"
         d="m 61.081543,190.95995 -9.715169,4.23747 -0.31006,5.27099 8.578289,6.20118 2.273763,19.53369 15.19287,3.10058 -6.614583,-12.50569 -3.100586,-19.7404 4.857586,-10.43864 z"
         id="path979"
         inkscape:connector-curvature="0" />
      <path
         style="fill:#000000;stroke:#000000;stroke-width:0.26458332px;stroke-linecap:butt;stroke-linejoin:miter;stroke-opacity:1;opacity:0.22"
         d="m 23.547676,243.27684 -0.438489,31.71738 -5.992686,-6.86967 -5.700357,-21.04747 6.138846,-2.04628 4.384892,-2.7771 1.753955,-3.50791 z"
         id="path981"
         inkscape:connector-curvature="0" />
      <path
         style="fill:#000000;stroke:#000000;stroke-width:0.26458332px;stroke-linecap:butt;stroke-linejoin:miter;stroke-opacity:1;opacity:0.502"
         d="m 28.955706,240.06126 2.192446,10.08524 12.131532,6.43118 22.655268,8.62361 10.962227,1.02315 6.138846,-0.43849 1.607794,-2.63094 -17.685726,-2.3386 -15.49328,-3.94641 -9.792923,-4.09256 -9.208272,-8.47746 z"
         id="path983"
         inkscape:connector-curvature="0" />
    </g>
    <g
       id="g965"
       transform="matrix(0.76216977,0.24611166,-0.3081432,0.95427184,93.566139,-7.1568493)"
       style="stroke-width:1.77138967;stroke-miterlimit:4;stroke-dasharray:none">
      <path
         sodipodi:nodetypes="cccccc"
         inkscape:connector-curvature="0"
         id="path909"
         d="m 66.165297,205.68542 c 13.541254,-11.43734 22.822297,-18.15498 41.628163,-20.37925 9.13955,6.64998 22.63675,18.34266 21.84451,26.31688 -18.70973,-5.52065 -37.479347,-0.99285 -53.332674,9.52744 l -9.351745,-16.39328 z"
         style="fill:#8c8c8c;fill-opacity:1;stroke:#000000;stroke-width:1.77138967;stroke-linecap:butt;stroke-linejoin:miter;stroke-miterlimit:4;stroke-dasharray:none;stroke-opacity:1" />
      <path
         style="fill:#b3b3b3;fill-opacity:1;stroke:#000000;stroke-width:1.77138967;stroke-linecap:butt;stroke-linejoin:miter;stroke-miterlimit:4;stroke-dasharray:none;stroke-opacity:1"
         d="m 52.393409,200.96161 c 15.753108,-13.30554 32.620336,-24.66139 54.497991,-27.24899 10.63242,7.73621 17.73485,15.94307 16.81319,25.21982 -21.76582,-6.42242 -38.374191,-2.67257 -56.817032,9.56613 l -13.914381,-6.08754 z"
         id="path911"
         inkscape:connector-curvature="0"
         sodipodi:nodetypes="cccccc" />
      <path
         inkscape:connector-curvature="0"
         id="path951"
         d="m 69.237767,189.71645 c 0.31663,-0.15831 36.333313,-14.64414 36.333313,-14.64414 l 12.66522,10.44879 1.1082,5.06609 -4.35366,-5.77851 -9.81554,-5.93681 -12.665217,2.84967 -16.22729,5.62018 z"
         style="fill:#f2f2f2;stroke:none;stroke-width:1.77138967;stroke-linecap:butt;stroke-linejoin:miter;stroke-opacity:1;stroke-miterlimit:4;stroke-dasharray:none" />
      <path
         inkscape:connector-curvature="0"
         id="path953"
         d="m 122.51081,200.08609 4.59113,8.07408 -2.84967,0.47494 -4.35367,-6.88671 -15.43573,-3.32462 14.565,1.34568 3.87872,0.55411 z"
         style="fill:#e6e6e6;stroke:none;stroke-width:1.77138967;stroke-linecap:butt;stroke-linejoin:miter;stroke-opacity:1;stroke-miterlimit:4;stroke-dasharray:none" />
      <path
         inkscape:connector-curvature="0"
         id="path955"
         d="m 69.633558,207.60606 2.533035,3.95788 8.232394,-6.96587 12.665215,-4.90776 c 0,0 5.303552,-2.21642 5.620182,-2.21642 0.31663,0 7.124166,-1.34568 7.124166,-1.34568 l -2.05808,-0.39578 -11.873643,1.26652 -12.586047,4.19535 -6.649235,3.95788 z"
         style="opacity:0.22000002;fill:#000000;stroke:none;stroke-width:1.77138967;stroke-linecap:butt;stroke-linejoin:miter;stroke-opacity:1;stroke-miterlimit:4;stroke-dasharray:none" />
      <path
         inkscape:connector-curvature="0"
         id="path957"
         d="m 93.222505,188.29162 -15.277403,4.67029 -8.628175,5.85766 -3.007987,4.51198 -0.633255,3.72041 1.345678,0.63326 11.398673,-5.93682 11.161221,-4.27451 9.498917,-7.20334 8.707316,-1.74146 -7.51996,-1.34568 z"
         style="opacity:0.22000002;fill:#000000;stroke:none;stroke-width:1.77138967;stroke-linecap:butt;stroke-linejoin:miter;stroke-opacity:1;stroke-miterlimit:4;stroke-dasharray:none" />
    </g>
  </g>
</svg>
